<svg xmlns="http://www.w3.org/2000/svg" width="49" height="48" fill="none">
  <path stroke="#7EBBE5" stroke-linejoin="round" stroke-width="2.8125" d="M14.7012 20.2097c.1178 1.1346.8438 2.0782 1.8802 2.5546 2.1519.989 5.9298 2.5703 8.0852 2.5703s5.9333-1.5813 8.0852-2.5703c1.0364-.4764 1.7624-1.42 1.8802-2.5546.1158-1.1137.2266-2.778.2266-5.0671 0-2.2892-.1108-3.9533-.2266-5.0672-.1178-1.13449-.8438-2.0782-1.8802-2.55455-2.1519-.98893-5.9298-2.57029-8.0852-2.57029s-5.9333 1.58136-8.0852 2.57029c-1.0364.47635-1.7624 1.42006-1.8802 2.55455-.1158 1.1139-.2266 2.778-.2266 5.0672 0 2.2891.1108 3.9534.2266 5.0671Z"/>
  <path stroke="#7EBBE5" stroke-linejoin="round" stroke-width="2.8125" d="M14.4746 9.02771s8.1341 4.07679 10.192 4.07679 10.192-4.07679 10.192-4.07679"/>
  <path stroke="#7EBBE5" stroke-linecap="round" stroke-linejoin="round" stroke-width="2.8125" d="M24.6667 13.1045v12.2304"/>
  <path stroke="#7EBBE5" stroke-linejoin="round" stroke-width="2.8125" d="M4.50907 37.9241c.11793 1.1346.84389 2.0783 1.88036 2.5546 2.15187.989 5.92977 2.5703 8.08517 2.5703 2.1554 0 5.9333-1.5813 8.0852-2.5703 1.0364-.4763 1.7624-1.42 1.8802-2.5546.1158-1.1138.2266-2.7779.2266-5.0671s-.1108-3.9534-.2266-5.0671c-.1178-1.1346-.8438-2.0783-1.8802-2.5546-2.1519-.989-5.9298-2.5703-8.0852-2.5703s-5.9333 1.5813-8.08517 2.5703c-1.03647.4763-1.76243 1.42-1.88036 2.5546-.1157 1.1137-.22648 2.7779-.22648 5.0671s.11078 3.9533.22648 5.0671Z"/>
  <path stroke="#7EBBE5" stroke-linejoin="round" stroke-width="2.8125" d="M4.28259 26.7422S12.4167 30.819 14.4746 30.819s10.192-4.0768 10.192-4.0768"/>
  <path stroke="#7EBBE5" stroke-linecap="round" stroke-linejoin="round" stroke-width="2.8125" d="M14.4746 30.8191v12.2304"/>
  <path stroke="#7EBBE5" stroke-linejoin="round" stroke-width="2.8125" d="M24.8933 37.9241c.1179 1.1346.8438 2.0783 1.8803 2.5546 2.1519.989 5.9297 2.5703 8.0851 2.5703s5.9333-1.5813 8.0852-2.5703c1.0365-.4763 1.7624-1.42 1.8803-2.5546.1158-1.1138.2265-2.7779.2265-5.0671s-.1107-3.9534-.2265-5.0671c-.1179-1.1346-.8438-2.0783-1.8803-2.5546-2.1519-.989-5.9298-2.5703-8.0852-2.5703s-5.9332 1.5813-8.0851 2.5703c-1.0365.4763-1.7624 1.42-1.8803 2.5546-.1158 1.1137-.2266 2.7779-.2266 5.0671s.1108 3.9533.2266 5.0671Z"/>
  <path stroke="#7EBBE5" stroke-linejoin="round" stroke-width="2.8125" d="M24.6667 26.7422s8.1341 4.0768 10.192 4.0768 10.192-4.0768 10.192-4.0768"/>
  <path stroke="#7EBBE5" stroke-linecap="round" stroke-linejoin="round" stroke-width="2.8125" d="M34.8588 30.8191v12.2304"/>
</svg>
