<svg xmlns="http://www.w3.org/2000/svg" width="32" height="33" fill="none">
  <path fill="#7EBBE5" d="M16 2.83301c-7.73375 0-14 6.26625-14 13.99999 0 7.7338 6.26625 14 14 14 7.7337 0 14-6.2662 14-14 0-7.73374-6.2663-13.99999-14-13.99999ZM10.6875 22.9511c-.0859.1466-.2089.2679-.3566.3518-.1476.0839-.3148.1275-.48465.1264-.17311.0015-.34322-.0453-.49125-.135-.11022-.0639-.20674-.1489-.28402-.2502-.07728-.1013-.1338-.2168-.16632-.34-.03252-.1231-.0404-.2515-.02318-.3777.01722-.1262.0592-.2478.12352-.3578l.95562-1.5887c.04828-.082.11718-.15.19988-.1971.0826-.0472.1762-.0719.2714-.0717h.1412c.6931 0 1.1782.4169 1.3194.8207l-1.205 2.0193Zm8.0906-3.125-6.2581.0069H8.36063c-.13087.0006-.26048-.0255-.38098-.0765-.1205-.0511-.22938-.1261-.32002-.2204-.09065-.0944-.16118-.2062-.20731-.3287-.04614-.1225-.06691-.253-.06107-.3838.02-.525.47812-.9225 1-.9225h3.01495l3.5744-6.0843-1.1575-1.97192c-.2606-.44937-.145-1.04187.3019-1.32437.1102-.07125.2336-.11949.3629-.14181.1293-.02232.2618-.01827.3894.01191.1277.03019.248.08588.3536.16373.1056.07785.1944.17625.261.28929l.6187 1.05688h.0069l.6194-1.05688c.0667-.11245.1553-.21032.2606-.28778.1053-.07747.2252-.13293.3524-.16308.1272-.03016.2591-.03439.388-.01244.1289.02195.252.06962.3621.14018.4444.2825.5588.875.2962 1.32625l-1.1574 1.97184-1.125 1.9182-2.4432 4.1662v.0069h3.6006c.4513 0 1.0169.2425 1.2457.6325l.02.0406c.2019.3431.3162.5788.3162.9219-.0033.1114-.0281.2211-.0731.3231l-.0019-.0019Zm4.8594.0069h-1.6944v.0069l1.2388 2.1069c.1332.2219.174.4872.1136.7388-.0605.2517-.2173.4696-.4368.6068-.1521.0927-.3268.1418-.5049.1419-.1694-.0001-.3359-.044-.4833-.1275-.1475-.0834-.2708-.2036-.358-.3488l-1.8306-3.1162-1.1375-1.9375-1.4675-2.5088c-.2126-.3582-.3281-.7656-.3352-1.1821-.0072-.4165.0944-.8276.2945-1.1929.29-.5119.5119-.6462.5119-.6462l3.2644 5.5212h2.8069c.525 0 .9756.4038 1 .9219.005.1317-.0166.2631-.0636.3863-.047.1231-.1184.2355-.21.3304-.0915.0948-.2013.1702-.3227.2216-.1214.0514-.2519.0777-.3837.0773h-.0019Z"/>
</svg>
