<svg xmlns="http://www.w3.org/2000/svg" width="48" height="48" fill="none">
  <g stroke="#7EBBE5" stroke-linecap="round" stroke-linejoin="round" stroke-width="2.81" clip-path="url(#a)">
    <path d="M24.0001 42c-4.7739 0-9.3523-1.8964-12.728-5.2721C7.89648 33.3523 6.00006 28.7739 6.00006 24s1.89642-9.3523 5.27204-12.7279C14.6478 7.89642 19.2262 6 24.0001 6c9.94 0 18 7.164 18 16 0 2.12-.948 4.156-2.636 5.656-1.688 1.5-3.978 2.344-6.364 2.344h-5c-.8923-.0144-1.7638.27-2.4758.808s-1.2237 1.2986-1.4536 2.1608c-.23.8623-.165 1.7767.1847 2.5977.3496.8211.9637 1.5017 1.7447 1.9335.3993.3685.6731.8528.783 1.3849.1099.5322.0504 1.0853-.1703 1.5819-.2207.4965-.5914.9114-1.06 1.1864-.4686.275-1.0116.3963-1.5527.3468Z"/>
    <path d="M15.0001 20.9999c0 .5304.2107 1.0391.5857 1.4142.3751.3751.8838.5858 1.4143.5858.5304 0 1.0391-.2107 1.4142-.5858.375-.3751.5858-.8838.5858-1.4142 0-.5305-.2108-1.0392-.5858-1.4142-.3751-.3751-.8838-.5858-1.4142-.5858-.5305 0-1.0392.2107-1.4143.5858-.375.375-.5857.8837-.5857 1.4142Zm7.9999-6c0 .5304.2107 1.0391.5858 1.4142.375.3751.8837.5858 1.4142.5858.5304 0 1.0391-.2107 1.4142-.5858S27 15.5303 27 14.9999c0-.5305-.2107-1.0392-.5858-1.4142-.3751-.3751-.8838-.5858-1.4142-.5858-.5305 0-1.0392.2107-1.4142.5858-.3751.375-.5858.8837-.5858 1.4142Zm8.0002 6c0 .5304.2107 1.0391.5857 1.4142.3751.3751.8838.5858 1.4143.5858.5304 0 1.0391-.2107 1.4142-.5858.375-.3751.5858-.8838.5858-1.4142 0-.5305-.2108-1.0392-.5858-1.4142-.3751-.3751-.8838-.5858-1.4142-.5858-.5305 0-1.0392.2107-1.4143.5858-.375.375-.5857.8837-.5857 1.4142Z"/>
  </g>
  <defs>
    <clipPath id="a">
      <path fill="#fff" d="M0 0h48v48H0z"/>
    </clipPath>
  </defs>
</svg>
