<svg xmlns="http://www.w3.org/2000/svg" width="48" height="48" fill="none">
  <path stroke="#7EBBE5" stroke-linecap="round" stroke-linejoin="round" stroke-width="2.8125" d="M34.6546 8.21429c-.5126-1.87943-2.1265-3.237-4.1536-3.38279C28.1276 4.66064 24.6176 4.5 19.8215 4.5c-4.7672 0-8.2624.15879-10.63488.32871-2.37436.169-4.18971 1.98343-4.35871 4.35872-.16993 2.37247-.32779 5.86857-.32779 10.63397 0 4.7961.16157 8.3052.3315 10.6786.14579 2.0271 1.50429 3.6419 3.38279 4.1535"/>
  <path stroke="#7EBBE5" stroke-linecap="round" stroke-linejoin="round" stroke-width="2.8125" d="M13.1861 17.5436c.169-2.3744 1.9835-4.1879 4.3587-4.3578 2.3716-.1709 5.8677-.3287 10.6341-.3287 4.7663 0 8.2615.1587 10.634.3287 2.3752.169 4.1897 1.9834 4.3587 4.3587.1699 2.3725.3287 5.8686.3287 10.634 0 4.7663-.1588 8.2615-.3287 10.6349-.169 2.3744-1.9835 4.1879-4.3587 4.3578-2.3725.1699-5.8686.3287-10.634.3287-4.7664 0-8.2615-.1588-10.635-.3287-2.3743-.169-4.1878-1.9834-4.3578-4.3587-.1708-2.3716-.3287-5.8677-.3287-10.634 0-4.7664.1588-8.2615.3287-10.6349Z"/>
  <path stroke="#7EBBE5" stroke-linecap="round" stroke-linejoin="round" stroke-width="2.8125" d="M43.3572 35.5041c-2.0939-1.963-3.6028-3.2704-4.6503-4.1266-1.2424-1.0167-2.8804-1.1644-4.2185-.272-1.0307.6871-2.4458 1.7364-4.2946 3.3233-2.7486-2.6288-4.6429-4.2807-5.8853-5.2975s-2.8804-1.1635-4.2185-.272c-1.5043 1.0028-3.8285 2.7782-7.1203 5.8667m18.4591-12.5832c0 .7388.2935 1.4473.8159 1.9698.5225.5224 1.231.8159 1.9698.8159.7389 0 1.4474-.2935 1.9698-.8159.5225-.5225.816-1.231.816-1.9698 0-.7388-.2935-1.4474-.816-1.9698-.5224-.5225-1.2309-.8159-1.9698-.8159-.7388 0-1.4473.2934-1.9698.8159-.5224.5224-.8159 1.231-.8159 1.9698Z"/>
</svg>
