<svg xmlns="http://www.w3.org/2000/svg" width="32" height="33" fill="none">
  <path fill="#7EBBE5" d="M3 4.55132V29.1138c.00016.0533.01606.1054.04569.1497.02963.0443.07168.0788.12087.0993.04919.0205.10334.026.15566.0158.05231-.0101.10046-.0355.1384-.0729L16.25 16.8332 3.46062 4.35944c-.03794-.03741-.08609-.06279-.1384-.07295-.05232-.01016-.10647-.00464-.15566.01585s-.09124.05505-.12087.09934c-.02963.04429-.04553.09635-.04569.14964Zm18.6125 7.15688L5.57625 2.87319l-.01-.00562c-.27625-.15-.53875.22375-.3125.44125L17.8244 15.3288l3.7881-3.6206ZM5.255 30.3576c-.2275.2175.035.5912.3125.4412l.01-.0056 16.035-8.835-3.7881-3.6219L5.255 30.3576Zm22.8313-15.0869-4.4782-2.4663-4.2106 4.0288 4.2106 4.0269 4.4782-2.4644c1.2181-.6731 1.2181-2.4519 0-3.125Z"/>
</svg>
