<svg xmlns="http://www.w3.org/2000/svg" width="49" height="48" fill="none">
  <path stroke="#7EBBE5" stroke-linecap="round" stroke-linejoin="round" stroke-width="2.8125" d="M43.6364 21.2143C42.2844 11.7642 34.1576 4.5 24.3333 4.5 14.509 4.5 6.384 11.7642 5.03107 21.2143m22.08803 22.088c1.5272-.2179 3.0229-.6175 4.4552-1.1905m-10.0267 1.1905c-1.5376-.2192-3.0431-.623-4.484-1.2025m26.5729-15.314c-.2183 1.5269-.6183 3.0223-1.1914 4.4543M5.03113 26.7858c.22193 1.5507.62585 3.0438 1.19043 4.4543m6.04964 8.0823c-1.219-.9609-2.31961-2.0631-3.27879-3.2834m30.68279 0c-.9658 1.2286-2.0749 2.3375-3.3039 3.3029"/>
  <path stroke="#7EBBE5" stroke-linecap="round" stroke-linejoin="round" stroke-width="2.8125" d="M21.3117 26.5944c-2.0709-.2501-4.1327-.5715-6.1815-.9638-1.339-.26-1.845-1.8163-.9332-2.8312 2.3326-2.5973 6.5056-7.0618 11.0222-11.0343 1.1978-1.053 3.0039-.13 2.8934 1.4616-.2321 3.3401-.5042 6.0608-.7568 8.1789 2.5536.312 4.6512.6685 6.1806.9638 1.3399.26 1.8451 1.8163.9341 2.8312-2.3325 2.5963-6.5055 7.0618-11.0221 11.0343-1.1979 1.053-3.0039.13-2.8934-1.4616.2321-3.3401.5032-6.0608.7567-8.1789Z"/>
</svg>
