<svg xmlns="http://www.w3.org/2000/svg" width="48" height="48" fill="none">
  <path stroke="#7EBBE5" stroke-linecap="round" stroke-linejoin="round" stroke-width="2.8125" d="M21.9941 4.60499c1.1933-.12412 2.2603.68198 2.2503 1.88172-.0063.77037-.1178 1.72284-.4644 2.78103-.3062.93476-1.2178 1.47956-2.1851 1.65756-3.6978.6807-7.0851 2.9173-9.1125 6.4288-2.88005 4.9885-2.1598 11.0675 1.3545 15.228.7978-.6139 1.4873-1.1145 2.0741-1.5206 1.2757-.883 2.7987-.0578 2.7766 1.4935-.0346 2.4273-.3154 5.0652-.6231 7.2774-.1892 1.3609-1.3728 2.3541-2.7459 2.3042-2.2495-.0818-4.9202-.2655-7.33149-.6592-1.51426-.2474-2.05685-1.858-.97875-2.9497.54408-.551 1.22349-1.2053 2.06609-1.9673-5.13515-6.1014-6.18241-15.0022-1.96441-22.308C10.3592 8.62476 15.99 5.22954 21.9941 4.60499Zm4.0116 38.78941c-1.1933.124-2.2603-.6821-2.2504-1.8818.0064-.7703.1179-1.7229.4646-2.7811.3061-.9347 1.2177-1.4795 2.185-1.6576 3.6978-.6806 7.0852-2.9172 9.1125-6.4287 2.8801-4.9884 2.1598-11.0675-1.3546-15.2281-.7977.614-1.4872 1.1147-2.074 1.5208-1.2757.8829-2.7987.0577-2.7766-1.4936.0346-2.4273.3154-5.0652.623-7.27739.1893-1.36085 1.3729-2.35405 2.7459-2.30415 2.2496.08175 4.9203.26542 7.3316.6592 1.5142.2473 2.0568 1.85798.9787 2.9497-.544.55094-1.2235 1.20524-2.066 1.96724 5.1351 6.1014 6.1824 15.0022 1.9644 22.308-3.2492 5.6277-8.8801 9.0229-14.8841 9.6475Z"/>
</svg>
