<svg width="493" height="269" viewBox="0 0 493 269" fill="none" xmlns="http://www.w3.org/2000/svg">
<rect x="0.000488281" width="493" height="269" fill="#0F0F15"/>
<rect x="1.00049" y="1" width="491" height="267" stroke="white" stroke-opacity="0.13" stroke-width="2"/>
<mask id="path-3-inside-1_393_234" fill="white">
<path d="M55.0005 34H438V86H55.0005V34Z"/>
</mask>
<path d="M438 85H55.0005V87H438V85Z" fill="white" fill-opacity="0.13" mask="url(#path-3-inside-1_393_234)"/>
<path d="M79.1259 68V66.194H83.1789C84.2569 66.194 85.2019 65.963 86.0139 65.501C86.8259 65.025 87.4559 64.374 87.9039 63.548C88.3659 62.722 88.5969 61.77 88.5969 60.692C88.5969 59.628 88.3659 58.683 87.9039 57.857C87.4419 57.031 86.8049 56.387 85.9929 55.925C85.1809 55.463 84.2429 55.232 83.1789 55.232H79.1469V53.426H83.2209C84.2849 53.426 85.2649 53.608 86.1609 53.972C87.0709 54.336 87.8549 54.847 88.5129 55.505C89.1849 56.163 89.7029 56.933 90.0669 57.815C90.4449 58.697 90.6339 59.663 90.6339 60.713C90.6339 61.749 90.4449 62.715 90.0669 63.611C89.7029 64.493 89.1919 65.263 88.5339 65.921C87.8759 66.579 87.0919 67.09 86.1819 67.454C85.2859 67.818 84.3129 68 83.2629 68H79.1259ZM77.8239 68V53.426H79.7979V68H77.8239ZM98.0729 68.21C97.0789 68.21 96.1829 67.986 95.3849 67.538C94.5869 67.076 93.9569 66.453 93.4949 65.669C93.0329 64.885 92.8019 63.996 92.8019 63.002C92.8019 62.022 93.0259 61.14 93.4739 60.356C93.9359 59.572 94.5519 58.956 95.3219 58.508C96.1059 58.046 96.9809 57.815 97.9469 57.815C98.8709 57.815 99.6829 58.025 100.383 58.445C101.097 58.865 101.65 59.446 102.042 60.188C102.448 60.93 102.651 61.77 102.651 62.708C102.651 62.848 102.644 63.002 102.63 63.17C102.616 63.324 102.588 63.506 102.546 63.716H94.1249V62.141H101.538L100.845 62.75C100.845 62.078 100.726 61.511 100.488 61.049C100.25 60.573 99.9139 60.209 99.4799 59.957C99.0459 59.691 98.5209 59.558 97.9049 59.558C97.2609 59.558 96.6939 59.698 96.2039 59.978C95.7139 60.258 95.3359 60.65 95.0699 61.154C94.8039 61.658 94.6709 62.253 94.6709 62.939C94.6709 63.639 94.8109 64.255 95.0909 64.787C95.3709 65.305 95.7699 65.711 96.2879 66.005C96.8059 66.285 97.4009 66.425 98.0729 66.425C98.6329 66.425 99.1439 66.327 99.6059 66.131C100.082 65.935 100.488 65.641 100.824 65.249L102.042 66.488C101.566 67.048 100.978 67.475 100.278 67.769C99.5919 68.063 98.8569 68.21 98.0729 68.21ZM109.689 68.21C108.709 68.21 107.82 67.979 107.022 67.517C106.238 67.055 105.615 66.432 105.153 65.648C104.705 64.85 104.481 63.968 104.481 63.002C104.481 62.022 104.705 61.14 105.153 60.356C105.615 59.572 106.238 58.956 107.022 58.508C107.82 58.046 108.709 57.815 109.689 57.815C110.459 57.815 111.173 57.962 111.831 58.256C112.489 58.536 113.056 58.949 113.532 59.495L112.272 60.755C111.964 60.391 111.586 60.118 111.138 59.936C110.704 59.74 110.221 59.642 109.689 59.642C109.059 59.642 108.499 59.789 108.009 60.083C107.519 60.363 107.134 60.755 106.854 61.259C106.574 61.763 106.434 62.344 106.434 63.002C106.434 63.66 106.574 64.241 106.854 64.745C107.134 65.249 107.519 65.648 108.009 65.942C108.499 66.236 109.059 66.383 109.689 66.383C110.221 66.383 110.704 66.292 111.138 66.11C111.586 65.914 111.971 65.634 112.293 65.27L113.532 66.53C113.07 67.062 112.503 67.475 111.831 67.769C111.173 68.063 110.459 68.21 109.689 68.21ZM122.21 68L117.548 62.897L122.168 58.025H124.457L119.312 63.401L119.396 62.309L124.646 68H122.21ZM115.826 68V53.006H117.716V68H115.826Z" fill="white"/>
<path d="M229.322 68V53.426H230.708L231.296 55.715V68H229.322ZM239.402 68L230.456 56.051L230.708 53.426L239.675 65.354L239.402 68ZM239.402 68L238.814 65.837V53.426H240.788V68H239.402ZM248.935 68.21C247.941 68.21 247.045 67.986 246.247 67.538C245.449 67.076 244.819 66.453 244.357 65.669C243.895 64.885 243.664 63.996 243.664 63.002C243.664 62.022 243.888 61.14 244.336 60.356C244.798 59.572 245.414 58.956 246.184 58.508C246.968 58.046 247.843 57.815 248.809 57.815C249.733 57.815 250.545 58.025 251.245 58.445C251.959 58.865 252.512 59.446 252.904 60.188C253.31 60.93 253.513 61.77 253.513 62.708C253.513 62.848 253.506 63.002 253.492 63.17C253.478 63.324 253.45 63.506 253.408 63.716H244.987V62.141H252.4L251.707 62.75C251.707 62.078 251.588 61.511 251.35 61.049C251.112 60.573 250.776 60.209 250.342 59.957C249.908 59.691 249.383 59.558 248.767 59.558C248.123 59.558 247.556 59.698 247.066 59.978C246.576 60.258 246.198 60.65 245.932 61.154C245.666 61.658 245.533 62.253 245.533 62.939C245.533 63.639 245.673 64.255 245.953 64.787C246.233 65.305 246.632 65.711 247.15 66.005C247.668 66.285 248.263 66.425 248.935 66.425C249.495 66.425 250.006 66.327 250.468 66.131C250.944 65.935 251.35 65.641 251.686 65.249L252.904 66.488C252.428 67.048 251.84 67.475 251.14 67.769C250.454 68.063 249.719 68.21 248.935 68.21ZM258.727 68L254.779 58.025H256.753L259.609 65.795H258.979L261.814 58.025H262.906L265.741 65.795H265.111L267.967 58.025H269.941L266.014 68H264.901L262.024 60.461H262.717L259.819 68H258.727Z" fill="white"/>
<path d="M292.326 68V53.426H294.3V68H292.326ZM293.67 68V66.194H301.482V68H293.67ZM308.187 68.21C307.193 68.21 306.297 67.986 305.499 67.538C304.701 67.076 304.071 66.453 303.609 65.669C303.147 64.885 302.916 63.996 302.916 63.002C302.916 62.022 303.14 61.14 303.588 60.356C304.05 59.572 304.666 58.956 305.436 58.508C306.22 58.046 307.095 57.815 308.061 57.815C308.985 57.815 309.797 58.025 310.497 58.445C311.211 58.865 311.764 59.446 312.156 60.188C312.562 60.93 312.765 61.77 312.765 62.708C312.765 62.848 312.758 63.002 312.744 63.17C312.73 63.324 312.702 63.506 312.66 63.716H304.239V62.141H311.652L310.959 62.75C310.959 62.078 310.84 61.511 310.602 61.049C310.364 60.573 310.028 60.209 309.594 59.957C309.16 59.691 308.635 59.558 308.019 59.558C307.375 59.558 306.808 59.698 306.318 59.978C305.828 60.258 305.45 60.65 305.184 61.154C304.918 61.658 304.785 62.253 304.785 62.939C304.785 63.639 304.925 64.255 305.205 64.787C305.485 65.305 305.884 65.711 306.402 66.005C306.92 66.285 307.515 66.425 308.187 66.425C308.747 66.425 309.258 66.327 309.72 66.131C310.196 65.935 310.602 65.641 310.938 65.249L312.156 66.488C311.68 67.048 311.092 67.475 310.392 67.769C309.706 68.063 308.971 68.21 308.187 68.21ZM319.487 68.21C318.577 68.21 317.751 67.986 317.009 67.538C316.267 67.076 315.679 66.453 315.245 65.669C314.825 64.885 314.615 64.003 314.615 63.023C314.615 62.043 314.825 61.161 315.245 60.377C315.679 59.593 316.26 58.97 316.988 58.508C317.73 58.046 318.563 57.815 319.487 57.815C320.243 57.815 320.915 57.976 321.503 58.298C322.105 58.606 322.588 59.04 322.952 59.6C323.316 60.146 323.519 60.783 323.561 61.511V64.514C323.519 65.228 323.316 65.865 322.952 66.425C322.602 66.985 322.126 67.426 321.524 67.748C320.936 68.056 320.257 68.21 319.487 68.21ZM319.802 66.425C320.74 66.425 321.496 66.11 322.07 65.48C322.644 64.836 322.931 64.017 322.931 63.023C322.931 62.337 322.798 61.742 322.532 61.238C322.28 60.72 321.916 60.321 321.44 60.041C320.964 59.747 320.411 59.6 319.781 59.6C319.151 59.6 318.591 59.747 318.101 60.041C317.625 60.335 317.247 60.741 316.967 61.259C316.701 61.763 316.568 62.344 316.568 63.002C316.568 63.674 316.701 64.269 316.967 64.787C317.247 65.291 317.632 65.69 318.122 65.984C318.612 66.278 319.172 66.425 319.802 66.425ZM322.805 68V65.312L323.162 62.876L322.805 60.461V58.025H324.716V68H322.805ZM327.888 68V58.025H329.778V68H327.888ZM329.778 62.309L329.064 61.994C329.064 60.72 329.358 59.705 329.946 58.949C330.534 58.193 331.381 57.815 332.487 57.815C332.991 57.815 333.446 57.906 333.852 58.088C334.258 58.256 334.636 58.543 334.986 58.949L333.747 60.23C333.537 60.006 333.306 59.845 333.054 59.747C332.802 59.649 332.508 59.6 332.172 59.6C331.472 59.6 330.898 59.824 330.45 60.272C330.002 60.72 329.778 61.399 329.778 62.309ZM343.834 68V62.183C343.834 61.427 343.596 60.804 343.12 60.314C342.644 59.824 342.028 59.579 341.272 59.579C340.768 59.579 340.32 59.691 339.928 59.915C339.536 60.139 339.228 60.447 339.004 60.839C338.78 61.231 338.668 61.679 338.668 62.183L337.891 61.742C337.891 60.986 338.059 60.314 338.395 59.726C338.731 59.138 339.2 58.676 339.802 58.34C340.404 57.99 341.083 57.815 341.839 57.815C342.595 57.815 343.26 58.004 343.834 58.382C344.422 58.76 344.884 59.257 345.22 59.873C345.556 60.475 345.724 61.119 345.724 61.805V68H343.834ZM336.778 68V58.025H338.668V68H336.778Z" fill="white"/>
<path d="M372.372 68V66.194H376.425C377.503 66.194 378.448 65.963 379.26 65.501C380.072 65.025 380.702 64.374 381.15 63.548C381.612 62.722 381.843 61.77 381.843 60.692C381.843 59.628 381.612 58.683 381.15 57.857C380.688 57.031 380.051 56.387 379.239 55.925C378.427 55.463 377.489 55.232 376.425 55.232H372.393V53.426H376.467C377.531 53.426 378.511 53.608 379.407 53.972C380.317 54.336 381.101 54.847 381.759 55.505C382.431 56.163 382.949 56.933 383.313 57.815C383.691 58.697 383.88 59.663 383.88 60.713C383.88 61.749 383.691 62.715 383.313 63.611C382.949 64.493 382.438 65.263 381.78 65.921C381.122 66.579 380.338 67.09 379.428 67.454C378.532 67.818 377.559 68 376.509 68H372.372ZM371.07 68V53.426H373.044V68H371.07ZM390.71 68.21C389.898 68.21 389.163 68.028 388.505 67.664C387.861 67.286 387.357 66.768 386.993 66.11C386.629 65.452 386.447 64.689 386.447 63.821V58.025H388.337V63.737C388.337 64.283 388.428 64.759 388.61 65.165C388.806 65.557 389.086 65.858 389.45 66.068C389.814 66.278 390.241 66.383 390.731 66.383C391.473 66.383 392.054 66.152 392.474 65.69C392.894 65.214 393.104 64.563 393.104 63.737V58.025H394.994V63.821C394.994 64.689 394.812 65.452 394.448 66.11C394.084 66.768 393.58 67.286 392.936 67.664C392.306 68.028 391.564 68.21 390.71 68.21ZM402.567 68.21C401.573 68.21 400.677 67.986 399.879 67.538C399.081 67.076 398.451 66.453 397.989 65.669C397.527 64.885 397.296 63.996 397.296 63.002C397.296 62.022 397.52 61.14 397.968 60.356C398.43 59.572 399.046 58.956 399.816 58.508C400.6 58.046 401.475 57.815 402.441 57.815C403.365 57.815 404.177 58.025 404.877 58.445C405.591 58.865 406.144 59.446 406.536 60.188C406.942 60.93 407.145 61.77 407.145 62.708C407.145 62.848 407.138 63.002 407.124 63.17C407.11 63.324 407.082 63.506 407.04 63.716H398.619V62.141H406.032L405.339 62.75C405.339 62.078 405.22 61.511 404.982 61.049C404.744 60.573 404.408 60.209 403.974 59.957C403.54 59.691 403.015 59.558 402.399 59.558C401.755 59.558 401.188 59.698 400.698 59.978C400.208 60.258 399.83 60.65 399.564 61.154C399.298 61.658 399.165 62.253 399.165 62.939C399.165 63.639 399.305 64.255 399.585 64.787C399.865 65.305 400.264 65.711 400.782 66.005C401.3 66.285 401.895 66.425 402.567 66.425C403.127 66.425 403.638 66.327 404.1 66.131C404.576 65.935 404.982 65.641 405.318 65.249L406.536 66.488C406.06 67.048 405.472 67.475 404.772 67.769C404.086 68.063 403.351 68.21 402.567 68.21Z" fill="white"/>
<path d="M77.3301 117.47V116.525H83.4651V117.47H77.3301ZM79.9101 113.78H80.8851V120.2H79.9101V113.78ZM94.2344 122.135C93.5044 122.135 92.8244 122 92.1944 121.73C91.5644 121.46 91.0144 121.085 90.5444 120.605C90.0744 120.125 89.7094 119.565 89.4494 118.925C89.1894 118.275 89.0594 117.575 89.0594 116.825C89.0594 116.075 89.1894 115.38 89.4494 114.74C89.7194 114.1 90.0894 113.54 90.5594 113.06C91.0294 112.57 91.5844 112.19 92.2244 111.92C92.8644 111.65 93.5594 111.515 94.3094 111.515C95.1394 111.515 95.8994 111.68 96.5894 112.01C97.2894 112.34 97.8644 112.805 98.3144 113.405L97.5494 114.17C97.1894 113.66 96.7294 113.27 96.1694 113C95.6094 112.72 94.9894 112.58 94.3094 112.58C93.4994 112.58 92.7844 112.765 92.1644 113.135C91.5444 113.495 91.0594 113.995 90.7094 114.635C90.3694 115.275 90.1994 116.01 90.1994 116.84C90.1994 117.66 90.3694 118.39 90.7094 119.03C91.0594 119.67 91.5344 120.175 92.1344 120.545C92.7444 120.905 93.4344 121.085 94.2044 121.085C94.9744 121.085 95.6394 120.93 96.1994 120.62C96.7694 120.31 97.2044 119.86 97.5044 119.27C97.8144 118.68 97.9744 117.97 97.9844 117.14L98.6144 117.605H94.0994V116.6H99.1244V116.765C99.1244 117.925 98.9144 118.905 98.4944 119.705C98.0844 120.505 97.5144 121.11 96.7844 121.52C96.0544 121.93 95.2044 122.135 94.2344 122.135ZM104.471 122.15C103.761 122.15 103.126 121.99 102.566 121.67C102.006 121.35 101.561 120.91 101.231 120.35C100.911 119.79 100.751 119.16 100.751 118.46C100.751 117.77 100.911 117.15 101.231 116.6C101.551 116.04 101.986 115.6 102.536 115.28C103.086 114.96 103.701 114.8 104.381 114.8C105.021 114.8 105.586 114.945 106.076 115.235C106.576 115.525 106.966 115.93 107.246 116.45C107.536 116.96 107.681 117.55 107.681 118.22C107.681 118.3 107.676 118.395 107.666 118.505C107.656 118.605 107.636 118.725 107.606 118.865H101.501V117.965H107.036L106.661 118.295C106.671 117.775 106.581 117.33 106.391 116.96C106.211 116.58 105.946 116.29 105.596 116.09C105.256 115.88 104.841 115.775 104.351 115.775C103.841 115.775 103.396 115.885 103.016 116.105C102.636 116.325 102.336 116.635 102.116 117.035C101.906 117.425 101.801 117.89 101.801 118.43C101.801 118.97 101.911 119.445 102.131 119.855C102.361 120.265 102.676 120.585 103.076 120.815C103.486 121.045 103.956 121.16 104.486 121.16C104.916 121.16 105.311 121.085 105.671 120.935C106.031 120.775 106.336 120.54 106.586 120.23L107.261 120.92C106.931 121.31 106.521 121.615 106.031 121.835C105.551 122.045 105.031 122.15 104.471 122.15ZM112.782 122.15C112.102 122.15 111.482 121.985 110.922 121.655C110.372 121.325 109.932 120.88 109.602 120.32C109.282 119.76 109.122 119.135 109.122 118.445C109.122 117.765 109.282 117.15 109.602 116.6C109.932 116.05 110.372 115.615 110.922 115.295C111.482 114.965 112.102 114.8 112.782 114.8C113.472 114.8 114.092 114.96 114.642 115.28C115.192 115.6 115.627 116.04 115.947 116.6C116.277 117.15 116.442 117.765 116.442 118.445C116.442 119.145 116.277 119.775 115.947 120.335C115.627 120.885 115.192 121.325 114.642 121.655C114.092 121.985 113.472 122.15 112.782 122.15ZM112.782 121.13C113.282 121.13 113.722 121.015 114.102 120.785C114.492 120.555 114.797 120.235 115.017 119.825C115.247 119.415 115.362 118.955 115.362 118.445C115.362 117.935 115.247 117.485 115.017 117.095C114.797 116.695 114.492 116.38 114.102 116.15C113.722 115.92 113.282 115.805 112.782 115.805C112.292 115.805 111.852 115.92 111.462 116.15C111.072 116.38 110.767 116.695 110.547 117.095C110.327 117.485 110.217 117.935 110.217 118.445C110.217 118.965 110.327 119.43 110.547 119.84C110.767 120.24 111.072 120.555 111.462 120.785C111.852 121.015 112.292 121.13 112.782 121.13ZM121.323 125.12C120.613 125.12 119.978 124.985 119.418 124.715C118.868 124.455 118.423 124.085 118.083 123.605L118.773 122.915C119.053 123.295 119.408 123.59 119.838 123.8C120.268 124.01 120.773 124.115 121.353 124.115C122.153 124.115 122.788 123.9 123.258 123.47C123.738 123.04 123.978 122.455 123.978 121.715V119.96L124.188 118.355L123.978 116.765V114.95H125.028V121.715C125.028 122.395 124.873 122.99 124.563 123.5C124.253 124.01 123.818 124.405 123.258 124.685C122.708 124.975 122.063 125.12 121.323 125.12ZM121.398 121.925C120.748 121.925 120.163 121.77 119.643 121.46C119.123 121.15 118.713 120.725 118.413 120.185C118.113 119.645 117.963 119.035 117.963 118.355C117.963 117.675 118.108 117.07 118.398 116.54C118.698 116 119.108 115.575 119.628 115.265C120.148 114.955 120.733 114.8 121.383 114.8C121.933 114.8 122.423 114.905 122.853 115.115C123.293 115.325 123.643 115.625 123.903 116.015C124.173 116.395 124.338 116.845 124.398 117.365V119.36C124.338 119.87 124.173 120.32 123.903 120.71C123.633 121.09 123.283 121.39 122.853 121.61C122.423 121.82 121.938 121.925 121.398 121.925ZM121.593 120.92C122.083 120.92 122.508 120.815 122.868 120.605C123.238 120.395 123.523 120.1 123.723 119.72C123.933 119.33 124.038 118.875 124.038 118.355C124.038 117.845 123.933 117.4 123.723 117.02C123.523 116.64 123.238 116.34 122.868 116.12C122.498 115.9 122.068 115.79 121.578 115.79C121.088 115.79 120.648 115.9 120.258 116.12C119.878 116.34 119.578 116.64 119.358 117.02C119.148 117.4 119.043 117.845 119.043 118.355C119.043 118.855 119.153 119.3 119.373 119.69C119.593 120.08 119.893 120.385 120.273 120.605C120.653 120.815 121.093 120.92 121.593 120.92ZM127.443 122V114.95H128.493V122H127.443ZM128.493 117.89L128.058 117.695C128.058 116.805 128.273 116.1 128.703 115.58C129.143 115.06 129.743 114.8 130.503 114.8C130.853 114.8 131.173 114.865 131.463 114.995C131.753 115.115 132.023 115.31 132.273 115.58L131.583 116.315C131.413 116.125 131.223 115.99 131.013 115.91C130.813 115.83 130.583 115.79 130.323 115.79C129.783 115.79 129.343 115.97 129.003 116.33C128.663 116.68 128.493 117.2 128.493 117.89ZM136.501 122.15C135.831 122.15 135.231 121.99 134.701 121.67C134.171 121.34 133.751 120.9 133.441 120.35C133.141 119.8 132.991 119.18 132.991 118.49C132.991 117.79 133.141 117.165 133.441 116.615C133.751 116.055 134.171 115.615 134.701 115.295C135.231 114.965 135.826 114.8 136.486 114.8C137.026 114.8 137.506 114.91 137.926 115.13C138.356 115.34 138.701 115.64 138.961 116.03C139.231 116.41 139.396 116.855 139.456 117.365V119.57C139.396 120.08 139.231 120.53 138.961 120.92C138.701 121.31 138.356 121.615 137.926 121.835C137.506 122.045 137.031 122.15 136.501 122.15ZM136.666 121.145C137.396 121.145 137.981 120.9 138.421 120.41C138.871 119.92 139.096 119.275 139.096 118.475C139.096 117.945 138.991 117.48 138.781 117.08C138.581 116.67 138.296 116.355 137.926 116.135C137.566 115.905 137.141 115.79 136.651 115.79C136.151 115.79 135.706 115.905 135.316 116.135C134.936 116.365 134.631 116.685 134.401 117.095C134.181 117.495 134.071 117.955 134.071 118.475C134.071 118.995 134.181 119.455 134.401 119.855C134.631 120.255 134.941 120.57 135.331 120.8C135.721 121.03 136.166 121.145 136.666 121.145ZM139.036 122V120.11L139.246 118.37L139.036 116.675V114.95H140.086V122H139.036ZM146.161 122.15C145.621 122.15 145.136 122.04 144.706 121.82C144.276 121.6 143.921 121.3 143.641 120.92C143.371 120.53 143.206 120.08 143.146 119.57V117.365C143.206 116.845 143.376 116.395 143.656 116.015C143.936 115.625 144.291 115.325 144.721 115.115C145.161 114.905 145.641 114.8 146.161 114.8C146.811 114.8 147.396 114.965 147.916 115.295C148.436 115.615 148.846 116.055 149.146 116.615C149.456 117.165 149.611 117.79 149.611 118.49C149.611 119.18 149.461 119.8 149.161 120.35C148.861 120.9 148.446 121.34 147.916 121.67C147.396 121.99 146.811 122.15 146.161 122.15ZM145.981 121.145C146.481 121.145 146.921 121.035 147.301 120.815C147.681 120.585 147.976 120.27 148.186 119.87C148.406 119.46 148.516 118.995 148.516 118.475C148.516 117.945 148.406 117.48 148.186 117.08C147.976 116.68 147.681 116.365 147.301 116.135C146.921 115.905 146.486 115.79 145.996 115.79C145.506 115.79 145.071 115.905 144.691 116.135C144.321 116.365 144.031 116.68 143.821 117.08C143.611 117.48 143.506 117.945 143.506 118.475C143.506 118.995 143.611 119.46 143.821 119.87C144.031 120.27 144.321 120.585 144.691 120.815C145.061 121.035 145.491 121.145 145.981 121.145ZM142.516 124.97V114.95H143.566V116.75L143.356 118.46L143.566 120.185V124.97H142.516ZM156.72 122V117.86C156.72 117.24 156.535 116.74 156.165 116.36C155.805 115.97 155.325 115.775 154.725 115.775C154.315 115.775 153.955 115.865 153.645 116.045C153.335 116.225 153.09 116.47 152.91 116.78C152.73 117.09 152.64 117.445 152.64 117.845L152.16 117.575C152.16 117.045 152.285 116.57 152.535 116.15C152.785 115.73 153.12 115.4 153.54 115.16C153.97 114.92 154.46 114.8 155.01 114.8C155.55 114.8 156.03 114.925 156.45 115.175C156.87 115.415 157.195 115.75 157.425 116.18C157.665 116.61 157.785 117.11 157.785 117.68V122H156.72ZM151.59 122V111.38H152.64V122H151.59ZM162.404 122.03L159.314 114.95H160.469L162.959 120.86H162.524L165.149 114.95H166.319L163.004 122.03H162.404ZM160.484 124.97L162.419 120.965L163.004 122.03L161.639 124.97H160.484Z" fill="white"/>
<path d="M239.866 121.145L243.706 117.095C244.096 116.695 244.401 116.35 244.621 116.06C244.841 115.76 244.996 115.485 245.086 115.235C245.186 114.985 245.236 114.725 245.236 114.455C245.236 113.925 245.066 113.51 244.726 113.21C244.386 112.91 243.946 112.76 243.406 112.76C242.876 112.76 242.411 112.89 242.011 113.15C241.611 113.4 241.256 113.79 240.946 114.32L239.956 113.495C240.366 112.815 240.861 112.305 241.441 111.965C242.021 111.615 242.691 111.44 243.451 111.44C244.091 111.44 244.646 111.565 245.116 111.815C245.596 112.065 245.966 112.415 246.226 112.865C246.486 113.315 246.616 113.84 246.616 114.44C246.616 114.87 246.561 115.255 246.451 115.595C246.351 115.935 246.166 116.285 245.896 116.645C245.636 116.995 245.271 117.415 244.801 117.905L241.696 121.1L239.866 121.145ZM239.866 122V121.145L241.066 120.74H246.856V122H239.866ZM252.736 122.15C251.956 122.15 251.241 121.93 250.591 121.49C249.951 121.05 249.441 120.43 249.061 119.63C248.681 118.82 248.491 117.87 248.491 116.78C248.491 115.69 248.676 114.745 249.046 113.945C249.426 113.145 249.936 112.53 250.576 112.1C251.216 111.66 251.921 111.44 252.691 111.44C253.481 111.44 254.196 111.66 254.836 112.1C255.476 112.53 255.981 113.145 256.351 113.945C256.731 114.745 256.921 115.695 256.921 116.795C256.921 117.885 256.731 118.835 256.351 119.645C255.981 120.445 255.476 121.065 254.836 121.505C254.206 121.935 253.506 122.15 252.736 122.15ZM252.706 120.815C253.256 120.815 253.736 120.665 254.146 120.365C254.566 120.055 254.896 119.6 255.136 119C255.376 118.4 255.496 117.66 255.496 116.78C255.496 115.9 255.376 115.165 255.136 114.575C254.896 113.975 254.566 113.525 254.146 113.225C253.726 112.915 253.241 112.76 252.691 112.76C252.151 112.76 251.671 112.915 251.251 113.225C250.831 113.525 250.501 113.975 250.261 114.575C250.031 115.165 249.916 115.9 249.916 116.78C249.916 117.66 250.031 118.4 250.261 119C250.501 119.6 250.831 120.055 251.251 120.365C251.671 120.665 252.156 120.815 252.706 120.815Z" fill="#968CA8"/>
<path d="M318.529 122.15C317.749 122.15 317.034 121.93 316.384 121.49C315.744 121.05 315.234 120.43 314.854 119.63C314.474 118.82 314.284 117.87 314.284 116.78C314.284 115.69 314.469 114.745 314.839 113.945C315.219 113.145 315.729 112.53 316.369 112.1C317.009 111.66 317.714 111.44 318.484 111.44C319.274 111.44 319.989 111.66 320.629 112.1C321.269 112.53 321.774 113.145 322.144 113.945C322.524 114.745 322.714 115.695 322.714 116.795C322.714 117.885 322.524 118.835 322.144 119.645C321.774 120.445 321.269 121.065 320.629 121.505C319.999 121.935 319.299 122.15 318.529 122.15ZM318.499 120.815C319.049 120.815 319.529 120.665 319.939 120.365C320.359 120.055 320.689 119.6 320.929 119C321.169 118.4 321.289 117.66 321.289 116.78C321.289 115.9 321.169 115.165 320.929 114.575C320.689 113.975 320.359 113.525 319.939 113.225C319.519 112.915 319.034 112.76 318.484 112.76C317.944 112.76 317.464 112.915 317.044 113.225C316.624 113.525 316.294 113.975 316.054 114.575C315.824 115.165 315.709 115.9 315.709 116.78C315.709 117.66 315.824 118.4 316.054 119C316.294 119.6 316.624 120.055 317.044 120.365C317.464 120.665 317.949 120.815 318.499 120.815Z" fill="#8B9297"/>
<path d="M379.655 122V111.59H381.05V122H379.655ZM377.525 112.85V111.59H380.9V112.85H377.525ZM383.056 121.145L386.896 117.095C387.286 116.695 387.591 116.35 387.811 116.06C388.031 115.76 388.186 115.485 388.276 115.235C388.376 114.985 388.426 114.725 388.426 114.455C388.426 113.925 388.256 113.51 387.916 113.21C387.576 112.91 387.136 112.76 386.596 112.76C386.066 112.76 385.601 112.89 385.201 113.15C384.801 113.4 384.446 113.79 384.136 114.32L383.146 113.495C383.556 112.815 384.051 112.305 384.631 111.965C385.211 111.615 385.881 111.44 386.641 111.44C387.281 111.44 387.836 111.565 388.306 111.815C388.786 112.065 389.156 112.415 389.416 112.865C389.676 113.315 389.806 113.84 389.806 114.44C389.806 114.87 389.751 115.255 389.641 115.595C389.541 115.935 389.356 116.285 389.086 116.645C388.826 116.995 388.461 117.415 387.991 117.905L384.886 121.1L383.056 121.145ZM383.056 122V121.145L384.256 120.74H390.046V122H383.056ZM391.471 118.415L395.266 111.59H396.856L392.986 118.415H391.471ZM391.471 119.285V118.415L392.071 118.025H399.451V119.285H391.471ZM396.556 122V115.115H397.951V122H396.556Z" fill="#7EBBE5"/>
<path d="M77.1147 150.7V149.695H81.8997V150.7H77.1147ZM91.6144 154V143.68H92.7094V154H91.6144ZM92.3344 154V152.995H98.0194V154H92.3344ZM102.659 154.15C101.989 154.15 101.389 153.99 100.859 153.67C100.329 153.34 99.9089 152.9 99.5989 152.35C99.2989 151.8 99.1489 151.18 99.1489 150.49C99.1489 149.79 99.2989 149.165 99.5989 148.615C99.9089 148.055 100.329 147.615 100.859 147.295C101.389 146.965 101.984 146.8 102.644 146.8C103.184 146.8 103.664 146.91 104.084 147.13C104.514 147.34 104.859 147.64 105.119 148.03C105.389 148.41 105.554 148.855 105.614 149.365V151.57C105.554 152.08 105.389 152.53 105.119 152.92C104.859 153.31 104.514 153.615 104.084 153.835C103.664 154.045 103.189 154.15 102.659 154.15ZM102.824 153.145C103.554 153.145 104.139 152.9 104.579 152.41C105.029 151.92 105.254 151.275 105.254 150.475C105.254 149.945 105.149 149.48 104.939 149.08C104.739 148.67 104.454 148.355 104.084 148.135C103.724 147.905 103.299 147.79 102.809 147.79C102.309 147.79 101.864 147.905 101.474 148.135C101.094 148.365 100.789 148.685 100.559 149.095C100.339 149.495 100.229 149.955 100.229 150.475C100.229 150.995 100.339 151.455 100.559 151.855C100.789 152.255 101.099 152.57 101.489 152.8C101.879 153.03 102.324 153.145 102.824 153.145ZM105.194 154V152.11L105.404 150.37L105.194 148.675V146.95H106.244V154H105.194ZM113.803 154V149.86C113.803 149.24 113.618 148.74 113.248 148.36C112.888 147.97 112.408 147.775 111.808 147.775C111.398 147.775 111.038 147.865 110.728 148.045C110.418 148.225 110.173 148.47 109.993 148.78C109.813 149.09 109.723 149.445 109.723 149.845L109.243 149.575C109.243 149.045 109.368 148.57 109.618 148.15C109.868 147.73 110.203 147.4 110.623 147.16C111.053 146.92 111.543 146.8 112.093 146.8C112.633 146.8 113.113 146.93 113.533 147.19C113.953 147.45 114.278 147.8 114.508 148.24C114.748 148.68 114.868 149.16 114.868 149.68V154H113.803ZM108.673 154V146.95H109.723V154H108.673ZM120.042 157.12C119.332 157.12 118.697 156.985 118.137 156.715C117.587 156.455 117.142 156.085 116.802 155.605L117.492 154.915C117.772 155.295 118.127 155.59 118.557 155.8C118.987 156.01 119.492 156.115 120.072 156.115C120.872 156.115 121.507 155.9 121.977 155.47C122.457 155.04 122.697 154.455 122.697 153.715V151.96L122.907 150.355L122.697 148.765V146.95H123.747V153.715C123.747 154.395 123.592 154.99 123.282 155.5C122.972 156.01 122.537 156.405 121.977 156.685C121.427 156.975 120.782 157.12 120.042 157.12ZM120.117 153.925C119.467 153.925 118.882 153.77 118.362 153.46C117.842 153.15 117.432 152.725 117.132 152.185C116.832 151.645 116.682 151.035 116.682 150.355C116.682 149.675 116.827 149.07 117.117 148.54C117.417 148 117.827 147.575 118.347 147.265C118.867 146.955 119.452 146.8 120.102 146.8C120.652 146.8 121.142 146.905 121.572 147.115C122.012 147.325 122.362 147.625 122.622 148.015C122.892 148.395 123.057 148.845 123.117 149.365V151.36C123.057 151.87 122.892 152.32 122.622 152.71C122.352 153.09 122.002 153.39 121.572 153.61C121.142 153.82 120.657 153.925 120.117 153.925ZM120.312 152.92C120.802 152.92 121.227 152.815 121.587 152.605C121.957 152.395 122.242 152.1 122.442 151.72C122.652 151.33 122.757 150.875 122.757 150.355C122.757 149.845 122.652 149.4 122.442 149.02C122.242 148.64 121.957 148.34 121.587 148.12C121.217 147.9 120.787 147.79 120.297 147.79C119.807 147.79 119.367 147.9 118.977 148.12C118.597 148.34 118.297 148.64 118.077 149.02C117.867 149.4 117.762 149.845 117.762 150.355C117.762 150.855 117.872 151.3 118.092 151.69C118.312 152.08 118.612 152.385 118.992 152.605C119.372 152.815 119.812 152.92 120.312 152.92ZM128.953 154.15C128.383 154.15 127.873 154.02 127.423 153.76C126.973 153.49 126.618 153.125 126.358 152.665C126.108 152.205 125.983 151.665 125.983 151.045V146.95H127.048V151C127.048 151.43 127.123 151.805 127.273 152.125C127.433 152.445 127.658 152.695 127.948 152.875C128.238 153.055 128.573 153.145 128.953 153.145C129.543 153.145 130.008 152.95 130.348 152.56C130.698 152.17 130.873 151.65 130.873 151V146.95H131.923V151.045C131.923 151.655 131.798 152.195 131.548 152.665C131.298 153.135 130.948 153.5 130.498 153.76C130.048 154.02 129.533 154.15 128.953 154.15ZM137.243 154.15C136.573 154.15 135.973 153.99 135.443 153.67C134.913 153.34 134.493 152.9 134.183 152.35C133.883 151.8 133.733 151.18 133.733 150.49C133.733 149.79 133.883 149.165 134.183 148.615C134.493 148.055 134.913 147.615 135.443 147.295C135.973 146.965 136.568 146.8 137.228 146.8C137.768 146.8 138.248 146.91 138.668 147.13C139.098 147.34 139.443 147.64 139.703 148.03C139.973 148.41 140.138 148.855 140.198 149.365V151.57C140.138 152.08 139.973 152.53 139.703 152.92C139.443 153.31 139.098 153.615 138.668 153.835C138.248 154.045 137.773 154.15 137.243 154.15ZM137.408 153.145C138.138 153.145 138.723 152.9 139.163 152.41C139.613 151.92 139.838 151.275 139.838 150.475C139.838 149.945 139.733 149.48 139.523 149.08C139.323 148.67 139.038 148.355 138.668 148.135C138.308 147.905 137.883 147.79 137.393 147.79C136.893 147.79 136.448 147.905 136.058 148.135C135.678 148.365 135.373 148.685 135.143 149.095C134.923 149.495 134.813 149.955 134.813 150.475C134.813 150.995 134.923 151.455 135.143 151.855C135.373 152.255 135.683 152.57 136.073 152.8C136.463 153.03 136.908 153.145 137.408 153.145ZM139.778 154V152.11L139.988 150.37L139.778 148.675V146.95H140.828V154H139.778ZM146.167 157.12C145.457 157.12 144.822 156.985 144.262 156.715C143.712 156.455 143.267 156.085 142.927 155.605L143.617 154.915C143.897 155.295 144.252 155.59 144.682 155.8C145.112 156.01 145.617 156.115 146.197 156.115C146.997 156.115 147.632 155.9 148.102 155.47C148.582 155.04 148.822 154.455 148.822 153.715V151.96L149.032 150.355L148.822 148.765V146.95H149.872V153.715C149.872 154.395 149.717 154.99 149.407 155.5C149.097 156.01 148.662 156.405 148.102 156.685C147.552 156.975 146.907 157.12 146.167 157.12ZM146.242 153.925C145.592 153.925 145.007 153.77 144.487 153.46C143.967 153.15 143.557 152.725 143.257 152.185C142.957 151.645 142.807 151.035 142.807 150.355C142.807 149.675 142.952 149.07 143.242 148.54C143.542 148 143.952 147.575 144.472 147.265C144.992 146.955 145.577 146.8 146.227 146.8C146.777 146.8 147.267 146.905 147.697 147.115C148.137 147.325 148.487 147.625 148.747 148.015C149.017 148.395 149.182 148.845 149.242 149.365V151.36C149.182 151.87 149.017 152.32 148.747 152.71C148.477 153.09 148.127 153.39 147.697 153.61C147.267 153.82 146.782 153.925 146.242 153.925ZM146.437 152.92C146.927 152.92 147.352 152.815 147.712 152.605C148.082 152.395 148.367 152.1 148.567 151.72C148.777 151.33 148.882 150.875 148.882 150.355C148.882 149.845 148.777 149.4 148.567 149.02C148.367 148.64 148.082 148.34 147.712 148.12C147.342 147.9 146.912 147.79 146.422 147.79C145.932 147.79 145.492 147.9 145.102 148.12C144.722 148.34 144.422 148.64 144.202 149.02C143.992 149.4 143.887 149.845 143.887 150.355C143.887 150.855 143.997 151.3 144.217 151.69C144.437 152.08 144.737 152.385 145.117 152.605C145.497 152.815 145.937 152.92 146.437 152.92ZM155.543 154.15C154.833 154.15 154.198 153.99 153.638 153.67C153.078 153.35 152.633 152.91 152.303 152.35C151.983 151.79 151.823 151.16 151.823 150.46C151.823 149.77 151.983 149.15 152.303 148.6C152.623 148.04 153.058 147.6 153.608 147.28C154.158 146.96 154.773 146.8 155.453 146.8C156.093 146.8 156.658 146.945 157.148 147.235C157.648 147.525 158.038 147.93 158.318 148.45C158.608 148.96 158.753 149.55 158.753 150.22C158.753 150.3 158.748 150.395 158.738 150.505C158.728 150.605 158.708 150.725 158.678 150.865H152.573V149.965H158.108L157.733 150.295C157.743 149.775 157.653 149.33 157.463 148.96C157.283 148.58 157.018 148.29 156.668 148.09C156.328 147.88 155.913 147.775 155.423 147.775C154.913 147.775 154.468 147.885 154.088 148.105C153.708 148.325 153.408 148.635 153.188 149.035C152.978 149.425 152.873 149.89 152.873 150.43C152.873 150.97 152.983 151.445 153.203 151.855C153.433 152.265 153.748 152.585 154.148 152.815C154.558 153.045 155.028 153.16 155.558 153.16C155.988 153.16 156.383 153.085 156.743 152.935C157.103 152.775 157.408 152.54 157.658 152.23L158.333 152.92C158.003 153.31 157.593 153.615 157.103 153.835C156.623 154.045 156.103 154.15 155.543 154.15ZM162.819 154.15C162.439 154.15 162.074 154.1 161.724 154C161.374 153.89 161.054 153.74 160.764 153.55C160.484 153.36 160.239 153.135 160.029 152.875L160.704 152.185C160.984 152.525 161.299 152.78 161.649 152.95C162.009 153.11 162.409 153.19 162.849 153.19C163.319 153.19 163.684 153.1 163.944 152.92C164.214 152.74 164.349 152.49 164.349 152.17C164.349 151.87 164.254 151.635 164.064 151.465C163.874 151.295 163.629 151.16 163.329 151.06C163.039 150.96 162.729 150.865 162.399 150.775C162.069 150.675 161.754 150.555 161.454 150.415C161.154 150.265 160.909 150.06 160.719 149.8C160.539 149.54 160.449 149.2 160.449 148.78C160.449 148.38 160.544 148.035 160.734 147.745C160.934 147.445 161.214 147.215 161.574 147.055C161.944 146.885 162.379 146.8 162.879 146.8C163.409 146.8 163.889 146.895 164.319 147.085C164.749 147.275 165.094 147.555 165.354 147.925L164.679 148.6C164.469 148.33 164.204 148.125 163.884 147.985C163.574 147.835 163.224 147.76 162.834 147.76C162.384 147.76 162.039 147.85 161.799 148.03C161.569 148.2 161.454 148.425 161.454 148.705C161.454 148.975 161.549 149.19 161.739 149.35C161.929 149.5 162.169 149.625 162.459 149.725C162.759 149.815 163.074 149.91 163.404 150.01C163.734 150.1 164.049 150.225 164.349 150.385C164.649 150.535 164.889 150.745 165.069 151.015C165.259 151.275 165.354 151.63 165.354 152.08C165.354 152.71 165.124 153.215 164.664 153.595C164.214 153.965 163.599 154.15 162.819 154.15Z" fill="white"/>
<path d="M248.497 154.15C247.807 154.15 247.187 153.99 246.637 153.67C246.097 153.35 245.667 152.92 245.347 152.38C245.027 151.84 244.867 151.24 244.867 150.58C244.867 149.66 245.187 148.745 245.827 147.835L248.887 143.59H250.522L247.387 147.865L246.877 148.135C246.997 147.925 247.142 147.75 247.312 147.61C247.482 147.46 247.692 147.345 247.942 147.265C248.192 147.185 248.487 147.145 248.827 147.145C249.437 147.145 249.987 147.29 250.477 147.58C250.977 147.87 251.377 148.27 251.677 148.78C251.987 149.28 252.142 149.865 252.142 150.535C252.142 151.195 251.977 151.8 251.647 152.35C251.327 152.9 250.887 153.34 250.327 153.67C249.777 153.99 249.167 154.15 248.497 154.15ZM248.497 152.83C248.917 152.83 249.292 152.73 249.622 152.53C249.962 152.32 250.227 152.045 250.417 151.705C250.617 151.355 250.717 150.965 250.717 150.535C250.717 150.105 250.617 149.72 250.417 149.38C250.227 149.03 249.962 148.755 249.622 148.555C249.292 148.355 248.917 148.255 248.497 148.255C248.077 148.255 247.697 148.355 247.357 148.555C247.027 148.755 246.762 149.03 246.562 149.38C246.372 149.72 246.277 150.105 246.277 150.535C246.277 150.965 246.372 151.355 246.562 151.705C246.762 152.055 247.027 152.33 247.357 152.53C247.697 152.73 248.077 152.83 248.497 152.83Z" fill="#968CA8"/>
<path d="M316.472 154L319.607 149.725L320.117 149.455C319.997 149.655 319.852 149.83 319.682 149.98C319.512 150.13 319.302 150.245 319.052 150.325C318.812 150.405 318.517 150.445 318.167 150.445C317.567 150.445 317.012 150.3 316.502 150.01C316.002 149.72 315.602 149.32 315.302 148.81C315.002 148.29 314.852 147.705 314.852 147.055C314.852 146.385 315.017 145.78 315.347 145.24C315.677 144.69 316.117 144.255 316.667 143.935C317.217 143.605 317.827 143.44 318.497 143.44C319.177 143.44 319.792 143.6 320.342 143.92C320.892 144.24 321.327 144.67 321.647 145.21C321.967 145.74 322.127 146.34 322.127 147.01C322.127 147.93 321.807 148.845 321.167 149.755L318.107 154H316.472ZM318.497 149.335C318.917 149.335 319.292 149.235 319.622 149.035C319.962 148.825 320.227 148.55 320.417 148.21C320.617 147.86 320.717 147.475 320.717 147.055C320.717 146.615 320.617 146.225 320.417 145.885C320.227 145.535 319.962 145.26 319.622 145.06C319.292 144.86 318.917 144.76 318.497 144.76C318.077 144.76 317.697 144.86 317.357 145.06C317.027 145.26 316.762 145.535 316.562 145.885C316.362 146.225 316.262 146.615 316.262 147.055C316.262 147.485 316.362 147.87 316.562 148.21C316.762 148.55 317.032 148.825 317.372 149.035C317.712 149.235 318.087 149.335 318.497 149.335Z" fill="#FF5449"/>
<path d="M383.977 154.15C383.267 154.15 382.632 154.025 382.072 153.775C381.522 153.515 381.057 153.14 380.677 152.65L381.637 151.69C381.867 152.04 382.182 152.32 382.582 152.53C382.992 152.73 383.447 152.83 383.947 152.83C384.417 152.83 384.827 152.74 385.177 152.56C385.537 152.38 385.817 152.13 386.017 151.81C386.227 151.48 386.332 151.09 386.332 150.64C386.332 150.18 386.232 149.79 386.032 149.47C385.832 149.15 385.562 148.91 385.222 148.75C384.892 148.58 384.527 148.495 384.127 148.495C383.717 148.495 383.342 148.545 383.002 148.645C382.672 148.745 382.357 148.915 382.057 149.155L382.072 148.255C382.242 148.045 382.437 147.875 382.657 147.745C382.877 147.615 383.127 147.515 383.407 147.445C383.687 147.375 384.012 147.34 384.382 147.34C385.102 147.34 385.712 147.49 386.212 147.79C386.712 148.09 387.092 148.495 387.352 149.005C387.622 149.515 387.757 150.085 387.757 150.715C387.757 151.375 387.592 151.965 387.262 152.485C386.942 153.005 386.497 153.415 385.927 153.715C385.357 154.005 384.707 154.15 383.977 154.15ZM382.057 149.155L381.292 148.39L381.757 143.59H383.047L382.522 148.525L382.057 149.155ZM382.042 144.85L381.757 143.59H387.232V144.85H382.042ZM392.377 154.15C391.697 154.15 391.077 154.025 390.517 153.775C389.967 153.515 389.502 153.14 389.122 152.65L390.082 151.69C390.312 152.04 390.627 152.32 391.027 152.53C391.427 152.73 391.872 152.83 392.362 152.83C392.822 152.83 393.217 152.745 393.547 152.575C393.887 152.395 394.152 152.145 394.342 151.825C394.542 151.505 394.642 151.135 394.642 150.715C394.642 150.285 394.542 149.915 394.342 149.605C394.152 149.285 393.882 149.04 393.532 148.87C393.182 148.7 392.767 148.615 392.287 148.615C392.107 148.615 391.927 148.63 391.747 148.66C391.567 148.68 391.392 148.715 391.222 148.765L391.822 147.955C392.012 147.865 392.217 147.795 392.437 147.745C392.657 147.695 392.877 147.67 393.097 147.67C393.657 147.67 394.157 147.8 394.597 148.06C395.047 148.32 395.402 148.685 395.662 149.155C395.932 149.625 396.067 150.17 396.067 150.79C396.067 151.45 395.907 152.035 395.587 152.545C395.277 153.045 394.847 153.44 394.297 153.73C393.747 154.01 393.107 154.15 392.377 154.15ZM391.222 148.765V147.91L394.267 144.445L395.947 144.43L392.812 147.985L391.222 148.765ZM389.617 144.85V143.59H395.947V144.43L394.717 144.85H389.617Z" fill="#7EBBE5"/>
<path d="M102.444 186V175.68H103.539V186H102.444ZM103.164 186V184.995H109.239V186H103.164ZM103.164 181.2V180.225H108.759V181.2H103.164ZM103.164 176.685V175.68H109.149V176.685H103.164ZM116.452 186V181.86C116.452 181.24 116.267 180.74 115.897 180.36C115.537 179.97 115.057 179.775 114.457 179.775C114.047 179.775 113.687 179.865 113.377 180.045C113.067 180.225 112.822 180.47 112.642 180.78C112.462 181.09 112.372 181.445 112.372 181.845L111.892 181.575C111.892 181.045 112.017 180.57 112.267 180.15C112.517 179.73 112.852 179.4 113.272 179.16C113.702 178.92 114.192 178.8 114.742 178.8C115.282 178.8 115.762 178.93 116.182 179.19C116.602 179.45 116.927 179.8 117.157 180.24C117.397 180.68 117.517 181.16 117.517 181.68V186H116.452ZM111.322 186V178.95H112.372V186H111.322ZM122.691 189.12C121.981 189.12 121.346 188.985 120.786 188.715C120.236 188.455 119.791 188.085 119.451 187.605L120.141 186.915C120.421 187.295 120.776 187.59 121.206 187.8C121.636 188.01 122.141 188.115 122.721 188.115C123.521 188.115 124.156 187.9 124.626 187.47C125.106 187.04 125.346 186.455 125.346 185.715V183.96L125.556 182.355L125.346 180.765V178.95H126.396V185.715C126.396 186.395 126.241 186.99 125.931 187.5C125.621 188.01 125.186 188.405 124.626 188.685C124.076 188.975 123.431 189.12 122.691 189.12ZM122.766 185.925C122.116 185.925 121.531 185.77 121.011 185.46C120.491 185.15 120.081 184.725 119.781 184.185C119.481 183.645 119.331 183.035 119.331 182.355C119.331 181.675 119.476 181.07 119.766 180.54C120.066 180 120.476 179.575 120.996 179.265C121.516 178.955 122.101 178.8 122.751 178.8C123.301 178.8 123.791 178.905 124.221 179.115C124.661 179.325 125.011 179.625 125.271 180.015C125.541 180.395 125.706 180.845 125.766 181.365V183.36C125.706 183.87 125.541 184.32 125.271 184.71C125.001 185.09 124.651 185.39 124.221 185.61C123.791 185.82 123.306 185.925 122.766 185.925ZM122.961 184.92C123.451 184.92 123.876 184.815 124.236 184.605C124.606 184.395 124.891 184.1 125.091 183.72C125.301 183.33 125.406 182.875 125.406 182.355C125.406 181.845 125.301 181.4 125.091 181.02C124.891 180.64 124.606 180.34 124.236 180.12C123.866 179.9 123.436 179.79 122.946 179.79C122.456 179.79 122.016 179.9 121.626 180.12C121.246 180.34 120.946 180.64 120.726 181.02C120.516 181.4 120.411 181.845 120.411 182.355C120.411 182.855 120.521 183.3 120.741 183.69C120.961 184.08 121.261 184.385 121.641 184.605C122.021 184.815 122.461 184.92 122.961 184.92ZM128.812 186V175.38H129.862V186H128.812ZM132.29 186V178.95H133.355V186H132.29ZM132.815 177.42C132.615 177.42 132.445 177.35 132.305 177.21C132.165 177.06 132.095 176.885 132.095 176.685C132.095 176.475 132.165 176.3 132.305 176.16C132.445 176.02 132.615 175.95 132.815 175.95C133.035 175.95 133.21 176.02 133.34 176.16C133.48 176.3 133.55 176.475 133.55 176.685C133.55 176.885 133.48 177.06 133.34 177.21C133.21 177.35 133.035 177.42 132.815 177.42ZM137.944 186.15C137.564 186.15 137.199 186.1 136.849 186C136.499 185.89 136.179 185.74 135.889 185.55C135.609 185.36 135.364 185.135 135.154 184.875L135.829 184.185C136.109 184.525 136.424 184.78 136.774 184.95C137.134 185.11 137.534 185.19 137.974 185.19C138.444 185.19 138.809 185.1 139.069 184.92C139.339 184.74 139.474 184.49 139.474 184.17C139.474 183.87 139.379 183.635 139.189 183.465C138.999 183.295 138.754 183.16 138.454 183.06C138.164 182.96 137.854 182.865 137.524 182.775C137.194 182.675 136.879 182.555 136.579 182.415C136.279 182.265 136.034 182.06 135.844 181.8C135.664 181.54 135.574 181.2 135.574 180.78C135.574 180.38 135.669 180.035 135.859 179.745C136.059 179.445 136.339 179.215 136.699 179.055C137.069 178.885 137.504 178.8 138.004 178.8C138.534 178.8 139.014 178.895 139.444 179.085C139.874 179.275 140.219 179.555 140.479 179.925L139.804 180.6C139.594 180.33 139.329 180.125 139.009 179.985C138.699 179.835 138.349 179.76 137.959 179.76C137.509 179.76 137.164 179.85 136.924 180.03C136.694 180.2 136.579 180.425 136.579 180.705C136.579 180.975 136.674 181.19 136.864 181.35C137.054 181.5 137.294 181.625 137.584 181.725C137.884 181.815 138.199 181.91 138.529 182.01C138.859 182.1 139.174 182.225 139.474 182.385C139.774 182.535 140.014 182.745 140.194 183.015C140.384 183.275 140.479 183.63 140.479 184.08C140.479 184.71 140.249 185.215 139.789 185.595C139.339 185.965 138.724 186.15 137.944 186.15ZM147.571 186V181.86C147.571 181.24 147.386 180.74 147.016 180.36C146.656 179.97 146.176 179.775 145.576 179.775C145.166 179.775 144.806 179.865 144.496 180.045C144.186 180.225 143.941 180.47 143.761 180.78C143.581 181.09 143.491 181.445 143.491 181.845L143.011 181.575C143.011 181.045 143.136 180.57 143.386 180.15C143.636 179.73 143.971 179.4 144.391 179.16C144.821 178.92 145.311 178.8 145.861 178.8C146.401 178.8 146.881 178.925 147.301 179.175C147.721 179.415 148.046 179.75 148.276 180.18C148.516 180.61 148.636 181.11 148.636 181.68V186H147.571ZM142.441 186V175.38H143.491V186H142.441Z" fill="white"/>
<path d="M248.17 186.15C247.49 186.15 246.87 186.025 246.31 185.775C245.76 185.515 245.295 185.14 244.915 184.65L245.875 183.69C246.105 184.04 246.42 184.32 246.82 184.53C247.22 184.73 247.665 184.83 248.155 184.83C248.615 184.83 249.01 184.745 249.34 184.575C249.68 184.395 249.945 184.145 250.135 183.825C250.335 183.505 250.435 183.135 250.435 182.715C250.435 182.285 250.335 181.915 250.135 181.605C249.945 181.285 249.675 181.04 249.325 180.87C248.975 180.7 248.56 180.615 248.08 180.615C247.9 180.615 247.72 180.63 247.54 180.66C247.36 180.68 247.185 180.715 247.015 180.765L247.615 179.955C247.805 179.865 248.01 179.795 248.23 179.745C248.45 179.695 248.67 179.67 248.89 179.67C249.45 179.67 249.95 179.8 250.39 180.06C250.84 180.32 251.195 180.685 251.455 181.155C251.725 181.625 251.86 182.17 251.86 182.79C251.86 183.45 251.7 184.035 251.38 184.545C251.07 185.045 250.64 185.44 250.09 185.73C249.54 186.01 248.9 186.15 248.17 186.15ZM247.015 180.765V179.91L250.06 176.445L251.74 176.43L248.605 179.985L247.015 180.765ZM245.41 176.85V175.59H251.74V176.43L250.51 176.85H245.41Z" fill="#968CA8"/>
<path d="M318.17 186.15C317.49 186.15 316.87 186.025 316.31 185.775C315.76 185.515 315.295 185.14 314.915 184.65L315.875 183.69C316.105 184.04 316.42 184.32 316.82 184.53C317.22 184.73 317.665 184.83 318.155 184.83C318.615 184.83 319.01 184.745 319.34 184.575C319.68 184.395 319.945 184.145 320.135 183.825C320.335 183.505 320.435 183.135 320.435 182.715C320.435 182.285 320.335 181.915 320.135 181.605C319.945 181.285 319.675 181.04 319.325 180.87C318.975 180.7 318.56 180.615 318.08 180.615C317.9 180.615 317.72 180.63 317.54 180.66C317.36 180.68 317.185 180.715 317.015 180.765L317.615 179.955C317.805 179.865 318.01 179.795 318.23 179.745C318.45 179.695 318.67 179.67 318.89 179.67C319.45 179.67 319.95 179.8 320.39 180.06C320.84 180.32 321.195 180.685 321.455 181.155C321.725 181.625 321.86 182.17 321.86 182.79C321.86 183.45 321.7 184.035 321.38 184.545C321.07 185.045 320.64 185.44 320.09 185.73C319.54 186.01 318.9 186.15 318.17 186.15ZM317.015 180.765V179.91L320.06 176.445L321.74 176.43L318.605 179.985L317.015 180.765ZM315.41 176.85V175.59H321.74V176.43L320.51 176.85H315.41Z" fill="#FF5449"/>
<path d="M383.962 186.15C383.282 186.15 382.662 186.025 382.102 185.775C381.552 185.515 381.087 185.14 380.707 184.65L381.667 183.69C381.897 184.04 382.212 184.32 382.612 184.53C383.012 184.73 383.457 184.83 383.947 184.83C384.407 184.83 384.802 184.745 385.132 184.575C385.472 184.395 385.737 184.145 385.927 183.825C386.127 183.505 386.227 183.135 386.227 182.715C386.227 182.285 386.127 181.915 385.927 181.605C385.737 181.285 385.467 181.04 385.117 180.87C384.767 180.7 384.352 180.615 383.872 180.615C383.692 180.615 383.512 180.63 383.332 180.66C383.152 180.68 382.977 180.715 382.807 180.765L383.407 179.955C383.597 179.865 383.802 179.795 384.022 179.745C384.242 179.695 384.462 179.67 384.682 179.67C385.242 179.67 385.742 179.8 386.182 180.06C386.632 180.32 386.987 180.685 387.247 181.155C387.517 181.625 387.652 182.17 387.652 182.79C387.652 183.45 387.492 184.035 387.172 184.545C386.862 185.045 386.432 185.44 385.882 185.73C385.332 186.01 384.692 186.15 383.962 186.15ZM382.807 180.765V179.91L385.852 176.445L387.532 176.43L384.397 179.985L382.807 180.765ZM381.202 176.85V175.59H387.532V176.43L386.302 176.85H381.202ZM392.349 186.15C391.639 186.15 391.004 186.025 390.444 185.775C389.894 185.515 389.429 185.14 389.049 184.65L390.009 183.69C390.239 184.04 390.554 184.32 390.954 184.53C391.364 184.73 391.819 184.83 392.319 184.83C392.789 184.83 393.199 184.74 393.549 184.56C393.909 184.38 394.189 184.13 394.389 183.81C394.599 183.48 394.704 183.09 394.704 182.64C394.704 182.18 394.604 181.79 394.404 181.47C394.204 181.15 393.934 180.91 393.594 180.75C393.264 180.58 392.899 180.495 392.499 180.495C392.089 180.495 391.714 180.545 391.374 180.645C391.044 180.745 390.729 180.915 390.429 181.155L390.444 180.255C390.614 180.045 390.809 179.875 391.029 179.745C391.249 179.615 391.499 179.515 391.779 179.445C392.059 179.375 392.384 179.34 392.754 179.34C393.474 179.34 394.084 179.49 394.584 179.79C395.084 180.09 395.464 180.495 395.724 181.005C395.994 181.515 396.129 182.085 396.129 182.715C396.129 183.375 395.964 183.965 395.634 184.485C395.314 185.005 394.869 185.415 394.299 185.715C393.729 186.005 393.079 186.15 392.349 186.15ZM390.429 181.155L389.664 180.39L390.129 175.59H391.419L390.894 180.525L390.429 181.155ZM390.414 176.85L390.129 175.59H395.604V176.85H390.414Z" fill="#7EBBE5"/>
<path d="M106.894 218.135C106.164 218.135 105.484 218 104.854 217.73C104.224 217.46 103.674 217.085 103.204 216.605C102.734 216.125 102.369 215.565 102.109 214.925C101.849 214.275 101.719 213.575 101.719 212.825C101.719 212.075 101.849 211.38 102.109 210.74C102.379 210.1 102.749 209.54 103.219 209.06C103.689 208.57 104.244 208.19 104.884 207.92C105.524 207.65 106.219 207.515 106.969 207.515C107.799 207.515 108.559 207.68 109.249 208.01C109.949 208.34 110.524 208.805 110.974 209.405L110.209 210.17C109.849 209.66 109.389 209.27 108.829 209C108.269 208.72 107.649 208.58 106.969 208.58C106.159 208.58 105.444 208.765 104.824 209.135C104.204 209.495 103.719 209.995 103.369 210.635C103.029 211.275 102.859 212.01 102.859 212.84C102.859 213.66 103.029 214.39 103.369 215.03C103.719 215.67 104.194 216.175 104.794 216.545C105.404 216.905 106.094 217.085 106.864 217.085C107.634 217.085 108.299 216.93 108.859 216.62C109.429 216.31 109.864 215.86 110.164 215.27C110.474 214.68 110.634 213.97 110.644 213.14L111.274 213.605H106.759V212.6H111.784V212.765C111.784 213.925 111.574 214.905 111.154 215.705C110.744 216.505 110.174 217.11 109.444 217.52C108.714 217.93 107.864 218.135 106.894 218.135ZM117.13 218.15C116.42 218.15 115.785 217.99 115.225 217.67C114.665 217.35 114.22 216.91 113.89 216.35C113.57 215.79 113.41 215.16 113.41 214.46C113.41 213.77 113.57 213.15 113.89 212.6C114.21 212.04 114.645 211.6 115.195 211.28C115.745 210.96 116.36 210.8 117.04 210.8C117.68 210.8 118.245 210.945 118.735 211.235C119.235 211.525 119.625 211.93 119.905 212.45C120.195 212.96 120.34 213.55 120.34 214.22C120.34 214.3 120.335 214.395 120.325 214.505C120.315 214.605 120.295 214.725 120.265 214.865H114.16V213.965H119.695L119.32 214.295C119.33 213.775 119.24 213.33 119.05 212.96C118.87 212.58 118.605 212.29 118.255 212.09C117.915 211.88 117.5 211.775 117.01 211.775C116.5 211.775 116.055 211.885 115.675 212.105C115.295 212.325 114.995 212.635 114.775 213.035C114.565 213.425 114.46 213.89 114.46 214.43C114.46 214.97 114.57 215.445 114.79 215.855C115.02 216.265 115.335 216.585 115.735 216.815C116.145 217.045 116.615 217.16 117.145 217.16C117.575 217.16 117.97 217.085 118.33 216.935C118.69 216.775 118.995 216.54 119.245 216.23L119.92 216.92C119.59 217.31 119.18 217.615 118.69 217.835C118.21 218.045 117.69 218.15 117.13 218.15ZM122.247 218V210.95H123.297V218H122.247ZM123.297 213.89L122.862 213.695C122.862 212.805 123.077 212.1 123.507 211.58C123.947 211.06 124.547 210.8 125.307 210.8C125.657 210.8 125.977 210.865 126.267 210.995C126.557 211.115 126.827 211.31 127.077 211.58L126.387 212.315C126.217 212.125 126.027 211.99 125.817 211.91C125.617 211.83 125.387 211.79 125.127 211.79C124.587 211.79 124.147 211.97 123.807 212.33C123.467 212.68 123.297 213.2 123.297 213.89ZM128.553 218V210.95H129.603V218H128.553ZM133.398 218V213.68C133.398 213.1 133.223 212.64 132.873 212.3C132.523 211.95 132.083 211.775 131.553 211.775C131.193 211.775 130.863 211.855 130.563 212.015C130.273 212.165 130.038 212.38 129.858 212.66C129.688 212.94 129.603 213.275 129.603 213.665L129.123 213.47C129.123 212.93 129.243 212.46 129.483 212.06C129.723 211.66 130.043 211.35 130.443 211.13C130.853 210.91 131.313 210.8 131.823 210.8C132.323 210.8 132.768 210.91 133.158 211.13C133.558 211.35 133.873 211.66 134.103 212.06C134.343 212.46 134.463 212.935 134.463 213.485V218H133.398ZM138.258 218V213.68C138.258 213.1 138.083 212.64 137.733 212.3C137.383 211.95 136.938 211.775 136.398 211.775C136.048 211.775 135.723 211.855 135.423 212.015C135.133 212.165 134.898 212.38 134.718 212.66C134.548 212.94 134.463 213.275 134.463 213.665L133.833 213.47C133.863 212.93 134.003 212.46 134.253 212.06C134.513 211.66 134.848 211.35 135.258 211.13C135.678 210.91 136.138 210.8 136.638 210.8C137.138 210.8 137.588 210.91 137.988 211.13C138.398 211.35 138.718 211.66 138.948 212.06C139.188 212.46 139.308 212.935 139.308 213.485V218H138.258ZM144.642 218.15C143.972 218.15 143.372 217.99 142.842 217.67C142.312 217.34 141.892 216.9 141.582 216.35C141.282 215.8 141.132 215.18 141.132 214.49C141.132 213.79 141.282 213.165 141.582 212.615C141.892 212.055 142.312 211.615 142.842 211.295C143.372 210.965 143.967 210.8 144.627 210.8C145.167 210.8 145.647 210.91 146.067 211.13C146.497 211.34 146.842 211.64 147.102 212.03C147.372 212.41 147.537 212.855 147.597 213.365V215.57C147.537 216.08 147.372 216.53 147.102 216.92C146.842 217.31 146.497 217.615 146.067 217.835C145.647 218.045 145.172 218.15 144.642 218.15ZM144.807 217.145C145.537 217.145 146.122 216.9 146.562 216.41C147.012 215.92 147.237 215.275 147.237 214.475C147.237 213.945 147.132 213.48 146.922 213.08C146.722 212.67 146.437 212.355 146.067 212.135C145.707 211.905 145.282 211.79 144.792 211.79C144.292 211.79 143.847 211.905 143.457 212.135C143.077 212.365 142.772 212.685 142.542 213.095C142.322 213.495 142.212 213.955 142.212 214.475C142.212 214.995 142.322 215.455 142.542 215.855C142.772 216.255 143.082 216.57 143.472 216.8C143.862 217.03 144.307 217.145 144.807 217.145ZM147.177 218V216.11L147.387 214.37L147.177 212.675V210.95H148.227V218H147.177ZM155.787 218V213.86C155.787 213.24 155.602 212.74 155.232 212.36C154.872 211.97 154.392 211.775 153.792 211.775C153.382 211.775 153.022 211.865 152.712 212.045C152.402 212.225 152.157 212.47 151.977 212.78C151.797 213.09 151.707 213.445 151.707 213.845L151.227 213.575C151.227 213.045 151.352 212.57 151.602 212.15C151.852 211.73 152.187 211.4 152.607 211.16C153.037 210.92 153.527 210.8 154.077 210.8C154.617 210.8 155.097 210.93 155.517 211.19C155.937 211.45 156.262 211.8 156.492 212.24C156.732 212.68 156.852 213.16 156.852 213.68V218H155.787ZM150.657 218V210.95H151.707V218H150.657Z" fill="white"/>
<path d="M248.17 218.15C247.49 218.15 246.87 218.025 246.31 217.775C245.76 217.515 245.295 217.14 244.915 216.65L245.875 215.69C246.105 216.04 246.42 216.32 246.82 216.53C247.22 216.73 247.665 216.83 248.155 216.83C248.615 216.83 249.01 216.745 249.34 216.575C249.68 216.395 249.945 216.145 250.135 215.825C250.335 215.505 250.435 215.135 250.435 214.715C250.435 214.285 250.335 213.915 250.135 213.605C249.945 213.285 249.675 213.04 249.325 212.87C248.975 212.7 248.56 212.615 248.08 212.615C247.9 212.615 247.72 212.63 247.54 212.66C247.36 212.68 247.185 212.715 247.015 212.765L247.615 211.955C247.805 211.865 248.01 211.795 248.23 211.745C248.45 211.695 248.67 211.67 248.89 211.67C249.45 211.67 249.95 211.8 250.39 212.06C250.84 212.32 251.195 212.685 251.455 213.155C251.725 213.625 251.86 214.17 251.86 214.79C251.86 215.45 251.7 216.035 251.38 216.545C251.07 217.045 250.64 217.44 250.09 217.73C249.54 218.01 248.9 218.15 248.17 218.15ZM247.015 212.765V211.91L250.06 208.445L251.74 208.43L248.605 211.985L247.015 212.765ZM245.41 208.85V207.59H251.74V208.43L250.51 208.85H245.41Z" fill="#968CA8"/>
<path d="M318.497 218.15C317.807 218.15 317.187 217.99 316.637 217.67C316.097 217.35 315.667 216.92 315.347 216.38C315.027 215.84 314.867 215.24 314.867 214.58C314.867 213.66 315.187 212.745 315.827 211.835L318.887 207.59H320.522L317.387 211.865L316.877 212.135C316.997 211.925 317.142 211.75 317.312 211.61C317.482 211.46 317.692 211.345 317.942 211.265C318.192 211.185 318.487 211.145 318.827 211.145C319.437 211.145 319.987 211.29 320.477 211.58C320.977 211.87 321.377 212.27 321.677 212.78C321.987 213.28 322.142 213.865 322.142 214.535C322.142 215.195 321.977 215.8 321.647 216.35C321.327 216.9 320.887 217.34 320.327 217.67C319.777 217.99 319.167 218.15 318.497 218.15ZM318.497 216.83C318.917 216.83 319.292 216.73 319.622 216.53C319.962 216.32 320.227 216.045 320.417 215.705C320.617 215.355 320.717 214.965 320.717 214.535C320.717 214.105 320.617 213.72 320.417 213.38C320.227 213.03 319.962 212.755 319.622 212.555C319.292 212.355 318.917 212.255 318.497 212.255C318.077 212.255 317.697 212.355 317.357 212.555C317.027 212.755 316.762 213.03 316.562 213.38C316.372 213.72 316.277 214.105 316.277 214.535C316.277 214.965 316.372 215.355 316.562 215.705C316.762 216.055 317.027 216.33 317.357 216.53C317.697 216.73 318.077 216.83 318.497 216.83Z" fill="#FF5449"/>
<path d="M384.222 218V207.59H385.617V218H384.222ZM382.092 208.85V207.59H385.467V208.85H382.092ZM391.252 218.15C390.562 218.15 389.952 218.02 389.422 217.76C388.902 217.5 388.497 217.14 388.207 216.68C387.917 216.22 387.772 215.7 387.772 215.12C387.772 214.65 387.862 214.22 388.042 213.83C388.222 213.44 388.487 213.11 388.837 212.84C389.187 212.56 389.597 212.36 390.067 212.24L390.112 212.645C389.712 212.535 389.372 212.36 389.092 212.12C388.812 211.87 388.597 211.58 388.447 211.25C388.307 210.91 388.237 210.55 388.237 210.17C388.237 209.63 388.367 209.155 388.627 208.745C388.887 208.335 389.242 208.015 389.692 207.785C390.152 207.545 390.672 207.425 391.252 207.425C391.842 207.425 392.362 207.545 392.812 207.785C393.262 208.015 393.617 208.335 393.877 208.745C394.137 209.155 394.267 209.63 394.267 210.17C394.267 210.55 394.192 210.91 394.042 211.25C393.902 211.58 393.692 211.87 393.412 212.12C393.142 212.36 392.807 212.535 392.407 212.645L392.437 212.24C392.917 212.36 393.327 212.56 393.667 212.84C394.017 213.11 394.282 213.44 394.462 213.83C394.652 214.22 394.747 214.65 394.747 215.12C394.747 215.7 394.602 216.22 394.312 216.68C394.022 217.14 393.612 217.5 393.082 217.76C392.562 218.02 391.952 218.15 391.252 218.15ZM391.252 216.875C391.672 216.875 392.037 216.795 392.347 216.635C392.667 216.465 392.917 216.235 393.097 215.945C393.287 215.655 393.382 215.32 393.382 214.94C393.382 214.57 393.287 214.24 393.097 213.95C392.917 213.66 392.667 213.435 392.347 213.275C392.037 213.105 391.672 213.02 391.252 213.02C390.842 213.02 390.477 213.105 390.157 213.275C389.837 213.435 389.582 213.66 389.392 213.95C389.212 214.24 389.122 214.57 389.122 214.94C389.122 215.32 389.212 215.655 389.392 215.945C389.582 216.235 389.837 216.465 390.157 216.635C390.477 216.795 390.842 216.875 391.252 216.875ZM391.252 211.925C391.752 211.925 392.162 211.77 392.482 211.46C392.802 211.15 392.962 210.75 392.962 210.26C392.962 209.78 392.802 209.39 392.482 209.09C392.162 208.78 391.752 208.625 391.252 208.625C390.762 208.625 390.357 208.78 390.037 209.09C389.717 209.39 389.557 209.78 389.557 210.26C389.557 210.75 389.717 211.15 390.037 211.46C390.357 211.77 390.762 211.925 391.252 211.925Z" fill="#7EBBE5"/>
</svg>
