<svg width="493" height="269" fill="none" version="1.1" xml:space="preserve" xmlns="http://www.w3.org/2000/svg"><path d="m1.0005 1h491v267h-491z" stroke="#fff" stroke-opacity=".13" stroke-width="2"/><mask id="a" fill="#fff"><path d="m55 34h383v52h-383v-52z"/></mask><g transform="translate(-1.2828)"><g fill="#000" font-family="'STIX Two Math'" font-size="16px" text-anchor="end"><path d="m19.621 31.547v-1.376h3.088q1.232 0 2.16-0.528 0.928-0.544 1.44-1.488 0.528-0.944 0.528-2.176 0-1.216-0.528-2.16t-1.456-1.472-2.144-0.528h-3.072v-1.376h3.104q1.216 0 2.24 0.416 1.04 0.416 1.792 1.168 0.768 0.752 1.184 1.76 0.432 1.008 0.432 2.208 0 1.184-0.432 2.208-0.416 1.008-1.168 1.76t-1.792 1.168q-1.024 0.416-2.224 0.416zm-0.992 0v-11.104h1.504v11.104zm15.104 0.16q-1.136 0-2.048-0.512-0.912-0.528-1.44-1.424t-0.528-2.032q0-1.12 0.512-2.016 0.528-0.896 1.408-1.408 0.896-0.528 2-0.528 1.056 0 1.856 0.48 0.816 0.48 1.264 1.328 0.464 0.848 0.464 1.92 0 0.16-0.016 0.352-0.016 0.176-0.064 0.416h-6.416v-1.2h5.648l-0.528 0.464q0-0.768-0.272-1.296-0.272-0.544-0.768-0.832-0.496-0.304-1.2-0.304-0.736 0-1.296 0.32t-0.864 0.896-0.304 1.36q0 0.8 0.32 1.408 0.32 0.592 0.912 0.928 0.592 0.32 1.36 0.32 0.64 0 1.168-0.224 0.544-0.224 0.928-0.672l0.928 0.944q-0.544 0.64-1.344 0.976-0.784 0.336-1.68 0.336zm8.528 0q-1.12 0-2.032-0.528-0.896-0.528-1.424-1.424-0.512-0.912-0.512-2.016 0-1.12 0.512-2.016 0.528-0.896 1.424-1.408 0.912-0.528 2.032-0.528 0.88 0 1.632 0.336 0.752 0.32 1.296 0.944l-0.96 0.96q-0.352-0.416-0.864-0.624-0.496-0.224-1.104-0.224-0.72 0-1.28 0.336-0.56 0.32-0.88 0.896t-0.32 1.328 0.32 1.328 0.88 0.912 1.28 0.336q0.608 0 1.104-0.208 0.512-0.224 0.88-0.64l0.944 0.96q-0.528 0.608-1.296 0.944-0.752 0.336-1.632 0.336zm9.216-0.16-3.552-3.888 3.52-3.712h1.744l-3.92 4.096 0.064-0.832 4 4.336zm-4.864 0v-11.424h1.44v11.424z" aria-label="Deck"/><path d="m291.75 31.547v-11.104h1.056l0.448 1.744v9.36zm7.68 0-6.816-9.104 0.192-2 6.832 9.088zm0 0-0.448-1.648v-9.456h1.504v11.104zm6.944 0.16q-1.136 0-2.048-0.512-0.912-0.528-1.44-1.424t-0.528-2.032q0-1.12 0.512-2.016 0.528-0.896 1.408-1.408 0.896-0.528 2-0.528 1.056 0 1.856 0.48 0.816 0.48 1.264 1.328 0.464 0.848 0.464 1.92 0 0.16-0.016 0.352-0.016 0.176-0.064 0.416h-6.416v-1.2h5.648l-0.528 0.464q0-0.768-0.272-1.296-0.272-0.544-0.768-0.832-0.496-0.304-1.2-0.304-0.736 0-1.296 0.32t-0.864 0.896-0.304 1.36q0 0.8 0.32 1.408 0.32 0.592 0.912 0.928 0.592 0.32 1.36 0.32 0.64 0 1.168-0.224 0.544-0.224 0.928-0.672l0.928 0.944q-0.544 0.64-1.344 0.976-0.784 0.336-1.68 0.336zm7.136-0.16-3.008-7.6h1.504l2.176 5.92h-0.48l2.16-5.92h0.832l2.16 5.92h-0.48l2.176-5.92h1.504l-2.992 7.6h-0.848l-2.192-5.744h0.528l-2.208 5.744z" aria-label="New"/><path d="m348.32 31.547v-11.104h1.504v11.104zm1.024 0v-1.376h5.952v1.376zm10.752 0.16q-1.136 0-2.048-0.512-0.912-0.528-1.44-1.424t-0.528-2.032q0-1.12 0.512-2.016 0.528-0.896 1.408-1.408 0.896-0.528 2-0.528 1.056 0 1.856 0.48 0.816 0.48 1.264 1.328 0.464 0.848 0.464 1.92 0 0.16-0.016 0.352-0.016 0.176-0.064 0.416h-6.416v-1.2h5.648l-0.528 0.464q0-0.768-0.272-1.296-0.272-0.544-0.768-0.832-0.496-0.304-1.2-0.304-0.736 0-1.296 0.32t-0.864 0.896-0.304 1.36q0 0.8 0.32 1.408 0.32 0.592 0.912 0.928 0.592 0.32 1.36 0.32 0.64 0 1.168-0.224 0.544-0.224 0.928-0.672l0.928 0.944q-0.544 0.64-1.344 0.976-0.784 0.336-1.68 0.336zm8.288 0q-1.04 0-1.888-0.512-0.848-0.528-1.344-1.424-0.48-0.896-0.48-2.016t0.48-2.016q0.496-0.896 1.328-1.424 0.848-0.528 1.904-0.528 0.864 0 1.536 0.368 0.688 0.352 1.104 0.992 0.416 0.624 0.464 1.456v2.288q-0.048 0.816-0.464 1.456-0.4 0.64-1.088 1.008-0.672 0.352-1.552 0.352zm0.24-1.36q1.072 0 1.728-0.72 0.656-0.736 0.656-1.872 0-0.784-0.304-1.36-0.288-0.592-0.832-0.912-0.544-0.336-1.264-0.336t-1.28 0.336q-0.544 0.336-0.864 0.928-0.304 0.576-0.304 1.328 0 0.768 0.304 1.36 0.32 0.576 0.88 0.912t1.28 0.336zm2.288 1.2v-2.048l0.272-1.856-0.272-1.84v-1.856h1.456v7.6zm3.552 0v-7.6h1.44v7.6zm1.44-4.336-0.544-0.24q0-1.456 0.672-2.32t1.936-0.864q0.576 0 1.04 0.208 0.464 0.192 0.864 0.656l-0.944 0.976q-0.24-0.256-0.528-0.368t-0.672-0.112q-0.8 0-1.312 0.512t-0.512 1.552zm10.384 4.336v-4.432q0-0.864-0.544-1.424t-1.408-0.56q-0.576 0-1.024 0.256t-0.704 0.704-0.256 1.024l-0.592-0.336q0-0.864 0.384-1.536t1.072-1.056q0.688-0.4 1.552-0.4t1.52 0.432q0.672 0.432 1.056 1.136 0.384 0.688 0.384 1.472v4.72zm-5.376 0v-7.6h1.44v7.6z" aria-label="Learn"/><path d="m416.71 31.547v-1.376h3.088q1.232 0 2.16-0.528 0.928-0.544 1.44-1.488 0.528-0.944 0.528-2.176 0-1.216-0.528-2.16t-1.456-1.472-2.144-0.528h-3.072v-1.376h3.104q1.216 0 2.24 0.416 1.04 0.416 1.792 1.168 0.768 0.752 1.184 1.76 0.432 1.008 0.432 2.208 0 1.184-0.432 2.208-0.416 1.008-1.168 1.76t-1.792 1.168q-1.024 0.416-2.224 0.416zm-0.992 0v-11.104h1.504v11.104zm14.64 0.16q-0.928 0-1.68-0.416-0.736-0.432-1.152-1.184t-0.416-1.744v-4.416h1.44v4.352q0 0.624 0.208 1.088 0.224 0.448 0.64 0.688t0.976 0.24q0.848 0 1.328-0.528 0.48-0.544 0.48-1.488v-4.352h1.44v4.416q0 0.992-0.416 1.744t-1.152 1.184q-0.72 0.416-1.696 0.416zm8.72 0q-1.136 0-2.048-0.512-0.912-0.528-1.44-1.424t-0.528-2.032q0-1.12 0.512-2.016 0.528-0.896 1.408-1.408 0.896-0.528 2-0.528 1.056 0 1.856 0.48 0.816 0.48 1.264 1.328 0.464 0.848 0.464 1.92 0 0.16-0.016 0.352-0.016 0.176-0.064 0.416h-6.416v-1.2h5.648l-0.528 0.464q0-0.768-0.272-1.296-0.272-0.544-0.768-0.832-0.496-0.304-1.2-0.304-0.736 0-1.296 0.32t-0.864 0.896-0.304 1.36q0 0.8 0.32 1.408 0.32 0.592 0.912 0.928 0.592 0.32 1.36 0.32 0.64 0 1.168-0.224 0.544-0.224 0.928-0.672l0.928 0.944q-0.544 0.64-1.344 0.976-0.784 0.336-1.68 0.336z" aria-label="Due"/></g><path d="m15.957 40.041h463.65" fill="#372222" stroke="#282828" stroke-width="1px"/><g font-family="'STIX Two Math'" font-size="16px" text-anchor="end"><g fill="#000"><path d="m28.726 108.61v-1.36h5.264v1.36zm14.288 3.392v-11.104h1.504v11.104zm1.024 0v-1.376h5.952v1.376zm10.464 0.16q-1.04 0-1.888-0.512-0.848-0.528-1.344-1.424-0.48-0.896-0.48-2.016t0.48-2.016q0.496-0.896 1.328-1.424 0.848-0.528 1.904-0.528 0.864 0 1.536 0.368 0.688 0.352 1.104 0.992 0.416 0.624 0.464 1.456v2.288q-0.048 0.816-0.464 1.456-0.4 0.64-1.088 1.008-0.672 0.352-1.552 0.352zm0.24-1.36q1.072 0 1.728-0.72 0.656-0.736 0.656-1.872 0-0.784-0.304-1.36-0.288-0.592-0.832-0.912-0.544-0.336-1.264-0.336t-1.28 0.336q-0.544 0.336-0.864 0.928-0.304 0.576-0.304 1.328 0 0.768 0.304 1.36 0.32 0.576 0.88 0.912t1.28 0.336zm2.288 1.2v-2.048l0.272-1.856-0.272-1.84v-1.856h1.456v7.6zm8.928 0v-4.432q0-0.864-0.544-1.424t-1.408-0.56q-0.576 0-1.024 0.256t-0.704 0.704-0.256 1.024l-0.592-0.336q0-0.864 0.384-1.536t1.072-1.056q0.688-0.4 1.552-0.4t1.52 0.432q0.672 0.432 1.056 1.136 0.384 0.688 0.384 1.472v4.72zm-5.376 0v-7.6h1.44v7.6zm11.92 3.344q-1.168 0-2.08-0.432-0.896-0.432-1.44-1.216l0.928-0.944q0.464 0.592 1.104 0.896 0.64 0.32 1.52 0.32 1.168 0 1.84-0.624 0.688-0.608 0.688-1.648v-1.888l0.256-1.712-0.256-1.696v-2h1.44v7.296q0 1.088-0.512 1.904-0.496 0.816-1.408 1.28-0.896 0.464-2.08 0.464zm0-3.472q-1.04 0-1.872-0.496-0.816-0.496-1.296-1.36-0.48-0.88-0.48-1.968t0.48-1.936q0.48-0.864 1.296-1.36 0.832-0.512 1.872-0.512 0.896 0 1.584 0.352t1.088 0.992q0.416 0.624 0.448 1.472v2.016q-0.048 0.832-0.464 1.472-0.4 0.624-1.088 0.976t-1.568 0.352zm0.288-1.36q0.704 0 1.232-0.304 0.544-0.304 0.832-0.848 0.288-0.56 0.288-1.296t-0.304-1.28q-0.288-0.56-0.816-0.864-0.528-0.32-1.248-0.32t-1.264 0.32q-0.544 0.304-0.864 0.864-0.304 0.544-0.304 1.264t0.304 1.28q0.32 0.56 0.864 0.88 0.56 0.304 1.28 0.304zm8.88 1.648q-0.928 0-1.68-0.416-0.736-0.432-1.152-1.184t-0.416-1.744v-4.416h1.44v4.352q0 0.624 0.208 1.088 0.224 0.448 0.64 0.688t0.976 0.24q0.848 0 1.328-0.528 0.48-0.544 0.48-1.488v-4.352h1.44v4.416q0 0.992-0.416 1.744t-1.152 1.184q-0.72 0.416-1.696 0.416zm8.432 0q-1.04 0-1.888-0.512-0.848-0.528-1.344-1.424-0.48-0.896-0.48-2.016t0.48-2.016q0.496-0.896 1.328-1.424 0.848-0.528 1.904-0.528 0.864 0 1.536 0.368 0.688 0.352 1.104 0.992 0.416 0.624 0.464 1.456v2.288q-0.048 0.816-0.464 1.456-0.4 0.64-1.088 1.008-0.672 0.352-1.552 0.352zm0.24-1.36q1.072 0 1.728-0.72 0.656-0.736 0.656-1.872 0-0.784-0.304-1.36-0.288-0.592-0.832-0.912-0.544-0.336-1.264-0.336t-1.28 0.336q-0.544 0.336-0.864 0.928-0.304 0.576-0.304 1.328 0 0.768 0.304 1.36 0.32 0.576 0.88 0.912t1.28 0.336zm2.288 1.2v-2.048l0.272-1.856-0.272-1.84v-1.856h1.456v7.6zm6.704 3.344q-1.168 0-2.08-0.432-0.896-0.432-1.44-1.216l0.928-0.944q0.464 0.592 1.104 0.896 0.64 0.32 1.52 0.32 1.168 0 1.84-0.624 0.688-0.608 0.688-1.648v-1.888l0.256-1.712-0.256-1.696v-2h1.44v7.296q0 1.088-0.512 1.904-0.496 0.816-1.408 1.28-0.896 0.464-2.08 0.464zm0-3.472q-1.04 0-1.872-0.496-0.816-0.496-1.296-1.36-0.48-0.88-0.48-1.968t0.48-1.936q0.48-0.864 1.296-1.36 0.832-0.512 1.872-0.512 0.896 0 1.584 0.352t1.088 0.992q0.416 0.624 0.448 1.472v2.016q-0.048 0.832-0.464 1.472-0.4 0.624-1.088 0.976t-1.568 0.352zm0.288-1.36q0.704 0 1.232-0.304 0.544-0.304 0.832-0.848 0.288-0.56 0.288-1.296t-0.304-1.28q-0.288-0.56-0.816-0.864-0.528-0.32-1.248-0.32t-1.264 0.32q-0.544 0.304-0.864 0.864-0.304 0.544-0.304 1.264t0.304 1.28q0.32 0.56 0.864 0.88 0.56 0.304 1.28 0.304zm9.344 1.648q-1.136 0-2.048-0.512-0.912-0.528-1.44-1.424t-0.528-2.032q0-1.12 0.512-2.016 0.528-0.896 1.408-1.408 0.896-0.528 2-0.528 1.056 0 1.856 0.48 0.816 0.48 1.264 1.328 0.464 0.848 0.464 1.92 0 0.16-0.016 0.352-0.016 0.176-0.064 0.416h-6.416v-1.2h5.648l-0.528 0.464q0-0.768-0.272-1.296-0.272-0.544-0.768-0.832-0.496-0.304-1.2-0.304-0.736 0-1.296 0.32t-0.864 0.896-0.304 1.36q0 0.8 0.32 1.408 0.32 0.592 0.912 0.928 0.592 0.32 1.36 0.32 0.64 0 1.168-0.224 0.544-0.224 0.928-0.672l0.928 0.944q-0.544 0.64-1.344 0.976-0.784 0.336-1.68 0.336zm7.472 0q-0.64 0-1.216-0.16-0.56-0.176-1.04-0.48-0.48-0.32-0.832-0.752l0.928-0.928q0.416 0.512 0.96 0.768 0.544 0.24 1.216 0.24t1.04-0.224q0.368-0.24 0.368-0.656t-0.304-0.64q-0.288-0.24-0.752-0.384-0.464-0.16-0.992-0.304-0.512-0.16-0.976-0.4t-0.768-0.656q-0.288-0.416-0.288-1.104t0.336-1.184q0.336-0.512 0.928-0.784 0.608-0.272 1.456-0.272 0.896 0 1.584 0.32 0.704 0.304 1.152 0.928l-0.928 0.928q-0.32-0.416-0.8-0.64-0.464-0.224-1.056-0.224-0.624 0-0.96 0.224-0.32 0.208-0.32 0.592t0.288 0.592 0.752 0.352q0.48 0.144 0.992 0.304 0.512 0.144 0.976 0.4t0.752 0.688q0.304 0.432 0.304 1.136 0 1.072-0.768 1.696-0.752 0.624-2.032 0.624z" aria-label="-  Languages"/><path d="m27.958 80.798v-1.296h6.784v1.296zm2.736-4.208h1.328v7.12h-1.328zm17.984 9.072q-1.168 0-2.192-0.432-1.008-0.448-1.776-1.232-0.752-0.784-1.184-1.824t-0.432-2.24 0.432-2.224q0.432-1.04 1.2-1.824t1.792-1.216q1.04-0.432 2.256-0.432 1.328 0 2.448 0.512t1.872 1.472l-1.04 1.04q-0.528-0.768-1.392-1.168-0.864-0.416-1.888-0.416-1.216 0-2.16 0.544-0.928 0.544-1.456 1.504-0.512 0.96-0.512 2.208 0 1.264 0.528 2.224t1.424 1.504 2.048 0.544q1.168 0 2.016-0.448 0.864-0.448 1.328-1.312 0.464-0.88 0.464-2.144l0.912 0.656h-4.8v-1.376h5.44v0.224q0 1.936-0.688 3.248-0.672 1.296-1.888 1.952-1.2 0.656-2.752 0.656zm10.608 0q-1.136 0-2.048-0.512-0.912-0.528-1.44-1.424t-0.528-2.032q0-1.12 0.512-2.016 0.528-0.896 1.408-1.408 0.896-0.528 2-0.528 1.056 0 1.856 0.48 0.816 0.48 1.264 1.328 0.464 0.848 0.464 1.92 0 0.16-0.016 0.352-0.016 0.176-0.064 0.416h-6.416v-1.2h5.648l-0.528 0.464q0-0.768-0.272-1.296-0.272-0.544-0.768-0.832-0.496-0.304-1.2-0.304-0.736 0-1.296 0.32t-0.864 0.896-0.304 1.36q0 0.8 0.32 1.408 0.32 0.592 0.912 0.928 0.592 0.32 1.36 0.32 0.64 0 1.168-0.224 0.544-0.224 0.928-0.672l0.928 0.944q-0.544 0.64-1.344 0.976-0.784 0.336-1.68 0.336zm8.528 0q-1.12 0-2.016-0.528t-1.424-1.424q-0.528-0.912-0.528-2.032 0-1.104 0.528-1.984 0.528-0.896 1.424-1.424t2.016-0.528q1.104 0 2 0.528 0.912 0.512 1.44 1.408t0.528 2q0 1.12-0.528 2.032-0.528 0.896-1.44 1.424-0.896 0.528-2 0.528zm0-1.392q0.72 0 1.28-0.336t0.88-0.912q0.32-0.592 0.32-1.344 0-0.736-0.336-1.312-0.32-0.576-0.88-0.896-0.544-0.336-1.264-0.336t-1.28 0.336q-0.56 0.32-0.88 0.896t-0.32 1.312q0 0.752 0.32 1.344 0.32 0.576 0.88 0.912t1.28 0.336zm8.736 4.576q-1.168 0-2.08-0.432-0.896-0.432-1.44-1.216l0.928-0.944q0.464 0.592 1.104 0.896 0.64 0.32 1.52 0.32 1.168 0 1.84-0.624 0.688-0.608 0.688-1.648v-1.888l0.256-1.712-0.256-1.696v-2h1.44v7.296q0 1.088-0.512 1.904-0.496 0.816-1.408 1.28-0.896 0.464-2.08 0.464zm0-3.472q-1.04 0-1.872-0.496-0.816-0.496-1.296-1.36-0.48-0.88-0.48-1.968t0.48-1.936q0.48-0.864 1.296-1.36 0.832-0.512 1.872-0.512 0.896 0 1.584 0.352t1.088 0.992q0.416 0.624 0.448 1.472v2.016q-0.048 0.832-0.464 1.472-0.4 0.624-1.088 0.976t-1.568 0.352zm0.288-1.36q0.704 0 1.232-0.304 0.544-0.304 0.832-0.848 0.288-0.56 0.288-1.296t-0.304-1.28q-0.288-0.56-0.816-0.864-0.528-0.32-1.248-0.32t-1.264 0.32q-0.544 0.304-0.864 0.864-0.304 0.544-0.304 1.264t0.304 1.28q0.32 0.56 0.864 0.88 0.56 0.304 1.28 0.304zm5.824 1.488v-7.6h1.44v7.6zm1.44-4.336-0.544-0.24q0-1.456 0.672-2.32t1.936-0.864q0.576 0 1.04 0.208 0.464 0.192 0.864 0.656l-0.944 0.976q-0.24-0.256-0.528-0.368t-0.672-0.112q-0.8 0-1.312 0.512t-0.512 1.552zm7.968 4.496q-1.04 0-1.888-0.512-0.848-0.528-1.344-1.424-0.48-0.896-0.48-2.016t0.48-2.016q0.496-0.896 1.328-1.424 0.848-0.528 1.904-0.528 0.864 0 1.536 0.368 0.688 0.352 1.104 0.992 0.416 0.624 0.464 1.456v2.288q-0.048 0.816-0.464 1.456-0.4 0.64-1.088 1.008-0.672 0.352-1.552 0.352zm0.24-1.36q1.072 0 1.728-0.72 0.656-0.736 0.656-1.872 0-0.784-0.304-1.36-0.288-0.592-0.832-0.912-0.544-0.336-1.264-0.336t-1.28 0.336q-0.544 0.336-0.864 0.928-0.304 0.576-0.304 1.328 0 0.768 0.304 1.36 0.32 0.576 0.88 0.912t1.28 0.336zm2.288 1.2v-2.048l0.272-1.856-0.272-1.84v-1.856h1.456v7.6zm7.552 0.16q-0.864 0-1.568-0.352-0.688-0.368-1.104-1.008t-0.464-1.456v-2.288q0.048-0.832 0.464-1.456 0.432-0.64 1.12-0.992 0.704-0.368 1.552-0.368 1.04 0 1.872 0.528 0.848 0.528 1.328 1.424t0.48 2.016-0.48 2.016-1.328 1.424q-0.832 0.512-1.872 0.512zm-4 3.024v-10.784h1.44v2l-0.272 1.84 0.272 1.856v5.088zm3.76-4.384q0.72 0 1.264-0.336t0.864-0.912q0.32-0.592 0.32-1.36 0-0.752-0.32-1.344t-0.864-0.912q-0.544-0.336-1.248-0.336-0.72 0-1.264 0.336-0.544 0.32-0.848 0.912-0.304 0.592-0.304 1.36 0 0.752 0.288 1.344 0.304 0.576 0.848 0.912 0.56 0.336 1.264 0.336zm10.928 1.2v-4.432q0-0.864-0.544-1.424t-1.408-0.56q-0.576 0-1.024 0.256t-0.704 0.704-0.256 1.024l-0.592-0.336q0-0.864 0.384-1.536t1.072-1.056q0.688-0.4 1.552-0.4t1.52 0.384q0.672 0.384 1.056 1.072t0.384 1.584v4.72zm-5.376 0v-11.424h1.44v11.424zm11.264 0.064-3.296-7.664h1.6l2.448 6h-0.512l2.576-6h1.6l-3.552 7.664zm-2.176 3.12 2.24-4.592 0.8 1.472-1.44 3.12z" aria-label="+  Geography"/><path d="m64.124 138.82v-11.104h1.504v11.104zm1.024 0v-1.376h6.368v1.376zm0-5.024v-1.312h5.84v1.312zm0-4.704v-1.376h6.288v1.376zm13.536 9.728v-4.432q0-0.864-0.544-1.424t-1.408-0.56q-0.576 0-1.024 0.256t-0.704 0.704-0.256 1.024l-0.592-0.336q0-0.864 0.384-1.536t1.072-1.056q0.688-0.4 1.552-0.4t1.52 0.432q0.672 0.432 1.056 1.136 0.384 0.688 0.384 1.472v4.72zm-5.376 0v-7.6h1.44v7.6zm11.92 3.344q-1.168 0-2.08-0.432-0.896-0.432-1.44-1.216l0.928-0.944q0.464 0.592 1.104 0.896 0.64 0.32 1.52 0.32 1.168 0 1.84-0.624 0.688-0.608 0.688-1.648v-1.888l0.256-1.712-0.256-1.696v-2h1.44v7.296q0 1.088-0.512 1.904-0.496 0.816-1.408 1.28-0.896 0.464-2.08 0.464zm0-3.472q-1.04 0-1.872-0.496-0.816-0.496-1.296-1.36-0.48-0.88-0.48-1.968t0.48-1.936q0.48-0.864 1.296-1.36 0.832-0.512 1.872-0.512 0.896 0 1.584 0.352t1.088 0.992q0.416 0.624 0.448 1.472v2.016q-0.048 0.832-0.464 1.472-0.4 0.624-1.088 0.976t-1.568 0.352zm0.288-1.36q0.704 0 1.232-0.304 0.544-0.304 0.832-0.848 0.288-0.56 0.288-1.296t-0.304-1.28q-0.288-0.56-0.816-0.864-0.528-0.32-1.248-0.32t-1.264 0.32q-0.544 0.304-0.864 0.864-0.304 0.544-0.304 1.264t0.304 1.28q0.32 0.56 0.864 0.88 0.56 0.304 1.28 0.304zm5.824 1.488v-11.424h1.44v11.424zm3.568 0v-7.6h1.44v7.6zm0.72-9.12q-0.4 0-0.656-0.256-0.256-0.272-0.256-0.672 0-0.384 0.256-0.64 0.256-0.272 0.656-0.272 0.4 0 0.656 0.272 0.256 0.256 0.256 0.64 0 0.4-0.256 0.672-0.256 0.256-0.656 0.256zm5.264 9.28q-0.64 0-1.216-0.16-0.56-0.176-1.04-0.48-0.48-0.32-0.832-0.752l0.928-0.928q0.416 0.512 0.96 0.768 0.544 0.24 1.216 0.24t1.04-0.224q0.368-0.24 0.368-0.656t-0.304-0.64q-0.288-0.24-0.752-0.384-0.464-0.16-0.992-0.304-0.512-0.16-0.976-0.4t-0.768-0.656q-0.288-0.416-0.288-1.104t0.336-1.184q0.336-0.512 0.928-0.784 0.608-0.272 1.456-0.272 0.896 0 1.584 0.32 0.704 0.304 1.152 0.928l-0.928 0.928q-0.32-0.416-0.8-0.64-0.464-0.224-1.056-0.224-0.624 0-0.96 0.224-0.32 0.208-0.32 0.592t0.288 0.592q0.288 0.208 0.752 0.352 0.48 0.144 0.992 0.304 0.512 0.144 0.976 0.4t0.752 0.688q0.304 0.432 0.304 1.136 0 1.072-0.768 1.696-0.752 0.624-2.032 0.624zm9.792-0.16v-4.432q0-0.864-0.544-1.424t-1.408-0.56q-0.576 0-1.024 0.256t-0.704 0.704-0.256 1.024l-0.592-0.336q0-0.864 0.384-1.536t1.072-1.056q0.688-0.4 1.552-0.4t1.52 0.384q0.672 0.384 1.056 1.072t0.384 1.584v4.72zm-5.376 0v-11.424h1.44v11.424z" aria-label="English"/><path d="m69.708 167.15q-1.168 0-2.192-0.432-1.008-0.448-1.776-1.232-0.752-0.784-1.184-1.824t-0.432-2.24 0.432-2.224q0.432-1.04 1.2-1.824t1.792-1.216q1.04-0.432 2.256-0.432 1.328 0 2.448 0.512t1.872 1.472l-1.04 1.04q-0.528-0.768-1.392-1.168-0.864-0.416-1.888-0.416-1.216 0-2.16 0.544-0.928 0.544-1.456 1.504-0.512 0.96-0.512 2.208 0 1.264 0.528 2.224t1.424 1.504 2.048 0.544q1.168 0 2.016-0.448 0.864-0.448 1.328-1.312 0.464-0.88 0.464-2.144l0.912 0.656h-4.8v-1.376h5.44v0.224q0 1.936-0.688 3.248-0.672 1.296-1.888 1.952-1.2 0.656-2.752 0.656zm10.608 0q-1.136 0-2.048-0.512-0.912-0.528-1.44-1.424t-0.528-2.032q0-1.12 0.512-2.016 0.528-0.896 1.408-1.408 0.896-0.528 2-0.528 1.056 0 1.856 0.48 0.816 0.48 1.264 1.328 0.464 0.848 0.464 1.92 0 0.16-0.016 0.352-0.016 0.176-0.064 0.416h-6.416v-1.2h5.648l-0.528 0.464q0-0.768-0.272-1.296-0.272-0.544-0.768-0.832-0.496-0.304-1.2-0.304-0.736 0-1.296 0.32t-0.864 0.896-0.304 1.36q0 0.8 0.32 1.408 0.32 0.592 0.912 0.928 0.592 0.32 1.36 0.32 0.64 0 1.168-0.224 0.544-0.224 0.928-0.672l0.928 0.944q-0.544 0.64-1.344 0.976-0.784 0.336-1.68 0.336zm5.056-0.16v-7.6h1.44v7.6zm1.44-4.336-0.544-0.24q0-1.456 0.672-2.32t1.936-0.864q0.576 0 1.04 0.208 0.464 0.192 0.864 0.656l-0.944 0.976q-0.24-0.256-0.528-0.368t-0.672-0.112q-0.8 0-1.312 0.512t-0.512 1.552zm5.008 4.336v-7.6h1.44v7.6zm5.136 0v-4.592q0-0.848-0.528-1.328-0.512-0.496-1.296-0.496-0.528 0-0.944 0.224t-0.672 0.624-0.256 0.96l-0.592-0.288q0-0.864 0.368-1.504 0.384-0.64 1.04-0.992 0.656-0.368 1.472-0.368 0.8 0 1.44 0.352 0.656 0.352 1.024 0.992 0.384 0.64 0.384 1.52v4.896zm5.136 0v-4.592q0-0.848-0.528-1.328-0.512-0.496-1.28-0.496-0.528 0-0.96 0.224-0.416 0.224-0.672 0.624t-0.256 0.96l-0.816-0.288q0.048-0.88 0.464-1.504 0.432-0.64 1.104-0.992 0.672-0.368 1.472-0.368 0.832 0 1.488 0.352t1.04 0.992q0.4 0.64 0.4 1.536v4.88zm6.64 0.16q-1.04 0-1.888-0.512-0.848-0.528-1.344-1.424-0.48-0.896-0.48-2.016t0.48-2.016q0.496-0.896 1.328-1.424 0.848-0.528 1.904-0.528 0.864 0 1.536 0.368 0.688 0.352 1.104 0.992 0.416 0.624 0.464 1.456v2.288q-0.048 0.816-0.464 1.456-0.4 0.64-1.088 1.008-0.672 0.352-1.552 0.352zm0.24-1.36q1.072 0 1.728-0.72 0.656-0.736 0.656-1.872 0-0.784-0.304-1.36-0.288-0.592-0.832-0.912-0.544-0.336-1.264-0.336t-1.28 0.336q-0.544 0.336-0.864 0.928-0.304 0.576-0.304 1.328 0 0.768 0.304 1.36 0.32 0.576 0.88 0.912t1.28 0.336zm2.288 1.2v-2.048l0.272-1.856-0.272-1.84v-1.856h1.456v7.6zm8.928 0v-4.432q0-0.864-0.544-1.424t-1.408-0.56q-0.576 0-1.024 0.256t-0.704 0.704-0.256 1.024l-0.592-0.336q0-0.864 0.384-1.536t1.072-1.056q0.688-0.4 1.552-0.4t1.52 0.432q0.672 0.432 1.056 1.136 0.384 0.688 0.384 1.472v4.72zm-5.376 0v-7.6h1.44v7.6z" aria-label="German"/></g><g fill="#93c5fd"><path d="m297.97 84.513 4.096-4.32q0.624-0.64 0.976-1.104 0.352-0.48 0.496-0.88 0.16-0.4 0.16-0.832 0-0.848-0.544-1.328t-1.408-0.48q-0.848 0-1.488 0.416-0.64 0.4-1.136 1.248l-1.056-0.88q0.656-1.088 1.584-1.632 0.928-0.56 2.144-0.56 1.024 0 1.776 0.4 0.768 0.4 1.184 1.12t0.416 1.68q0 0.688-0.176 1.232-0.16 0.544-0.592 1.12-0.416 0.56-1.168 1.344l-3.312 3.408zm0 0.912v-0.912l1.28-0.432h6.176v1.344zm13.408 0.16q-1.248 0-2.288-0.704-1.024-0.704-1.632-1.984-0.608-1.296-0.608-3.04t0.592-3.024q0.608-1.28 1.632-1.968 1.024-0.704 2.256-0.704 1.264 0 2.288 0.704 1.024 0.688 1.616 1.968 0.608 1.28 0.608 3.04 0 1.744-0.608 3.04-0.592 1.28-1.616 1.984-1.008 0.688-2.24 0.688zm-0.032-1.424q0.88 0 1.536-0.48 0.672-0.496 1.056-1.456t0.384-2.368-0.384-2.352q-0.384-0.96-1.056-1.44-0.672-0.496-1.552-0.496-0.864 0-1.536 0.496-0.672 0.48-1.056 1.44-0.368 0.944-0.368 2.352t0.368 2.368q0.384 0.96 1.056 1.456 0.672 0.48 1.552 0.48z" aria-label="20"/><path d="m306.67 140.04q-1.088 0-1.984-0.4-0.88-0.416-1.488-1.2l1.024-1.024q0.368 0.56 1.008 0.896 0.64 0.32 1.424 0.32 0.736 0 1.264-0.272 0.544-0.288 0.848-0.8 0.32-0.512 0.32-1.184 0-0.688-0.32-1.184-0.304-0.512-0.864-0.784t-1.328-0.272q-0.288 0-0.576 0.048-0.288 0.032-0.56 0.112l0.64-0.864q0.304-0.144 0.656-0.224t0.704-0.08q0.896 0 1.6 0.416 0.72 0.416 1.136 1.168 0.432 0.752 0.432 1.744 0 1.056-0.512 1.872-0.496 0.8-1.376 1.264-0.88 0.448-2.048 0.448zm-1.232-5.744v-0.912l3.248-3.696 1.792-0.016-3.344 3.792zm-1.712-4.176v-1.344h6.752v0.896l-1.312 0.448z" aria-label="3"/><path d="m306.67 167.31q-1.088 0-1.984-0.4-0.88-0.416-1.488-1.2l1.024-1.024q0.368 0.56 1.008 0.896 0.64 0.32 1.424 0.32 0.736 0 1.264-0.272 0.544-0.288 0.848-0.8 0.32-0.512 0.32-1.184 0-0.688-0.32-1.184-0.304-0.512-0.864-0.784t-1.328-0.272q-0.288 0-0.576 0.048-0.288 0.032-0.56 0.112l0.64-0.864q0.304-0.144 0.656-0.224t0.704-0.08q0.896 0 1.6 0.416 0.72 0.416 1.136 1.168 0.432 0.752 0.432 1.744 0 1.056-0.512 1.872-0.496 0.8-1.376 1.264-0.88 0.448-2.048 0.448zm-1.232-5.744v-0.912l3.248-3.696 1.792-0.016-3.344 3.792zm-1.712-4.176v-1.344h6.752v0.896l-1.312 0.448z" aria-label="3"/></g><path d="m368.05 85.342q-1.248 0-2.288-0.704-1.024-0.704-1.632-1.984-0.608-1.296-0.608-3.04t0.592-3.024q0.608-1.28 1.632-1.968 1.024-0.704 2.256-0.704 1.264 0 2.288 0.704 1.024 0.688 1.616 1.968 0.608 1.28 0.608 3.04 0 1.744-0.608 3.04-0.592 1.28-1.616 1.984-1.008 0.688-2.24 0.688zm-0.032-1.424q0.88 0 1.536-0.48 0.672-0.496 1.056-1.456t0.384-2.368-0.384-2.352q-0.384-0.96-1.056-1.44-0.672-0.496-1.552-0.496-0.864 0-1.536 0.496-0.672 0.48-1.056 1.44-0.368 0.944-0.368 2.352t0.368 2.368q0.384 0.96 1.056 1.456 0.672 0.48 1.552 0.48z" fill="#f87171" aria-label="0"/><path d="m420.03 85.342v-11.104h1.488v11.104zm-2.272-9.76v-1.344h3.6v1.344zm5.584 8.848 4.096-4.32q0.624-0.64 0.976-1.104 0.352-0.48 0.496-0.88 0.16-0.4 0.16-0.832 0-0.848-0.544-1.328t-1.408-0.48q-0.848 0-1.488 0.416-0.64 0.4-1.136 1.248l-1.056-0.88q0.656-1.088 1.584-1.632 0.928-0.56 2.144-0.56 1.024 0 1.776 0.4 0.768 0.4 1.184 1.12t0.416 1.68q0 0.688-0.176 1.232-0.16 0.544-0.592 1.12-0.416 0.56-1.168 1.344l-3.312 3.408zm0 0.912v-0.912l1.28-0.432h6.176v1.344zm8.656-3.824 4.048-7.28h1.696l-4.128 7.28zm0 0.928v-0.928l0.64-0.416h7.872v1.344zm5.424 2.896v-7.344h1.488v7.344z" fill="#22c55e" aria-label="124"/><path d="m27.958 189.03v-1.296h6.784v1.296zm2.736-4.208h1.328v7.12h-1.328zm12.96 8.912v-11.104h1.056l4.704 7.728h-0.72l4.704-7.728h1.056v11.104h-1.504v-8.464l0.352 0.096-3.712 6.096h-1.056l-3.712-6.096 0.336-0.096v8.464zm16.688 0.16q-1.136 0-2.048-0.512-0.912-0.528-1.44-1.424t-0.528-2.032q0-1.12 0.512-2.016 0.528-0.896 1.408-1.408 0.896-0.528 2-0.528 1.056 0 1.856 0.48 0.816 0.48 1.264 1.328 0.464 0.848 0.464 1.92 0 0.16-0.016 0.352-0.016 0.176-0.064 0.416h-6.416v-1.2h5.648l-0.528 0.464q0-0.768-0.272-1.296-0.272-0.544-0.768-0.832-0.496-0.304-1.2-0.304-0.736 0-1.296 0.32t-0.864 0.896-0.304 1.36q0 0.8 0.32 1.408 0.32 0.592 0.912 0.928 0.592 0.32 1.36 0.32 0.64 0 1.168-0.224 0.544-0.224 0.928-0.672l0.928 0.944q-0.544 0.64-1.344 0.976-0.784 0.336-1.68 0.336zm8.272 0q-1.056 0-1.888-0.512-0.832-0.528-1.328-1.424-0.48-0.896-0.48-2.016t0.48-2.016q0.496-0.896 1.328-1.424t1.888-0.528q0.848 0 1.536 0.368 0.688 0.352 1.104 0.992 0.432 0.624 0.48 1.456v2.288q-0.048 0.816-0.464 1.456t-1.104 1.008q-0.688 0.352-1.552 0.352zm0.24-1.36q0.72 0 1.248-0.336 0.544-0.336 0.848-0.912 0.304-0.592 0.304-1.344 0-0.784-0.32-1.36-0.304-0.576-0.848-0.912-0.528-0.336-1.248-0.336t-1.264 0.336-0.864 0.928q-0.304 0.576-0.304 1.328 0 0.768 0.304 1.36 0.32 0.576 0.864 0.912 0.56 0.336 1.28 0.336zm3.76 1.2h-1.456v-2.048l0.272-1.856-0.272-1.84v-5.68h1.456zm2.112 0v-7.6h1.44v7.6zm0.72-9.12q-0.4 0-0.656-0.256-0.256-0.272-0.256-0.672 0-0.384 0.256-0.64 0.256-0.272 0.656-0.272t0.656 0.272q0.256 0.256 0.256 0.64 0 0.4-0.256 0.672-0.256 0.256-0.656 0.256zm6.32 9.28q-1.12 0-2.032-0.528-0.896-0.528-1.424-1.424-0.512-0.912-0.512-2.016 0-1.12 0.512-2.016 0.528-0.896 1.424-1.408 0.912-0.528 2.032-0.528 0.88 0 1.632 0.336 0.752 0.32 1.296 0.944l-0.96 0.96q-0.352-0.416-0.864-0.624-0.496-0.224-1.104-0.224-0.72 0-1.28 0.336-0.56 0.32-0.88 0.896t-0.32 1.328 0.32 1.328 0.88 0.912 1.28 0.336q0.608 0 1.104-0.208 0.512-0.224 0.88-0.64l0.944 0.96q-0.528 0.608-1.296 0.944-0.752 0.336-1.632 0.336zm4.368-0.16v-7.6h1.44v7.6zm0.72-9.12q-0.4 0-0.656-0.256-0.256-0.272-0.256-0.672 0-0.384 0.256-0.64 0.256-0.272 0.656-0.272t0.656 0.272q0.256 0.256 0.256 0.64 0 0.4-0.256 0.672-0.256 0.256-0.656 0.256zm8.224 9.12v-4.432q0-0.864-0.544-1.424t-1.408-0.56q-0.576 0-1.024 0.256t-0.704 0.704-0.256 1.024l-0.592-0.336q0-0.864 0.384-1.536t1.072-1.056q0.688-0.4 1.552-0.4t1.52 0.432q0.672 0.432 1.056 1.136 0.384 0.688 0.384 1.472v4.72zm-5.376 0v-7.6h1.44v7.6zm12.288 0.16q-1.136 0-2.048-0.512-0.912-0.528-1.44-1.424t-0.528-2.032q0-1.12 0.512-2.016 0.528-0.896 1.408-1.408 0.896-0.528 2-0.528 1.056 0 1.856 0.48 0.816 0.48 1.264 1.328 0.464 0.848 0.464 1.92 0 0.16-0.016 0.352-0.016 0.176-0.064 0.416h-6.416v-1.2h5.648l-0.528 0.464q0-0.768-0.272-1.296-0.272-0.544-0.768-0.832-0.496-0.304-1.2-0.304-0.736 0-1.296 0.32t-0.864 0.896q-0.304 0.576-0.304 1.36 0 0.8 0.32 1.408 0.32 0.592 0.912 0.928 0.592 0.32 1.36 0.32 0.64 0 1.168-0.224 0.544-0.224 0.928-0.672l0.928 0.944q-0.544 0.64-1.344 0.976-0.784 0.336-1.68 0.336z" fill="#000" aria-label="+  Medicine"/><path d="m302.45 193.73v-11.104h1.488v11.104zm-2.272-9.76v-1.344h3.6v1.344zm9.568 9.92q-1.104 0-1.984-0.512-0.864-0.512-1.376-1.376t-0.512-1.92q0-1.472 1.024-2.928l3.264-4.528h1.744l-3.344 4.56-0.544 0.288q0.192-0.336 0.464-0.56 0.272-0.24 0.672-0.368t0.944-0.128q0.976 0 1.76 0.464 0.8 0.464 1.28 1.28 0.496 0.8 0.496 1.872 0 1.056-0.528 1.936-0.512 0.88-1.408 1.408-0.88 0.512-1.952 0.512zm0-1.408q0.672 0 1.2-0.32 0.544-0.336 0.848-0.88 0.32-0.56 0.32-1.248t-0.32-1.232q-0.304-0.56-0.848-0.88-0.528-0.32-1.2-0.32t-1.216 0.32q-0.528 0.32-0.848 0.88-0.304 0.544-0.304 1.232t0.304 1.248q0.32 0.56 0.848 0.88 0.544 0.32 1.216 0.32z" fill="#93c5fd" aria-label="16"/><path d="m368.41 193.73v-11.104h1.488v11.104zm-2.272-9.76v-1.344h3.6v1.344z" fill="#f87171" aria-label="1"/><g fill="#22c55e"><path d="m416.23 192.98 4.096-4.32q0.624-0.64 0.976-1.104 0.352-0.48 0.496-0.88 0.16-0.4 0.16-0.832 0-0.848-0.544-1.328t-1.408-0.48q-0.848 0-1.488 0.416-0.64 0.4-1.136 1.248l-1.056-0.88q0.656-1.088 1.584-1.632 0.928-0.56 2.144-0.56 1.024 0 1.776 0.4 0.768 0.4 1.184 1.12t0.416 1.68q0 0.688-0.176 1.232-0.16 0.544-0.592 1.12-0.416 0.56-1.168 1.344l-3.312 3.408zm0 0.912v-0.912l1.28-0.432h6.176v1.344zm12.096 0.16q-1.136 0-2.032-0.4-0.88-0.416-1.488-1.2l1.024-1.024q0.368 0.56 1.008 0.896 0.656 0.32 1.456 0.32 0.752 0 1.312-0.288 0.576-0.288 0.896-0.8 0.336-0.528 0.336-1.248 0-0.736-0.32-1.248t-0.864-0.768q-0.528-0.272-1.168-0.272-0.656 0-1.2 0.16-0.528 0.16-1.008 0.544l0.016-0.96q0.272-0.336 0.624-0.544t0.8-0.32 1.04-0.112q1.152 0 1.952 0.48t1.216 1.296q0.432 0.816 0.432 1.824 0 1.056-0.528 1.888-0.512 0.832-1.424 1.312-0.912 0.464-2.08 0.464zm-2.048-5.328-0.816-0.816 0.496-5.12h1.376l-0.56 5.264zm-0.016-4.592-0.304-1.344h5.84v1.344zm7.28 5.936 4.048-7.28h1.696l-4.128 7.28zm0 0.928v-0.928l0.64-0.416h7.872v1.344zm5.424 2.896v-7.344h1.488v7.344z" aria-label="254"/><path d="m424.61 112.7q-1.136 0-2.032-0.4-0.88-0.416-1.488-1.2l1.024-1.024q0.368 0.56 1.008 0.896 0.656 0.32 1.456 0.32 0.752 0 1.312-0.288 0.576-0.288 0.896-0.8 0.336-0.528 0.336-1.248 0-0.736-0.32-1.248t-0.864-0.768q-0.528-0.272-1.168-0.272-0.656 0-1.2 0.16-0.528 0.16-1.008 0.544l0.016-0.96q0.272-0.336 0.624-0.544t0.8-0.32 1.04-0.112q1.152 0 1.952 0.48t1.216 1.296q0.432 0.816 0.432 1.824 0 1.056-0.528 1.888-0.512 0.832-1.424 1.312-0.912 0.464-2.08 0.464zm-2.048-5.328-0.816-0.816 0.496-5.12h1.376l-0.56 5.264zm-0.016-4.592-0.304-1.344h5.84v1.344zm10.704 9.92q-1.088 0-1.984-0.4-0.88-0.416-1.488-1.2l1.024-1.024q0.368 0.56 1.008 0.896 0.64 0.32 1.424 0.32 0.736 0 1.264-0.272 0.544-0.288 0.848-0.8 0.32-0.512 0.32-1.184 0-0.688-0.32-1.184-0.304-0.512-0.864-0.784t-1.328-0.272q-0.288 0-0.576 0.048-0.288 0.032-0.56 0.112l0.64-0.864q0.304-0.144 0.656-0.224t0.704-0.08q0.896 0 1.6 0.416 0.72 0.416 1.136 1.168 0.432 0.752 0.432 1.744 0 1.056-0.512 1.872-0.496 0.8-1.376 1.264-0.88 0.448-2.048 0.448zm-1.232-5.744v-0.912l3.248-3.696 1.792-0.016-3.344 3.792zm-1.712-4.176v-1.344h6.752v0.896l-1.312 0.448z" aria-label="53"/><path d="m424.55 140.05q-1.088 0-1.984-0.4-0.88-0.416-1.488-1.2l1.024-1.024q0.368 0.56 1.008 0.896 0.64 0.32 1.424 0.32 0.736 0 1.264-0.272 0.544-0.288 0.848-0.8 0.32-0.512 0.32-1.184 0-0.688-0.32-1.184-0.304-0.512-0.864-0.784t-1.328-0.272q-0.288 0-0.576 0.048-0.288 0.032-0.56 0.112l0.64-0.864q0.304-0.144 0.656-0.224t0.704-0.08q0.896 0 1.6 0.416 0.72 0.416 1.136 1.168 0.432 0.752 0.432 1.744 0 1.056-0.512 1.872-0.496 0.8-1.376 1.264-0.88 0.448-2.048 0.448zm-1.232-5.744v-0.912l3.248-3.696 1.792-0.016-3.344 3.792zm-1.712-4.176v-1.344h6.752v0.896l-1.312 0.448zm11.568 9.92q-1.136 0-2.032-0.4-0.88-0.416-1.488-1.2l1.024-1.024q0.368 0.56 1.008 0.896 0.656 0.32 1.456 0.32 0.752 0 1.312-0.288 0.576-0.288 0.896-0.8 0.336-0.528 0.336-1.248 0-0.736-0.32-1.248t-0.864-0.768q-0.528-0.272-1.168-0.272-0.656 0-1.2 0.16-0.528 0.16-1.008 0.544l0.016-0.96q0.272-0.336 0.624-0.544t0.8-0.32 1.04-0.112q1.152 0 1.952 0.48t1.216 1.296q0.432 0.816 0.432 1.824 0 1.056-0.528 1.888-0.512 0.832-1.424 1.312-0.912 0.464-2.08 0.464zm-2.048-5.328-0.816-0.816 0.496-5.12h1.376l-0.56 5.264zm-0.016-4.592-0.304-1.344h5.84v1.344z" aria-label="35"/><path d="m424.82 167.33v-11.104h1.488v11.104zm-2.272-9.76v-1.344h3.6v1.344zm9.456 9.92q-1.104 0-1.952-0.416-0.832-0.416-1.296-1.152t-0.464-1.664q0-0.752 0.288-1.376t0.848-1.056q0.56-0.448 1.312-0.64l0.048 0.432q-0.64-0.176-1.088-0.56-0.448-0.4-0.688-0.928-0.224-0.544-0.224-1.152 0-0.864 0.416-1.52t1.136-1.024q0.736-0.384 1.664-0.384 0.944 0 1.664 0.384 0.72 0.368 1.136 1.024t0.416 1.52q0 0.608-0.24 1.152-0.224 0.528-0.672 0.928-0.432 0.384-1.072 0.56l0.032-0.432q0.768 0.192 1.312 0.64 0.56 0.432 0.848 1.056 0.304 0.624 0.304 1.376 0 0.928-0.464 1.664t-1.312 1.152q-0.832 0.416-1.952 0.416zm0-1.36q0.672 0 1.168-0.256 0.512-0.272 0.8-0.736 0.304-0.464 0.304-1.072 0-0.592-0.304-1.056-0.288-0.464-0.8-0.72-0.496-0.272-1.168-0.272-0.656 0-1.168 0.272-0.512 0.256-0.816 0.72-0.288 0.464-0.288 1.056 0 0.608 0.288 1.072 0.304 0.464 0.816 0.736 0.512 0.256 1.168 0.256zm0-5.28q0.8 0 1.312-0.496t0.512-1.28q0-0.768-0.512-1.248-0.512-0.496-1.312-0.496-0.784 0-1.296 0.496-0.512 0.48-0.512 1.248 0 0.784 0.512 1.28t1.296 0.496z" aria-label="18"/></g><g fill="#f87171"><path d="m365.87 112.61 3.344-4.56 0.544-0.288q-0.192 0.32-0.464 0.56t-0.672 0.368q-0.384 0.128-0.944 0.128-0.96 0-1.776-0.464-0.8-0.464-1.28-1.28-0.48-0.832-0.48-1.872 0-1.072 0.528-1.936 0.528-0.88 1.408-1.392 0.88-0.528 1.952-0.528 1.088 0 1.968 0.512t1.392 1.376q0.512 0.848 0.512 1.92 0 1.472-1.024 2.928l-3.264 4.528zm2.16-4.976q0.672 0 1.2-0.32 0.544-0.336 0.848-0.88 0.32-0.56 0.32-1.232 0-0.704-0.32-1.248-0.304-0.56-0.848-0.88-0.528-0.32-1.2-0.32t-1.216 0.32q-0.528 0.32-0.848 0.88-0.32 0.544-0.32 1.248 0 0.688 0.32 1.232t0.864 0.88q0.544 0.32 1.2 0.32z" aria-label="9"/><path d="m367.79 139.96q-1.088 0-1.984-0.4-0.88-0.416-1.488-1.2l1.024-1.024q0.368 0.56 1.008 0.896 0.64 0.32 1.424 0.32 0.736 0 1.264-0.272 0.544-0.288 0.848-0.8 0.32-0.512 0.32-1.184 0-0.688-0.32-1.184-0.304-0.512-0.864-0.784t-1.328-0.272q-0.288 0-0.576 0.048-0.288 0.032-0.56 0.112l0.64-0.864q0.304-0.144 0.656-0.224t0.704-0.08q0.896 0 1.6 0.416 0.72 0.416 1.136 1.168 0.432 0.752 0.432 1.744 0 1.056-0.512 1.872-0.496 0.8-1.376 1.264-0.88 0.448-2.048 0.448zm-1.232-5.744v-0.912l3.248-3.696 1.792-0.016-3.344 3.792zm-1.712-4.176v-1.344h6.752v0.896l-1.312 0.448z" aria-label="3"/><path d="m368.01 167.31q-1.104 0-1.984-0.512-0.864-0.512-1.376-1.376t-0.512-1.92q0-1.472 1.024-2.928l3.264-4.528h1.744l-3.344 4.56-0.544 0.288q0.192-0.336 0.464-0.56 0.272-0.24 0.672-0.368t0.944-0.128q0.976 0 1.76 0.464 0.8 0.464 1.28 1.28 0.496 0.8 0.496 1.872 0 1.056-0.528 1.936-0.512 0.88-1.408 1.408-0.88 0.512-1.952 0.512zm0-1.408q0.672 0 1.2-0.32 0.544-0.336 0.848-0.88 0.32-0.56 0.32-1.248t-0.32-1.232q-0.304-0.56-0.848-0.88-0.528-0.32-1.2-0.32t-1.216 0.32q-0.528 0.32-0.848 0.88-0.304 0.544-0.304 1.232t0.304 1.248q0.32 0.56 0.848 0.88 0.544 0.32 1.216 0.32z" aria-label="6"/></g><path d="m306.89 112.77q-1.104 0-1.984-0.512-0.864-0.512-1.376-1.376t-0.512-1.92q0-1.472 1.024-2.928l3.264-4.528h1.744l-3.344 4.56-0.544 0.288q0.192-0.336 0.464-0.56 0.272-0.24 0.672-0.368t0.944-0.128q0.976 0 1.76 0.464 0.8 0.464 1.28 1.28 0.496 0.8 0.496 1.872 0 1.056-0.528 1.936-0.512 0.88-1.408 1.408-0.88 0.512-1.952 0.512zm0-1.408q0.672 0 1.2-0.32 0.544-0.336 0.848-0.88 0.32-0.56 0.32-1.248t-0.32-1.232q-0.304-0.56-0.848-0.88-0.528-0.32-1.2-0.32t-1.216 0.32q-0.528 0.32-0.848 0.88-0.304 0.544-0.304 1.232t0.304 1.248q0.32 0.56 0.848 0.88 0.544 0.32 1.216 0.32z" fill="#93c5fd" aria-label="6"/></g></g><text x="313.55115" y="191.79643" font-family="'STIX Two Math'" font-size="16px" text-align="end" text-anchor="end" style="line-height:1.25" xml:space="preserve"><tspan x="0" y="0"/></text></svg>
