<svg xmlns="http://www.w3.org/2000/svg" width="493" height="269" fill="none">
  <path fill="#0F0F15" d="M.00048828 0h493v269h-493z"/>
  <path stroke="#fff" stroke-opacity=".13" stroke-width="2" d="M1.00049 1h491v267h-491z"/>
  <mask id="a" fill="#fff">
    <path d="M55.0005 34H438v52H55.0005V34Z"/>
  </mask>
  <path fill="#fff" fill-opacity=".13" d="M438 85H55.0005v2H438v-2Z" mask="url(#a)"/>
  <path fill="#fff" d="M79.1259 68v-1.806h4.053c1.078 0 2.023-.231 2.835-.693.812-.476 1.442-1.127 1.89-1.953.462-.826.693-1.778.693-2.856 0-1.064-.231-2.009-.693-2.835-.462-.826-1.099-1.47-1.911-1.932-.812-.462-1.75-.693-2.814-.693h-4.032v-1.806h4.074c1.064 0 2.044.182 2.94.546.91.364 1.694.875 2.352 1.533.672.658 1.19 1.428 1.554 2.31.378.882.567 1.848.567 2.898 0 1.036-.189 2.002-.567 2.898-.364.882-.875 1.652-1.533 2.31-.658.658-1.442 1.169-2.352 1.533-.896.364-1.869.546-2.919.546h-4.137Zm-1.302 0V53.426h1.974V68h-1.974Zm20.249.21c-.994 0-1.89-.224-2.688-.672-.798-.462-1.428-1.085-1.89-1.869-.462-.784-.693-1.673-.693-2.667 0-.98.224-1.862.672-2.646.462-.784 1.078-1.4 1.848-1.848.784-.462 1.659-.693 2.625-.693.924 0 1.736.21 2.4361.63.714.42 1.267 1.001 1.659 1.743.406.742.609 1.582.609 2.52 0 .14-.007.294-.021.462-.014.154-.042.336-.084.546h-8.4211v-1.575h7.4131l-.693.609c0-.672-.119-1.239-.357-1.701-.238-.476-.5741-.84-1.0081-1.092-.434-.266-.959-.399-1.575-.399-.644 0-1.211.14-1.701.42-.49.28-.868.672-1.134 1.176-.266.504-.399 1.099-.399 1.785 0 .7.14 1.316.42 1.848.28.518.679.924 1.197 1.218.518.28 1.113.42 1.785.42.56 0 1.071-.098 1.533-.294.4761-.196.8821-.49 1.2181-.882l1.218 1.239c-.476.56-1.064.987-1.764 1.281-.6861.294-1.4211.441-2.2051.441Zm11.6161 0c-.98 0-1.869-.231-2.667-.693-.784-.462-1.407-1.085-1.869-1.869-.448-.798-.672-1.68-.672-2.646 0-.98.224-1.862.672-2.646.462-.784 1.085-1.4 1.869-1.848.798-.462 1.687-.693 2.667-.693.77 0 1.484.147 2.142.441.658.28 1.225.693 1.701 1.239l-1.26 1.26c-.308-.364-.686-.637-1.134-.819-.434-.196-.917-.294-1.449-.294-.63 0-1.19.147-1.68.441-.49.28-.875.672-1.155 1.176-.28.504-.42 1.085-.42 1.743 0 .658.14 1.239.42 1.743.28.504.665.903 1.155 1.197.49.294 1.05.441 1.68.441.532 0 1.015-.091 1.449-.273.448-.196.833-.476 1.155-.84l1.239 1.26c-.462.532-1.029.945-1.701 1.239-.658.294-1.372.441-2.142.441ZM122.21 68l-4.662-5.103 4.62-4.872h2.289l-5.145 5.376.084-1.092 5.25 5.691h-2.436Zm-6.384 0V53.006h1.89V68h-1.89Zm113.496 0V53.426h1.386l.588 2.289V68h-1.974Zm10.08 0-8.946-11.949.252-2.625 8.967 11.928-.273 2.646Zm0 0-.588-2.163V53.426h1.974V68h-1.386Zm9.533.21c-.994 0-1.89-.224-2.688-.672-.798-.462-1.428-1.085-1.89-1.869-.462-.784-.693-1.673-.693-2.667 0-.98.224-1.862.672-2.646.462-.784 1.078-1.4 1.848-1.848.784-.462 1.659-.693 2.625-.693.924 0 1.736.21 2.436.63.714.42 1.267 1.001 1.659 1.743.406.742.609 1.582.609 2.52 0 .14-.007.294-.021.462-.014.154-.042.336-.084.546h-8.421v-1.575h7.413l-.693.609c0-.672-.119-1.239-.357-1.701-.238-.476-.574-.84-1.008-1.092-.434-.266-.959-.399-1.575-.399-.644 0-1.211.14-1.701.42-.49.28-.868.672-1.134 1.176-.266.504-.399 1.099-.399 1.785 0 .7.14 1.316.42 1.848.28.518.679.924 1.197 1.218.518.28 1.113.42 1.785.42.56 0 1.071-.098 1.533-.294.476-.196.882-.49 1.218-.882l1.218 1.239c-.476.56-1.064.987-1.764 1.281-.686.294-1.421.441-2.205.441Zm9.792-.21-3.948-9.975h1.974l2.856 7.77h-.63l2.835-7.77h1.092l2.835 7.77h-.63l2.856-7.77h1.974L266.014 68h-1.113l-2.877-7.539h.693L259.819 68h-1.092Zm33.599 0V53.426h1.974V68h-1.974Zm1.344 0v-1.806h7.812V68h-7.812Zm14.517.21c-.994 0-1.89-.224-2.688-.672-.798-.462-1.428-1.085-1.89-1.869-.462-.784-.693-1.673-.693-2.667 0-.98.224-1.862.672-2.646.462-.784 1.078-1.4 1.848-1.848.784-.462 1.659-.693 2.625-.693.924 0 1.736.21 2.436.63.714.42 1.267 1.001 1.659 1.743.406.742.609 1.582.609 2.52 0 .14-.007.294-.021.462-.014.154-.042.336-.084.546h-8.421v-1.575h7.413l-.693.609c0-.672-.119-1.239-.357-1.701-.238-.476-.574-.84-1.008-1.092-.434-.266-.959-.399-1.575-.399-.644 0-1.211.14-1.701.42-.49.28-.868.672-1.134 1.176-.266.504-.399 1.099-.399 1.785 0 .7.14 1.316.42 1.848.28.518.679.924 1.197 1.218.518.28 1.113.42 1.785.42.56 0 1.071-.098 1.533-.294.476-.196.882-.49 1.218-.882l1.218 1.239c-.476.56-1.064.987-1.764 1.281-.686.294-1.421.441-2.205.441Zm11.3 0c-.91 0-1.736-.224-2.478-.672-.742-.462-1.33-1.085-1.764-1.869-.42-.784-.63-1.666-.63-2.646s.21-1.862.63-2.646c.434-.784 1.015-1.407 1.743-1.869.742-.462 1.575-.693 2.499-.693.756 0 1.428.161 2.016.483.602.308 1.085.742 1.449 1.302.364.546.567 1.183.609 1.911v3.003c-.042.714-.245 1.351-.609 1.911-.35.56-.826 1.001-1.428 1.323-.588.308-1.267.462-2.037.462Zm.315-1.785c.938 0 1.694-.315 2.268-.945.574-.644.861-1.463.861-2.457 0-.686-.133-1.281-.399-1.785-.252-.518-.616-.917-1.092-1.197-.476-.294-1.029-.441-1.659-.441-.63 0-1.19.147-1.68.441-.476.294-.854.7-1.134 1.218-.266.504-.399 1.085-.399 1.743 0 .672.133 1.267.399 1.785.28.504.665.903 1.155 1.197.49.294 1.05.441 1.68.441ZM322.805 68v-2.688l.357-2.436-.357-2.415v-2.436h1.911V68h-1.911Zm5.083 0v-9.975h1.89V68h-1.89Zm1.89-5.691-.714-.315c0-1.274.294-2.289.882-3.045.588-.756 1.435-1.134 2.541-1.134.504 0 .959.091 1.365.273.406.168.784.455 1.134.861l-1.239 1.281c-.21-.224-.441-.385-.693-.483-.252-.098-.546-.147-.882-.147-.7 0-1.274.224-1.722.672-.448.448-.672 1.127-.672 2.037ZM343.834 68v-5.817c0-.756-.238-1.379-.714-1.869s-1.092-.735-1.848-.735c-.504 0-.952.112-1.344.336-.392.224-.7.532-.924.924-.224.392-.336.84-.336 1.344l-.777-.441c0-.756.168-1.428.504-2.016.336-.588.805-1.05 1.407-1.386.602-.35 1.281-.525 2.037-.525s1.421.189 1.995.567c.588.378 1.05.875 1.386 1.491.336.602.504 1.246.504 1.932V68h-1.89Zm-7.056 0v-9.975h1.89V68h-1.89Zm35.594 0v-1.806h4.053c1.078 0 2.023-.231 2.835-.693.812-.476 1.442-1.127 1.89-1.953.462-.826.693-1.778.693-2.856 0-1.064-.231-2.009-.693-2.835-.462-.826-1.099-1.47-1.911-1.932-.812-.462-1.75-.693-2.814-.693h-4.032v-1.806h4.074c1.064 0 2.044.182 2.94.546.91.364 1.694.875 2.352 1.533.672.658 1.19 1.428 1.554 2.31.378.882.567 1.848.567 2.898 0 1.036-.189 2.002-.567 2.898-.364.882-.875 1.652-1.533 2.31-.658.658-1.442 1.169-2.352 1.533-.896.364-1.869.546-2.919.546h-4.137Zm-1.302 0V53.426h1.974V68h-1.974Zm19.64.21c-.812 0-1.547-.182-2.205-.546-.644-.378-1.148-.896-1.512-1.554-.364-.658-.546-1.421-.546-2.289v-5.796h1.89v5.712c0 .546.091 1.022.273 1.428.196.392.476.693.84.903.364.21.791.315 1.281.315.742 0 1.323-.231 1.743-.693.42-.476.63-1.127.63-1.953v-5.712h1.89v5.796c0 .868-.182 1.631-.546 2.289-.364.658-.868 1.176-1.512 1.554-.63.364-1.372.546-2.226.546Zm11.857 0c-.994 0-1.89-.224-2.688-.672-.798-.462-1.428-1.085-1.89-1.869-.462-.784-.693-1.673-.693-2.667 0-.98.224-1.862.672-2.646.462-.784 1.078-1.4 1.848-1.848.784-.462 1.659-.693 2.625-.693.924 0 1.736.21 2.436.63.714.42 1.267 1.001 1.659 1.743.406.742.609 1.582.609 2.52 0 .14-.007.294-.021.462-.014.154-.042.336-.084.546h-8.421v-1.575h7.413l-.693.609c0-.672-.119-1.239-.357-1.701-.238-.476-.574-.84-1.008-1.092-.434-.266-.959-.399-1.575-.399-.644 0-1.211.14-1.701.42-.49.28-.868.672-1.134 1.176-.266.504-.399 1.099-.399 1.785 0 .7.14 1.316.42 1.848.28.518.679.924 1.197 1.218.518.28 1.113.42 1.785.42.56 0 1.071-.098 1.533-.294.476-.196.882-.49 1.218-.882l1.218 1.239c-.476.56-1.064.987-1.764 1.281-.686.294-1.421.441-2.205.441ZM77.3301 117.47v-.945h6.135v.945h-6.135Zm2.58-3.69h.975v6.42h-.975v-6.42Zm14.3243 8.355c-.73 0-1.41-.135-2.04-.405-.63-.27-1.18-.645-1.65-1.125s-.835-1.04-1.095-1.68c-.26-.65-.39-1.35-.39-2.1s.13-1.445.39-2.085c.27-.64.64-1.2 1.11-1.68.47-.49 1.025-.87 1.665-1.14.64-.27 1.335-.405 2.085-.405.83 0 1.59.165 2.28.495.7.33 1.275.795 1.725 1.395l-.765.765c-.36-.51-.82-.9-1.38-1.17-.56-.28-1.18-.42-1.86-.42-.81 0-1.525.185-2.145.555-.62.36-1.105.86-1.455 1.5-.34.64-.51 1.375-.51 2.205 0 .82.17 1.55.51 2.19.35.64.825 1.145 1.425 1.515.61.36 1.3.54 2.07.54.77 0 1.435-.155 1.995-.465.57-.31 1.005-.76 1.305-1.35.31-.59.47-1.3.48-2.13l.63.465h-4.515V116.6h5.025v.165c0 1.16-.21 2.14-.63 2.94-.41.8-.98 1.405-1.71 1.815-.73.41-1.58.615-2.55.615Zm10.2366.015c-.71 0-1.345-.16-1.905-.48-.56-.32-1.005-.76-1.335-1.32-.32-.56-.48-1.19-.48-1.89 0-.69.16-1.31.48-1.86.32-.56.755-1 1.305-1.32.55-.32 1.165-.48 1.845-.48.64 0 1.205.145 1.695.435.5.29.89.695 1.17 1.215.29.51.435 1.1.435 1.77 0 .08-.005.175-.015.285-.01.1-.03.22-.06.36h-6.105v-.9h5.535l-.375.33c.01-.52-.08-.965-.27-1.335-.18-.38-.445-.67-.795-.87-.34-.21-.755-.315-1.245-.315-.51 0-.955.11-1.335.33-.38.22-.68.53-.9.93-.21.39-.315.855-.315 1.395s.11 1.015.33 1.425c.23.41.545.73.945.96.41.23.88.345 1.41.345.43 0 .825-.075 1.185-.225.36-.16.665-.395.915-.705l.675.69c-.33.39-.74.695-1.23.915-.48.21-1 .315-1.56.315Zm8.311 0c-.68 0-1.3-.165-1.86-.495-.55-.33-.99-.775-1.32-1.335-.32-.56-.48-1.185-.48-1.875 0-.68.16-1.295.48-1.845.33-.55.77-.985 1.32-1.305.56-.33 1.18-.495 1.86-.495.69 0 1.31.16 1.86.48.55.32.985.76 1.305 1.32.33.55.495 1.165.495 1.845 0 .7-.165 1.33-.495 1.89-.32.55-.755.99-1.305 1.32-.55.33-1.17.495-1.86.495Zm0-1.02c.5 0 .94-.115 1.32-.345.39-.23.695-.55.915-.96.23-.41.345-.87.345-1.38 0-.51-.115-.96-.345-1.35-.22-.4-.525-.715-.915-.945-.38-.23-.82-.345-1.32-.345-.49 0-.93.115-1.32.345-.39.23-.695.545-.915.945-.22.39-.33.84-.33 1.35 0 .52.11.985.33 1.395.22.4.525.715.915.945.39.23.83.345 1.32.345Zm8.541 3.99c-.71 0-1.345-.135-1.905-.405-.55-.26-.995-.63-1.335-1.11l.69-.69c.28.38.635.675 1.065.885.43.21.935.315 1.515.315.8 0 1.435-.215 1.905-.645.48-.43.72-1.015.72-1.755v-1.755l.21-1.605-.21-1.59v-1.815h1.05v6.765c0 .68-.155 1.275-.465 1.785-.31.51-.745.905-1.305 1.185-.55.29-1.195.435-1.935.435Zm.075-3.195c-.65 0-1.235-.155-1.755-.465-.52-.31-.93-.735-1.23-1.275-.3-.54-.45-1.15-.45-1.83 0-.68.145-1.285.435-1.815.3-.54.71-.965 1.23-1.275.52-.31 1.105-.465 1.755-.465.55 0 1.04.105 1.47.315.44.21.79.51 1.05.9.27.38.435.83.495 1.35v1.995c-.06.51-.225.96-.495 1.35-.27.38-.62.68-1.05.9-.43.21-.915.315-1.455.315Zm.195-1.005c.49 0 .915-.105 1.275-.315.37-.21.655-.505.855-.885.21-.39.315-.845.315-1.365 0-.51-.105-.955-.315-1.335-.2-.38-.485-.68-.855-.9-.37-.22-.8-.33-1.29-.33s-.93.11-1.32.33c-.38.22-.68.52-.9.9-.21.38-.315.825-.315 1.335 0 .5.11.945.33 1.335.22.39.52.695.9.915.38.21.82.315 1.32.315Zm5.85 1.08v-7.05h1.05V122h-1.05Zm1.05-4.11-.435-.195c0-.89.215-1.595.645-2.115.44-.52 1.04-.78 1.8-.78.35 0 .67.065.96.195.29.12.56.315.81.585l-.69.735c-.17-.19-.36-.325-.57-.405-.2-.08-.43-.12-.69-.12-.54 0-.98.18-1.32.54-.34.35-.51.87-.51 1.56Zm8.008 4.26c-.67 0-1.27-.16-1.8-.48-.53-.33-.95-.77-1.26-1.32-.3-.55-.45-1.17-.45-1.86 0-.7.15-1.325.45-1.875.31-.56.73-1 1.26-1.32.53-.33 1.125-.495 1.785-.495.54 0 1.02.11 1.44.33.43.21.775.51 1.035.9.27.38.435.825.495 1.335v2.205c-.06.51-.225.96-.495 1.35-.26.39-.605.695-1.035.915-.42.21-.895.315-1.425.315Zm.165-1.005c.73 0 1.315-.245 1.755-.735.45-.49.675-1.135.675-1.935 0-.53-.105-.995-.315-1.395-.2-.41-.485-.725-.855-.945-.36-.23-.785-.345-1.275-.345-.5 0-.945.115-1.335.345-.38.23-.685.55-.915.96-.22.4-.33.86-.33 1.38 0 .52.11.98.33 1.38.23.4.54.715.93.945.39.23.835.345 1.335.345Zm2.37.855v-1.89l.21-1.74-.21-1.695v-1.725h1.05V122h-1.05Zm7.125.15c-.54 0-1.025-.11-1.455-.33-.43-.22-.785-.52-1.065-.9-.27-.39-.435-.84-.495-1.35v-2.205c.06-.52.23-.97.51-1.35.28-.39.635-.69 1.065-.9.44-.21.92-.315 1.44-.315.65 0 1.235.165 1.755.495.52.32.93.76 1.23 1.32.31.55.465 1.175.465 1.875 0 .69-.15 1.31-.45 1.86-.3.55-.715.99-1.245 1.32-.52.32-1.105.48-1.755.48Zm-.18-1.005c.5 0 .94-.11 1.32-.33.38-.23.675-.545.885-.945.22-.41.33-.875.33-1.395 0-.53-.11-.995-.33-1.395-.21-.4-.505-.715-.885-.945-.38-.23-.815-.345-1.305-.345s-.925.115-1.305.345c-.37.23-.66.545-.87.945-.21.4-.315.865-.315 1.395 0 .52.105.985.315 1.395.21.4.5.715.87.945.37.22.8.33 1.29.33Zm-3.465 3.825v-10.02h1.05v1.8l-.21 1.71.21 1.725v4.785h-1.05ZM156.72 122v-4.14c0-.62-.185-1.12-.555-1.5-.36-.39-.84-.585-1.44-.585-.41 0-.77.09-1.08.27-.31.18-.555.425-.735.735-.18.31-.27.665-.27 1.065l-.48-.27c0-.53.125-1.005.375-1.425.25-.42.585-.75 1.005-.99.43-.24.92-.36 1.47-.36.54 0 1.02.125 1.44.375.42.24.745.575.975 1.005.24.43.36.93.36 1.5V122h-1.065Zm-5.13 0v-10.62h1.05V122h-1.05Zm10.814.03-3.09-7.08h1.155l2.49 5.91h-.435l2.625-5.91h1.17l-3.315 7.08h-.6Zm-1.92 2.94 1.935-4.005.585 1.065-1.365 2.94h-1.155Z"/>
  <path fill="#968CA8" d="m239.866 121.145 3.84-4.05c.39-.4.695-.745.915-1.035.22-.3.375-.575.465-.825.1-.25.15-.51.15-.78 0-.53-.17-.945-.51-1.245-.34-.3-.78-.45-1.32-.45-.53 0-.995.13-1.395.39-.4.25-.755.64-1.065 1.17l-.99-.825c.41-.68.905-1.19 1.485-1.53.58-.35 1.25-.525 2.01-.525.64 0 1.195.125 1.665.375.48.25.85.6 1.11 1.05.26.45.39.975.39 1.575 0 .43-.055.815-.165 1.155-.1.34-.285.69-.555 1.05-.26.35-.625.77-1.095 1.26l-3.105 3.195-1.83.045Zm0 .855v-.855l1.2-.405h5.79V122h-6.99Zm12.87.15c-.78 0-1.495-.22-2.145-.66-.64-.44-1.15-1.06-1.53-1.86-.38-.81-.57-1.76-.57-2.85s.185-2.035.555-2.835c.38-.8.89-1.415 1.53-1.845.64-.44 1.345-.66 2.115-.66.79 0 1.505.22 2.145.66.64.43 1.145 1.045 1.515 1.845.38.8.57 1.75.57 2.85 0 1.09-.19 2.04-.57 2.85-.37.8-.875 1.42-1.515 1.86-.63.43-1.33.645-2.1.645Zm-.03-1.335c.55 0 1.03-.15 1.44-.45.42-.31.75-.765.99-1.365s.36-1.34.36-2.22c0-.88-.12-1.615-.36-2.205-.24-.6-.57-1.05-.99-1.35-.42-.31-.905-.465-1.455-.465-.54 0-1.02.155-1.44.465-.42.3-.75.75-.99 1.35-.23.59-.345 1.325-.345 2.205 0 .88.115 1.62.345 2.22.24.6.57 1.055.99 1.365.42.3.905.45 1.455.45Z"/>
  <path fill="#8B9297" d="M318.529 122.15c-.78 0-1.495-.22-2.145-.66-.64-.44-1.15-1.06-1.53-1.86-.38-.81-.57-1.76-.57-2.85s.185-2.035.555-2.835c.38-.8.89-1.415 1.53-1.845.64-.44 1.345-.66 2.115-.66.79 0 1.505.22 2.145.66.64.43 1.145 1.045 1.515 1.845.38.8.57 1.75.57 2.85 0 1.09-.19 2.04-.57 2.85-.37.8-.875 1.42-1.515 1.86-.63.43-1.33.645-2.1.645Zm-.03-1.335c.55 0 1.03-.15 1.44-.45.42-.31.75-.765.99-1.365s.36-1.34.36-2.22c0-.88-.12-1.615-.36-2.205-.24-.6-.57-1.05-.99-1.35-.42-.31-.905-.465-1.455-.465-.54 0-1.02.155-1.44.465-.42.3-.75.75-.99 1.35-.23.59-.345 1.325-.345 2.205 0 .88.115 1.62.345 2.22.24.6.57 1.055.99 1.365.42.3.905.45 1.455.45Z"/>
  <path fill="#7EBBE5" d="M379.655 122v-10.41h1.395V122h-1.395Zm-2.13-9.15v-1.26h3.375v1.26h-3.375Zm5.531 8.295 3.84-4.05c.39-.4.695-.745.915-1.035.22-.3.375-.575.465-.825.1-.25.15-.51.15-.78 0-.53-.17-.945-.51-1.245-.34-.3-.78-.45-1.32-.45-.53 0-.995.13-1.395.39-.4.25-.755.64-1.065 1.17l-.99-.825c.41-.68.905-1.19 1.485-1.53.58-.35 1.25-.525 2.01-.525.64 0 1.195.125 1.665.375.48.25.85.6 1.11 1.05.26.45.39.975.39 1.575 0 .43-.055.815-.165 1.155-.1.34-.285.69-.555 1.05-.26.35-.625.77-1.095 1.26l-3.105 3.195-1.83.045Zm0 .855v-.855l1.2-.405h5.79V122h-6.99Zm8.415-3.585 3.795-6.825h1.59l-3.87 6.825h-1.515Zm0 .87v-.87l.6-.39h7.38v1.26h-7.98Zm5.085 2.715v-6.885h1.395V122h-1.395Z"/>
  <path fill="#fff" d="M77.1147 150.7v-1.005h4.785v1.005h-4.785Zm14.4997 3.3v-10.32h1.095V154h-1.095Zm.72 0v-1.005h5.685V154h-5.685Zm10.3246.15c-.67 0-1.27-.16-1.8-.48-.53-.33-.9501-.77-1.2601-1.32-.3-.55-.45-1.17-.45-1.86 0-.7.15-1.325.45-1.875.31-.56.7301-1 1.2601-1.32.53-.33 1.125-.495 1.785-.495.54 0 1.02.11 1.44.33.43.21.775.51 1.035.9.27.38.435.825.495 1.335v2.205c-.06.51-.225.96-.495 1.35-.26.39-.605.695-1.035.915-.42.21-.895.315-1.425.315Zm.165-1.005c.73 0 1.315-.245 1.755-.735.45-.49.675-1.135.675-1.935 0-.53-.105-.995-.315-1.395-.2-.41-.485-.725-.855-.945-.36-.23-.785-.345-1.275-.345-.5 0-.945.115-1.335.345-.38.23-.685.55-.915.96-.22.4-.33.86-.33 1.38 0 .52.11.98.33 1.38.23.4.54.715.93.945.39.23.835.345 1.335.345Zm2.37.855v-1.89l.21-1.74-.21-1.695v-1.725h1.05V154h-1.05Zm8.609 0v-4.14c0-.62-.185-1.12-.555-1.5-.36-.39-.84-.585-1.44-.585-.41 0-.77.09-1.08.27-.31.18-.555.425-.735.735-.18.31-.27.665-.27 1.065l-.48-.27c0-.53.125-1.005.375-1.425.25-.42.585-.75 1.005-.99.43-.24.92-.36 1.47-.36.54 0 1.02.13 1.44.39.42.26.745.61.975 1.05.24.44.36.92.36 1.44V154h-1.065Zm-5.13 0v-7.05h1.05V154h-1.05Zm11.369 3.12c-.71 0-1.345-.135-1.905-.405-.55-.26-.995-.63-1.335-1.11l.69-.69c.28.38.635.675 1.065.885.43.21.935.315 1.515.315.8 0 1.435-.215 1.905-.645.48-.43.72-1.015.72-1.755v-1.755l.21-1.605-.21-1.59v-1.815h1.05v6.765c0 .68-.155 1.275-.465 1.785-.31.51-.745.905-1.305 1.185-.55.29-1.195.435-1.935.435Zm.075-3.195c-.65 0-1.235-.155-1.755-.465-.52-.31-.93-.735-1.23-1.275-.3-.54-.45-1.15-.45-1.83 0-.68.145-1.285.435-1.815.3-.54.71-.965 1.23-1.275.52-.31 1.105-.465 1.755-.465.55 0 1.04.105 1.47.315.44.21.79.51 1.05.9.27.38.435.83.495 1.35v1.995c-.06.51-.225.96-.495 1.35-.27.38-.62.68-1.05.9-.43.21-.915.315-1.455.315Zm.195-1.005c.49 0 .915-.105 1.275-.315.37-.21.655-.505.855-.885.21-.39.315-.845.315-1.365 0-.51-.105-.955-.315-1.335-.2-.38-.485-.68-.855-.9-.37-.22-.8-.33-1.29-.33s-.93.11-1.32.33c-.38.22-.68.52-.9.9-.21.38-.315.825-.315 1.335 0 .5.11.945.33 1.335.22.39.52.695.9.915.38.21.82.315 1.32.315Zm8.641 1.23c-.57 0-1.08-.13-1.53-.39-.45-.27-.805-.635-1.065-1.095-.25-.46-.375-1-.375-1.62v-4.095h1.065V151c0 .43.075.805.225 1.125.16.32.385.57.675.75.29.18.625.27 1.005.27.59 0 1.055-.195 1.395-.585.35-.39.525-.91.525-1.56v-4.05h1.05v4.095c0 .61-.125 1.15-.375 1.62-.25.47-.6.835-1.05 1.095-.45.26-.965.39-1.545.39Zm8.29 0c-.67 0-1.27-.16-1.8-.48-.53-.33-.95-.77-1.26-1.32-.3-.55-.45-1.17-.45-1.86 0-.7.15-1.325.45-1.875.31-.56.73-1 1.26-1.32.53-.33 1.125-.495 1.785-.495.54 0 1.02.11 1.44.33.43.21.775.51 1.035.9.27.38.435.825.495 1.335v2.205c-.06.51-.225.96-.495 1.35-.26.39-.605.695-1.035.915-.42.21-.895.315-1.425.315Zm.165-1.005c.73 0 1.315-.245 1.755-.735.45-.49.675-1.135.675-1.935 0-.53-.105-.995-.315-1.395-.2-.41-.485-.725-.855-.945-.36-.23-.785-.345-1.275-.345-.5 0-.945.115-1.335.345-.38.23-.685.55-.915.96-.22.4-.33.86-.33 1.38 0 .52.11.98.33 1.38.23.4.54.715.93.945.39.23.835.345 1.335.345Zm2.37.855v-1.89l.21-1.74-.21-1.695v-1.725h1.05V154h-1.05Zm6.389 3.12c-.71 0-1.345-.135-1.905-.405-.55-.26-.995-.63-1.335-1.11l.69-.69c.28.38.635.675 1.065.885.43.21.935.315 1.515.315.8 0 1.435-.215 1.905-.645.48-.43.72-1.015.72-1.755v-1.755l.21-1.605-.21-1.59v-1.815h1.05v6.765c0 .68-.155 1.275-.465 1.785-.31.51-.745.905-1.305 1.185-.55.29-1.195.435-1.935.435Zm.075-3.195c-.65 0-1.235-.155-1.755-.465-.52-.31-.93-.735-1.23-1.275-.3-.54-.45-1.15-.45-1.83 0-.68.145-1.285.435-1.815.3-.54.71-.965 1.23-1.275.52-.31 1.105-.465 1.755-.465.55 0 1.04.105 1.47.315.44.21.79.51 1.05.9.27.38.435.83.495 1.35v1.995c-.06.51-.225.96-.495 1.35-.27.38-.62.68-1.05.9-.43.21-.915.315-1.455.315Zm.195-1.005c.49 0 .915-.105 1.275-.315.37-.21.655-.505.855-.885.21-.39.315-.845.315-1.365 0-.51-.105-.955-.315-1.335-.2-.38-.485-.68-.855-.9-.37-.22-.8-.33-1.29-.33s-.93.11-1.32.33c-.38.22-.68.52-.9.9-.21.38-.315.825-.315 1.335 0 .5.11.945.33 1.335.22.39.52.695.9.915.38.21.82.315 1.32.315Zm9.106 1.23c-.71 0-1.345-.16-1.905-.48-.56-.32-1.005-.76-1.335-1.32-.32-.56-.48-1.19-.48-1.89 0-.69.16-1.31.48-1.86.32-.56.755-1 1.305-1.32.55-.32 1.165-.48 1.845-.48.64 0 1.205.145 1.695.435.5.29.89.695 1.17 1.215.29.51.435 1.1.435 1.77 0 .08-.005.175-.015.285-.01.1-.03.22-.06.36h-6.105v-.9h5.535l-.375.33c.01-.52-.08-.965-.27-1.335-.18-.38-.445-.67-.795-.87-.34-.21-.755-.315-1.245-.315-.51 0-.955.11-1.335.33-.38.22-.68.53-.9.93-.21.39-.315.855-.315 1.395s.11 1.015.33 1.425c.23.41.545.73.945.96.41.23.88.345 1.41.345.43 0 .825-.075 1.185-.225.36-.16.665-.395.915-.705l.675.69c-.33.39-.74.695-1.23.915-.48.21-1 .315-1.56.315Zm7.276 0c-.38 0-.745-.05-1.095-.15-.35-.11-.67-.26-.96-.45-.28-.19-.525-.415-.735-.675l.675-.69c.28.34.595.595.945.765.36.16.76.24 1.2.24.47 0 .835-.09 1.095-.27.27-.18.405-.43.405-.75 0-.3-.095-.535-.285-.705-.19-.17-.435-.305-.735-.405-.29-.1-.6-.195-.93-.285-.33-.1-.645-.22-.945-.36-.3-.15-.545-.355-.735-.615-.18-.26-.27-.6-.27-1.02 0-.4.095-.745.285-1.035.2-.3.48-.53.84-.69.37-.17.805-.255 1.305-.255.53 0 1.01.095 1.44.285.43.19.775.47 1.035.84l-.675.675c-.21-.27-.475-.475-.795-.615-.31-.15-.66-.225-1.05-.225-.45 0-.795.09-1.035.27-.23.17-.345.395-.345.675 0 .27.095.485.285.645.19.15.43.275.72.375.3.09.615.185.945.285.33.09.645.215.945.375.3.15.54.36.72.63.19.26.285.615.285 1.065 0 .63-.23 1.135-.69 1.515-.45.37-1.065.555-1.845.555Z"/>
  <path fill="#968CA8" d="M248.497 154.15c-.69 0-1.31-.16-1.86-.48-.54-.32-.97-.75-1.29-1.29-.32-.54-.48-1.14-.48-1.8 0-.92.32-1.835.96-2.745l3.06-4.245h1.635l-3.135 4.275-.51.27c.12-.21.265-.385.435-.525.17-.15.38-.265.63-.345.25-.08.545-.12.885-.12.61 0 1.16.145 1.65.435.5.29.9.69 1.2 1.2.31.5.465 1.085.465 1.755 0 .66-.165 1.265-.495 1.815-.32.55-.76.99-1.32 1.32-.55.32-1.16.48-1.83.48Zm0-1.32c.42 0 .795-.1 1.125-.3.34-.21.605-.485.795-.825.2-.35.3-.74.3-1.17 0-.43-.1-.815-.3-1.155-.19-.35-.455-.625-.795-.825-.33-.2-.705-.3-1.125-.3-.42 0-.8.1-1.14.3-.33.2-.595.475-.795.825-.19.34-.285.725-.285 1.155 0 .43.095.82.285 1.17.2.35.465.625.795.825.34.2.72.3 1.14.3Z"/>
  <path fill="#FF5449" d="m316.472 154 3.135-4.275.51-.27c-.12.2-.265.375-.435.525-.17.15-.38.265-.63.345-.24.08-.535.12-.885.12-.6 0-1.155-.145-1.665-.435-.5-.29-.9-.69-1.2-1.2-.3-.52-.45-1.105-.45-1.755 0-.67.165-1.275.495-1.815.33-.55.77-.985 1.32-1.305.55-.33 1.16-.495 1.83-.495.68 0 1.295.16 1.845.48.55.32.985.75 1.305 1.29.32.53.48 1.13.48 1.8 0 .92-.32 1.835-.96 2.745l-3.06 4.245h-1.635Zm2.025-4.665c.42 0 .795-.1 1.125-.3.34-.21.605-.485.795-.825.2-.35.3-.735.3-1.155 0-.44-.1-.83-.3-1.17-.19-.35-.455-.625-.795-.825-.33-.2-.705-.3-1.125-.3-.42 0-.8.1-1.14.3-.33.2-.595.475-.795.825-.2.34-.3.73-.3 1.17 0 .43.1.815.3 1.155.2.34.47.615.81.825.34.2.715.3 1.125.3Z"/>
  <path fill="#7EBBE5" d="M383.977 154.15c-.71 0-1.345-.125-1.905-.375-.55-.26-1.015-.635-1.395-1.125l.96-.96c.23.35.545.63.945.84.41.2.865.3 1.365.3.47 0 .88-.09 1.23-.27.36-.18.64-.43.84-.75.21-.33.315-.72.315-1.17 0-.46-.1-.85-.3-1.17-.2-.32-.47-.56-.81-.72-.33-.17-.695-.255-1.095-.255-.41 0-.785.05-1.125.15-.33.1-.645.27-.945.51l.015-.9c.17-.21.365-.38.585-.51.22-.13.47-.23.75-.3.28-.07.605-.105.975-.105.72 0 1.33.15 1.83.45.5.3.88.705 1.14 1.215.27.51.405 1.08.405 1.71 0 .66-.165 1.25-.495 1.77-.32.52-.765.93-1.335 1.23-.57.29-1.22.435-1.95.435Zm-1.92-4.995-.765-.765.465-4.8h1.29l-.525 4.935-.465.63Zm-.015-4.305-.285-1.26h5.475v1.26h-5.19Zm10.335 9.3c-.68 0-1.3-.125-1.86-.375-.55-.26-1.015-.635-1.395-1.125l.96-.96c.23.35.545.63.945.84.4.2.845.3 1.335.3.46 0 .855-.085 1.185-.255.34-.18.605-.43.795-.75.2-.32.3-.69.3-1.11 0-.43-.1-.8-.3-1.11-.19-.32-.46-.565-.81-.735-.35-.17-.765-.255-1.245-.255-.18 0-.36.015-.54.045-.18.02-.355.055-.525.105l.6-.81c.19-.09.395-.16.615-.21.22-.05.44-.075.66-.075.56 0 1.06.13 1.5.39.45.26.805.625 1.065 1.095.27.47.405 1.015.405 1.635 0 .66-.16 1.245-.48 1.755-.31.5-.74.895-1.29 1.185-.55.28-1.19.42-1.92.42Zm-1.155-5.385v-.855l3.045-3.465 1.68-.015-3.135 3.555-1.59.78Zm-1.605-3.915v-1.26h6.33v.84l-1.23.42h-5.1Z"/>
  <path fill="#fff" d="M102.444 186v-10.32h1.095V186h-1.095Zm.72 0v-1.005h6.075V186h-6.075Zm0-4.8v-.975h5.595v.975h-5.595Zm0-4.515v-1.005h5.985v1.005h-5.985ZM116.452 186v-4.14c0-.62-.185-1.12-.555-1.5-.36-.39-.84-.585-1.44-.585-.41 0-.77.09-1.08.27-.31.18-.555.425-.735.735-.18.31-.27.665-.27 1.065l-.48-.27c0-.53.125-1.005.375-1.425.25-.42.585-.75 1.005-.99.43-.24.92-.36 1.47-.36.54 0 1.02.13 1.44.39.42.26.745.61.975 1.05.24.44.36.92.36 1.44V186h-1.065Zm-5.13 0v-7.05h1.05V186h-1.05Zm11.369 3.12c-.71 0-1.345-.135-1.905-.405-.55-.26-.995-.63-1.335-1.11l.69-.69c.28.38.635.675 1.065.885.43.21.935.315 1.515.315.8 0 1.435-.215 1.905-.645.48-.43.72-1.015.72-1.755v-1.755l.21-1.605-.21-1.59v-1.815h1.05v6.765c0 .68-.155 1.275-.465 1.785-.31.51-.745.905-1.305 1.185-.55.29-1.195.435-1.935.435Zm.075-3.195c-.65 0-1.235-.155-1.755-.465-.52-.31-.93-.735-1.23-1.275-.3-.54-.45-1.15-.45-1.83 0-.68.145-1.285.435-1.815.3-.54.71-.965 1.23-1.275.52-.31 1.105-.465 1.755-.465.55 0 1.04.105 1.47.315.44.21.79.51 1.05.9.27.38.435.83.495 1.35v1.995c-.06.51-.225.96-.495 1.35-.27.38-.62.68-1.05.9-.43.21-.915.315-1.455.315Zm.195-1.005c.49 0 .915-.105 1.275-.315.37-.21.655-.505.855-.885.21-.39.315-.845.315-1.365 0-.51-.105-.955-.315-1.335-.2-.38-.485-.68-.855-.9-.37-.22-.8-.33-1.29-.33s-.93.11-1.32.33c-.38.22-.68.52-.9.9-.21.38-.315.825-.315 1.335 0 .5.11.945.33 1.335.22.39.52.695.9.915.38.21.82.315 1.32.315Zm5.851 1.08v-10.62h1.05V186h-1.05Zm3.478 0v-7.05h1.065V186h-1.065Zm.525-8.58c-.2 0-.37-.07-.51-.21-.14-.15-.21-.325-.21-.525 0-.21.07-.385.21-.525.14-.14.31-.21.51-.21.22 0 .395.07.525.21.14.14.21.315.21.525 0 .2-.07.375-.21.525-.13.14-.305.21-.525.21Zm5.129 8.73c-.38 0-.745-.05-1.095-.15-.35-.11-.67-.26-.96-.45-.28-.19-.525-.415-.735-.675l.675-.69c.28.34.595.595.945.765.36.16.76.24 1.2.24.47 0 .835-.09 1.095-.27.27-.18.405-.43.405-.75 0-.3-.095-.535-.285-.705-.19-.17-.435-.305-.735-.405-.29-.1-.6-.195-.93-.285-.33-.1-.645-.22-.945-.36-.3-.15-.545-.355-.735-.615-.18-.26-.27-.6-.27-1.02 0-.4.095-.745.285-1.035.2-.3.48-.53.84-.69.37-.17.805-.255 1.305-.255.53 0 1.01.095 1.44.285.43.19.775.47 1.035.84l-.675.675c-.21-.27-.475-.475-.795-.615-.31-.15-.66-.225-1.05-.225-.45 0-.795.09-1.035.27-.23.17-.345.395-.345.675 0 .27.095.485.285.645.19.15.43.275.72.375.3.09.615.185.945.285.33.09.645.215.945.375.3.15.54.36.72.63.19.26.285.615.285 1.065 0 .63-.23 1.135-.69 1.515-.45.37-1.065.555-1.845.555Zm9.627-.15v-4.14c0-.62-.185-1.12-.555-1.5-.36-.39-.84-.585-1.44-.585-.41 0-.77.09-1.08.27-.31.18-.555.425-.735.735-.18.31-.27.665-.27 1.065l-.48-.27c0-.53.125-1.005.375-1.425.25-.42.585-.75 1.005-.99.43-.24.92-.36 1.47-.36.54 0 1.02.125 1.44.375.42.24.745.575.975 1.005.24.43.36.93.36 1.5V186h-1.065Zm-5.13 0v-10.62h1.05V186h-1.05Z"/>
  <path fill="#968CA8" d="M248.17 186.15c-.68 0-1.3-.125-1.86-.375-.55-.26-1.015-.635-1.395-1.125l.96-.96c.23.35.545.63.945.84.4.2.845.3 1.335.3.46 0 .855-.085 1.185-.255.34-.18.605-.43.795-.75.2-.32.3-.69.3-1.11 0-.43-.1-.8-.3-1.11-.19-.32-.46-.565-.81-.735-.35-.17-.765-.255-1.245-.255-.18 0-.36.015-.54.045-.18.02-.355.055-.525.105l.6-.81c.19-.09.395-.16.615-.21.22-.05.44-.075.66-.075.56 0 1.06.13 1.5.39.45.26.805.625 1.065 1.095.27.47.405 1.015.405 1.635 0 .66-.16 1.245-.48 1.755-.31.5-.74.895-1.29 1.185-.55.28-1.19.42-1.92.42Zm-1.155-5.385v-.855l3.045-3.465 1.68-.015-3.135 3.555-1.59.78Zm-1.605-3.915v-1.26h6.33v.84l-1.23.42h-5.1Z"/>
  <path fill="#FF5449" d="M318.17 186.15c-.68 0-1.3-.125-1.86-.375-.55-.26-1.015-.635-1.395-1.125l.96-.96c.23.35.545.63.945.84.4.2.845.3 1.335.3.46 0 .855-.085 1.185-.255.34-.18.605-.43.795-.75.2-.32.3-.69.3-1.11 0-.43-.1-.8-.3-1.11-.19-.32-.46-.565-.81-.735-.35-.17-.765-.255-1.245-.255-.18 0-.36.015-.54.045-.18.02-.355.055-.525.105l.6-.81c.19-.09.395-.16.615-.21.22-.05.44-.075.66-.075.56 0 1.06.13 1.5.39.45.26.805.625 1.065 1.095.27.47.405 1.015.405 1.635 0 .66-.16 1.245-.48 1.755-.31.5-.74.895-1.29 1.185-.55.28-1.19.42-1.92.42Zm-1.155-5.385v-.855l3.045-3.465 1.68-.015-3.135 3.555-1.59.78Zm-1.605-3.915v-1.26h6.33v.84l-1.23.42h-5.1Z"/>
  <path fill="#7EBBE5" d="M383.962 186.15c-.68 0-1.3-.125-1.86-.375-.55-.26-1.015-.635-1.395-1.125l.96-.96c.23.35.545.63.945.84.4.2.845.3 1.335.3.46 0 .855-.085 1.185-.255.34-.18.605-.43.795-.75.2-.32.3-.69.3-1.11 0-.43-.1-.8-.3-1.11-.19-.32-.46-.565-.81-.735-.35-.17-.765-.255-1.245-.255-.18 0-.36.015-.54.045-.18.02-.355.055-.525.105l.6-.81c.19-.09.395-.16.615-.21.22-.05.44-.075.66-.075.56 0 1.06.13 1.5.39.45.26.805.625 1.065 1.095.27.47.405 1.015.405 1.635 0 .66-.16 1.245-.48 1.755-.31.5-.74.895-1.29 1.185-.55.28-1.19.42-1.92.42Zm-1.155-5.385v-.855l3.045-3.465 1.68-.015-3.135 3.555-1.59.78Zm-1.605-3.915v-1.26h6.33v.84l-1.23.42h-5.1Zm11.147 9.3c-.71 0-1.345-.125-1.905-.375-.55-.26-1.015-.635-1.395-1.125l.96-.96c.23.35.545.63.945.84.41.2.865.3 1.365.3.47 0 .88-.09 1.23-.27.36-.18.64-.43.84-.75.21-.33.315-.72.315-1.17 0-.46-.1-.85-.3-1.17-.2-.32-.47-.56-.81-.72-.33-.17-.695-.255-1.095-.255-.41 0-.785.05-1.125.15-.33.1-.645.27-.945.51l.015-.9c.17-.21.365-.38.585-.51.22-.13.47-.23.75-.3.28-.07.605-.105.975-.105.72 0 1.33.15 1.83.45.5.3.88.705 1.14 1.215.27.51.405 1.08.405 1.71 0 .66-.165 1.25-.495 1.77-.32.52-.765.93-1.335 1.23-.57.29-1.22.435-1.95.435Zm-1.92-4.995-.765-.765.465-4.8h1.29l-.525 4.935-.465.63Zm-.015-4.305-.285-1.26h5.475v1.26h-5.19Z"/>
  <path fill="#fff" d="M106.894 218.135c-.73 0-1.41-.135-2.04-.405-.63-.27-1.18-.645-1.65-1.125s-.835-1.04-1.095-1.68c-.26-.65-.39-1.35-.39-2.1s.13-1.445.39-2.085c.27-.64.64-1.2 1.11-1.68.47-.49 1.025-.87 1.665-1.14.64-.27 1.335-.405 2.085-.405.83 0 1.59.165 2.28.495.7.33 1.275.795 1.725 1.395l-.765.765c-.36-.51-.82-.9-1.38-1.17-.56-.28-1.18-.42-1.86-.42-.81 0-1.525.185-2.145.555-.62.36-1.105.86-1.455 1.5-.34.64-.51 1.375-.51 2.205 0 .82.17 1.55.51 2.19.35.64.825 1.145 1.425 1.515.61.36 1.3.54 2.07.54.77 0 1.435-.155 1.995-.465.57-.31 1.005-.76 1.305-1.35.31-.59.47-1.3.48-2.13l.63.465h-4.515V212.6h5.025v.165c0 1.16-.21 2.14-.63 2.94-.41.8-.98 1.405-1.71 1.815-.73.41-1.58.615-2.55.615Zm10.236.015c-.71 0-1.345-.16-1.905-.48-.56-.32-1.005-.76-1.335-1.32-.32-.56-.48-1.19-.48-1.89 0-.69.16-1.31.48-1.86.32-.56.755-1 1.305-1.32.55-.32 1.165-.48 1.845-.48.64 0 1.205.145 1.695.435.5.29.89.695 1.17 1.215.29.51.435 1.1.435 1.77 0 .08-.005.175-.015.285-.01.1-.03.22-.06.36h-6.105v-.9h5.535l-.375.33c.01-.52-.08-.965-.27-1.335-.18-.38-.445-.67-.795-.87-.34-.21-.755-.315-1.245-.315-.51 0-.955.11-1.335.33-.38.22-.68.53-.9.93-.21.39-.315.855-.315 1.395s.11 1.015.33 1.425c.23.41.545.73.945.96.41.23.88.345 1.41.345.43 0 .825-.075 1.185-.225.36-.16.665-.395.915-.705l.675.69c-.33.39-.74.695-1.23.915-.48.21-1 .315-1.56.315Zm5.117-.15v-7.05h1.05V218h-1.05Zm1.05-4.11-.435-.195c0-.89.215-1.595.645-2.115.44-.52 1.04-.78 1.8-.78.35 0 .67.065.96.195.29.12.56.315.81.585l-.69.735c-.17-.19-.36-.325-.57-.405-.2-.08-.43-.12-.69-.12-.54 0-.98.18-1.32.54-.34.35-.51.87-.51 1.56Zm5.256 4.11v-7.05h1.05V218h-1.05Zm4.845 0v-4.32c0-.58-.175-1.04-.525-1.38-.35-.35-.79-.525-1.32-.525-.36 0-.69.08-.99.24-.29.15-.525.365-.705.645-.17.28-.255.615-.255 1.005l-.48-.195c0-.54.12-1.01.36-1.41.24-.4.56-.71.96-.93.41-.22.87-.33 1.38-.33.5 0 .945.11 1.335.33.4.22.715.53.945.93.24.4.36.875.36 1.425V218h-1.065Zm4.86 0v-4.32c0-.58-.175-1.04-.525-1.38-.35-.35-.795-.525-1.335-.525-.35 0-.675.08-.975.24-.29.15-.525.365-.705.645-.17.28-.255.615-.255 1.005l-.63-.195c.03-.54.17-1.01.42-1.41.26-.4.595-.71 1.005-.93.42-.22.88-.33 1.38-.33.5 0 .95.11 1.35.33.41.22.73.53.96.93.24.4.36.875.36 1.425V218h-1.05Zm6.384.15c-.67 0-1.27-.16-1.8-.48-.53-.33-.95-.77-1.26-1.32-.3-.55-.45-1.17-.45-1.86 0-.7.15-1.325.45-1.875.31-.56.73-1 1.26-1.32.53-.33 1.125-.495 1.785-.495.54 0 1.02.11 1.44.33.43.21.775.51 1.035.9.27.38.435.825.495 1.335v2.205c-.06.51-.225.96-.495 1.35-.26.39-.605.695-1.035.915-.42.21-.895.315-1.425.315Zm.165-1.005c.73 0 1.315-.245 1.755-.735.45-.49.675-1.135.675-1.935 0-.53-.105-.995-.315-1.395-.2-.41-.485-.725-.855-.945-.36-.23-.785-.345-1.275-.345-.5 0-.945.115-1.335.345-.38.23-.685.55-.915.96-.22.4-.33.86-.33 1.38 0 .52.11.98.33 1.38.23.4.54.715.93.945.39.23.835.345 1.335.345Zm2.37.855v-1.89l.21-1.74-.21-1.695v-1.725h1.05V218h-1.05Zm8.61 0v-4.14c0-.62-.185-1.12-.555-1.5-.36-.39-.84-.585-1.44-.585-.41 0-.77.09-1.08.27-.31.18-.555.425-.735.735-.18.31-.27.665-.27 1.065l-.48-.27c0-.53.125-1.005.375-1.425.25-.42.585-.75 1.005-.99.43-.24.92-.36 1.47-.36.54 0 1.02.13 1.44.39.42.26.745.61.975 1.05.24.44.36.92.36 1.44V218h-1.065Zm-5.13 0v-7.05h1.05V218h-1.05Z"/>
  <path fill="#968CA8" d="M248.17 218.15c-.68 0-1.3-.125-1.86-.375-.55-.26-1.015-.635-1.395-1.125l.96-.96c.23.35.545.63.945.84.4.2.845.3 1.335.3.46 0 .855-.085 1.185-.255.34-.18.605-.43.795-.75.2-.32.3-.69.3-1.11 0-.43-.1-.8-.3-1.11-.19-.32-.46-.565-.81-.735-.35-.17-.765-.255-1.245-.255-.18 0-.36.015-.54.045-.18.02-.355.055-.525.105l.6-.81c.19-.09.395-.16.615-.21.22-.05.44-.075.66-.075.56 0 1.06.13 1.5.39.45.26.805.625 1.065 1.095.27.47.405 1.015.405 1.635 0 .66-.16 1.245-.48 1.755-.31.5-.74.895-1.29 1.185-.55.28-1.19.42-1.92.42Zm-1.155-5.385v-.855l3.045-3.465 1.68-.015-3.135 3.555-1.59.78Zm-1.605-3.915v-1.26h6.33v.84l-1.23.42h-5.1Z"/>
  <path fill="#FF5449" d="M318.497 218.15c-.69 0-1.31-.16-1.86-.48-.54-.32-.97-.75-1.29-1.29-.32-.54-.48-1.14-.48-1.8 0-.92.32-1.835.96-2.745l3.06-4.245h1.635l-3.135 4.275-.51.27c.12-.21.265-.385.435-.525.17-.15.38-.265.63-.345.25-.08.545-.12.885-.12.61 0 1.16.145 1.65.435.5.29.9.69 1.2 1.2.31.5.465 1.085.465 1.755 0 .66-.165 1.265-.495 1.815-.32.55-.76.99-1.32 1.32-.55.32-1.16.48-1.83.48Zm0-1.32c.42 0 .795-.1 1.125-.3.34-.21.605-.485.795-.825.2-.35.3-.74.3-1.17 0-.43-.1-.815-.3-1.155-.19-.35-.455-.625-.795-.825-.33-.2-.705-.3-1.125-.3-.42 0-.8.1-1.14.3-.33.2-.595.475-.795.825-.19.34-.285.725-.285 1.155 0 .43.095.82.285 1.17.2.35.465.625.795.825.34.2.72.3 1.14.3Z"/>
  <path fill="#7EBBE5" d="M384.222 218v-10.41h1.395V218h-1.395Zm-2.13-9.15v-1.26h3.375v1.26h-3.375Zm9.16 9.3c-.69 0-1.3-.13-1.83-.39-.52-.26-.925-.62-1.215-1.08-.29-.46-.435-.98-.435-1.56 0-.47.09-.9.27-1.29.18-.39.445-.72.795-.99.35-.28.76-.48 1.23-.6l.045.405c-.4-.11-.74-.285-1.02-.525-.28-.25-.495-.54-.645-.87-.14-.34-.21-.7-.21-1.08 0-.54.13-1.015.39-1.425.26-.41.615-.73 1.065-.96.46-.24.98-.36 1.56-.36.59 0 1.11.12 1.56.36.45.23.805.55 1.065.96.26.41.39.885.39 1.425 0 .38-.075.74-.225 1.08-.14.33-.35.62-.63.87-.27.24-.605.415-1.005.525l.03-.405c.48.12.89.32 1.23.6.35.27.615.6.795.99.19.39.285.82.285 1.29 0 .58-.145 1.1-.435 1.56-.29.46-.7.82-1.23 1.08-.52.26-1.13.39-1.83.39Zm0-1.275c.42 0 .785-.08 1.095-.24.32-.17.57-.4.75-.69.19-.29.285-.625.285-1.005 0-.37-.095-.7-.285-.99-.18-.29-.43-.515-.75-.675-.31-.17-.675-.255-1.095-.255-.41 0-.775.085-1.095.255-.32.16-.575.385-.765.675-.18.29-.27.62-.27.99 0 .38.09.715.27 1.005.19.29.445.52.765.69.32.16.685.24 1.095.24Zm0-4.95c.5 0 .91-.155 1.23-.465.32-.31.48-.71.48-1.2 0-.48-.16-.87-.48-1.17-.32-.31-.73-.465-1.23-.465-.49 0-.895.155-1.215.465-.32.3-.48.69-.48 1.17 0 .49.16.89.48 1.2.32.31.725.465 1.215.465Z"/>
</svg>
