<?xml version="1.0" encoding="UTF-8" standalone="no"?>
<svg
   width="493"
   height="269"
   fill="none"
   version="1.1"
   xml:space="preserve"
   id="svg19"
   sodipodi:docname="review-graphic.svg"
   inkscape:version="1.4 (86a8ad7, 2024-10-11)"
   xmlns:inkscape="http://www.inkscape.org/namespaces/inkscape"
   xmlns:sodipodi="http://sodipodi.sourceforge.net/DTD/sodipodi-0.dtd"
   xmlns="http://www.w3.org/2000/svg"
   xmlns:svg="http://www.w3.org/2000/svg"><sodipodi:namedview
     id="namedview19"
     pagecolor="#ffffff"
     bordercolor="#666666"
     borderopacity="1.0"
     inkscape:showpageshadow="2"
     inkscape:pageopacity="0.0"
     inkscape:pagecheckerboard="0"
     inkscape:deskcolor="#d1d1d1"
     inkscape:zoom="1.4891301"
     inkscape:cx="79.240894"
     inkscape:cy="240.74458"
     inkscape:window-width="2560"
     inkscape:window-height="1351"
     inkscape:window-x="-9"
     inkscape:window-y="-9"
     inkscape:window-maximized="1"
     inkscape:current-layer="svg19" /><defs
     id="defs8"><filter
       id="filter51-7"
       x="-0.030005251"
       y="-0.075918135"
       width="1.0612607"
       height="1.1676525"
       color-interpolation-filters="sRGB"><feFlood
         flood-color="rgb(0,0,0)"
         flood-opacity=".49804"
         in="SourceGraphic"
         result="flood"
         id="feFlood1" /><feGaussianBlur
         in="SourceGraphic"
         result="blur"
         stdDeviation="1.000000"
         id="feGaussianBlur1" /><feOffset
         dx="0.100000"
         dy="0.500000"
         in="blur"
         result="offset"
         id="feOffset1" /><feComposite
         in="flood"
         in2="offset"
         operator="in"
         result="comp1"
         id="feComposite1" /><feComposite
         in="SourceGraphic"
         in2="comp1"
         result="comp2"
         id="feComposite2" /></filter><filter
       id="filter51-7-6"
       x="-0.030005251"
       y="-0.075918135"
       width="1.0612607"
       height="1.1676525"
       color-interpolation-filters="sRGB"><feFlood
         flood-color="rgb(0,0,0)"
         flood-opacity=".49804"
         in="SourceGraphic"
         result="flood"
         id="feFlood2" /><feGaussianBlur
         in="SourceGraphic"
         result="blur"
         stdDeviation="1.000000"
         id="feGaussianBlur2" /><feOffset
         dx="0.100000"
         dy="0.500000"
         in="blur"
         result="offset"
         id="feOffset2" /><feComposite
         in="flood"
         in2="offset"
         operator="in"
         result="comp1"
         id="feComposite3" /><feComposite
         in="SourceGraphic"
         in2="comp1"
         result="comp2"
         id="feComposite4" /></filter><filter
       id="filter51-7-9"
       x="-0.030005251"
       y="-0.075918135"
       width="1.0612607"
       height="1.1676525"
       color-interpolation-filters="sRGB"><feFlood
         flood-color="rgb(0,0,0)"
         flood-opacity=".49804"
         in="SourceGraphic"
         result="flood"
         id="feFlood4" /><feGaussianBlur
         in="SourceGraphic"
         result="blur"
         stdDeviation="1.000000"
         id="feGaussianBlur4" /><feOffset
         dx="0.100000"
         dy="0.500000"
         in="blur"
         result="offset"
         id="feOffset4" /><feComposite
         in="flood"
         in2="offset"
         operator="in"
         result="comp1"
         id="feComposite5" /><feComposite
         in="SourceGraphic"
         in2="comp1"
         result="comp2"
         id="feComposite6" /></filter><filter
       id="filter51-7-1"
       x="-0.030005251"
       y="-0.075918135"
       width="1.0612607"
       height="1.1676525"
       color-interpolation-filters="sRGB"><feFlood
         flood-color="rgb(0,0,0)"
         flood-opacity=".49804"
         in="SourceGraphic"
         result="flood"
         id="feFlood6" /><feGaussianBlur
         in="SourceGraphic"
         result="blur"
         stdDeviation="1.000000"
         id="feGaussianBlur6" /><feOffset
         dx="0.100000"
         dy="0.500000"
         in="blur"
         result="offset"
         id="feOffset6" /><feComposite
         in="flood"
         in2="offset"
         operator="in"
         result="comp1"
         id="feComposite7" /><feComposite
         in="SourceGraphic"
         in2="comp1"
         result="comp2"
         id="feComposite8" /></filter></defs><mask
     id="a"
     fill="#fff"><path
       d="m55 34h383v68h-383v-68z"
       id="path8" /></mask><g
     transform="translate(74.898 1.5625)"
     id="g9"><path
       id="rect9"
       style="fill:#404040;fill-rule:evenodd;paint-order:markers stroke fill;filter:url(#filter51-7)"
       d="m 299.33299,200.64999 h 46.3 c 9.33102,0 16.843,7.0497 16.843,15.8065 0,8.75681 -7.51198,15.8065 -16.843,15.8065 h -46.3 c -9.33102,0 -16.843,-7.04969 -16.843,-15.8065 0,-8.7568 7.51198,-15.8065 16.843,-15.8065 z" /><path
       style="font-size:10.667px;line-height:1.25;font-family:Outfit;text-align:end;text-anchor:end;fill:#ffffff"
       d="m 311.83229,219.35001 v -7.4029 h 1.00269 v 7.4029 z m 0.68268,0 v -0.91737 h 4.24547 v 0.91737 z m 0,-3.34944 v -0.8747 h 3.89346 v 0.8747 z m 0,-3.1361 v -0.91736 h 4.19213 v 0.91736 z m 7.49357,6.59221 q -0.69336,0 -1.25871,-0.34135 -0.56535,-0.35201 -0.89603,-0.94936 -0.32001,-0.59735 -0.32001,-1.34404 0,-0.74669 0.32001,-1.34404 0.33068,-0.59736 0.88536,-0.94937 0.56536,-0.35201 1.26938,-0.35201 0.57602,0 1.02403,0.24534 0.45868,0.23468 0.73602,0.66136 0.27734,0.41601 0.30935,0.97069 v 1.52538 q -0.032,0.54402 -0.30935,0.9707 -0.26667,0.42668 -0.72535,0.67202 -0.44802,0.23468 -1.0347,0.23468 z m 0.16,-0.9067 q 0.71469,0 1.15204,-0.48001 0.43735,-0.49069 0.43735,-1.24804 0,-0.52269 -0.20268,-0.9067 -0.192,-0.39468 -0.55468,-0.60802 -0.36268,-0.224 -0.84269,-0.224 -0.48002,0 -0.85336,0.224 -0.36268,0.22401 -0.57602,0.61869 -0.20268,0.38401 -0.20268,0.88536 0,0.51202 0.20268,0.9067 0.21334,0.38401 0.58668,0.60801 0.37335,0.22401 0.85336,0.22401 z m 1.52538,0.80003 v -1.36538 l 0.18134,-1.23737 -0.18134,-1.22671 v -1.23737 h 0.9707 v 5.06683 z m 3.9788,0.10667 q -0.42668,0 -0.81069,-0.10667 -0.37334,-0.11734 -0.69335,-0.32001 -0.32001,-0.21334 -0.55469,-0.50135 l 0.61869,-0.61869 q 0.27734,0.34135 0.64002,0.51202 0.36268,0.16 0.81069,0.16 0.44801,0 0.69335,-0.14934 0.24535,-0.16 0.24535,-0.43734 0,-0.27734 -0.20268,-0.42668 -0.192,-0.16001 -0.50135,-0.25601 -0.30934,-0.10667 -0.66135,-0.20267 -0.34134,-0.10667 -0.65069,-0.26668 -0.30934,-0.16 -0.51201,-0.43735 -0.19201,-0.27734 -0.19201,-0.73602 0,-0.45868 0.22401,-0.78936 0.224,-0.34134 0.61868,-0.52268 0.40535,-0.18134 0.9707,-0.18134 0.59735,0 1.05603,0.21334 0.46935,0.20267 0.76803,0.61869 l -0.61869,0.61868 q -0.21334,-0.27734 -0.53335,-0.42668 -0.30934,-0.14933 -0.70402,-0.14933 -0.41601,0 -0.64002,0.14933 -0.21334,0.13867 -0.21334,0.39468 0,0.25601 0.19201,0.39468 0.192,0.13867 0.50134,0.23468 0.32001,0.096 0.66136,0.20267 0.34134,0.096 0.65069,0.26667 0.30934,0.17068 0.50134,0.45868 0.20268,0.28801 0.20268,0.75736 0,0.71469 -0.51202,1.1307 -0.50135,0.41602 -1.35471,0.41602 z m 4.60815,-0.064 -2.19741,-5.10949 h 1.0667 l 1.63206,4.00013 h -0.34135 l 1.71739,-4.00013 h 1.0667 l -2.36808,5.10949 z m -1.45072,2.08007 1.49338,-3.06143 0.53335,0.98136 -0.96003,2.08007 z"
       id="text9"
       aria-label="Easy" /></g><g
     transform="translate(-20.648 1.5625)"
     id="g10"><path
       id="rect10"
       style="fill:#404040;fill-rule:evenodd;paint-order:markers stroke fill;filter:url(#filter51-7-6)"
       d="m 299.33299,200.64999 h 46.3 c 9.33102,0 16.843,7.0497 16.843,15.8065 0,8.75681 -7.51198,15.8065 -16.843,15.8065 h -46.3 c -9.33102,0 -16.843,-7.04969 -16.843,-15.8065 0,-8.7568 7.51198,-15.8065 16.843,-15.8065 z" /><path
       style="font-size:10.667px;line-height:1.25;font-family:Outfit;text-align:end;text-anchor:end;fill:#ffffff"
       d="m 313.58427,220.57135 q -0.7787,0 -1.46138,-0.28801 -0.67202,-0.29868 -1.18404,-0.82136 -0.50135,-0.52269 -0.78936,-1.21604 -0.28801,-0.69336 -0.28801,-1.49338 0,-0.80003 0.28801,-1.48271 0.28801,-0.69336 0.80003,-1.21604 0.51201,-0.52268 1.1947,-0.81069 0.69336,-0.28801 1.50405,-0.28801 0.88536,0 1.63205,0.34134 0.74669,0.34135 1.24804,0.98137 l -0.69336,0.69335 q -0.35201,-0.51201 -0.92803,-0.77869 -0.57601,-0.27734 -1.2587,-0.27734 -0.81069,0 -1.44005,0.36268 -0.61868,0.36267 -0.97069,1.00269 -0.34135,0.64002 -0.34135,1.47205 0,0.84269 0.35201,1.48271 0.35201,0.64002 0.94937,1.0027 0.59735,0.36268 1.36537,0.36268 0.77869,0 1.34404,-0.29868 0.57602,-0.29867 0.88536,-0.87469 0.30935,-0.58669 0.30935,-1.42938 l 0.60802,0.43735 h -3.2001 v -0.91736 h 3.62678 v 0.14933 q 0,1.29071 -0.45868,2.1654 -0.44802,0.86403 -1.25871,1.30138 -0.80003,0.43735 -1.83472,0.43735 z m 7.04022,0 q -0.74669,0 -1.34404,-0.35202 -0.59735,-0.35201 -0.94936,-0.94936 -0.35201,-0.60802 -0.35201,-1.35471 0,-0.73602 0.35201,-1.32271 0.35201,-0.59735 0.94936,-0.94936 0.59735,-0.35201 1.34404,-0.35201 0.73603,0 1.33338,0.35201 0.60802,0.34135 0.96003,0.9387 0.35201,0.59735 0.35201,1.33337 0,0.74669 -0.35201,1.35471 -0.35201,0.59735 -0.96003,0.94936 -0.59735,0.35202 -1.33338,0.35202 z m 0,-0.92803 q 0.48002,0 0.85336,-0.22401 0.37335,-0.22401 0.58669,-0.60802 0.21334,-0.39468 0.21334,-0.89603 0,-0.49068 -0.22401,-0.87469 -0.21334,-0.38401 -0.58668,-0.59735 -0.36268,-0.22401 -0.8427,-0.22401 -0.48001,0 -0.85336,0.22401 -0.37334,0.21334 -0.58668,0.59735 -0.21334,0.38401 -0.21334,0.87469 0,0.50135 0.21334,0.89603 0.21334,0.38401 0.58668,0.60802 0.37335,0.22401 0.85336,0.22401 z m 6.03753,0.92803 q -0.74669,0 -1.34405,-0.35202 -0.59735,-0.35201 -0.94936,-0.94936 -0.35201,-0.60802 -0.35201,-1.35471 0,-0.73602 0.35201,-1.32271 0.35201,-0.59735 0.94936,-0.94936 0.59736,-0.35201 1.34405,-0.35201 0.73602,0 1.33337,0.35201 0.60802,0.34135 0.96003,0.9387 0.35201,0.59735 0.35201,1.33337 0,0.74669 -0.35201,1.35471 -0.35201,0.59735 -0.96003,0.94936 -0.59735,0.35202 -1.33337,0.35202 z m 0,-0.92803 q 0.48001,0 0.85336,-0.22401 0.37334,-0.22401 0.58668,-0.60802 0.21334,-0.39468 0.21334,-0.89603 0,-0.49068 -0.22401,-0.87469 -0.21334,-0.38401 -0.58668,-0.59735 -0.36268,-0.22401 -0.84269,-0.22401 -0.48002,0 -0.85336,0.22401 -0.37335,0.21334 -0.58669,0.59735 -0.21334,0.38401 -0.21334,0.87469 0,0.50135 0.21334,0.89603 0.21334,0.38401 0.58669,0.60802 0.37334,0.22401 0.85336,0.22401 z m 5.86684,0.92803 q -0.70402,0 -1.2587,-0.34135 -0.55469,-0.35201 -0.88536,-0.94936 -0.32001,-0.59735 -0.32001,-1.34404 0,-0.74669 0.32001,-1.34405 0.33067,-0.59735 0.88536,-0.94936 0.55468,-0.35201 1.2587,-0.35201 0.56536,0 1.02404,0.24534 0.45868,0.23468 0.73602,0.66136 0.28801,0.41601 0.32001,0.97069 v 1.52538 q -0.032,0.54402 -0.30934,0.9707 -0.27735,0.42668 -0.73603,0.67202 -0.45868,0.23468 -1.0347,0.23468 z m 0.16001,-0.9067 q 0.48001,0 0.83203,-0.22401 0.36267,-0.224 0.56535,-0.60802 0.20267,-0.39467 0.20267,-0.89602 0,-0.52269 -0.21334,-0.9067 -0.20267,-0.38401 -0.56535,-0.60802 -0.35201,-0.224 -0.83203,-0.224 -0.48001,0 -0.84269,0.224 -0.36268,0.22401 -0.57602,0.61869 -0.20267,0.38401 -0.20267,0.88536 0,0.51202 0.20267,0.90669 0.21334,0.38402 0.57602,0.60802 0.37334,0.22401 0.85336,0.22401 z m 2.50674,0.80003 h -0.97069 v -1.36538 l 0.18134,-1.23737 -0.18134,-1.22671 v -3.78678 h 0.97069 z"
       id="text10"
       aria-label="Good" /></g><g
     transform="translate(-116.36 1.3946)"
     id="g11"><path
       id="rect11"
       style="fill:#404040;fill-rule:evenodd;paint-order:markers stroke fill;filter:url(#filter51-7-9)"
       d="m 299.49299,200.82001 h 46.3 c 9.33103,0 16.843,7.0497 16.843,15.8065 0,8.7568 -7.51197,15.8065 -16.843,15.8065 h -46.3 c -9.33102,0 -16.843,-7.0497 -16.843,-15.8065 0,-8.7568 7.51198,-15.8065 16.843,-15.8065 z" /><path
       style="font-size:10.667px;line-height:1.25;font-family:Outfit;text-align:end;text-anchor:end;fill:#ffffff"
       d="m 311.44813,220.63255 v -7.40289 h 1.0027 v 7.40289 z m 4.77882,0 v -7.40289 h 1.00269 v 7.40289 z m -4.09613,-3.37077 v -0.91736 h 4.34147 v 0.91736 z m 8.83227,3.47744 q -0.69336,0 -1.25871,-0.34134 -0.56535,-0.35201 -0.89603,-0.94936 -0.32001,-0.59736 -0.32001,-1.34405 0,-0.74669 0.32001,-1.34404 0.33068,-0.59735 0.88536,-0.94936 0.56536,-0.35201 1.26938,-0.35201 0.57602,0 1.02403,0.24534 0.45868,0.23467 0.73602,0.66135 0.27734,0.41602 0.30935,0.9707 v 1.52538 q -0.032,0.54402 -0.30935,0.9707 -0.26667,0.42668 -0.72535,0.67202 -0.44802,0.23467 -1.0347,0.23467 z m 0.16,-0.90669 q 0.71469,0 1.15204,-0.48002 0.43735,-0.49068 0.43735,-1.24804 0,-0.52268 -0.20268,-0.90669 -0.192,-0.39468 -0.55468,-0.60802 -0.36268,-0.22401 -0.84269,-0.22401 -0.48002,0 -0.85336,0.22401 -0.36268,0.22401 -0.57602,0.61869 -0.20268,0.38401 -0.20268,0.88536 0,0.51201 0.20268,0.90669 0.21334,0.38401 0.58668,0.60802 0.37335,0.22401 0.85336,0.22401 z m 1.52538,0.80002 v -1.36537 l 0.18134,-1.23737 -0.18134,-1.22671 v -1.23737 h 0.9707 v 5.06682 z m 2.36809,0 v -5.06682 h 0.96003 v 5.06682 z m 0.96003,-2.89075 -0.36268,-0.16001 q 0,-0.9707 0.44801,-1.54671 0.44802,-0.57602 1.29071,-0.57602 0.38401,0 0.69335,0.13867 0.30935,0.128 0.57602,0.43735 l -0.62935,0.65068 q -0.16001,-0.17067 -0.35201,-0.24534 -0.19201,-0.0747 -0.44802,-0.0747 -0.53335,0 -0.87469,0.34135 -0.34134,0.34134 -0.34134,1.0347 z m 5.30151,2.99742 q -0.70402,0 -1.25871,-0.34134 -0.55468,-0.35201 -0.88536,-0.94936 -0.32001,-0.59736 -0.32001,-1.34405 0,-0.74669 0.32001,-1.34404 0.33068,-0.59735 0.88536,-0.94936 0.55469,-0.35201 1.25871,-0.35201 0.56535,0 1.02403,0.24534 0.45868,0.23467 0.73603,0.66135 0.288,0.41602 0.32001,0.9707 v 1.52538 q -0.032,0.54402 -0.30935,0.9707 -0.27734,0.42668 -0.73602,0.67202 -0.45868,0.23467 -1.0347,0.23467 z m 0.16001,-0.90669 q 0.48001,0 0.83202,-0.22401 0.36268,-0.22401 0.56535,-0.60802 0.20268,-0.39468 0.20268,-0.89603 0,-0.52268 -0.21334,-0.90669 -0.20268,-0.38401 -0.56536,-0.60802 -0.35201,-0.22401 -0.83202,-0.22401 -0.48002,0 -0.84269,0.22401 -0.36268,0.22401 -0.57602,0.61869 -0.20268,0.38401 -0.20268,0.88536 0,0.51201 0.20268,0.90669 0.21334,0.38401 0.57602,0.60802 0.37334,0.22401 0.85336,0.22401 z m 2.50674,0.80002 h -0.9707 v -1.36537 l 0.18134,-1.23737 -0.18134,-1.22671 v -3.78678 h 0.9707 z"
       id="text11"
       aria-label="Hard" /></g><g
     transform="translate(-211.74 1.5625)"
     id="g12"><path
       id="rect12"
       style="fill:#404040;fill-rule:evenodd;paint-order:markers stroke fill;filter:url(#filter51-7-1)"
       d="m 299.33299,200.64999 h 46.3 c 9.33102,0 16.843,7.0497 16.843,15.8065 0,8.75681 -7.51198,15.8065 -16.843,15.8065 h -46.3 c -9.33102,0 -16.843,-7.04969 -16.843,-15.8065 0,-8.7568 7.51198,-15.8065 16.843,-15.8065 z" /><path
       style="font-size:10.667px;line-height:1.25;font-family:Outfit;text-align:end;text-anchor:end;fill:#ffffff"
       d="m 309.13077,219.29668 3.02942,-7.4029 h 0.72536 l 3.01876,7.4029 h -1.08803 l -2.48541,-6.26153 h 0.37334 l -2.50674,6.26153 z m 1.44004,-1.67472 v -0.8747 h 3.89346 v 0.8747 z m 8.13892,3.90412 q -0.77869,0 -1.38671,-0.28801 -0.59735,-0.28801 -0.96003,-0.81069 l 0.61869,-0.62935 q 0.30934,0.39467 0.73602,0.59735 0.42668,0.21334 1.01337,0.21334 0.77869,0 1.2267,-0.41602 0.45868,-0.40534 0.45868,-1.0987 v -1.2587 l 0.17068,-1.14137 -0.17068,-1.1307 v -1.33338 h 0.96003 v 4.86415 q 0,0.72536 -0.34134,1.26938 -0.33068,0.54401 -0.9387,0.85336 -0.59735,0.30934 -1.38671,0.30934 z m 0,-2.31474 q -0.69335,0 -1.24803,-0.33068 -0.54402,-0.33067 -0.86403,-0.90669 -0.32001,-0.58669 -0.32001,-1.31204 0,-0.72536 0.32001,-1.29071 0.32001,-0.57602 0.86403,-0.90669 0.55468,-0.34135 1.24803,-0.34135 0.59736,0 1.05604,0.23468 0.45868,0.23467 0.72535,0.66135 0.27735,0.41601 0.29868,0.98136 v 1.34405 q -0.032,0.55468 -0.30934,0.98136 -0.26668,0.41601 -0.72536,0.65069 -0.45868,0.23467 -1.04537,0.23467 z m 0.19201,-0.90669 q 0.46935,0 0.82136,-0.20268 0.36268,-0.20267 0.55468,-0.56535 0.19201,-0.37334 0.19201,-0.86403 0,-0.49068 -0.20267,-0.85336 -0.19201,-0.37334 -0.54402,-0.57601 -0.35201,-0.21334 -0.83203,-0.21334 -0.48001,0 -0.84269,0.21334 -0.36268,0.20267 -0.57602,0.57601 -0.20267,0.36268 -0.20267,0.8427 0,0.48001 0.20267,0.85336 0.21334,0.37334 0.57602,0.58668 0.37335,0.20268 0.85336,0.20268 z m 6.03753,1.0987 q -0.69336,0 -1.25871,-0.34135 -0.56535,-0.35201 -0.89603,-0.94936 -0.32001,-0.59735 -0.32001,-1.34404 0,-0.74669 0.32001,-1.34404 0.33068,-0.59736 0.88537,-0.94937 0.56535,-0.35201 1.26937,-0.35201 0.57602,0 1.02403,0.24534 0.45868,0.23468 0.73602,0.66136 0.27735,0.41601 0.30935,0.97069 v 1.52538 q -0.032,0.54402 -0.30935,0.9707 -0.26667,0.42668 -0.72535,0.67202 -0.44802,0.23468 -1.0347,0.23468 z m 0.16,-0.9067 q 0.71469,0 1.15204,-0.48001 0.43735,-0.49069 0.43735,-1.24804 0,-0.52269 -0.20268,-0.9067 -0.192,-0.39468 -0.55468,-0.60802 -0.36268,-0.224 -0.84269,-0.224 -0.48002,0 -0.85336,0.224 -0.36268,0.22401 -0.57602,0.61869 -0.20267,0.38401 -0.20267,0.88536 0,0.51202 0.20267,0.9067 0.21334,0.38401 0.58668,0.60801 0.37335,0.22401 0.85336,0.22401 z m 1.52538,0.80003 v -1.36538 l 0.18134,-1.23737 -0.18134,-1.22671 v -1.23737 h 0.9707 v 5.06683 z m 2.37875,0 v -5.06683 h 0.96003 v 5.06683 z m 0.48002,-6.08019 q -0.26668,0 -0.43735,-0.17068 -0.17067,-0.18133 -0.17067,-0.44801 0,-0.25601 0.17067,-0.42668 0.17067,-0.18134 0.43735,-0.18134 0.26667,0 0.43734,0.18134 0.17068,0.17067 0.17068,0.42668 0,0.26668 -0.17068,0.44801 -0.17067,0.17068 -0.43734,0.17068 z m 5.48285,6.08019 v -2.95476 q 0,-0.57602 -0.36268,-0.94937 -0.36268,-0.37334 -0.9387,-0.37334 -0.38401,0 -0.68269,0.17067 -0.29867,0.17067 -0.46934,0.46935 -0.17068,0.29868 -0.17068,0.68269 l -0.39467,-0.22401 q 0,-0.57602 0.256,-1.02403 0.25601,-0.44802 0.71469,-0.70402 0.45868,-0.26668 1.0347,-0.26668 0.57602,0 1.01337,0.28801 0.44801,0.28801 0.70402,0.75736 0.25601,0.45868 0.25601,0.98136 v 3.14677 z m -3.58412,0 v -5.06683 h 0.96003 v 5.06683 z"
       id="text12"
       aria-label="Again" /></g><g
     font-family="'STIX Two Math'"
     text-anchor="end"
     id="g17"><path
       style="font-size:12px;line-height:1.25;font-family:Outfit;text-align:end;fill:#ffffff"
       d="m 104.8533,196.00179 -5.087996,-2.28 v -0.78 l 5.087996,-2.28 v 1.092 l -4.212,1.788 v -0.408 l 4.212,1.788 z m 5.28,1.356 v -8.328 h 1.116 v 8.328 z m -1.704,-7.32 v -1.008 h 2.7 v 1.008 z m 4.58401,7.32 v -5.7 h 1.08 v 5.7 z m 3.852,0 v -3.444 q 0,-0.636 -0.396,-0.996 -0.384,-0.372 -0.972,-0.372 -0.396,0 -0.708,0.168 -0.312,0.168 -0.504,0.468 -0.192,0.3 -0.192,0.72 l -0.444,-0.216 q 0,-0.648 0.276,-1.128 0.288,-0.48 0.78,-0.744 0.492,-0.276 1.104,-0.276 0.6,0 1.08,0.264 0.492,0.264 0.768,0.744 0.288,0.48 0.288,1.14 v 3.672 z m 3.852,0 v -3.444 q 0,-0.636 -0.396,-0.996 -0.384,-0.372 -0.96,-0.372 -0.396,0 -0.72,0.168 -0.312,0.168 -0.504,0.468 -0.192,0.3 -0.192,0.72 l -0.612,-0.216 q 0.036,-0.66 0.348,-1.128 0.324,-0.48 0.828,-0.744 0.504,-0.276 1.104,-0.276 0.624,0 1.116,0.264 0.492,0.264 0.78,0.744 0.3,0.48 0.3,1.152 v 3.66 z"
       id="text13"
       aria-label="&lt; 1m" /><path
       style="font-size:12px;line-height:1.25;font-family:Outfit;text-align:end;fill:#ffffff"
       d="m 199.098,195.88179 -5.088,-2.28 v -0.78 l 5.088,-2.28 v 1.092 l -4.212,1.788 v -0.408 l 4.212,1.788 z m 6.588,1.476 q -0.828,0 -1.488,-0.384 -0.648,-0.384 -1.032,-1.032 -0.384,-0.648 -0.384,-1.44 0,-1.104 0.768,-2.196 l 2.448,-3.396 h 1.308 l -2.508,3.42 -0.408,0.216 q 0.144,-0.252 0.348,-0.42 0.204,-0.18 0.504,-0.276 0.3,-0.096 0.708,-0.096 0.732,0 1.32,0.348 0.6,0.348 0.96,0.96 0.372,0.6 0.372,1.404 0,0.792 -0.396,1.452 -0.384,0.66 -1.056,1.056 -0.66,0.384 -1.464,0.384 z m 0,-1.056 q 0.504,0 0.9,-0.24 0.408,-0.252 0.636,-0.66 0.24,-0.42 0.24,-0.936 0,-0.516 -0.24,-0.924 -0.228,-0.42 -0.636,-0.66 -0.396,-0.24 -0.9,-0.24 -0.504,0 -0.912,0.24 -0.396,0.24 -0.636,0.66 -0.228,0.408 -0.228,0.924 0,0.516 0.228,0.936 0.24,0.42 0.636,0.66 0.408,0.24 0.912,0.24 z m 4.17599,0.936 v -5.7 h 1.08 v 5.7 z m 3.852,0 v -3.444 q 0,-0.636 -0.396,-0.996 -0.384,-0.372 -0.972,-0.372 -0.396,0 -0.708,0.168 -0.312,0.168 -0.504,0.468 -0.192,0.3 -0.192,0.72 l -0.444,-0.216 q 0,-0.648 0.276,-1.128 0.288,-0.48 0.78,-0.744 0.492,-0.276 1.104,-0.276 0.6,0 1.08,0.264 0.492,0.264 0.768,0.744 0.288,0.48 0.288,1.14 v 3.672 z m 3.852,0 v -3.444 q 0,-0.636 -0.396,-0.996 -0.384,-0.372 -0.96,-0.372 -0.396,0 -0.72,0.168 -0.312,0.168 -0.504,0.468 -0.192,0.3 -0.192,0.72 l -0.612,-0.216 q 0.036,-0.66 0.348,-1.128 0.324,-0.48 0.828,-0.744 0.504,-0.276 1.104,-0.276 0.624,0 1.116,0.264 0.492,0.264 0.78,0.744 0.3,0.48 0.3,1.152 v 3.66 z"
       id="text14"
       aria-label="&lt; 6m" /><path
       style="font-size:18.667px;line-height:1.25;font-family:Outfit;text-align:end;fill:#ffffff"
       d="m 127.67325,83.337654 v -1.605362 h 3.60273 q 1.43736,0 2.52005,-0.616011 1.08268,-0.634678 1.68002,-1.736031 0.61602,-1.101353 0.61602,-2.538712 0,-1.418692 -0.61602,-2.520045 -0.61601,-1.101353 -1.69869,-1.717364 -1.08269,-0.616011 -2.50138,-0.616011 h -3.58406 v -1.605362 h 3.62139 q 1.4187,0 2.61338,0.485342 1.21336,0.485342 2.09071,1.362691 0.89601,0.877349 1.38136,2.05337 0.504,1.176021 0.504,2.576046 0,1.381358 -0.504,2.576046 -0.48535,1.176021 -1.3627,2.05337 -0.87734,0.877349 -2.0907,1.362691 -1.19469,0.485342 -2.59471,0.485342 z m -1.15735,0 V 70.382756 h 1.75469 v 12.954898 z m 17.56564,0.18667 q -1.30669,0 -2.35204,-0.616011 -1.04536,-0.616011 -1.66137,-1.661363 -0.61601,-1.064019 -0.61601,-2.370709 0,-1.288023 0.61601,-2.314708 0.61601,-1.045352 1.66137,-1.661363 1.04535,-0.616011 2.35204,-0.616011 1.28802,0 2.33337,0.616011 1.06402,0.597344 1.68003,1.642696 0.61601,1.045352 0.61601,2.333375 0,1.30669 -0.61601,2.370709 -0.61601,1.045352 -1.68003,1.661363 -1.04535,0.616011 -2.33337,0.616011 z m 0,-1.624029 q 0.84001,0 1.49336,-0.392007 0.65334,-0.392007 1.02668,-1.064019 0.37334,-0.690679 0.37334,-1.568028 0,-0.858682 -0.392,-1.530694 -0.37334,-0.672012 -1.02669,-1.045352 -0.63468,-0.392007 -1.47469,-0.392007 -0.84002,0 -1.49336,0.392007 -0.65335,0.37334 -1.02669,1.045352 -0.37334,0.672012 -0.37334,1.530694 0,0.877349 0.37334,1.568028 0.37334,0.672012 1.02669,1.064019 0.65334,0.392007 1.49336,0.392007 z m 10.62152,1.624029 q -1.32536,0 -2.38938,-0.597344 -1.06401,-0.616011 -1.68003,-1.661363 -0.61601,-1.045352 -0.61601,-2.370709 0,-1.30669 0.59735,-2.352042 0.61601,-1.045352 1.64269,-1.642696 1.04536,-0.616011 2.33338,-0.616011 1.23202,0 2.16537,0.56001 0.95202,0.56001 1.47469,1.549361 0.54135,0.989351 0.54135,2.24004 0,0.18667 -0.0187,0.410674 -0.0187,0.205337 -0.0747,0.485342 h -7.48547 v -1.400025 h 6.58945 l -0.61601,0.541343 q 0,-0.896016 -0.31733,-1.512027 -0.31734,-0.634678 -0.89602,-0.970684 -0.57868,-0.354673 -1.40003,-0.354673 -0.85868,0 -1.51202,0.37334 -0.65335,0.37334 -1.00802,1.045352 -0.35467,0.672012 -0.35467,1.586695 0,0.93335 0.37334,1.642696 0.37334,0.690679 1.06402,1.082686 0.69067,0.37334 1.58669,0.37334 0.74668,0 1.36269,-0.261338 0.63468,-0.261338 1.08269,-0.784014 l 1.08268,1.101353 q -0.63468,0.74668 -1.56802,1.138687 -0.91469,0.392007 -1.96004,0.392007 z m 8.71748,0 q -0.74668,0 -1.41869,-0.18667 -0.65335,-0.205337 -1.21336,-0.56001 -0.56001,-0.37334 -0.97068,-0.877349 l 1.08268,-1.082686 q 0.48534,0.597344 1.12002,0.896016 0.63468,0.280005 1.41869,0.280005 0.78402,0 1.21336,-0.261338 0.42934,-0.280005 0.42934,-0.765347 0,-0.485342 -0.35467,-0.74668 -0.33601,-0.280005 -0.87735,-0.448008 -0.54134,-0.18667 -1.15736,-0.354673 -0.59734,-0.18667 -1.13868,-0.466675 -0.54135,-0.280005 -0.89602,-0.765347 -0.336,-0.485342 -0.336,-1.288023 0,-0.802681 0.392,-1.381358 0.39201,-0.597344 1.08269,-0.914683 0.70934,-0.317339 1.6987,-0.317339 1.04535,0 1.84803,0.37334 0.82135,0.354673 1.34402,1.082686 l -1.08268,1.082686 q -0.37334,-0.485342 -0.93335,-0.74668 -0.54135,-0.261338 -1.23203,-0.261338 -0.72801,0 -1.12002,0.261338 -0.37334,0.242671 -0.37334,0.690679 0,0.448008 0.33601,0.690679 0.33601,0.242671 0.87735,0.410674 0.56001,0.168003 1.15735,0.354673 0.59735,0.168003 1.13869,0.466675 0.54134,0.298672 0.87735,0.802681 0.35467,0.504009 0.35467,1.325357 0,1.250689 -0.89601,1.978702 -0.87735,0.728013 -2.37071,0.728013 z m 7.85881,-0.18667 5.30143,-12.954898 h 1.26936 l 5.28276,12.954898 h -1.90404 l -4.34941,-10.957529 h 0.65335 l -4.38675,10.957529 z m 2.52005,-2.930719 v -1.530694 h 6.81345 v 1.530694 z m 17.39762,2.930719 v -5.170759 q 0,-1.008018 -0.63468,-1.661363 -0.63467,-0.653345 -1.64269,-0.653345 -0.67201,0 -1.19469,0.298672 -0.52268,0.298672 -0.82135,0.821348 -0.29867,0.522676 -0.29867,1.194688 l -0.69068,-0.392007 q 0,-1.008018 0.44801,-1.792032 0.44801,-0.784014 1.25069,-1.232022 0.80268,-0.466675 1.8107,-0.466675 1.00802,0 1.77336,0.504009 0.78402,0.504009 1.23202,1.325357 0.44801,0.802681 0.44801,1.717364 v 5.506765 z m -6.27211,0 v -8.866825 h 1.68003 v 8.866825 z m 15.90429,0 -4.14407,-4.536081 4.10674,-4.330744 h 2.0347 l -4.57341,4.778752 0.0747,-0.970684 4.66675,5.058757 z m -5.67477,0 V 70.009416 h 1.68003 v 13.328238 z m 8.97882,0 v -8.866825 h 1.68003 v 8.866825 z m 0.84002,-10.64019 q -0.46668,0 -0.76535,-0.298672 -0.29867,-0.317339 -0.29867,-0.784014 0,-0.448008 0.29867,-0.74668 0.29867,-0.317339 0.76535,-0.317339 0.46667,0 0.76534,0.317339 0.29868,0.298672 0.29868,0.74668 0,0.466675 -0.29868,0.784014 -0.29867,0.298672 -0.76534,0.298672 z m 7.22415,10.64019 v -8.866825 h 1.68003 v 8.866825 z m 0.84001,-10.64019 q -0.46667,0 -0.76535,-0.298672 -0.29867,-0.317339 -0.29867,-0.784014 0,-0.448008 0.29867,-0.74668 0.29868,-0.317339 0.76535,-0.317339 0.46668,0 0.76535,0.317339 0.29867,0.298672 0.29867,0.74668 0,0.466675 -0.29867,0.784014 -0.29867,0.298672 -0.76535,0.298672 z m 3.32275,10.64019 v -8.866825 h 1.68003 v 8.866825 z m 5.9921,0 v -5.357429 q 0,-0.989351 -0.61601,-1.549361 -0.59734,-0.578677 -1.51203,-0.578677 -0.61601,0 -1.10135,0.261338 -0.48534,0.261338 -0.78401,0.728013 -0.29867,0.466675 -0.29867,1.12002 l -0.69068,-0.336006 q 0,-1.008018 0.42934,-1.754698 0.44801,-0.74668 1.21335,-1.157354 0.76535,-0.429341 1.71737,-0.429341 0.93335,0 1.68003,0.410674 0.76534,0.410674 1.19468,1.157354 0.44801,0.74668 0.44801,1.773365 v 5.712102 z m 5.99211,0 v -5.357429 q 0,-0.989351 -0.61601,-1.549361 -0.59735,-0.578677 -1.49336,-0.578677 -0.61601,0 -1.12002,0.261338 -0.48534,0.261338 -0.78402,0.728013 -0.29867,0.466675 -0.29867,1.12002 l -0.95202,-0.336006 q 0.056,-1.026685 0.54135,-1.754698 0.50401,-0.74668 1.28802,-1.157354 0.78401,-0.429341 1.71736,-0.429341 0.97069,0 1.73604,0.410674 0.76534,0.410674 1.21335,1.157354 0.46668,0.74668 0.46668,1.792032 v 5.693435 z m 8.64281,0.18667 q -1.00802,0 -1.82937,-0.410674 -0.80268,-0.429341 -1.28802,-1.176021 -0.48534,-0.74668 -0.54134,-1.698697 v -2.669381 q 0.056,-0.970684 0.54134,-1.698697 0.50401,-0.74668 1.30669,-1.157354 0.82135,-0.429341 1.8107,-0.429341 1.21335,0 2.18404,0.616011 0.98935,0.616011 1.54936,1.661363 0.56001,1.045352 0.56001,2.352042 0,1.30669 -0.56001,2.352042 -0.56001,1.045352 -1.54936,1.661363 -0.97069,0.597344 -2.18404,0.597344 z m -4.66675,3.528063 V 74.470829 h 1.68003 v 2.333375 l -0.31734,2.146705 0.31734,2.165372 v 5.936106 z m 4.38674,-5.114758 q 0.84002,0 1.4747,-0.392007 0.63467,-0.392007 1.00801,-1.064019 0.37334,-0.690679 0.37334,-1.586695 0,-0.877349 -0.37334,-1.568028 -0.37334,-0.690679 -1.00801,-1.064019 -0.63468,-0.392007 -1.45603,-0.392007 -0.84001,0 -1.47469,0.392007 -0.63468,0.37334 -0.98935,1.064019 -0.35468,0.690679 -0.35468,1.586695 0,0.877349 0.33601,1.568028 0.35467,0.672012 0.98935,1.064019 0.65335,0.392007 1.47469,0.392007 z m 6.47747,1.400025 v -8.866825 h 1.68003 v 8.866825 z m 1.68003,-5.058757 -0.63468,-0.280005 q 0,-1.698697 0.78402,-2.706715 0.78401,-1.008018 2.2587,-1.008018 0.67202,0 1.21336,0.242671 0.54134,0.224004 1.00802,0.765347 l -1.10136,1.138687 q -0.28,-0.298672 -0.61601,-0.429341 -0.336,-0.130669 -0.78401,-0.130669 -0.93335,0 -1.5307,0.597344 -0.59734,0.597344 -0.59734,1.810699 z m 9.5762,5.245427 q -1.30669,0 -2.35204,-0.616011 -1.04535,-0.616011 -1.66137,-1.661363 -0.61601,-1.064019 -0.61601,-2.370709 0,-1.288023 0.61601,-2.314708 0.61602,-1.045352 1.66137,-1.661363 1.04535,-0.616011 2.35204,-0.616011 1.28802,0 2.33337,0.616011 1.06402,0.597344 1.68003,1.642696 0.61602,1.045352 0.61602,2.333375 0,1.30669 -0.61602,2.370709 -0.61601,1.045352 -1.68003,1.661363 -1.04535,0.616011 -2.33337,0.616011 z m 0,-1.624029 q 0.84001,0 1.49336,-0.392007 0.65334,-0.392007 1.02668,-1.064019 0.37334,-0.690679 0.37334,-1.568028 0,-0.858682 -0.392,-1.530694 -0.37334,-0.672012 -1.02669,-1.045352 -0.63468,-0.392007 -1.47469,-0.392007 -0.84002,0 -1.49336,0.392007 -0.65335,0.37334 -1.02669,1.045352 -0.37334,0.672012 -0.37334,1.530694 0,0.877349 0.37334,1.568028 0.37334,0.672012 1.02669,1.064019 0.65334,0.392007 1.49336,0.392007 z m 9.2215,1.437359 -4.0694,-8.866825 h 1.8667 l 3.26672,7.485467 h -1.08268 l 3.28539,-7.485467 h 1.79203 l -4.0694,8.866825 z m 10.26686,0.18667 q -1.32536,0 -2.38938,-0.597344 -1.06402,-0.616011 -1.68003,-1.661363 -0.61601,-1.045352 -0.61601,-2.370709 0,-1.30669 0.59735,-2.352042 0.61601,-1.045352 1.64269,-1.642696 1.04535,-0.616011 2.33338,-0.616011 1.23202,0 2.16537,0.56001 0.95202,0.56001 1.47469,1.549361 0.54134,0.989351 0.54134,2.24004 0,0.18667 -0.0187,0.410674 -0.0187,0.205337 -0.0747,0.485342 h -7.48547 v -1.400025 h 6.58945 l -0.61601,0.541343 q 0,-0.896016 -0.31734,-1.512027 -0.31734,-0.634678 -0.89601,-0.970684 -0.57868,-0.354673 -1.40003,-0.354673 -0.85868,0 -1.51202,0.37334 -0.65335,0.37334 -1.00802,1.045352 -0.35468,0.672012 -0.35468,1.586695 0,0.93335 0.37334,1.642696 0.37334,0.690679 1.06402,1.082686 0.69068,0.37334 1.5867,0.37334 0.74668,0 1.36269,-0.261338 0.63468,-0.261338 1.08269,-0.784014 l 1.08268,1.101353 q -0.63468,0.74668 -1.56803,1.138687 -0.91468,0.392007 -1.96003,0.392007 z m 9.78149,-0.18667 v -8.866825 h 1.68003 v 8.866825 z m 1.68003,-5.058757 -0.63468,-0.280005 q 0,-1.698697 0.78401,-2.706715 0.78402,-1.008018 2.25871,-1.008018 0.67201,0 1.21336,0.242671 0.54134,0.224004 1.00801,0.765347 l -1.10135,1.138687 q -0.28,-0.298672 -0.61601,-0.429341 -0.33601,-0.130669 -0.78401,-0.130669 -0.93335,0 -1.5307,0.597344 -0.59734,0.597344 -0.59734,1.810699 z m 9.6322,5.245427 q -1.32536,0 -2.38938,-0.597344 -1.06402,-0.616011 -1.68003,-1.661363 -0.61601,-1.045352 -0.61601,-2.370709 0,-1.30669 0.59735,-2.352042 0.61601,-1.045352 1.64269,-1.642696 1.04535,-0.616011 2.33338,-0.616011 1.23202,0 2.16537,0.56001 0.95202,0.56001 1.47469,1.549361 0.54134,0.989351 0.54134,2.24004 0,0.18667 -0.0187,0.410674 -0.0187,0.205337 -0.0747,0.485342 h -7.48547 v -1.400025 h 6.58945 l -0.61601,0.541343 q 0,-0.896016 -0.31734,-1.512027 -0.31734,-0.634678 -0.89601,-0.970684 -0.57868,-0.354673 -1.40003,-0.354673 -0.85868,0 -1.51202,0.37334 -0.65335,0.37334 -1.00802,1.045352 -0.35468,0.672012 -0.35468,1.586695 0,0.93335 0.37334,1.642696 0.37334,0.690679 1.06402,1.082686 0.69068,0.37334 1.5867,0.37334 0.74668,0 1.36269,-0.261338 0.63468,-0.261338 1.08269,-0.784014 l 1.08268,1.101353 q -0.63468,0.74668 -1.56803,1.138687 -0.91468,0.392007 -1.96003,0.392007 z m 6.99078,-0.18667 V 70.756096 h 1.68003 v 12.581558 z m -2.18404,-7.336131 v -1.530694 h 6.04811 v 1.530694 z m 11.5082,7.522801 q -1.32536,0 -2.38938,-0.597344 -1.06402,-0.616011 -1.68003,-1.661363 -0.61601,-1.045352 -0.61601,-2.370709 0,-1.30669 0.59735,-2.352042 0.61601,-1.045352 1.64269,-1.642696 1.04535,-0.616011 2.33338,-0.616011 1.23202,0 2.16537,0.56001 0.95202,0.56001 1.47469,1.549361 0.54135,0.989351 0.54135,2.24004 0,0.18667 -0.0187,0.410674 -0.0187,0.205337 -0.0747,0.485342 h -7.48547 v -1.400025 h 6.58945 l -0.61601,0.541343 q 0,-0.896016 -0.31734,-1.512027 -0.31733,-0.634678 -0.89601,-0.970684 -0.57868,-0.354673 -1.40003,-0.354673 -0.85868,0 -1.51202,0.37334 -0.65335,0.37334 -1.00802,1.045352 -0.35467,0.672012 -0.35467,1.586695 0,0.93335 0.37334,1.642696 0.37334,0.690679 1.06401,1.082686 0.69068,0.37334 1.5867,0.37334 0.74668,0 1.36269,-0.261338 0.63468,-0.261338 1.08269,-0.784014 l 1.08268,1.101353 q -0.63468,0.74668 -1.56803,1.138687 -0.91468,0.392007 -1.96003,0.392007 z m 12.17086,-0.18667 v -5.170759 q 0,-1.008018 -0.63467,-1.661363 -0.63468,-0.653345 -1.6427,-0.653345 -0.67201,0 -1.19469,0.298672 -0.52267,0.298672 -0.82135,0.821348 -0.29867,0.522676 -0.29867,1.194688 l -0.69068,-0.392007 q 0,-1.008018 0.44801,-1.792032 0.44801,-0.784014 1.25069,-1.232022 0.80268,-0.466675 1.8107,-0.466675 1.00802,0 1.77336,0.504009 0.78402,0.504009 1.23203,1.325357 0.448,0.802681 0.448,1.717364 v 5.506765 z m -6.27211,0 v -8.866825 h 1.68003 v 8.866825 z m 11.4802,0 V 70.756096 h 1.68003 v 12.581558 z m -2.18404,-7.336131 v -1.530694 h 6.04811 v 1.530694 z m 7.70948,7.336131 v -8.866825 h 1.68003 v 8.866825 z m 0.84001,-10.64019 q -0.46667,0 -0.76534,-0.298672 -0.29868,-0.317339 -0.29868,-0.784014 0,-0.448008 0.29868,-0.74668 0.29867,-0.317339 0.76534,-0.317339 0.46668,0 0.76535,0.317339 0.29867,0.298672 0.29867,0.74668 0,0.466675 -0.29867,0.784014 -0.29867,0.298672 -0.76535,0.298672 z m 7.37349,10.82686 q -1.30669,0 -2.35204,-0.616011 -1.04536,-0.616011 -1.66137,-1.661363 -0.61601,-1.064019 -0.61601,-2.370709 0,-1.288023 0.61601,-2.314708 0.61601,-1.045352 1.66137,-1.661363 1.04535,-0.616011 2.35204,-0.616011 1.28802,0 2.33337,0.616011 1.06402,0.597344 1.68003,1.642696 0.61601,1.045352 0.61601,2.333375 0,1.30669 -0.61601,2.370709 -0.61601,1.045352 -1.68003,1.661363 -1.04535,0.616011 -2.33337,0.616011 z m 0,-1.624029 q 0.84001,0 1.49336,-0.392007 0.65334,-0.392007 1.02668,-1.064019 0.37334,-0.690679 0.37334,-1.568028 0,-0.858682 -0.392,-1.530694 -0.37334,-0.672012 -1.02669,-1.045352 -0.63468,-0.392007 -1.47469,-0.392007 -0.84002,0 -1.49336,0.392007 -0.65335,0.37334 -1.02669,1.045352 -0.37334,0.672012 -0.37334,1.530694 0,0.877349 0.37334,1.568028 0.37334,0.672012 1.02669,1.064019 0.65334,0.392007 1.49336,0.392007 z m 12.78689,1.437359 v -5.170759 q 0,-1.008018 -0.63468,-1.661363 -0.63467,-0.653345 -1.64269,-0.653345 -0.67201,0 -1.19469,0.298672 -0.52268,0.298672 -0.82135,0.821348 -0.29867,0.522676 -0.29867,1.194688 l -0.69068,-0.392007 q 0,-1.008018 0.44801,-1.792032 0.44801,-0.784014 1.25069,-1.232022 0.80268,-0.466675 1.8107,-0.466675 1.00801,0 1.77336,0.504009 0.78402,0.504009 1.23202,1.325357 0.44801,0.802681 0.44801,1.717364 v 5.506765 z m -6.27211,0 v -8.866825 h 1.68003 v 8.866825 z m 13.08557,-4.10674 -0.0187,-3.54673 0.50401,-0.01867 q 0.65334,0 1.13868,-0.280005 0.50401,-0.280005 0.78402,-0.765347 0.28,-0.485342 0.28,-1.082686 0,-0.616011 -0.28,-1.082686 -0.26134,-0.466675 -0.76535,-0.728013 -0.48534,-0.261338 -1.15735,-0.261338 -0.89602,0 -1.54937,0.448008 -0.65334,0.448008 -1.04535,1.269356 l -1.23202,-1.026685 q 0.54134,-1.101353 1.54936,-1.717364 1.02669,-0.616011 2.35204,-0.616011 1.13869,0 2.01604,0.466675 0.87735,0.448008 1.36269,1.269356 0.48534,0.802681 0.48534,1.8667 0,0.970684 -0.44801,1.773365 -0.42934,0.784014 -1.23202,1.30669 -0.78401,0.504009 -1.8667,0.653345 l 0.72802,-0.74668 -0.14934,2.818717 z m 0.70935,4.29341 q -0.52268,0 -0.87735,-0.354673 -0.33601,-0.354673 -0.33601,-0.877349 0,-0.522676 0.33601,-0.858682 0.35467,-0.354673 0.87735,-0.354673 0.52268,0 0.85868,0.354673 0.35467,0.336006 0.35467,0.858682 0,0.522676 -0.35467,0.877349 -0.336,0.354673 -0.85868,0.354673 z"
       id="text15"
       aria-label="Does Anki improve retention?" /><path
       style="font-size:18.667px;line-height:1.25;font-family:Outfit;text-align:end;fill:#ffffff"
       d="m 238.37028,125.89994 -5.09609,-7.69081 h 2.03471 l 4.10674,6.29078 h -0.91469 l 4.12541,-6.29078 h 1.99737 l -5.13343,7.69081 z m -0.29867,5.26409 v -6.42145 h 1.7547 v 6.42145 z m 9.66954,0.18667 q -1.32536,0 -2.38938,-0.59734 -1.06402,-0.61601 -1.68003,-1.66136 -0.61601,-1.04536 -0.61601,-2.37071 0,-1.30669 0.59734,-2.35205 0.61601,-1.04535 1.6427,-1.64269 1.04535,-0.61601 2.33337,-0.61601 1.23203,0 2.16538,0.56001 0.95201,0.56001 1.47469,1.54936 0.54134,0.98935 0.54134,2.24004 0,0.18667 -0.0187,0.41067 -0.0187,0.20534 -0.0747,0.48534 h -7.48547 v -1.40002 h 6.58945 l -0.61601,0.54134 q 0,-0.89601 -0.31734,-1.51202 -0.31734,-0.63468 -0.89602,-0.97069 -0.57867,-0.35467 -1.40002,-0.35467 -0.85868,0 -1.51203,0.37334 -0.65334,0.37334 -1.00802,1.04535 -0.35467,0.67201 -0.35467,1.5867 0,0.93335 0.37334,1.64269 0.37334,0.69068 1.06402,1.08269 0.69068,0.37334 1.5867,0.37334 0.74668,0 1.36269,-0.26134 0.63467,-0.26134 1.08268,-0.78401 l 1.08269,1.10135 q -0.63468,0.74668 -1.56803,1.13868 -0.91468,0.39201 -1.96003,0.39201 z m 8.71747,0 q -0.74668,0 -1.41869,-0.18667 -0.65335,-0.20534 -1.21336,-0.56001 -0.56001,-0.37334 -0.97068,-0.87735 l 1.08269,-1.08268 q 0.48534,0.59734 1.12002,0.89601 0.63467,0.28001 1.41869,0.28001 0.78401,0 1.21335,-0.26134 0.42934,-0.28 0.42934,-0.76535 0,-0.48534 -0.35467,-0.74668 -0.336,-0.28 -0.87735,-0.448 -0.54134,-0.18667 -1.15735,-0.35468 -0.59735,-0.18667 -1.13869,-0.46667 -0.54134,-0.28001 -0.89601,-0.76535 -0.33601,-0.48534 -0.33601,-1.28802 0,-0.80268 0.39201,-1.38136 0.392,-0.59734 1.08268,-0.91468 0.70935,-0.31734 1.6987,-0.31734 1.04535,0 1.84803,0.37334 0.82135,0.35467 1.34403,1.08268 l -1.08269,1.08269 q -0.37334,-0.48534 -0.93335,-0.74668 -0.54134,-0.26134 -1.23202,-0.26134 -0.72801,0 -1.12002,0.26134 -0.37334,0.24267 -0.37334,0.69068 0,0.44801 0.336,0.69068 0.33601,0.24267 0.87735,0.41067 0.56001,0.168 1.15736,0.35467 0.59734,0.16801 1.13868,0.46668 0.54135,0.29867 0.87735,0.80268 0.35468,0.50401 0.35468,1.32536 0,1.25069 -0.89602,1.9787 -0.87735,0.72801 -2.37071,0.72801 z"
       id="text16"
       aria-label="Yes" /><path
       style="font-size:12px;line-height:1.25;font-family:Outfit;text-align:end;fill:#ffffff"
       d="m 292.01068,195.88179 -5.088,-2.28 v -0.78 l 5.088,-2.28 v 1.092 l -4.212,1.788 v -0.408 l 4.212,1.788 z m 5.28,1.356 v -8.328 h 1.116 v 8.328 z m -1.704,-7.32 v -1.008 h 2.7 v 1.008 z m 7.752,7.44 q -0.936,0 -1.716,-0.528 -0.768,-0.528 -1.224,-1.488 -0.456,-0.972 -0.456,-2.28 0,-1.308 0.444,-2.268 0.456,-0.96 1.224,-1.476 0.768,-0.528 1.692,-0.528 0.948,0 1.716,0.528 0.768,0.516 1.212,1.476 0.456,0.96 0.456,2.28 0,1.308 -0.456,2.28 -0.444,0.96 -1.212,1.488 -0.756,0.516 -1.68,0.516 z m -0.024,-1.068 q 0.66,0 1.152,-0.36 0.504,-0.372 0.792,-1.092 0.288,-0.72 0.288,-1.776 0,-1.056 -0.288,-1.764 -0.288,-0.72 -0.792,-1.08 -0.504,-0.372 -1.164,-0.372 -0.648,0 -1.152,0.372 -0.504,0.36 -0.792,1.08 -0.276,0.708 -0.276,1.764 0,1.056 0.276,1.776 0.288,0.72 0.792,1.092 0.504,0.36 1.164,0.36 z m 4.72801,0.948 v -5.7 h 1.08 v 5.7 z m 3.852,0 v -3.444 q 0,-0.636 -0.396,-0.996 -0.384,-0.372 -0.972,-0.372 -0.396,0 -0.708,0.168 -0.312,0.168 -0.504,0.468 -0.192,0.3 -0.192,0.72 l -0.444,-0.216 q 0,-0.648 0.276,-1.128 0.288,-0.48 0.78,-0.744 0.492,-0.276 1.104,-0.276 0.6,0 1.08,0.264 0.492,0.264 0.768,0.744 0.288,0.48 0.288,1.14 v 3.672 z m 3.852,0 v -3.444 q 0,-0.636 -0.396,-0.996 -0.384,-0.372 -0.96,-0.372 -0.396,0 -0.72,0.168 -0.312,0.168 -0.504,0.468 -0.192,0.3 -0.192,0.72 l -0.612,-0.216 q 0.036,-0.66 0.348,-1.128 0.324,-0.48 0.828,-0.744 0.504,-0.276 1.104,-0.276 0.624,0 1.116,0.264 0.492,0.264 0.78,0.744 0.3,0.48 0.3,1.152 v 3.66 z"
       id="text17"
       aria-label="&lt; 10m" /></g><g
     transform="translate(176.67 -2.0902)"
     id="g18"><path
       style="font-size:12px;line-height:1.25;font-family:Outfit;text-align:end;text-anchor:end;fill:#ffffff"
       d="m 217.21597,199.448 q -0.852,0 -1.524,-0.3 -0.66,-0.312 -1.116,-0.9 l 0.768,-0.768 q 0.276,0.42 0.756,0.672 0.492,0.24 1.092,0.24 0.564,0 0.984,-0.216 0.432,-0.216 0.672,-0.6 0.252,-0.396 0.252,-0.936 0,-0.552 -0.24,-0.936 -0.24,-0.384 -0.648,-0.576 -0.396,-0.204 -0.876,-0.204 -0.492,0 -0.9,0.12 -0.396,0.12 -0.756,0.408 l 0.012,-0.72 q 0.204,-0.252 0.468,-0.408 0.264,-0.156 0.6,-0.24 0.336,-0.084 0.78,-0.084 0.864,0 1.464,0.36 0.6,0.36 0.912,0.972 0.324,0.612 0.324,1.368 0,0.792 -0.396,1.416 -0.384,0.624 -1.068,0.984 -0.684,0.348 -1.56,0.348 z m -1.536,-3.996 -0.612,-0.612 0.372,-3.84 h 1.032 l -0.42,3.948 z m -0.012,-3.444 -0.228,-1.008 h 4.38 v 1.008 z m 8.26801,7.44 q -0.792,0 -1.416,-0.384 -0.624,-0.396 -0.996,-1.068 -0.36,-0.672 -0.36,-1.512 0,-0.84 0.36,-1.512 0.372,-0.672 0.996,-1.068 0.624,-0.396 1.416,-0.396 0.636,0 1.152,0.276 0.516,0.264 0.828,0.744 0.324,0.468 0.36,1.092 v 1.716 q -0.036,0.612 -0.348,1.092 -0.312,0.48 -0.828,0.756 -0.516,0.264 -1.164,0.264 z m 0.18,-1.02 q 0.54,0 0.936,-0.252 0.408,-0.252 0.636,-0.684 0.228,-0.444 0.228,-1.008 0,-0.588 -0.24,-1.02 -0.228,-0.432 -0.636,-0.684 -0.396,-0.252 -0.936,-0.252 -0.54,0 -0.948,0.252 -0.408,0.252 -0.648,0.696 -0.228,0.432 -0.228,0.996 0,0.576 0.228,1.02 0.24,0.432 0.648,0.684 0.42,0.252 0.96,0.252 z m 2.82,0.9 h -1.092 v -1.536 l 0.204,-1.392 -0.204,-1.38 v -4.26 h 1.092 z"
       id="text18"
       aria-label="5d" /></g><path
     d="m15.409 101.61h462.18"
     fill="none"
     stroke="#fff"
     stroke-width="1px"
     id="path18" /><path
     d="m1.0005 1h491v267h-491z"
     stroke="#fff"
     stroke-opacity=".13"
     stroke-width="2"
     id="path19" /></svg>
