<svg width="493" height="269" fill="none" version="1.1" xml:space="preserve" xmlns="http://www.w3.org/2000/svg"><defs><filter id="filter51-7" x="-.030005" y="-.075918" width="1.0613" height="1.1677" color-interpolation-filters="sRGB"><feFlood flood-color="rgb(0,0,0)" flood-opacity=".49804" in="SourceGraphic" result="flood"/><feGaussianBlur in="SourceGraphic" result="blur" stdDeviation="1.000000"/><feOffset dx="0.100000" dy="0.500000" in="blur" result="offset"/><feComposite in="flood" in2="offset" operator="in" result="comp1"/><feComposite in="SourceGraphic" in2="comp1" result="comp2"/></filter><filter id="filter51-7-6" x="-.030005" y="-.075918" width="1.0613" height="1.1677" color-interpolation-filters="sRGB"><feFlood flood-color="rgb(0,0,0)" flood-opacity=".49804" in="SourceGraphic" result="flood"/><feGaussianBlur in="SourceGraphic" result="blur" stdDeviation="1.000000"/><feOffset dx="0.100000" dy="0.500000" in="blur" result="offset"/><feComposite in="flood" in2="offset" operator="in" result="comp1"/><feComposite in="SourceGraphic" in2="comp1" result="comp2"/></filter><filter id="filter51-7-9" x="-.030005" y="-.075918" width="1.0613" height="1.1677" color-interpolation-filters="sRGB"><feFlood flood-color="rgb(0,0,0)" flood-opacity=".49804" in="SourceGraphic" result="flood"/><feGaussianBlur in="SourceGraphic" result="blur" stdDeviation="1.000000"/><feOffset dx="0.100000" dy="0.500000" in="blur" result="offset"/><feComposite in="flood" in2="offset" operator="in" result="comp1"/><feComposite in="SourceGraphic" in2="comp1" result="comp2"/></filter><filter id="filter51-7-1" x="-.030005" y="-.075918" width="1.0613" height="1.1677" color-interpolation-filters="sRGB"><feFlood flood-color="rgb(0,0,0)" flood-opacity=".49804" in="SourceGraphic" result="flood"/><feGaussianBlur in="SourceGraphic" result="blur" stdDeviation="1.000000"/><feOffset dx="0.100000" dy="0.500000" in="blur" result="offset"/><feComposite in="flood" in2="offset" operator="in" result="comp1"/><feComposite in="SourceGraphic" in2="comp1" result="comp2"/></filter></defs><mask id="a" fill="#fff"><path d="m55 34h383v68h-383v-68z"/></mask><g transform="translate(74.898 1.5625)"><path d="m299.33 200.65h46.3c9.331 0 16.843 7.0497 16.843 15.806 0 8.7568-7.512 15.806-16.843 15.806h-46.3c-9.331 0-16.843-7.0497-16.843-15.806 0-8.7568 7.512-15.806 16.843-15.806z" fill="#404040" fill-rule="evenodd" filter="url(#filter51-7)" style="paint-order:markers stroke fill"/><path d="m311.83 219.35v-7.4029h1.0027v7.4029zm0.68268 0v-0.91737h4.2455v0.91737zm0-3.3494v-0.8747h3.8935v0.8747zm0-3.1361v-0.91736h4.1921v0.91736zm7.4936 6.5922q-0.69336 0-1.2587-0.34135-0.56535-0.35201-0.89603-0.94936-0.32001-0.59735-0.32001-1.344t0.32001-1.344q0.33068-0.59736 0.88536-0.94937 0.56536-0.35201 1.2694-0.35201 0.57602 0 1.024 0.24534 0.45868 0.23468 0.73602 0.66136 0.27734 0.41601 0.30935 0.97069v1.5254q-0.032 0.54402-0.30935 0.9707-0.26667 0.42668-0.72535 0.67202-0.44802 0.23468-1.0347 0.23468zm0.16-0.9067q0.71469 0 1.152-0.48001 0.43735-0.49069 0.43735-1.248 0-0.52269-0.20268-0.9067-0.192-0.39468-0.55468-0.60802-0.36268-0.224-0.84269-0.224-0.48002 0-0.85336 0.224-0.36268 0.22401-0.57602 0.61869-0.20268 0.38401-0.20268 0.88536 0 0.51202 0.20268 0.9067 0.21334 0.38401 0.58668 0.60801 0.37335 0.22401 0.85336 0.22401zm1.5254 0.80003v-1.3654l0.18134-1.2374-0.18134-1.2267v-1.2374h0.9707v5.0668zm3.9788 0.10667q-0.42668 0-0.81069-0.10667-0.37334-0.11734-0.69335-0.32001-0.32001-0.21334-0.55469-0.50135l0.61869-0.61869q0.27734 0.34135 0.64002 0.51202 0.36268 0.16 0.81069 0.16t0.69335-0.14934q0.24535-0.16 0.24535-0.43734t-0.20268-0.42668q-0.192-0.16001-0.50135-0.25601-0.30934-0.10667-0.66135-0.20267-0.34134-0.10667-0.65069-0.26668-0.30934-0.16-0.51201-0.43735-0.19201-0.27734-0.19201-0.73602t0.22401-0.78936q0.224-0.34134 0.61868-0.52268 0.40535-0.18134 0.9707-0.18134 0.59735 0 1.056 0.21334 0.46935 0.20267 0.76803 0.61869l-0.61869 0.61868q-0.21334-0.27734-0.53335-0.42668-0.30934-0.14933-0.70402-0.14933-0.41601 0-0.64002 0.14933-0.21334 0.13867-0.21334 0.39468t0.19201 0.39468q0.192 0.13867 0.50134 0.23468 0.32001 0.096 0.66136 0.20267 0.34134 0.096 0.65069 0.26667 0.30934 0.17068 0.50134 0.45868 0.20268 0.28801 0.20268 0.75736 0 0.71469-0.51202 1.1307-0.50135 0.41602-1.3547 0.41602zm4.6082-0.064-2.1974-5.1095h1.0667l1.6321 4.0001h-0.34135l1.7174-4.0001h1.0667l-2.3681 5.1095zm-1.4507 2.0801 1.4934-3.0614 0.53335 0.98136-0.96003 2.0801z" fill="#fff" aria-label="Easy"/></g><g transform="translate(-20.648 1.5625)"><path d="m299.33 200.65h46.3c9.331 0 16.843 7.0497 16.843 15.806 0 8.7568-7.512 15.806-16.843 15.806h-46.3c-9.331 0-16.843-7.0497-16.843-15.806 0-8.7568 7.512-15.806 16.843-15.806z" fill="#404040" fill-rule="evenodd" filter="url(#filter51-7-6)" style="paint-order:markers stroke fill"/><path d="m313.58 220.57q-0.7787 0-1.4614-0.28801-0.67202-0.29868-1.184-0.82136-0.50135-0.52269-0.78936-1.216-0.28801-0.69336-0.28801-1.4934 0-0.80003 0.28801-1.4827 0.28801-0.69336 0.80003-1.216 0.51201-0.52268 1.1947-0.81069 0.69336-0.28801 1.504-0.28801 0.88536 0 1.632 0.34134 0.74669 0.34135 1.248 0.98137l-0.69336 0.69335q-0.35201-0.51201-0.92803-0.77869-0.57601-0.27734-1.2587-0.27734-0.81069 0-1.44 0.36268-0.61868 0.36267-0.97069 1.0027-0.34135 0.64002-0.34135 1.472 0 0.84269 0.35201 1.4827t0.94937 1.0027q0.59735 0.36268 1.3654 0.36268 0.77869 0 1.344-0.29868 0.57602-0.29867 0.88536-0.87469 0.30935-0.58669 0.30935-1.4294l0.60802 0.43735h-3.2001v-0.91736h3.6268v0.14933q0 1.2907-0.45868 2.1654-0.44802 0.86403-1.2587 1.3014-0.80003 0.43735-1.8347 0.43735zm7.0402 0q-0.74669 0-1.344-0.35202-0.59735-0.35201-0.94936-0.94936-0.35201-0.60802-0.35201-1.3547 0-0.73602 0.35201-1.3227 0.35201-0.59735 0.94936-0.94936t1.344-0.35201q0.73603 0 1.3334 0.35201 0.60802 0.34135 0.96003 0.9387t0.35201 1.3334q0 0.74669-0.35201 1.3547-0.35201 0.59735-0.96003 0.94936-0.59735 0.35202-1.3334 0.35202zm0-0.92803q0.48002 0 0.85336-0.22401 0.37335-0.22401 0.58669-0.60802 0.21334-0.39468 0.21334-0.89603 0-0.49068-0.22401-0.87469-0.21334-0.38401-0.58668-0.59735-0.36268-0.22401-0.8427-0.22401-0.48001 0-0.85336 0.22401-0.37334 0.21334-0.58668 0.59735t-0.21334 0.87469q0 0.50135 0.21334 0.89603 0.21334 0.38401 0.58668 0.60802 0.37335 0.22401 0.85336 0.22401zm6.0375 0.92803q-0.74669 0-1.344-0.35202-0.59735-0.35201-0.94936-0.94936-0.35201-0.60802-0.35201-1.3547 0-0.73602 0.35201-1.3227 0.35201-0.59735 0.94936-0.94936 0.59736-0.35201 1.344-0.35201 0.73602 0 1.3334 0.35201 0.60802 0.34135 0.96003 0.9387t0.35201 1.3334q0 0.74669-0.35201 1.3547-0.35201 0.59735-0.96003 0.94936-0.59735 0.35202-1.3334 0.35202zm0-0.92803q0.48001 0 0.85336-0.22401 0.37334-0.22401 0.58668-0.60802 0.21334-0.39468 0.21334-0.89603 0-0.49068-0.22401-0.87469-0.21334-0.38401-0.58668-0.59735-0.36268-0.22401-0.84269-0.22401-0.48002 0-0.85336 0.22401-0.37335 0.21334-0.58669 0.59735t-0.21334 0.87469q0 0.50135 0.21334 0.89603 0.21334 0.38401 0.58669 0.60802 0.37334 0.22401 0.85336 0.22401zm5.8668 0.92803q-0.70402 0-1.2587-0.34135-0.55469-0.35201-0.88536-0.94936-0.32001-0.59735-0.32001-1.344t0.32001-1.344q0.33067-0.59735 0.88536-0.94936 0.55468-0.35201 1.2587-0.35201 0.56536 0 1.024 0.24534 0.45868 0.23468 0.73602 0.66136 0.28801 0.41601 0.32001 0.97069v1.5254q-0.032 0.54402-0.30934 0.9707-0.27735 0.42668-0.73603 0.67202-0.45868 0.23468-1.0347 0.23468zm0.16001-0.9067q0.48001 0 0.83203-0.22401 0.36267-0.224 0.56535-0.60802 0.20267-0.39467 0.20267-0.89602 0-0.52269-0.21334-0.9067-0.20267-0.38401-0.56535-0.60802-0.35201-0.224-0.83203-0.224-0.48001 0-0.84269 0.224-0.36268 0.22401-0.57602 0.61869-0.20267 0.38401-0.20267 0.88536 0 0.51202 0.20267 0.90669 0.21334 0.38402 0.57602 0.60802 0.37334 0.22401 0.85336 0.22401zm2.5067 0.80003h-0.97069v-1.3654l0.18134-1.2374-0.18134-1.2267v-3.7868h0.97069z" fill="#fff" aria-label="Good"/></g><g transform="translate(-116.36 1.3946)"><path d="m299.49 200.82h46.3c9.331 0 16.843 7.0497 16.843 15.806s-7.512 15.806-16.843 15.806h-46.3c-9.331 0-16.843-7.0497-16.843-15.806s7.512-15.806 16.843-15.806z" fill="#404040" fill-rule="evenodd" filter="url(#filter51-7-9)" style="paint-order:markers stroke fill"/><path d="m311.45 220.63v-7.4029h1.0027v7.4029zm4.7788 0v-7.4029h1.0027v7.4029zm-4.0961-3.3708v-0.91736h4.3415v0.91736zm8.8323 3.4774q-0.69336 0-1.2587-0.34134-0.56535-0.35201-0.89603-0.94936-0.32001-0.59736-0.32001-1.344t0.32001-1.344q0.33068-0.59735 0.88536-0.94936 0.56536-0.35201 1.2694-0.35201 0.57602 0 1.024 0.24534 0.45868 0.23467 0.73602 0.66135 0.27734 0.41602 0.30935 0.9707v1.5254q-0.032 0.54402-0.30935 0.9707-0.26667 0.42668-0.72535 0.67202-0.44802 0.23467-1.0347 0.23467zm0.16-0.90669q0.71469 0 1.152-0.48002 0.43735-0.49068 0.43735-1.248 0-0.52268-0.20268-0.90669-0.192-0.39468-0.55468-0.60802-0.36268-0.22401-0.84269-0.22401-0.48002 0-0.85336 0.22401-0.36268 0.22401-0.57602 0.61869-0.20268 0.38401-0.20268 0.88536 0 0.51201 0.20268 0.90669 0.21334 0.38401 0.58668 0.60802 0.37335 0.22401 0.85336 0.22401zm1.5254 0.80002v-1.3654l0.18134-1.2374-0.18134-1.2267v-1.2374h0.9707v5.0668zm2.3681 0v-5.0668h0.96003v5.0668zm0.96003-2.8908-0.36268-0.16001q0-0.9707 0.44801-1.5467 0.44802-0.57602 1.2907-0.57602 0.38401 0 0.69335 0.13867 0.30935 0.128 0.57602 0.43735l-0.62935 0.65068q-0.16001-0.17067-0.35201-0.24534-0.19201-0.0747-0.44802-0.0747-0.53335 0-0.87469 0.34135-0.34134 0.34134-0.34134 1.0347zm5.3015 2.9974q-0.70402 0-1.2587-0.34134-0.55468-0.35201-0.88536-0.94936-0.32001-0.59736-0.32001-1.344t0.32001-1.344q0.33068-0.59735 0.88536-0.94936 0.55469-0.35201 1.2587-0.35201 0.56535 0 1.024 0.24534 0.45868 0.23467 0.73603 0.66135 0.288 0.41602 0.32001 0.9707v1.5254q-0.032 0.54402-0.30935 0.9707-0.27734 0.42668-0.73602 0.67202-0.45868 0.23467-1.0347 0.23467zm0.16001-0.90669q0.48001 0 0.83202-0.22401 0.36268-0.22401 0.56535-0.60802 0.20268-0.39468 0.20268-0.89603 0-0.52268-0.21334-0.90669-0.20268-0.38401-0.56536-0.60802-0.35201-0.22401-0.83202-0.22401-0.48002 0-0.84269 0.22401-0.36268 0.22401-0.57602 0.61869-0.20268 0.38401-0.20268 0.88536 0 0.51201 0.20268 0.90669 0.21334 0.38401 0.57602 0.60802 0.37334 0.22401 0.85336 0.22401zm2.5067 0.80002h-0.9707v-1.3654l0.18134-1.2374-0.18134-1.2267v-3.7868h0.9707z" fill="#fff" aria-label="Hard"/></g><g transform="translate(-211.74 1.5625)"><path d="m299.33 200.65h46.3c9.331 0 16.843 7.0497 16.843 15.806 0 8.7568-7.512 15.806-16.843 15.806h-46.3c-9.331 0-16.843-7.0497-16.843-15.806 0-8.7568 7.512-15.806 16.843-15.806z" fill="#404040" fill-rule="evenodd" filter="url(#filter51-7-1)" style="paint-order:markers stroke fill"/><path d="m309.13 219.3 3.0294-7.4029h0.72536l3.0188 7.4029h-1.088l-2.4854-6.2615h0.37334l-2.5067 6.2615zm1.44-1.6747v-0.8747h3.8935v0.8747zm8.1389 3.9041q-0.77869 0-1.3867-0.28801-0.59735-0.28801-0.96003-0.81069l0.61869-0.62935q0.30934 0.39467 0.73602 0.59735 0.42668 0.21334 1.0134 0.21334 0.77869 0 1.2267-0.41602 0.45868-0.40534 0.45868-1.0987v-1.2587l0.17068-1.1414-0.17068-1.1307v-1.3334h0.96003v4.8642q0 0.72536-0.34134 1.2694-0.33068 0.54401-0.9387 0.85336-0.59735 0.30934-1.3867 0.30934zm0-2.3147q-0.69335 0-1.248-0.33068-0.54402-0.33067-0.86403-0.90669-0.32001-0.58669-0.32001-1.312 0-0.72536 0.32001-1.2907 0.32001-0.57602 0.86403-0.90669 0.55468-0.34135 1.248-0.34135 0.59736 0 1.056 0.23468 0.45868 0.23467 0.72535 0.66135 0.27735 0.41601 0.29868 0.98136v1.344q-0.032 0.55468-0.30934 0.98136-0.26668 0.41601-0.72536 0.65069-0.45868 0.23467-1.0454 0.23467zm0.19201-0.90669q0.46935 0 0.82136-0.20268 0.36268-0.20267 0.55468-0.56535 0.19201-0.37334 0.19201-0.86403 0-0.49068-0.20267-0.85336-0.19201-0.37334-0.54402-0.57601-0.35201-0.21334-0.83203-0.21334-0.48001 0-0.84269 0.21334-0.36268 0.20267-0.57602 0.57601-0.20267 0.36268-0.20267 0.8427 0 0.48001 0.20267 0.85336 0.21334 0.37334 0.57602 0.58668 0.37335 0.20268 0.85336 0.20268zm6.0375 1.0987q-0.69336 0-1.2587-0.34135-0.56535-0.35201-0.89603-0.94936-0.32001-0.59735-0.32001-1.344t0.32001-1.344q0.33068-0.59736 0.88537-0.94937 0.56535-0.35201 1.2694-0.35201 0.57602 0 1.024 0.24534 0.45868 0.23468 0.73602 0.66136 0.27735 0.41601 0.30935 0.97069v1.5254q-0.032 0.54402-0.30935 0.9707-0.26667 0.42668-0.72535 0.67202-0.44802 0.23468-1.0347 0.23468zm0.16-0.9067q0.71469 0 1.152-0.48001 0.43735-0.49069 0.43735-1.248 0-0.52269-0.20268-0.9067-0.192-0.39468-0.55468-0.60802-0.36268-0.224-0.84269-0.224-0.48002 0-0.85336 0.224-0.36268 0.22401-0.57602 0.61869-0.20267 0.38401-0.20267 0.88536 0 0.51202 0.20267 0.9067 0.21334 0.38401 0.58668 0.60801 0.37335 0.22401 0.85336 0.22401zm1.5254 0.80003v-1.3654l0.18134-1.2374-0.18134-1.2267v-1.2374h0.9707v5.0668zm2.3788 0v-5.0668h0.96003v5.0668zm0.48002-6.0802q-0.26668 0-0.43735-0.17068-0.17067-0.18133-0.17067-0.44801 0-0.25601 0.17067-0.42668 0.17067-0.18134 0.43735-0.18134 0.26667 0 0.43734 0.18134 0.17068 0.17067 0.17068 0.42668 0 0.26668-0.17068 0.44801-0.17067 0.17068-0.43734 0.17068zm5.4828 6.0802v-2.9548q0-0.57602-0.36268-0.94937-0.36268-0.37334-0.9387-0.37334-0.38401 0-0.68269 0.17067-0.29867 0.17067-0.46934 0.46935-0.17068 0.29868-0.17068 0.68269l-0.39467-0.22401q0-0.57602 0.256-1.024 0.25601-0.44802 0.71469-0.70402 0.45868-0.26668 1.0347-0.26668t1.0134 0.28801q0.44801 0.28801 0.70402 0.75736 0.25601 0.45868 0.25601 0.98136v3.1468zm-3.5841 0v-5.0668h0.96003v5.0668z" fill="#fff" aria-label="Again"/></g><g fill="#fff" font-family="'STIX Two Math'" text-anchor="end"><path d="m104.85 196-5.088-2.28v-0.78l5.088-2.28v1.092l-4.212 1.788v-0.408l4.212 1.788zm5.28 1.356v-8.328h1.116v8.328zm-1.704-7.32v-1.008h2.7v1.008zm4.584 7.32v-5.7h1.08v5.7zm3.852 0v-3.444q0-0.636-0.396-0.996-0.384-0.372-0.972-0.372-0.396 0-0.708 0.168t-0.504 0.468-0.192 0.72l-0.444-0.216q0-0.648 0.276-1.128 0.288-0.48 0.78-0.744 0.492-0.276 1.104-0.276 0.6 0 1.08 0.264 0.492 0.264 0.768 0.744 0.288 0.48 0.288 1.14v3.672zm3.852 0v-3.444q0-0.636-0.396-0.996-0.384-0.372-0.96-0.372-0.396 0-0.72 0.168-0.312 0.168-0.504 0.468t-0.192 0.72l-0.612-0.216q0.036-0.66 0.348-1.128 0.324-0.48 0.828-0.744 0.504-0.276 1.104-0.276 0.624 0 1.116 0.264t0.78 0.744q0.3 0.48 0.3 1.152v3.66z" aria-label="&lt; 1m"/><path d="m199.1 195.88-5.088-2.28v-0.78l5.088-2.28v1.092l-4.212 1.788v-0.408l4.212 1.788zm6.588 1.476q-0.828 0-1.488-0.384-0.648-0.384-1.032-1.032t-0.384-1.44q0-1.104 0.768-2.196l2.448-3.396h1.308l-2.508 3.42-0.408 0.216q0.144-0.252 0.348-0.42 0.204-0.18 0.504-0.276t0.708-0.096q0.732 0 1.32 0.348 0.6 0.348 0.96 0.96 0.372 0.6 0.372 1.404 0 0.792-0.396 1.452-0.384 0.66-1.056 1.056-0.66 0.384-1.464 0.384zm0-1.056q0.504 0 0.9-0.24 0.408-0.252 0.636-0.66 0.24-0.42 0.24-0.936t-0.24-0.924q-0.228-0.42-0.636-0.66-0.396-0.24-0.9-0.24t-0.912 0.24q-0.396 0.24-0.636 0.66-0.228 0.408-0.228 0.924t0.228 0.936q0.24 0.42 0.636 0.66 0.408 0.24 0.912 0.24zm4.176 0.936v-5.7h1.08v5.7zm3.852 0v-3.444q0-0.636-0.396-0.996-0.384-0.372-0.972-0.372-0.396 0-0.708 0.168t-0.504 0.468-0.192 0.72l-0.444-0.216q0-0.648 0.276-1.128 0.288-0.48 0.78-0.744 0.492-0.276 1.104-0.276 0.6 0 1.08 0.264 0.492 0.264 0.768 0.744 0.288 0.48 0.288 1.14v3.672zm3.852 0v-3.444q0-0.636-0.396-0.996-0.384-0.372-0.96-0.372-0.396 0-0.72 0.168-0.312 0.168-0.504 0.468t-0.192 0.72l-0.612-0.216q0.036-0.66 0.348-1.128 0.324-0.48 0.828-0.744 0.504-0.276 1.104-0.276 0.624 0 1.116 0.264t0.78 0.744q0.3 0.48 0.3 1.152v3.66z" aria-label="&lt; 6m"/><path d="m127.67 83.338v-1.6054h3.6027q1.4374 0 2.52-0.61601 1.0827-0.63468 1.68-1.736 0.61602-1.1014 0.61602-2.5387 0-1.4187-0.61602-2.52-0.61601-1.1014-1.6987-1.7174-1.0827-0.61601-2.5014-0.61601h-3.5841v-1.6054h3.6214q1.4187 0 2.6134 0.48534 1.2134 0.48534 2.0907 1.3627 0.89601 0.87735 1.3814 2.0534 0.504 1.176 0.504 2.576 0 1.3814-0.504 2.576-0.48535 1.176-1.3627 2.0534-0.87734 0.87735-2.0907 1.3627-1.1947 0.48534-2.5947 0.48534zm-1.1574 0v-12.955h1.7547v12.955zm17.566 0.18667q-1.3067 0-2.352-0.61601-1.0454-0.61601-1.6614-1.6614-0.61601-1.064-0.61601-2.3707 0-1.288 0.61601-2.3147 0.61601-1.0454 1.6614-1.6614 1.0454-0.61601 2.352-0.61601 1.288 0 2.3334 0.61601 1.064 0.59734 1.68 1.6427t0.61601 2.3334q0 1.3067-0.61601 2.3707-0.61601 1.0454-1.68 1.6614-1.0454 0.61601-2.3334 0.61601zm0-1.624q0.84001 0 1.4934-0.39201 0.65334-0.39201 1.0267-1.064 0.37334-0.69068 0.37334-1.568 0-0.85868-0.392-1.5307-0.37334-0.67201-1.0267-1.0454-0.63468-0.39201-1.4747-0.39201-0.84002 0-1.4934 0.39201-0.65335 0.37334-1.0267 1.0454t-0.37334 1.5307q0 0.87735 0.37334 1.568 0.37334 0.67201 1.0267 1.064 0.65334 0.39201 1.4934 0.39201zm10.622 1.624q-1.3254 0-2.3894-0.59734-1.064-0.61601-1.68-1.6614-0.61601-1.0454-0.61601-2.3707 0-1.3067 0.59735-2.352 0.61601-1.0454 1.6427-1.6427 1.0454-0.61601 2.3334-0.61601 1.232 0 2.1654 0.56001 0.95202 0.56001 1.4747 1.5494 0.54135 0.98935 0.54135 2.24 0 0.18667-0.0187 0.41067-0.0187 0.20534-0.0747 0.48534h-7.4855v-1.4h6.5894l-0.61601 0.54134q0-0.89602-0.31733-1.512-0.31734-0.63468-0.89602-0.97068-0.57868-0.35467-1.4-0.35467-0.85868 0-1.512 0.37334-0.65335 0.37334-1.008 1.0454t-0.35467 1.5867q0 0.93335 0.37334 1.6427 0.37334 0.69068 1.064 1.0827 0.69067 0.37334 1.5867 0.37334 0.74668 0 1.3627-0.26134 0.63468-0.26134 1.0827-0.78401l1.0827 1.1014q-0.63468 0.74668-1.568 1.1387-0.91469 0.39201-1.96 0.39201zm8.7175 0q-0.74668 0-1.4187-0.18667-0.65335-0.20534-1.2134-0.56001-0.56001-0.37334-0.97068-0.87735l1.0827-1.0827q0.48534 0.59734 1.12 0.89602 0.63468 0.28 1.4187 0.28 0.78402 0 1.2134-0.26134 0.42934-0.28 0.42934-0.76535t-0.35467-0.74668q-0.33601-0.28-0.87735-0.44801-0.54134-0.18667-1.1574-0.35467-0.59734-0.18667-1.1387-0.46668-0.54135-0.28-0.89602-0.76535-0.336-0.48534-0.336-1.288t0.392-1.3814q0.39201-0.59734 1.0827-0.91468 0.70934-0.31734 1.6987-0.31734 1.0454 0 1.848 0.37334 0.82135 0.35467 1.344 1.0827l-1.0827 1.0827q-0.37334-0.48534-0.93335-0.74668-0.54135-0.26134-1.232-0.26134-0.72801 0-1.12 0.26134-0.37334 0.24267-0.37334 0.69068t0.33601 0.69068 0.87735 0.41067q0.56001 0.168 1.1574 0.35467 0.59735 0.168 1.1387 0.46668t0.87735 0.80268q0.35467 0.50401 0.35467 1.3254 0 1.2507-0.89601 1.9787-0.87735 0.72801-2.3707 0.72801zm7.8588-0.18667 5.3014-12.955h1.2694l5.2828 12.955h-1.904l-4.3494-10.958h0.65335l-4.3868 10.958zm2.52-2.9307v-1.5307h6.8134v1.5307zm17.398 2.9307v-5.1708q0-1.008-0.63468-1.6614-0.63467-0.65334-1.6427-0.65334-0.67201 0-1.1947 0.29867t-0.82135 0.82135-0.29867 1.1947l-0.69068-0.39201q0-1.008 0.44801-1.792t1.2507-1.232q0.80268-0.46668 1.8107-0.46668t1.7734 0.50401q0.78402 0.50401 1.232 1.3254 0.44801 0.80268 0.44801 1.7174v5.5068zm-6.2721 0v-8.8668h1.68v8.8668zm15.904 0-4.1441-4.5361 4.1067-4.3307h2.0347l-4.5734 4.7788 0.0747-0.97068 4.6668 5.0588zm-5.6748 0v-13.328h1.68v13.328zm8.9788 0v-8.8668h1.68v8.8668zm0.84002-10.64q-0.46668 0-0.76535-0.29867-0.29867-0.31734-0.29867-0.78401 0-0.44801 0.29867-0.74668 0.29867-0.31734 0.76535-0.31734 0.46667 0 0.76534 0.31734 0.29868 0.29867 0.29868 0.74668 0 0.46668-0.29868 0.78401-0.29867 0.29867-0.76534 0.29867zm7.2242 10.64v-8.8668h1.68v8.8668zm0.84001-10.64q-0.46667 0-0.76535-0.29867-0.29867-0.31734-0.29867-0.78401 0-0.44801 0.29867-0.74668 0.29868-0.31734 0.76535-0.31734 0.46668 0 0.76535 0.31734 0.29867 0.29867 0.29867 0.74668 0 0.46668-0.29867 0.78401-0.29867 0.29867-0.76535 0.29867zm3.3228 10.64v-8.8668h1.68v8.8668zm5.9921 0v-5.3574q0-0.98935-0.61601-1.5494-0.59734-0.57868-1.512-0.57868-0.61601 0-1.1014 0.26134t-0.78401 0.72801-0.29867 1.12l-0.69068-0.33601q0-1.008 0.42934-1.7547 0.44801-0.74668 1.2134-1.1574 0.76535-0.42934 1.7174-0.42934 0.93335 0 1.68 0.41067 0.76534 0.41067 1.1947 1.1574 0.44801 0.74668 0.44801 1.7734v5.7121zm5.9921 0v-5.3574q0-0.98935-0.61601-1.5494-0.59735-0.57868-1.4934-0.57868-0.61601 0-1.12 0.26134-0.48534 0.26134-0.78402 0.72801-0.29867 0.46668-0.29867 1.12l-0.95202-0.33601q0.056-1.0267 0.54135-1.7547 0.50401-0.74668 1.288-1.1574 0.78401-0.42934 1.7174-0.42934 0.97069 0 1.736 0.41067 0.76534 0.41067 1.2134 1.1574 0.46668 0.74668 0.46668 1.792v5.6934zm8.6428 0.18667q-1.008 0-1.8294-0.41067-0.80268-0.42934-1.288-1.176t-0.54134-1.6987v-2.6694q0.056-0.97068 0.54134-1.6987 0.50401-0.74668 1.3067-1.1574 0.82135-0.42934 1.8107-0.42934 1.2134 0 2.184 0.61601 0.98935 0.61601 1.5494 1.6614t0.56001 2.352-0.56001 2.352-1.5494 1.6614q-0.97069 0.59734-2.184 0.59734zm-4.6668 3.5281v-12.582h1.68v2.3334l-0.31734 2.1467 0.31734 2.1654v5.9361zm4.3867-5.1148q0.84002 0 1.4747-0.39201 0.63467-0.39201 1.008-1.064 0.37334-0.69068 0.37334-1.5867 0-0.87735-0.37334-1.568t-1.008-1.064q-0.63468-0.39201-1.456-0.39201-0.84001 0-1.4747 0.39201-0.63468 0.37334-0.98935 1.064-0.35468 0.69068-0.35468 1.5867 0 0.87735 0.33601 1.568 0.35467 0.67201 0.98935 1.064 0.65335 0.39201 1.4747 0.39201zm6.4775 1.4v-8.8668h1.68v8.8668zm1.68-5.0588-0.63468-0.28q0-1.6987 0.78402-2.7067 0.78401-1.008 2.2587-1.008 0.67202 0 1.2134 0.24267 0.54134 0.224 1.008 0.76535l-1.1014 1.1387q-0.28-0.29867-0.61601-0.42934-0.336-0.13067-0.78401-0.13067-0.93335 0-1.5307 0.59734-0.59734 0.59734-0.59734 1.8107zm9.5762 5.2454q-1.3067 0-2.352-0.61601t-1.6614-1.6614q-0.61601-1.064-0.61601-2.3707 0-1.288 0.61601-2.3147 0.61602-1.0454 1.6614-1.6614t2.352-0.61601q1.288 0 2.3334 0.61601 1.064 0.59734 1.68 1.6427 0.61602 1.0454 0.61602 2.3334 0 1.3067-0.61602 2.3707-0.61601 1.0454-1.68 1.6614-1.0454 0.61601-2.3334 0.61601zm0-1.624q0.84001 0 1.4934-0.39201 0.65334-0.39201 1.0267-1.064 0.37334-0.69068 0.37334-1.568 0-0.85868-0.392-1.5307-0.37334-0.67201-1.0267-1.0454-0.63468-0.39201-1.4747-0.39201-0.84002 0-1.4934 0.39201-0.65335 0.37334-1.0267 1.0454t-0.37334 1.5307q0 0.87735 0.37334 1.568 0.37334 0.67201 1.0267 1.064 0.65334 0.39201 1.4934 0.39201zm9.2215 1.4374-4.0694-8.8668h1.8667l3.2667 7.4855h-1.0827l3.2854-7.4855h1.792l-4.0694 8.8668zm10.267 0.18667q-1.3254 0-2.3894-0.59734-1.064-0.61601-1.68-1.6614t-0.61601-2.3707q0-1.3067 0.59735-2.352 0.61601-1.0454 1.6427-1.6427 1.0454-0.61601 2.3334-0.61601 1.232 0 2.1654 0.56001 0.95202 0.56001 1.4747 1.5494 0.54134 0.98935 0.54134 2.24 0 0.18667-0.0187 0.41067-0.0187 0.20534-0.0747 0.48534h-7.4855v-1.4h6.5894l-0.61601 0.54134q0-0.89602-0.31734-1.512-0.31734-0.63468-0.89601-0.97068-0.57868-0.35467-1.4-0.35467-0.85868 0-1.512 0.37334-0.65335 0.37334-1.008 1.0454-0.35468 0.67201-0.35468 1.5867 0 0.93335 0.37334 1.6427 0.37334 0.69068 1.064 1.0827 0.69068 0.37334 1.5867 0.37334 0.74668 0 1.3627-0.26134 0.63468-0.26134 1.0827-0.78401l1.0827 1.1014q-0.63468 0.74668-1.568 1.1387-0.91468 0.39201-1.96 0.39201zm9.7815-0.18667v-8.8668h1.68v8.8668zm1.68-5.0588-0.63468-0.28q0-1.6987 0.78401-2.7067 0.78402-1.008 2.2587-1.008 0.67201 0 1.2134 0.24267 0.54134 0.224 1.008 0.76535l-1.1014 1.1387q-0.28-0.29867-0.61601-0.42934t-0.78401-0.13067q-0.93335 0-1.5307 0.59734-0.59734 0.59734-0.59734 1.8107zm9.6322 5.2454q-1.3254 0-2.3894-0.59734-1.064-0.61601-1.68-1.6614t-0.61601-2.3707q0-1.3067 0.59735-2.352 0.61601-1.0454 1.6427-1.6427 1.0454-0.61601 2.3334-0.61601 1.232 0 2.1654 0.56001 0.95202 0.56001 1.4747 1.5494 0.54134 0.98935 0.54134 2.24 0 0.18667-0.0187 0.41067-0.0187 0.20534-0.0747 0.48534h-7.4855v-1.4h6.5894l-0.61601 0.54134q0-0.89602-0.31734-1.512-0.31734-0.63468-0.89601-0.97068-0.57868-0.35467-1.4-0.35467-0.85868 0-1.512 0.37334-0.65335 0.37334-1.008 1.0454-0.35468 0.67201-0.35468 1.5867 0 0.93335 0.37334 1.6427 0.37334 0.69068 1.064 1.0827 0.69068 0.37334 1.5867 0.37334 0.74668 0 1.3627-0.26134 0.63468-0.26134 1.0827-0.78401l1.0827 1.1014q-0.63468 0.74668-1.568 1.1387-0.91468 0.39201-1.96 0.39201zm6.9908-0.18667v-12.582h1.68v12.582zm-2.184-7.3361v-1.5307h6.0481v1.5307zm11.508 7.5228q-1.3254 0-2.3894-0.59734-1.064-0.61601-1.68-1.6614t-0.61601-2.3707q0-1.3067 0.59735-2.352 0.61601-1.0454 1.6427-1.6427 1.0454-0.61601 2.3334-0.61601 1.232 0 2.1654 0.56001 0.95202 0.56001 1.4747 1.5494 0.54135 0.98935 0.54135 2.24 0 0.18667-0.0187 0.41067-0.0187 0.20534-0.0747 0.48534h-7.4855v-1.4h6.5894l-0.61601 0.54134q0-0.89602-0.31734-1.512-0.31733-0.63468-0.89601-0.97068-0.57868-0.35467-1.4-0.35467-0.85868 0-1.512 0.37334-0.65335 0.37334-1.008 1.0454t-0.35467 1.5867q0 0.93335 0.37334 1.6427 0.37334 0.69068 1.064 1.0827 0.69068 0.37334 1.5867 0.37334 0.74668 0 1.3627-0.26134 0.63468-0.26134 1.0827-0.78401l1.0827 1.1014q-0.63468 0.74668-1.568 1.1387-0.91468 0.39201-1.96 0.39201zm12.171-0.18667v-5.1708q0-1.008-0.63467-1.6614-0.63468-0.65334-1.6427-0.65334-0.67201 0-1.1947 0.29867-0.52267 0.29867-0.82135 0.82135-0.29867 0.52268-0.29867 1.1947l-0.69068-0.39201q0-1.008 0.44801-1.792t1.2507-1.232q0.80268-0.46668 1.8107-0.46668t1.7734 0.50401q0.78402 0.50401 1.232 1.3254 0.448 0.80268 0.448 1.7174v5.5068zm-6.2721 0v-8.8668h1.68v8.8668zm11.48 0v-12.582h1.68v12.582zm-2.184-7.3361v-1.5307h6.0481v1.5307zm7.7095 7.3361v-8.8668h1.68v8.8668zm0.84001-10.64q-0.46667 0-0.76534-0.29867-0.29868-0.31734-0.29868-0.78401 0-0.44801 0.29868-0.74668 0.29867-0.31734 0.76534-0.31734 0.46668 0 0.76535 0.31734 0.29867 0.29867 0.29867 0.74668 0 0.46668-0.29867 0.78401-0.29867 0.29867-0.76535 0.29867zm7.3735 10.827q-1.3067 0-2.352-0.61601-1.0454-0.61601-1.6614-1.6614-0.61601-1.064-0.61601-2.3707 0-1.288 0.61601-2.3147 0.61601-1.0454 1.6614-1.6614 1.0454-0.61601 2.352-0.61601 1.288 0 2.3334 0.61601 1.064 0.59734 1.68 1.6427t0.61601 2.3334q0 1.3067-0.61601 2.3707-0.61601 1.0454-1.68 1.6614-1.0454 0.61601-2.3334 0.61601zm0-1.624q0.84001 0 1.4934-0.39201 0.65334-0.39201 1.0267-1.064 0.37334-0.69068 0.37334-1.568 0-0.85868-0.392-1.5307-0.37334-0.67201-1.0267-1.0454-0.63468-0.39201-1.4747-0.39201-0.84002 0-1.4934 0.39201-0.65335 0.37334-1.0267 1.0454t-0.37334 1.5307q0 0.87735 0.37334 1.568 0.37334 0.67201 1.0267 1.064 0.65334 0.39201 1.4934 0.39201zm12.787 1.4374v-5.1708q0-1.008-0.63468-1.6614-0.63467-0.65334-1.6427-0.65334-0.67201 0-1.1947 0.29867t-0.82135 0.82135-0.29867 1.1947l-0.69068-0.39201q0-1.008 0.44801-1.792t1.2507-1.232q0.80268-0.46668 1.8107-0.46668 1.008 0 1.7734 0.50401 0.78402 0.50401 1.232 1.3254 0.44801 0.80268 0.44801 1.7174v5.5068zm-6.2721 0v-8.8668h1.68v8.8668zm13.086-4.1067-0.0187-3.5467 0.50401-0.01867q0.65334 0 1.1387-0.28 0.50401-0.28 0.78402-0.76535 0.28-0.48534 0.28-1.0827 0-0.61601-0.28-1.0827-0.26134-0.46668-0.76535-0.72801-0.48534-0.26134-1.1574-0.26134-0.89602 0-1.5494 0.44801-0.65334 0.44801-1.0454 1.2694l-1.232-1.0267q0.54134-1.1014 1.5494-1.7174 1.0267-0.61601 2.352-0.61601 1.1387 0 2.016 0.46668 0.87735 0.44801 1.3627 1.2694 0.48534 0.80268 0.48534 1.8667 0 0.97068-0.44801 1.7734-0.42934 0.78401-1.232 1.3067-0.78401 0.50401-1.8667 0.65334l0.72802-0.74668-0.14934 2.8187zm0.70935 4.2934q-0.52268 0-0.87735-0.35467-0.33601-0.35467-0.33601-0.87735t0.33601-0.85868q0.35467-0.35467 0.87735-0.35467t0.85868 0.35467q0.35467 0.33601 0.35467 0.85868t-0.35467 0.87735q-0.336 0.35467-0.85868 0.35467z" aria-label="Does Anki improve retention?"/><path d="m238.37 125.9-5.0961-7.6908h2.0347l4.1067 6.2908h-0.91469l4.1254-6.2908h1.9974l-5.1334 7.6908zm-0.29867 5.2641v-6.4214h1.7547v6.4214zm9.6695 0.18667q-1.3254 0-2.3894-0.59734-1.064-0.61601-1.68-1.6614-0.61601-1.0454-0.61601-2.3707 0-1.3067 0.59734-2.352 0.61601-1.0454 1.6427-1.6427 1.0454-0.61601 2.3334-0.61601 1.232 0 2.1654 0.56001 0.95201 0.56001 1.4747 1.5494 0.54134 0.98935 0.54134 2.24 0 0.18667-0.0187 0.41067-0.0187 0.20534-0.0747 0.48534h-7.4855v-1.4h6.5894l-0.61601 0.54134q0-0.89601-0.31734-1.512-0.31734-0.63468-0.89602-0.97069-0.57867-0.35467-1.4-0.35467-0.85868 0-1.512 0.37334-0.65334 0.37334-1.008 1.0454-0.35467 0.67201-0.35467 1.5867 0 0.93335 0.37334 1.6427 0.37334 0.69068 1.064 1.0827 0.69068 0.37334 1.5867 0.37334 0.74668 0 1.3627-0.26134 0.63467-0.26134 1.0827-0.78401l1.0827 1.1014q-0.63468 0.74668-1.568 1.1387-0.91468 0.39201-1.96 0.39201zm8.7175 0q-0.74668 0-1.4187-0.18667-0.65335-0.20534-1.2134-0.56001-0.56001-0.37334-0.97068-0.87735l1.0827-1.0827q0.48534 0.59734 1.12 0.89601 0.63467 0.28001 1.4187 0.28001 0.78401 0 1.2134-0.26134 0.42934-0.28 0.42934-0.76535 0-0.48534-0.35467-0.74668-0.336-0.28-0.87735-0.448-0.54134-0.18667-1.1574-0.35468-0.59735-0.18667-1.1387-0.46667-0.54134-0.28001-0.89601-0.76535-0.33601-0.48534-0.33601-1.288t0.39201-1.3814q0.392-0.59734 1.0827-0.91468 0.70935-0.31734 1.6987-0.31734 1.0454 0 1.848 0.37334 0.82135 0.35467 1.344 1.0827l-1.0827 1.0827q-0.37334-0.48534-0.93335-0.74668-0.54134-0.26134-1.232-0.26134-0.72801 0-1.12 0.26134-0.37334 0.24267-0.37334 0.69068t0.336 0.69068q0.33601 0.24267 0.87735 0.41067 0.56001 0.168 1.1574 0.35467 0.59734 0.16801 1.1387 0.46668 0.54135 0.29867 0.87735 0.80268 0.35468 0.50401 0.35468 1.3254 0 1.2507-0.89602 1.9787-0.87735 0.72801-2.3707 0.72801z" aria-label="Yes"/><path d="m292.01 195.88-5.088-2.28v-0.78l5.088-2.28v1.092l-4.212 1.788v-0.408l4.212 1.788zm5.28 1.356v-8.328h1.116v8.328zm-1.704-7.32v-1.008h2.7v1.008zm7.752 7.44q-0.936 0-1.716-0.528-0.768-0.528-1.224-1.488-0.456-0.972-0.456-2.28t0.444-2.268q0.456-0.96 1.224-1.476 0.768-0.528 1.692-0.528 0.948 0 1.716 0.528 0.768 0.516 1.212 1.476 0.456 0.96 0.456 2.28 0 1.308-0.456 2.28-0.444 0.96-1.212 1.488-0.756 0.516-1.68 0.516zm-0.024-1.068q0.66 0 1.152-0.36 0.504-0.372 0.792-1.092t0.288-1.776-0.288-1.764q-0.288-0.72-0.792-1.08-0.504-0.372-1.164-0.372-0.648 0-1.152 0.372-0.504 0.36-0.792 1.08-0.276 0.708-0.276 1.764t0.276 1.776q0.288 0.72 0.792 1.092 0.504 0.36 1.164 0.36zm4.728 0.948v-5.7h1.08v5.7zm3.852 0v-3.444q0-0.636-0.396-0.996-0.384-0.372-0.972-0.372-0.396 0-0.708 0.168t-0.504 0.468-0.192 0.72l-0.444-0.216q0-0.648 0.276-1.128 0.288-0.48 0.78-0.744 0.492-0.276 1.104-0.276 0.6 0 1.08 0.264 0.492 0.264 0.768 0.744 0.288 0.48 0.288 1.14v3.672zm3.852 0v-3.444q0-0.636-0.396-0.996-0.384-0.372-0.96-0.372-0.396 0-0.72 0.168-0.312 0.168-0.504 0.468t-0.192 0.72l-0.612-0.216q0.036-0.66 0.348-1.128 0.324-0.48 0.828-0.744 0.504-0.276 1.104-0.276 0.624 0 1.116 0.264t0.78 0.744q0.3 0.48 0.3 1.152v3.66z" aria-label="&lt; 10m"/></g><g transform="translate(176.67 -2.0902)"><path d="m217.22 199.45q-0.852 0-1.524-0.3-0.66-0.312-1.116-0.9l0.768-0.768q0.276 0.42 0.756 0.672 0.492 0.24 1.092 0.24 0.564 0 0.984-0.216 0.432-0.216 0.672-0.6 0.252-0.396 0.252-0.936 0-0.552-0.24-0.936t-0.648-0.576q-0.396-0.204-0.876-0.204-0.492 0-0.9 0.12-0.396 0.12-0.756 0.408l0.012-0.72q0.204-0.252 0.468-0.408t0.6-0.24 0.78-0.084q0.864 0 1.464 0.36t0.912 0.972q0.324 0.612 0.324 1.368 0 0.792-0.396 1.416-0.384 0.624-1.068 0.984-0.684 0.348-1.56 0.348zm-1.536-3.996-0.612-0.612 0.372-3.84h1.032l-0.42 3.948zm-0.012-3.444-0.228-1.008h4.38v1.008zm8.268 7.44q-0.792 0-1.416-0.384-0.624-0.396-0.996-1.068-0.36-0.672-0.36-1.512t0.36-1.512q0.372-0.672 0.996-1.068t1.416-0.396q0.636 0 1.152 0.276 0.516 0.264 0.828 0.744 0.324 0.468 0.36 1.092v1.716q-0.036 0.612-0.348 1.092t-0.828 0.756q-0.516 0.264-1.164 0.264zm0.18-1.02q0.54 0 0.936-0.252 0.408-0.252 0.636-0.684 0.228-0.444 0.228-1.008 0-0.588-0.24-1.02-0.228-0.432-0.636-0.684-0.396-0.252-0.936-0.252t-0.948 0.252-0.648 0.696q-0.228 0.432-0.228 0.996 0 0.576 0.228 1.02 0.24 0.432 0.648 0.684 0.42 0.252 0.96 0.252zm2.82 0.9h-1.092v-1.536l0.204-1.392-0.204-1.38v-4.26h1.092z" fill="#fff" aria-label="5d"/></g><path d="m15.409 101.61h462.18" fill="none" stroke="#fff" stroke-width="1px"/><path d="m1.0005 1h491v267h-491z" stroke="#fff" stroke-opacity=".13" stroke-width="2"/></svg>
