<svg width="493" height="269" viewBox="0 0 493 269" fill="none" xmlns="http://www.w3.org/2000/svg">
<rect x="0.000488281" width="493" height="269" fill="#0F0F15"/>
<rect x="1.00049" y="1" width="491" height="267" stroke="white" stroke-opacity="0.13" stroke-width="2"/>
<mask id="path-3-inside-1_393_272" fill="white">
<path d="M55.0005 34H438V102H55.0005V34Z"/>
</mask>
<path d="M438 101H55.0005V103H438V101Z" fill="white" fill-opacity="0.13" mask="url(#path-3-inside-1_393_272)"/>
<path d="M108.087 76V74.572H112.329C113.463 74.572 114.464 74.327 115.332 73.837C116.2 73.333 116.879 72.647 117.369 71.779C117.859 70.897 118.104 69.889 118.104 68.755C118.104 67.621 117.859 66.62 117.369 65.752C116.879 64.884 116.2 64.205 115.332 63.715C114.464 63.211 113.463 62.959 112.329 62.959H108.129V61.552H112.371C113.421 61.552 114.387 61.734 115.269 62.098C116.165 62.448 116.942 62.952 117.6 63.61C118.272 64.254 118.79 65.017 119.154 65.899C119.518 66.767 119.7 67.726 119.7 68.776C119.7 69.798 119.518 70.75 119.154 71.632C118.79 72.514 118.279 73.284 117.621 73.942C116.963 74.586 116.186 75.09 115.29 75.454C114.408 75.818 113.449 76 112.413 76H108.087ZM107.142 76V61.552H108.675V76H107.142ZM127.203 76.21C126.251 76.21 125.383 75.979 124.599 75.517C123.829 75.055 123.213 74.432 122.751 73.648C122.303 72.864 122.079 71.989 122.079 71.023C122.079 70.071 122.303 69.21 122.751 68.44C123.213 67.67 123.829 67.061 124.599 66.613C125.383 66.151 126.251 65.92 127.203 65.92C128.169 65.92 129.037 66.144 129.807 66.592C130.577 67.04 131.186 67.656 131.634 68.44C132.096 69.21 132.327 70.071 132.327 71.023C132.327 72.003 132.096 72.885 131.634 73.669C131.186 74.439 130.577 75.055 129.807 75.517C129.037 75.979 128.169 76.21 127.203 76.21ZM127.203 74.782C127.903 74.782 128.519 74.621 129.051 74.299C129.597 73.977 130.024 73.529 130.332 72.955C130.654 72.381 130.815 71.737 130.815 71.023C130.815 70.309 130.654 69.679 130.332 69.133C130.024 68.573 129.597 68.132 129.051 67.81C128.519 67.488 127.903 67.327 127.203 67.327C126.517 67.327 125.901 67.488 125.355 67.81C124.809 68.132 124.382 68.573 124.074 69.133C123.766 69.679 123.612 70.309 123.612 71.023C123.612 71.751 123.766 72.402 124.074 72.976C124.382 73.536 124.809 73.977 125.355 74.299C125.901 74.621 126.517 74.782 127.203 74.782ZM139.642 76.21C138.648 76.21 137.759 75.986 136.975 75.538C136.191 75.09 135.568 74.474 135.106 73.69C134.658 72.906 134.434 72.024 134.434 71.044C134.434 70.078 134.658 69.21 135.106 68.44C135.554 67.656 136.163 67.04 136.933 66.592C137.703 66.144 138.564 65.92 139.516 65.92C140.412 65.92 141.203 66.123 141.889 66.529C142.589 66.935 143.135 67.502 143.527 68.23C143.933 68.944 144.136 69.77 144.136 70.708C144.136 70.82 144.129 70.953 144.115 71.107C144.101 71.247 144.073 71.415 144.031 71.611H135.484V70.351H143.233L142.708 70.813C142.722 70.085 142.596 69.462 142.33 68.944C142.078 68.412 141.707 68.006 141.217 67.726C140.741 67.432 140.16 67.285 139.474 67.285C138.76 67.285 138.137 67.439 137.605 67.747C137.073 68.055 136.653 68.489 136.345 69.049C136.051 69.595 135.904 70.246 135.904 71.002C135.904 71.758 136.058 72.423 136.366 72.997C136.688 73.571 137.129 74.019 137.689 74.341C138.263 74.663 138.921 74.824 139.663 74.824C140.265 74.824 140.818 74.719 141.322 74.509C141.826 74.285 142.253 73.956 142.603 73.522L143.548 74.488C143.086 75.034 142.512 75.461 141.826 75.769C141.154 76.063 140.426 76.21 139.642 76.21ZM149.829 76.21C149.297 76.21 148.786 76.14 148.296 76C147.806 75.846 147.358 75.636 146.952 75.37C146.56 75.104 146.217 74.789 145.923 74.425L146.868 73.459C147.26 73.935 147.701 74.292 148.191 74.53C148.695 74.754 149.255 74.866 149.871 74.866C150.529 74.866 151.04 74.74 151.404 74.488C151.782 74.236 151.971 73.886 151.971 73.438C151.971 73.018 151.838 72.689 151.572 72.451C151.306 72.213 150.963 72.024 150.543 71.884C150.137 71.744 149.703 71.611 149.241 71.485C148.779 71.345 148.338 71.177 147.918 70.981C147.498 70.771 147.155 70.484 146.889 70.12C146.637 69.756 146.511 69.28 146.511 68.692C146.511 68.132 146.644 67.649 146.91 67.243C147.19 66.823 147.582 66.501 148.086 66.277C148.604 66.039 149.213 65.92 149.913 65.92C150.655 65.92 151.327 66.053 151.929 66.319C152.531 66.585 153.014 66.977 153.378 67.495L152.433 68.44C152.139 68.062 151.768 67.775 151.32 67.579C150.886 67.369 150.396 67.264 149.85 67.264C149.22 67.264 148.737 67.39 148.401 67.642C148.079 67.88 147.918 68.195 147.918 68.587C147.918 68.965 148.051 69.266 148.317 69.49C148.583 69.7 148.919 69.875 149.325 70.015C149.745 70.141 150.186 70.274 150.648 70.414C151.11 70.54 151.551 70.715 151.971 70.939C152.391 71.149 152.727 71.443 152.979 71.821C153.245 72.185 153.378 72.682 153.378 73.312C153.378 74.194 153.056 74.901 152.412 75.433C151.782 75.951 150.921 76.21 149.829 76.21ZM159.749 76L165.671 61.552H166.826L172.685 76H171.026L165.923 63.232H166.532L161.387 76H159.749ZM162.458 72.241V70.876H170.018V72.241H162.458ZM182.564 76V70.204C182.564 69.336 182.305 68.636 181.787 68.104C181.283 67.558 180.611 67.285 179.771 67.285C179.197 67.285 178.693 67.411 178.259 67.663C177.825 67.915 177.482 68.258 177.23 68.692C176.978 69.126 176.852 69.623 176.852 70.183L176.18 69.805C176.18 69.063 176.355 68.398 176.705 67.81C177.055 67.222 177.524 66.76 178.112 66.424C178.714 66.088 179.4 65.92 180.17 65.92C180.926 65.92 181.598 66.102 182.186 66.466C182.774 66.83 183.229 67.32 183.551 67.936C183.887 68.552 184.055 69.224 184.055 69.952V76H182.564ZM175.382 76V66.13H176.852V76H175.382ZM193.587 76L188.547 70.939L193.503 66.13H195.33L189.933 71.317L189.975 70.477L195.54 76H193.587ZM187.224 76V61.132H188.694V76H187.224ZM197.447 76V66.13H198.938V76H197.447ZM198.182 63.988C197.902 63.988 197.664 63.89 197.468 63.694C197.272 63.484 197.174 63.239 197.174 62.959C197.174 62.665 197.272 62.42 197.468 62.224C197.664 62.028 197.902 61.93 198.182 61.93C198.49 61.93 198.735 62.028 198.917 62.224C199.113 62.42 199.211 62.665 199.211 62.959C199.211 63.239 199.113 63.484 198.917 63.694C198.735 63.89 198.49 63.988 198.182 63.988ZM207.27 76V66.13H208.761V76H207.27ZM208.005 63.988C207.725 63.988 207.487 63.89 207.291 63.694C207.095 63.484 206.997 63.239 206.997 62.959C206.997 62.665 207.095 62.42 207.291 62.224C207.487 62.028 207.725 61.93 208.005 61.93C208.313 61.93 208.558 62.028 208.74 62.224C208.936 62.42 209.034 62.665 209.034 62.959C209.034 63.239 208.936 63.484 208.74 63.694C208.558 63.89 208.313 63.988 208.005 63.988ZM212.16 76V66.13H213.63V76H212.16ZM218.943 76V69.952C218.943 69.14 218.698 68.496 218.208 68.02C217.718 67.53 217.102 67.285 216.36 67.285C215.856 67.285 215.394 67.397 214.974 67.621C214.568 67.831 214.239 68.132 213.987 68.524C213.749 68.916 213.63 69.385 213.63 69.931L212.958 69.658C212.958 68.902 213.126 68.244 213.462 67.684C213.798 67.124 214.246 66.69 214.806 66.382C215.38 66.074 216.024 65.92 216.738 65.92C217.438 65.92 218.061 66.074 218.607 66.382C219.167 66.69 219.608 67.124 219.93 67.684C220.266 68.244 220.434 68.909 220.434 69.679V76H218.943ZM225.747 76V69.952C225.747 69.14 225.502 68.496 225.012 68.02C224.522 67.53 223.899 67.285 223.143 67.285C222.653 67.285 222.198 67.397 221.778 67.621C221.372 67.831 221.043 68.132 220.791 68.524C220.553 68.916 220.434 69.385 220.434 69.931L219.552 69.658C219.594 68.902 219.79 68.244 220.14 67.684C220.504 67.124 220.973 66.69 221.547 66.382C222.135 66.074 222.779 65.92 223.479 65.92C224.179 65.92 224.809 66.074 225.369 66.382C225.943 66.69 226.391 67.124 226.713 67.684C227.049 68.244 227.217 68.909 227.217 69.679V76H225.747ZM235.505 76.21C234.749 76.21 234.07 76.056 233.468 75.748C232.866 75.44 232.369 75.02 231.977 74.488C231.599 73.942 231.368 73.312 231.284 72.598V69.511C231.368 68.783 231.606 68.153 231.998 67.621C232.39 67.075 232.887 66.655 233.489 66.361C234.105 66.067 234.777 65.92 235.505 65.92C236.415 65.92 237.234 66.151 237.962 66.613C238.69 67.061 239.264 67.677 239.684 68.461C240.118 69.231 240.335 70.106 240.335 71.086C240.335 72.052 240.125 72.92 239.705 73.69C239.285 74.46 238.704 75.076 237.962 75.538C237.234 75.986 236.415 76.21 235.505 76.21ZM235.253 74.803C235.953 74.803 236.569 74.649 237.101 74.341C237.633 74.019 238.046 73.578 238.34 73.018C238.648 72.444 238.802 71.793 238.802 71.065C238.802 70.323 238.648 69.672 238.34 69.112C238.046 68.552 237.633 68.111 237.101 67.789C236.569 67.467 235.96 67.306 235.274 67.306C234.588 67.306 233.979 67.467 233.447 67.789C232.929 68.111 232.523 68.552 232.229 69.112C231.935 69.672 231.788 70.323 231.788 71.065C231.788 71.793 231.935 72.444 232.229 73.018C232.523 73.578 232.929 74.019 233.447 74.341C233.965 74.649 234.567 74.803 235.253 74.803ZM230.402 80.158V66.13H231.872V68.65L231.578 71.044L231.872 73.459V80.158H230.402ZM243.106 76V66.13H244.576V76H243.106ZM244.576 70.246L243.967 69.973C243.967 68.727 244.268 67.74 244.87 67.012C245.486 66.284 246.326 65.92 247.39 65.92C247.88 65.92 248.328 66.011 248.734 66.193C249.14 66.361 249.518 66.634 249.868 67.012L248.902 68.041C248.664 67.775 248.398 67.586 248.104 67.474C247.824 67.362 247.502 67.306 247.138 67.306C246.382 67.306 245.766 67.558 245.29 68.062C244.814 68.552 244.576 69.28 244.576 70.246ZM255.976 76.21C255.024 76.21 254.156 75.979 253.372 75.517C252.602 75.055 251.986 74.432 251.524 73.648C251.076 72.864 250.852 71.989 250.852 71.023C250.852 70.071 251.076 69.21 251.524 68.44C251.986 67.67 252.602 67.061 253.372 66.613C254.156 66.151 255.024 65.92 255.976 65.92C256.942 65.92 257.81 66.144 258.58 66.592C259.35 67.04 259.959 67.656 260.407 68.44C260.869 69.21 261.1 70.071 261.1 71.023C261.1 72.003 260.869 72.885 260.407 73.669C259.959 74.439 259.35 75.055 258.58 75.517C257.81 75.979 256.942 76.21 255.976 76.21ZM255.976 74.782C256.676 74.782 257.292 74.621 257.824 74.299C258.37 73.977 258.797 73.529 259.105 72.955C259.427 72.381 259.588 71.737 259.588 71.023C259.588 70.309 259.427 69.679 259.105 69.133C258.797 68.573 258.37 68.132 257.824 67.81C257.292 67.488 256.676 67.327 255.976 67.327C255.29 67.327 254.674 67.488 254.128 67.81C253.582 68.132 253.155 68.573 252.847 69.133C252.539 69.679 252.385 70.309 252.385 71.023C252.385 71.751 252.539 72.402 252.847 72.976C253.155 73.536 253.582 73.977 254.128 74.299C254.674 74.621 255.29 74.782 255.976 74.782ZM266.872 76L262.315 66.13H263.953L267.796 74.761H266.872L270.736 66.13H272.332L267.733 76H266.872ZM278.721 76.21C277.727 76.21 276.838 75.986 276.054 75.538C275.27 75.09 274.647 74.474 274.185 73.69C273.737 72.906 273.513 72.024 273.513 71.044C273.513 70.078 273.737 69.21 274.185 68.44C274.633 67.656 275.242 67.04 276.012 66.592C276.782 66.144 277.643 65.92 278.595 65.92C279.491 65.92 280.282 66.123 280.968 66.529C281.668 66.935 282.214 67.502 282.606 68.23C283.012 68.944 283.215 69.77 283.215 70.708C283.215 70.82 283.208 70.953 283.194 71.107C283.18 71.247 283.152 71.415 283.11 71.611H274.563V70.351H282.312L281.787 70.813C281.801 70.085 281.675 69.462 281.409 68.944C281.157 68.412 280.786 68.006 280.296 67.726C279.82 67.432 279.239 67.285 278.553 67.285C277.839 67.285 277.216 67.439 276.684 67.747C276.152 68.055 275.732 68.489 275.424 69.049C275.13 69.595 274.983 70.246 274.983 71.002C274.983 71.758 275.137 72.423 275.445 72.997C275.767 73.571 276.208 74.019 276.768 74.341C277.342 74.663 278 74.824 278.742 74.824C279.344 74.824 279.897 74.719 280.401 74.509C280.905 74.285 281.332 73.956 281.682 73.522L282.627 74.488C282.165 75.034 281.591 75.461 280.905 75.769C280.233 76.063 279.505 76.21 278.721 76.21ZM290.815 76V66.13H292.285V76H290.815ZM292.285 70.246L291.676 69.973C291.676 68.727 291.977 67.74 292.579 67.012C293.195 66.284 294.035 65.92 295.099 65.92C295.589 65.92 296.037 66.011 296.443 66.193C296.849 66.361 297.227 66.634 297.577 67.012L296.611 68.041C296.373 67.775 296.107 67.586 295.813 67.474C295.533 67.362 295.211 67.306 294.847 67.306C294.091 67.306 293.475 67.558 292.999 68.062C292.523 68.552 292.285 69.28 292.285 70.246ZM303.77 76.21C302.776 76.21 301.887 75.986 301.103 75.538C300.319 75.09 299.696 74.474 299.234 73.69C298.786 72.906 298.562 72.024 298.562 71.044C298.562 70.078 298.786 69.21 299.234 68.44C299.682 67.656 300.291 67.04 301.061 66.592C301.831 66.144 302.692 65.92 303.644 65.92C304.54 65.92 305.331 66.123 306.017 66.529C306.717 66.935 307.263 67.502 307.655 68.23C308.061 68.944 308.264 69.77 308.264 70.708C308.264 70.82 308.257 70.953 308.243 71.107C308.229 71.247 308.201 71.415 308.159 71.611H299.612V70.351H307.361L306.836 70.813C306.85 70.085 306.724 69.462 306.458 68.944C306.206 68.412 305.835 68.006 305.345 67.726C304.869 67.432 304.288 67.285 303.602 67.285C302.888 67.285 302.265 67.439 301.733 67.747C301.201 68.055 300.781 68.489 300.473 69.049C300.179 69.595 300.032 70.246 300.032 71.002C300.032 71.758 300.186 72.423 300.494 72.997C300.816 73.571 301.257 74.019 301.817 74.341C302.391 74.663 303.049 74.824 303.791 74.824C304.393 74.824 304.946 74.719 305.45 74.509C305.954 74.285 306.381 73.956 306.731 73.522L307.676 74.488C307.214 75.034 306.64 75.461 305.954 75.769C305.282 76.063 304.554 76.21 303.77 76.21ZM312.096 76V61.972H313.566V76H312.096ZM309.597 67.453V66.13H316.044V67.453H309.597ZM322.698 76.21C321.704 76.21 320.815 75.986 320.031 75.538C319.247 75.09 318.624 74.474 318.162 73.69C317.714 72.906 317.49 72.024 317.49 71.044C317.49 70.078 317.714 69.21 318.162 68.44C318.61 67.656 319.219 67.04 319.989 66.592C320.759 66.144 321.62 65.92 322.572 65.92C323.468 65.92 324.259 66.123 324.945 66.529C325.645 66.935 326.191 67.502 326.583 68.23C326.989 68.944 327.192 69.77 327.192 70.708C327.192 70.82 327.185 70.953 327.171 71.107C327.157 71.247 327.129 71.415 327.087 71.611H318.54V70.351H326.289L325.764 70.813C325.778 70.085 325.652 69.462 325.386 68.944C325.134 68.412 324.763 68.006 324.273 67.726C323.797 67.432 323.216 67.285 322.53 67.285C321.816 67.285 321.193 67.439 320.661 67.747C320.129 68.055 319.709 68.489 319.401 69.049C319.107 69.595 318.96 70.246 318.96 71.002C318.96 71.758 319.114 72.423 319.422 72.997C319.744 73.571 320.185 74.019 320.745 74.341C321.319 74.663 321.977 74.824 322.719 74.824C323.321 74.824 323.874 74.719 324.378 74.509C324.882 74.285 325.309 73.956 325.659 73.522L326.604 74.488C326.142 75.034 325.568 75.461 324.882 75.769C324.21 76.063 323.482 76.21 322.698 76.21ZM337.042 76V70.204C337.042 69.336 336.783 68.636 336.265 68.104C335.761 67.558 335.089 67.285 334.249 67.285C333.675 67.285 333.171 67.411 332.737 67.663C332.303 67.915 331.96 68.258 331.708 68.692C331.456 69.126 331.33 69.623 331.33 70.183L330.658 69.805C330.658 69.063 330.833 68.398 331.183 67.81C331.533 67.222 332.002 66.76 332.59 66.424C333.192 66.088 333.878 65.92 334.648 65.92C335.404 65.92 336.076 66.102 336.664 66.466C337.252 66.83 337.707 67.32 338.029 67.936C338.365 68.552 338.533 69.224 338.533 69.952V76H337.042ZM329.86 76V66.13H331.33V76H329.86ZM343.113 76V61.972H344.583V76H343.113ZM340.614 67.453V66.13H347.061V67.453H340.614ZM349.506 76V66.13H350.997V76H349.506ZM350.241 63.988C349.961 63.988 349.723 63.89 349.527 63.694C349.331 63.484 349.233 63.239 349.233 62.959C349.233 62.665 349.331 62.42 349.527 62.224C349.723 62.028 349.961 61.93 350.241 61.93C350.549 61.93 350.794 62.028 350.976 62.224C351.172 62.42 351.27 62.665 351.27 62.959C351.27 63.239 351.172 63.484 350.976 63.694C350.794 63.89 350.549 63.988 350.241 63.988ZM358.87 76.21C357.918 76.21 357.05 75.979 356.266 75.517C355.496 75.055 354.88 74.432 354.418 73.648C353.97 72.864 353.746 71.989 353.746 71.023C353.746 70.071 353.97 69.21 354.418 68.44C354.88 67.67 355.496 67.061 356.266 66.613C357.05 66.151 357.918 65.92 358.87 65.92C359.836 65.92 360.704 66.144 361.474 66.592C362.244 67.04 362.853 67.656 363.301 68.44C363.763 69.21 363.994 70.071 363.994 71.023C363.994 72.003 363.763 72.885 363.301 73.669C362.853 74.439 362.244 75.055 361.474 75.517C360.704 75.979 359.836 76.21 358.87 76.21ZM358.87 74.782C359.57 74.782 360.186 74.621 360.718 74.299C361.264 73.977 361.691 73.529 361.999 72.955C362.321 72.381 362.482 71.737 362.482 71.023C362.482 70.309 362.321 69.679 361.999 69.133C361.691 68.573 361.264 68.132 360.718 67.81C360.186 67.488 359.57 67.327 358.87 67.327C358.184 67.327 357.568 67.488 357.022 67.81C356.476 68.132 356.049 68.573 355.741 69.133C355.433 69.679 355.279 70.309 355.279 71.023C355.279 71.751 355.433 72.402 355.741 72.976C356.049 73.536 356.476 73.977 357.022 74.299C357.568 74.621 358.184 74.782 358.87 74.782ZM373.934 76V70.204C373.934 69.336 373.675 68.636 373.157 68.104C372.653 67.558 371.981 67.285 371.141 67.285C370.567 67.285 370.063 67.411 369.629 67.663C369.195 67.915 368.852 68.258 368.6 68.692C368.348 69.126 368.222 69.623 368.222 70.183L367.55 69.805C367.55 69.063 367.725 68.398 368.075 67.81C368.425 67.222 368.894 66.76 369.482 66.424C370.084 66.088 370.77 65.92 371.54 65.92C372.296 65.92 372.968 66.102 373.556 66.466C374.144 66.83 374.599 67.32 374.921 67.936C375.257 68.552 375.425 69.224 375.425 69.952V76H373.934ZM366.752 76V66.13H368.222V76H366.752ZM381.808 71.611L381.787 67.684H382.312C382.844 67.67 383.306 67.544 383.698 67.306C384.104 67.054 384.419 66.725 384.643 66.319C384.867 65.913 384.979 65.458 384.979 64.954C384.979 64.464 384.867 64.023 384.643 63.631C384.433 63.239 384.125 62.931 383.719 62.707C383.313 62.483 382.83 62.371 382.27 62.371C381.542 62.371 380.919 62.546 380.401 62.896C379.897 63.246 379.491 63.708 379.183 64.282L378.091 63.358C378.483 62.616 379.043 62.028 379.771 61.594C380.513 61.146 381.367 60.922 382.333 60.922C383.173 60.922 383.901 61.09 384.517 61.426C385.147 61.762 385.637 62.231 385.987 62.833C386.337 63.421 386.512 64.1 386.512 64.87C386.512 65.598 386.351 66.256 386.029 66.844C385.707 67.432 385.252 67.915 384.664 68.293C384.076 68.671 383.39 68.909 382.606 69.007L383.215 68.335L383.068 71.611H381.808ZM382.417 76.21C382.081 76.21 381.801 76.091 381.577 75.853C381.353 75.615 381.241 75.335 381.241 75.013C381.241 74.663 381.353 74.376 381.577 74.152C381.801 73.914 382.081 73.795 382.417 73.795C382.767 73.795 383.054 73.914 383.278 74.152C383.502 74.376 383.614 74.663 383.614 75.013C383.614 75.335 383.502 75.615 383.278 75.853C383.054 76.091 382.767 76.21 382.417 76.21Z" fill="white"/>
<path d="M237.086 138.036L231.353 129.552H233.159L237.926 136.671H237.17L241.979 129.552H243.722L237.947 138.036H237.086ZM236.771 144V136.923H238.325V144H236.771ZM247.811 144.21C246.817 144.21 245.928 143.986 245.144 143.538C244.36 143.09 243.737 142.474 243.275 141.69C242.827 140.906 242.603 140.024 242.603 139.044C242.603 138.078 242.827 137.21 243.275 136.44C243.723 135.656 244.332 135.04 245.102 134.592C245.872 134.144 246.733 133.92 247.685 133.92C248.581 133.92 249.372 134.123 250.058 134.529C250.758 134.935 251.304 135.502 251.696 136.23C252.102 136.944 252.305 137.77 252.305 138.708C252.305 138.82 252.298 138.953 252.284 139.107C252.27 139.247 252.242 139.415 252.2 139.611H243.653V138.351H251.402L250.877 138.813C250.891 138.085 250.765 137.462 250.499 136.944C250.247 136.412 249.876 136.006 249.386 135.726C248.91 135.432 248.329 135.285 247.643 135.285C246.929 135.285 246.306 135.439 245.774 135.747C245.242 136.055 244.822 136.489 244.514 137.049C244.22 137.595 244.073 138.246 244.073 139.002C244.073 139.758 244.227 140.423 244.535 140.997C244.857 141.571 245.298 142.019 245.858 142.341C246.432 142.663 247.09 142.824 247.832 142.824C248.434 142.824 248.987 142.719 249.491 142.509C249.995 142.285 250.422 141.956 250.772 141.522L251.717 142.488C251.255 143.034 250.681 143.461 249.995 143.769C249.323 144.063 248.595 144.21 247.811 144.21ZM257.998 144.21C257.466 144.21 256.955 144.14 256.465 144C255.975 143.846 255.527 143.636 255.121 143.37C254.729 143.104 254.386 142.789 254.092 142.425L255.037 141.459C255.429 141.935 255.87 142.292 256.36 142.53C256.864 142.754 257.424 142.866 258.04 142.866C258.698 142.866 259.209 142.74 259.573 142.488C259.951 142.236 260.14 141.886 260.14 141.438C260.14 141.018 260.007 140.689 259.741 140.451C259.475 140.213 259.132 140.024 258.712 139.884C258.306 139.744 257.872 139.611 257.41 139.485C256.948 139.345 256.507 139.177 256.087 138.981C255.667 138.771 255.324 138.484 255.058 138.12C254.806 137.756 254.68 137.28 254.68 136.692C254.68 136.132 254.813 135.649 255.079 135.243C255.359 134.823 255.751 134.501 256.255 134.277C256.773 134.039 257.382 133.92 258.082 133.92C258.824 133.92 259.496 134.053 260.098 134.319C260.7 134.585 261.183 134.977 261.547 135.495L260.602 136.44C260.308 136.062 259.937 135.775 259.489 135.579C259.055 135.369 258.565 135.264 258.019 135.264C257.389 135.264 256.906 135.39 256.57 135.642C256.248 135.88 256.087 136.195 256.087 136.587C256.087 136.965 256.22 137.266 256.486 137.49C256.752 137.7 257.088 137.875 257.494 138.015C257.914 138.141 258.355 138.274 258.817 138.414C259.279 138.54 259.72 138.715 260.14 138.939C260.56 139.149 260.896 139.443 261.148 139.821C261.414 140.185 261.547 140.682 261.547 141.312C261.547 142.194 261.225 142.901 260.581 143.433C259.951 143.951 259.09 144.21 257.998 144.21Z" fill="white"/>
<path d="M107.53 193.757L102.855 191.667V190.952L107.53 188.862V189.863L103.669 191.502V191.128L107.53 192.767V193.757ZM112.929 195V187.366H113.952V195H112.929ZM111.367 188.29V187.366H113.842V188.29H111.367ZM115.786 195V189.775H116.776V195H115.786ZM119.317 195V191.843C119.317 191.454 119.196 191.15 118.954 190.93C118.719 190.703 118.422 190.589 118.063 190.589C117.821 190.589 117.605 190.64 117.414 190.743C117.223 190.846 117.069 190.989 116.952 191.172C116.835 191.355 116.776 191.575 116.776 191.832L116.369 191.634C116.369 191.238 116.453 190.893 116.622 190.6C116.798 190.307 117.036 190.079 117.337 189.918C117.638 189.749 117.975 189.665 118.349 189.665C118.716 189.665 119.046 189.746 119.339 189.907C119.64 190.068 119.874 190.296 120.043 190.589C120.219 190.882 120.307 191.231 120.307 191.634V195H119.317ZM122.848 195V191.843C122.848 191.454 122.727 191.15 122.485 190.93C122.25 190.703 121.957 190.589 121.605 190.589C121.363 190.589 121.143 190.64 120.945 190.743C120.754 190.846 120.6 190.989 120.483 191.172C120.366 191.355 120.307 191.575 120.307 191.832L119.746 191.634C119.768 191.231 119.874 190.886 120.065 190.6C120.263 190.307 120.516 190.079 120.824 189.918C121.132 189.749 121.469 189.665 121.836 189.665C122.217 189.665 122.558 189.746 122.859 189.907C123.16 190.068 123.398 190.296 123.574 190.589C123.757 190.882 123.849 191.234 123.849 191.645V195H122.848Z" fill="#8B9297"/>
<rect x="76.5005" y="203.5" width="74.5" height="31" stroke="white" stroke-opacity="0.13"/>
<path d="M96.6535 224L100.345 214.978H101.229L104.908 224H103.582L100.553 216.369H101.008L97.9535 224H96.6535ZM98.4085 221.959V220.893H103.153V221.959H98.4085ZM108.588 226.717C107.955 226.717 107.392 226.6 106.898 226.366C106.412 226.132 106.022 225.803 105.728 225.378L106.482 224.611C106.733 224.932 107.032 225.174 107.379 225.339C107.725 225.512 108.137 225.599 108.614 225.599C109.246 225.599 109.745 225.43 110.109 225.092C110.481 224.763 110.668 224.316 110.668 223.753V222.219L110.876 220.828L110.668 219.45V217.825H111.838V223.753C111.838 224.342 111.699 224.858 111.422 225.3C111.153 225.742 110.772 226.089 110.278 226.34C109.792 226.591 109.229 226.717 108.588 226.717ZM108.588 223.896C108.024 223.896 107.517 223.762 107.067 223.493C106.625 223.224 106.274 222.856 106.014 222.388C105.754 221.911 105.624 221.378 105.624 220.789C105.624 220.2 105.754 219.675 106.014 219.216C106.274 218.748 106.625 218.38 107.067 218.111C107.517 217.834 108.024 217.695 108.588 217.695C109.073 217.695 109.502 217.79 109.875 217.981C110.247 218.172 110.542 218.44 110.759 218.787C110.984 219.125 111.105 219.524 111.123 219.983V221.621C111.097 222.072 110.971 222.47 110.746 222.817C110.529 223.155 110.234 223.419 109.862 223.61C109.489 223.801 109.064 223.896 108.588 223.896ZM108.822 222.791C109.203 222.791 109.537 222.709 109.823 222.544C110.117 222.379 110.343 222.15 110.499 221.855C110.655 221.552 110.733 221.201 110.733 220.802C110.733 220.403 110.65 220.057 110.486 219.762C110.33 219.459 110.109 219.225 109.823 219.06C109.537 218.887 109.199 218.8 108.809 218.8C108.419 218.8 108.076 218.887 107.782 219.06C107.487 219.225 107.253 219.459 107.08 219.762C106.915 220.057 106.833 220.399 106.833 220.789C106.833 221.179 106.915 221.526 107.08 221.829C107.253 222.132 107.487 222.371 107.782 222.544C108.085 222.709 108.432 222.791 108.822 222.791ZM116.441 224.13C115.878 224.13 115.366 223.991 114.907 223.714C114.448 223.428 114.084 223.042 113.815 222.557C113.555 222.072 113.425 221.526 113.425 220.919C113.425 220.312 113.555 219.766 113.815 219.281C114.084 218.796 114.443 218.41 114.894 218.124C115.353 217.838 115.869 217.695 116.441 217.695C116.909 217.695 117.325 217.795 117.689 217.994C118.062 218.185 118.361 218.453 118.586 218.8C118.811 219.138 118.937 219.532 118.963 219.983V221.842C118.937 222.284 118.811 222.678 118.586 223.025C118.369 223.372 118.075 223.645 117.702 223.844C117.338 224.035 116.918 224.13 116.441 224.13ZM116.636 223.025C117.217 223.025 117.685 222.83 118.04 222.44C118.395 222.041 118.573 221.534 118.573 220.919C118.573 220.494 118.491 220.126 118.326 219.814C118.17 219.493 117.945 219.246 117.65 219.073C117.355 218.891 117.013 218.8 116.623 218.8C116.233 218.8 115.886 218.891 115.583 219.073C115.288 219.255 115.054 219.506 114.881 219.827C114.716 220.139 114.634 220.499 114.634 220.906C114.634 221.322 114.716 221.69 114.881 222.011C115.054 222.323 115.293 222.57 115.596 222.752C115.899 222.934 116.246 223.025 116.636 223.025ZM118.495 224V222.336L118.716 220.828L118.495 219.333V217.825H119.678V224H118.495ZM121.654 224V217.825H122.824V224H121.654ZM122.239 216.59C122.023 216.59 121.845 216.521 121.706 216.382C121.568 216.235 121.498 216.053 121.498 215.836C121.498 215.628 121.568 215.455 121.706 215.316C121.845 215.169 122.023 215.095 122.239 215.095C122.456 215.095 122.634 215.169 122.772 215.316C122.911 215.455 122.98 215.628 122.98 215.836C122.98 216.053 122.911 216.235 122.772 216.382C122.634 216.521 122.456 216.59 122.239 216.59ZM129.177 224V220.399C129.177 219.931 129.029 219.545 128.735 219.242C128.44 218.939 128.059 218.787 127.591 218.787C127.279 218.787 127.001 218.856 126.759 218.995C126.516 219.134 126.325 219.324 126.187 219.567C126.048 219.81 125.979 220.087 125.979 220.399L125.498 220.126C125.498 219.658 125.602 219.242 125.81 218.878C126.018 218.514 126.308 218.228 126.681 218.02C127.053 217.803 127.474 217.695 127.942 217.695C128.41 217.695 128.821 217.812 129.177 218.046C129.541 218.28 129.827 218.588 130.035 218.969C130.243 219.342 130.347 219.74 130.347 220.165V224H129.177ZM124.809 224V217.825H125.979V224H124.809Z" fill="white"/>
<path d="M195.03 193.757L190.355 191.667V190.952L195.03 188.862V189.863L191.169 191.502V191.128L195.03 192.767V193.757ZM201.628 195.11C201.122 195.11 200.668 194.993 200.264 194.758C199.868 194.523 199.553 194.208 199.318 193.812C199.084 193.416 198.966 192.976 198.966 192.492C198.966 191.817 199.201 191.146 199.67 190.479L201.914 187.366H203.113L200.814 190.501L200.44 190.699C200.528 190.545 200.635 190.417 200.759 190.314C200.884 190.204 201.038 190.12 201.221 190.061C201.405 190.002 201.621 189.973 201.87 189.973C202.318 189.973 202.721 190.079 203.08 190.292C203.447 190.505 203.74 190.798 203.96 191.172C204.188 191.539 204.301 191.968 204.301 192.459C204.301 192.943 204.18 193.387 203.938 193.79C203.704 194.193 203.381 194.516 202.97 194.758C202.567 194.993 202.12 195.11 201.628 195.11ZM201.628 194.142C201.936 194.142 202.211 194.069 202.453 193.922C202.703 193.768 202.897 193.566 203.036 193.317C203.183 193.06 203.256 192.774 203.256 192.459C203.256 192.144 203.183 191.861 203.036 191.612C202.897 191.355 202.703 191.154 202.453 191.007C202.211 190.86 201.936 190.787 201.628 190.787C201.32 190.787 201.042 190.86 200.792 191.007C200.55 191.154 200.356 191.355 200.209 191.612C200.07 191.861 200 192.144 200 192.459C200 192.774 200.07 193.06 200.209 193.317C200.356 193.574 200.55 193.775 200.792 193.922C201.042 194.069 201.32 194.142 201.628 194.142ZM205.681 195V189.775H206.671V195H205.681ZM209.212 195V191.843C209.212 191.454 209.091 191.15 208.849 190.93C208.615 190.703 208.318 190.589 207.958 190.589C207.716 190.589 207.5 190.64 207.309 190.743C207.119 190.846 206.965 190.989 206.847 191.172C206.73 191.355 206.671 191.575 206.671 191.832L206.264 191.634C206.264 191.238 206.349 190.893 206.517 190.6C206.693 190.307 206.932 190.079 207.232 189.918C207.533 189.749 207.87 189.665 208.244 189.665C208.611 189.665 208.941 189.746 209.234 189.907C209.535 190.068 209.77 190.296 209.938 190.589C210.114 190.882 210.202 191.231 210.202 191.634V195H209.212ZM212.743 195V191.843C212.743 191.454 212.622 191.15 212.38 190.93C212.146 190.703 211.852 190.589 211.5 190.589C211.258 190.589 211.038 190.64 210.84 190.743C210.65 190.846 210.496 190.989 210.378 191.172C210.261 191.355 210.202 191.575 210.202 191.832L209.641 191.634C209.663 191.231 209.77 190.886 209.96 190.6C210.158 190.307 210.411 190.079 210.719 189.918C211.027 189.749 211.365 189.665 211.731 189.665C212.113 189.665 212.454 189.746 212.754 189.907C213.055 190.068 213.293 190.296 213.469 190.589C213.653 190.882 213.744 191.234 213.744 191.645V195H212.743Z" fill="#8B9297"/>
<rect x="165" y="203.5" width="74.5" height="31" stroke="white" stroke-opacity="0.13"/>
<path d="M187.816 224V214.978H189.038V224H187.816ZM193.64 224V214.978H194.862V224H193.64ZM188.648 219.892V218.774H193.939V219.892H188.648ZM199.673 224.13C199.11 224.13 198.599 223.991 198.139 223.714C197.68 223.428 197.316 223.042 197.047 222.557C196.787 222.072 196.657 221.526 196.657 220.919C196.657 220.312 196.787 219.766 197.047 219.281C197.316 218.796 197.676 218.41 198.126 218.124C198.586 217.838 199.101 217.695 199.673 217.695C200.141 217.695 200.557 217.795 200.921 217.994C201.294 218.185 201.593 218.453 201.818 218.8C202.044 219.138 202.169 219.532 202.195 219.983V221.842C202.169 222.284 202.044 222.678 201.818 223.025C201.602 223.372 201.307 223.645 200.934 223.844C200.57 224.035 200.15 224.13 199.673 224.13ZM199.868 223.025C200.449 223.025 200.917 222.83 201.272 222.44C201.628 222.041 201.805 221.534 201.805 220.919C201.805 220.494 201.723 220.126 201.558 219.814C201.402 219.493 201.177 219.246 200.882 219.073C200.588 218.891 200.245 218.8 199.855 218.8C199.465 218.8 199.119 218.891 198.815 219.073C198.521 219.255 198.287 219.506 198.113 219.827C197.949 220.139 197.866 220.499 197.866 220.906C197.866 221.322 197.949 221.69 198.113 222.011C198.287 222.323 198.525 222.57 198.828 222.752C199.132 222.934 199.478 223.025 199.868 223.025ZM201.727 224V222.336L201.948 220.828L201.727 219.333V217.825H202.91V224H201.727ZM204.874 224V217.825H206.044V224H204.874ZM206.044 220.477L205.602 220.282C205.602 219.493 205.784 218.865 206.148 218.397C206.512 217.929 207.036 217.695 207.721 217.695C208.033 217.695 208.314 217.751 208.566 217.864C208.817 217.968 209.051 218.146 209.268 218.397L208.501 219.19C208.371 219.051 208.228 218.952 208.072 218.891C207.916 218.83 207.734 218.8 207.526 218.8C207.092 218.8 206.737 218.939 206.46 219.216C206.182 219.493 206.044 219.914 206.044 220.477ZM212.761 224.13C212.189 224.13 211.678 223.991 211.227 223.714C210.777 223.428 210.417 223.042 210.148 222.557C209.888 222.072 209.758 221.526 209.758 220.919C209.758 220.312 209.888 219.766 210.148 219.281C210.417 218.796 210.777 218.41 211.227 218.124C211.678 217.838 212.189 217.695 212.761 217.695C213.221 217.695 213.637 217.795 214.009 217.994C214.382 218.185 214.681 218.453 214.906 218.8C215.14 219.138 215.27 219.532 215.296 219.983V221.842C215.27 222.284 215.145 222.678 214.919 223.025C214.694 223.372 214.395 223.645 214.022 223.844C213.65 224.035 213.229 224.13 212.761 224.13ZM212.956 223.025C213.346 223.025 213.684 222.934 213.97 222.752C214.265 222.57 214.495 222.323 214.659 222.011C214.824 221.69 214.906 221.326 214.906 220.919C214.906 220.494 214.82 220.126 214.646 219.814C214.482 219.502 214.252 219.255 213.957 219.073C213.671 218.891 213.333 218.8 212.943 218.8C212.553 218.8 212.211 218.891 211.916 219.073C211.622 219.255 211.388 219.506 211.214 219.827C211.05 220.139 210.967 220.499 210.967 220.906C210.967 221.322 211.05 221.69 211.214 222.011C211.388 222.323 211.622 222.57 211.916 222.752C212.22 222.934 212.566 223.025 212.956 223.025ZM216.011 224H214.828V222.336L215.049 220.828L214.828 219.333V214.718H216.011V224Z" fill="white"/>
<path d="M281.03 193.757L276.355 191.667V190.952L281.03 188.862V189.863L277.169 191.502V191.128L281.03 192.767V193.757ZM286.429 195V187.366H287.452V195H286.429ZM284.867 188.29V187.366H287.342V188.29H284.867ZM292.19 195.11C291.618 195.11 291.094 194.949 290.617 194.626C290.148 194.303 289.774 193.849 289.495 193.262C289.216 192.668 289.077 191.971 289.077 191.172C289.077 190.373 289.213 189.68 289.484 189.093C289.763 188.506 290.137 188.055 290.606 187.74C291.075 187.417 291.592 187.256 292.157 187.256C292.736 187.256 293.261 187.417 293.73 187.74C294.199 188.055 294.57 188.506 294.841 189.093C295.12 189.68 295.259 190.376 295.259 191.183C295.259 191.982 295.12 192.679 294.841 193.273C294.57 193.86 294.199 194.314 293.73 194.637C293.268 194.952 292.755 195.11 292.19 195.11ZM292.168 194.131C292.571 194.131 292.923 194.021 293.224 193.801C293.532 193.574 293.774 193.24 293.95 192.8C294.126 192.36 294.214 191.817 294.214 191.172C294.214 190.527 294.126 189.988 293.95 189.555C293.774 189.115 293.532 188.785 293.224 188.565C292.916 188.338 292.56 188.224 292.157 188.224C291.761 188.224 291.409 188.338 291.101 188.565C290.793 188.785 290.551 189.115 290.375 189.555C290.206 189.988 290.122 190.527 290.122 191.172C290.122 191.817 290.206 192.36 290.375 192.8C290.551 193.24 290.793 193.574 291.101 193.801C291.409 194.021 291.765 194.131 292.168 194.131ZM296.725 195V189.775H297.715V195H296.725ZM300.256 195V191.843C300.256 191.454 300.135 191.15 299.893 190.93C299.658 190.703 299.361 190.589 299.002 190.589C298.76 190.589 298.543 190.64 298.353 190.743C298.162 190.846 298.008 190.989 297.891 191.172C297.773 191.355 297.715 191.575 297.715 191.832L297.308 191.634C297.308 191.238 297.392 190.893 297.561 190.6C297.737 190.307 297.975 190.079 298.276 189.918C298.576 189.749 298.914 189.665 299.288 189.665C299.654 189.665 299.984 189.746 300.278 189.907C300.578 190.068 300.813 190.296 300.982 190.589C301.158 190.882 301.246 191.231 301.246 191.634V195H300.256ZM303.787 195V191.843C303.787 191.454 303.666 191.15 303.424 190.93C303.189 190.703 302.896 190.589 302.544 190.589C302.302 190.589 302.082 190.64 301.884 190.743C301.693 190.846 301.539 190.989 301.422 191.172C301.304 191.355 301.246 191.575 301.246 191.832L300.685 191.634C300.707 191.231 300.813 190.886 301.004 190.6C301.202 190.307 301.455 190.079 301.763 189.918C302.071 189.749 302.408 189.665 302.775 189.665C303.156 189.665 303.497 189.746 303.798 189.907C304.098 190.068 304.337 190.296 304.513 190.589C304.696 190.882 304.788 191.234 304.788 191.645V195H303.787Z" fill="#8B9297"/>
<rect x="253.5" y="203.5" width="74.5" height="31" stroke="white" stroke-opacity="0.13"/>
<path d="M278.898 224.13C278.266 224.13 277.672 224.013 277.117 223.779C276.571 223.536 276.09 223.203 275.674 222.778C275.267 222.353 274.946 221.859 274.712 221.296C274.478 220.733 274.361 220.126 274.361 219.476C274.361 218.826 274.478 218.224 274.712 217.669C274.946 217.106 275.271 216.612 275.687 216.187C276.103 215.762 276.589 215.433 277.143 215.199C277.707 214.965 278.318 214.848 278.976 214.848C279.696 214.848 280.359 214.987 280.965 215.264C281.572 215.541 282.079 215.94 282.486 216.46L281.641 217.305C281.355 216.889 280.978 216.573 280.51 216.356C280.042 216.131 279.531 216.018 278.976 216.018C278.318 216.018 277.733 216.165 277.221 216.46C276.719 216.755 276.324 217.162 276.038 217.682C275.761 218.202 275.622 218.8 275.622 219.476C275.622 220.161 275.765 220.763 276.051 221.283C276.337 221.803 276.723 222.21 277.208 222.505C277.694 222.8 278.248 222.947 278.872 222.947C279.505 222.947 280.051 222.826 280.51 222.583C280.978 222.34 281.338 221.985 281.589 221.517C281.841 221.04 281.966 220.46 281.966 219.775L282.707 220.308H278.807V219.19H283.227V219.372C283.227 220.421 283.041 221.3 282.668 222.011C282.304 222.713 281.793 223.242 281.134 223.597C280.484 223.952 279.739 224.13 278.898 224.13ZM287.744 224.13C287.138 224.13 286.592 223.987 286.106 223.701C285.621 223.415 285.235 223.029 284.949 222.544C284.663 222.05 284.52 221.5 284.52 220.893C284.52 220.295 284.663 219.758 284.949 219.281C285.235 218.796 285.621 218.41 286.106 218.124C286.592 217.838 287.138 217.695 287.744 217.695C288.342 217.695 288.884 217.838 289.369 218.124C289.863 218.401 290.253 218.783 290.539 219.268C290.825 219.753 290.968 220.295 290.968 220.893C290.968 221.5 290.825 222.05 290.539 222.544C290.253 223.029 289.863 223.415 289.369 223.701C288.884 223.987 288.342 224.13 287.744 224.13ZM287.744 222.999C288.134 222.999 288.481 222.908 288.784 222.726C289.088 222.544 289.326 222.297 289.499 221.985C289.673 221.664 289.759 221.3 289.759 220.893C289.759 220.494 289.668 220.139 289.486 219.827C289.313 219.515 289.075 219.272 288.771 219.099C288.477 218.917 288.134 218.826 287.744 218.826C287.354 218.826 287.008 218.917 286.704 219.099C286.401 219.272 286.163 219.515 285.989 219.827C285.816 220.139 285.729 220.494 285.729 220.893C285.729 221.3 285.816 221.664 285.989 221.985C286.163 222.297 286.401 222.544 286.704 222.726C287.008 222.908 287.354 222.999 287.744 222.999ZM295.367 224.13C294.761 224.13 294.215 223.987 293.729 223.701C293.244 223.415 292.858 223.029 292.572 222.544C292.286 222.05 292.143 221.5 292.143 220.893C292.143 220.295 292.286 219.758 292.572 219.281C292.858 218.796 293.244 218.41 293.729 218.124C294.215 217.838 294.761 217.695 295.367 217.695C295.965 217.695 296.507 217.838 296.992 218.124C297.486 218.401 297.876 218.783 298.162 219.268C298.448 219.753 298.591 220.295 298.591 220.893C298.591 221.5 298.448 222.05 298.162 222.544C297.876 223.029 297.486 223.415 296.992 223.701C296.507 223.987 295.965 224.13 295.367 224.13ZM295.367 222.999C295.757 222.999 296.104 222.908 296.407 222.726C296.711 222.544 296.949 222.297 297.122 221.985C297.296 221.664 297.382 221.3 297.382 220.893C297.382 220.494 297.291 220.139 297.109 219.827C296.936 219.515 296.698 219.272 296.394 219.099C296.1 218.917 295.757 218.826 295.367 218.826C294.977 218.826 294.631 218.917 294.327 219.099C294.024 219.272 293.786 219.515 293.612 219.827C293.439 220.139 293.352 220.494 293.352 220.893C293.352 221.3 293.439 221.664 293.612 221.985C293.786 222.297 294.024 222.544 294.327 222.726C294.631 222.908 294.977 222.999 295.367 222.999ZM302.783 224.13C302.211 224.13 301.699 223.991 301.249 223.714C300.798 223.428 300.438 223.042 300.17 222.557C299.91 222.072 299.78 221.526 299.78 220.919C299.78 220.312 299.91 219.766 300.17 219.281C300.438 218.796 300.798 218.41 301.249 218.124C301.699 217.838 302.211 217.695 302.783 217.695C303.242 217.695 303.658 217.795 304.031 217.994C304.403 218.185 304.702 218.453 304.928 218.8C305.162 219.138 305.292 219.532 305.318 219.983V221.842C305.292 222.284 305.166 222.678 304.941 223.025C304.715 223.372 304.416 223.645 304.044 223.844C303.671 224.035 303.251 224.13 302.783 224.13ZM302.978 223.025C303.368 223.025 303.706 222.934 303.992 222.752C304.286 222.57 304.516 222.323 304.681 222.011C304.845 221.69 304.928 221.326 304.928 220.919C304.928 220.494 304.841 220.126 304.668 219.814C304.503 219.502 304.273 219.255 303.979 219.073C303.693 218.891 303.355 218.8 302.965 218.8C302.575 218.8 302.232 218.891 301.938 219.073C301.643 219.255 301.409 219.506 301.236 219.827C301.071 220.139 300.989 220.499 300.989 220.906C300.989 221.322 301.071 221.69 301.236 222.011C301.409 222.323 301.643 222.57 301.938 222.752C302.241 222.934 302.588 223.025 302.978 223.025ZM306.033 224H304.85V222.336L305.071 220.828L304.85 219.333V214.718H306.033V224Z" fill="white"/>
<path d="M375.478 195.11C374.958 195.11 374.492 195.018 374.081 194.835C373.678 194.644 373.337 194.369 373.058 194.01L373.762 193.306C373.931 193.563 374.162 193.768 374.455 193.922C374.756 194.069 375.09 194.142 375.456 194.142C375.801 194.142 376.102 194.076 376.358 193.944C376.622 193.812 376.828 193.629 376.974 193.394C377.128 193.152 377.205 192.866 377.205 192.536C377.205 192.199 377.132 191.913 376.985 191.678C376.839 191.443 376.641 191.267 376.391 191.15C376.149 191.025 375.882 190.963 375.588 190.963C375.288 190.963 375.013 191 374.763 191.073C374.521 191.146 374.29 191.271 374.07 191.447L374.081 190.787C374.206 190.633 374.349 190.508 374.51 190.413C374.672 190.318 374.855 190.244 375.06 190.193C375.266 190.142 375.504 190.116 375.775 190.116C376.303 190.116 376.751 190.226 377.117 190.446C377.484 190.666 377.763 190.963 377.953 191.337C378.151 191.711 378.25 192.129 378.25 192.591C378.25 193.075 378.129 193.508 377.887 193.889C377.653 194.27 377.326 194.571 376.908 194.791C376.49 195.004 376.014 195.11 375.478 195.11ZM374.07 191.447L373.509 190.886L373.85 187.366H374.796L374.411 190.985L374.07 191.447ZM374.059 188.29L373.85 187.366H377.865V188.29H374.059ZM381.859 195.11C381.375 195.11 380.942 194.993 380.561 194.758C380.179 194.516 379.875 194.19 379.648 193.779C379.428 193.368 379.318 192.906 379.318 192.393C379.318 191.88 379.428 191.418 379.648 191.007C379.875 190.596 380.179 190.27 380.561 190.028C380.942 189.786 381.375 189.665 381.859 189.665C382.247 189.665 382.599 189.749 382.915 189.918C383.23 190.079 383.483 190.307 383.674 190.6C383.872 190.886 383.982 191.22 384.004 191.601V193.174C383.982 193.548 383.875 193.882 383.685 194.175C383.494 194.468 383.241 194.699 382.926 194.868C382.61 195.029 382.255 195.11 381.859 195.11ZM382.024 194.175C382.354 194.175 382.64 194.098 382.882 193.944C383.131 193.79 383.325 193.581 383.465 193.317C383.604 193.046 383.674 192.738 383.674 192.393C383.674 192.034 383.6 191.722 383.454 191.458C383.314 191.194 383.12 190.985 382.871 190.831C382.629 190.677 382.343 190.6 382.013 190.6C381.683 190.6 381.393 190.677 381.144 190.831C380.894 190.985 380.696 191.198 380.55 191.469C380.41 191.733 380.341 192.037 380.341 192.382C380.341 192.734 380.41 193.046 380.55 193.317C380.696 193.581 380.894 193.79 381.144 193.944C381.4 194.098 381.694 194.175 382.024 194.175ZM384.609 195H383.608V193.592L383.795 192.316L383.608 191.051V187.146H384.609V195Z" fill="#8B9297"/>
<rect x="342" y="203.5" width="74.5" height="31" stroke="white" stroke-opacity="0.13"/>
<path d="M365.816 224V214.978H367.038V224H365.816ZM366.648 224V222.882H371.822V224H366.648ZM366.648 219.918V218.852H371.393V219.918H366.648ZM366.648 216.096V214.978H371.757V216.096H366.648ZM376.048 224.13C375.485 224.13 374.974 223.991 374.514 223.714C374.055 223.428 373.691 223.042 373.422 222.557C373.162 222.072 373.032 221.526 373.032 220.919C373.032 220.312 373.162 219.766 373.422 219.281C373.691 218.796 374.051 218.41 374.501 218.124C374.961 217.838 375.476 217.695 376.048 217.695C376.516 217.695 376.932 217.795 377.296 217.994C377.669 218.185 377.968 218.453 378.193 218.8C378.419 219.138 378.544 219.532 378.57 219.983V221.842C378.544 222.284 378.419 222.678 378.193 223.025C377.977 223.372 377.682 223.645 377.309 223.844C376.945 224.035 376.525 224.13 376.048 224.13ZM376.243 223.025C376.824 223.025 377.292 222.83 377.647 222.44C378.003 222.041 378.18 221.534 378.18 220.919C378.18 220.494 378.098 220.126 377.933 219.814C377.777 219.493 377.552 219.246 377.257 219.073C376.963 218.891 376.62 218.8 376.23 218.8C375.84 218.8 375.494 218.891 375.19 219.073C374.896 219.255 374.662 219.506 374.488 219.827C374.324 220.139 374.241 220.499 374.241 220.906C374.241 221.322 374.324 221.69 374.488 222.011C374.662 222.323 374.9 222.57 375.203 222.752C375.507 222.934 375.853 223.025 376.243 223.025ZM378.102 224V222.336L378.323 220.828L378.102 219.333V217.825H379.285V224H378.102ZM383.212 224.13C382.865 224.13 382.536 224.087 382.224 224C381.92 223.905 381.639 223.775 381.379 223.61C381.119 223.437 380.893 223.233 380.703 222.999L381.457 222.245C381.682 222.522 381.942 222.73 382.237 222.869C382.531 222.999 382.861 223.064 383.225 223.064C383.589 223.064 383.87 223.003 384.07 222.882C384.269 222.752 384.369 222.574 384.369 222.349C384.369 222.124 384.286 221.95 384.122 221.829C383.966 221.699 383.762 221.595 383.511 221.517C383.259 221.43 382.991 221.348 382.705 221.27C382.427 221.183 382.163 221.075 381.912 220.945C381.66 220.815 381.452 220.637 381.288 220.412C381.132 220.187 381.054 219.888 381.054 219.515C381.054 219.142 381.145 218.822 381.327 218.553C381.509 218.276 381.76 218.063 382.081 217.916C382.41 217.769 382.804 217.695 383.264 217.695C383.749 217.695 384.178 217.782 384.551 217.955C384.932 218.12 385.244 218.371 385.487 218.709L384.733 219.463C384.559 219.238 384.343 219.064 384.083 218.943C383.831 218.822 383.545 218.761 383.225 218.761C382.887 218.761 382.627 218.822 382.445 218.943C382.271 219.056 382.185 219.216 382.185 219.424C382.185 219.632 382.263 219.792 382.419 219.905C382.575 220.018 382.778 220.113 383.03 220.191C383.29 220.269 383.558 220.351 383.836 220.438C384.113 220.516 384.377 220.624 384.629 220.763C384.88 220.902 385.084 221.088 385.24 221.322C385.404 221.556 385.487 221.864 385.487 222.245C385.487 222.826 385.279 223.285 384.863 223.623C384.455 223.961 383.905 224.13 383.212 224.13ZM389.084 224.052L386.406 217.825H387.706L389.695 222.7H389.279L391.372 217.825H392.672L389.786 224.052H389.084ZM387.316 226.587L389.136 222.856L389.786 224.052L388.616 226.587H387.316Z" fill="white"/>
</svg>
