<svg xmlns="http://www.w3.org/2000/svg" width="493" height="269" fill="none">
  <path fill="#0F0F15" d="M.00048828 0h493v269h-493z"/>
  <path stroke="#fff" stroke-opacity=".13" stroke-width="2" d="M1.00049 1h491v267h-491z"/>
  <mask id="a" fill="#fff">
    <path d="M55.0005 34H438v68H55.0005V34Z"/>
  </mask>
  <path fill="#fff" fill-opacity=".13" d="M438 101H55.0005v2H438v-2Z" mask="url(#a)"/>
  <path fill="#fff" d="M108.087 76v-1.428h4.242c1.134 0 2.135-.245 3.003-.735.868-.504 1.547-1.19 2.037-2.058.49-.882.735-1.89.735-3.024 0-1.134-.245-2.135-.735-3.003-.49-.868-1.169-1.547-2.037-2.037-.868-.504-1.869-.756-3.003-.756h-4.2v-1.407h4.242c1.05 0 2.016.182 2.898.546.896.35 1.673.854 2.331 1.512.672.644 1.19 1.407 1.554 2.289.364.868.546 1.827.546 2.877 0 1.022-.182 1.974-.546 2.856-.364.882-.875 1.652-1.533 2.31-.658.644-1.435 1.148-2.331 1.512-.882.364-1.841.546-2.877.546h-4.326Zm-.945 0V61.552h1.533V76h-1.533Zm20.061.21c-.952 0-1.82-.231-2.604-.693-.77-.462-1.386-1.085-1.848-1.869-.448-.784-.672-1.659-.672-2.625 0-.952.224-1.813.672-2.583.462-.77 1.078-1.379 1.848-1.827.784-.462 1.652-.693 2.604-.693.966 0 1.834.224 2.604.672.77.448 1.379 1.064 1.827 1.848.462.77.693 1.631.693 2.583 0 .98-.231 1.862-.693 2.646-.448.77-1.057 1.386-1.827 1.848-.77.462-1.638.693-2.604.693Zm0-1.428c.7 0 1.316-.161 1.848-.483.546-.322.973-.77 1.281-1.344.322-.574.483-1.218.483-1.932s-.161-1.344-.483-1.89c-.308-.56-.735-1.001-1.281-1.323-.532-.322-1.148-.483-1.848-.483-.686 0-1.302.161-1.848.483-.546.322-.973.763-1.281 1.323-.308.546-.462 1.176-.462 1.89 0 .728.154 1.379.462 1.953.308.56.735 1.001 1.281 1.323.546.322 1.162.483 1.848.483Zm12.439 1.428c-.994 0-1.883-.224-2.667-.672-.784-.448-1.407-1.064-1.869-1.848-.448-.784-.672-1.666-.672-2.646 0-.966.224-1.834.672-2.604.448-.784 1.057-1.4 1.827-1.848.77-.448 1.631-.672 2.583-.672.896 0 1.687.203 2.373.609.7.406 1.246.973 1.638 1.701.406.714.609 1.54.609 2.478 0 .112-.007.245-.021.399-.014.14-.042.308-.084.504h-8.547v-1.26h7.749l-.525.462c.014-.728-.112-1.351-.378-1.869-.252-.532-.623-.938-1.113-1.218-.476-.294-1.057-.441-1.743-.441-.714 0-1.337.154-1.869.462-.532.308-.952.742-1.26 1.302-.294.546-.441 1.197-.441 1.953s.154 1.421.462 1.995c.322.574.763 1.022 1.323 1.344.574.322 1.232.483 1.974.483.602 0 1.155-.105 1.659-.315.504-.224.931-.553 1.281-.987l.945.966c-.462.546-1.036.973-1.722 1.281-.672.294-1.4.441-2.184.441Zm10.187 0c-.532 0-1.043-.07-1.533-.21-.49-.154-.938-.364-1.344-.63-.392-.266-.735-.581-1.029-.945l.945-.966c.392.476.833.833 1.323 1.071.504.224 1.064.336 1.68.336.658 0 1.169-.126 1.533-.378.378-.252.567-.602.567-1.05 0-.42-.133-.749-.399-.987s-.609-.427-1.029-.567c-.406-.14-.84-.273-1.302-.399-.462-.14-.903-.308-1.323-.504-.42-.21-.763-.497-1.029-.861-.252-.364-.378-.84-.378-1.428 0-.56.133-1.043.399-1.449.28-.42.672-.742 1.176-.966.518-.238 1.127-.357 1.827-.357.742 0 1.414.133 2.016.399.602.266 1.085.658 1.449 1.176l-.945.945c-.294-.378-.665-.665-1.113-.861-.434-.21-.924-.315-1.47-.315-.63 0-1.113.126-1.449.378-.322.238-.483.553-.483.945 0 .378.133.679.399.903.266.21.602.385 1.008.525.42.126.861.259 1.323.399.462.126.903.301 1.323.525.42.21.756.504 1.008.882.266.364.399.861.399 1.491 0 .882-.322 1.589-.966 2.121-.63.518-1.491.777-2.583.777Zm9.92-.21 5.922-14.448h1.155L172.685 76h-1.659l-5.103-12.768h.609L161.387 76h-1.638Zm2.709-3.759v-1.365h7.56v1.365h-7.56ZM182.564 76v-5.796c0-.868-.259-1.568-.777-2.1-.504-.546-1.176-.819-2.016-.819-.574 0-1.078.126-1.512.378-.434.252-.777.595-1.029 1.029-.252.434-.378.931-.378 1.491l-.672-.378c0-.742.175-1.407.525-1.995.35-.588.819-1.05 1.407-1.386.602-.336 1.288-.504 2.058-.504.756 0 1.428.182 2.016.546.588.364 1.043.854 1.365 1.47.336.616.504 1.288.504 2.016V76h-1.491Zm-7.182 0v-9.87h1.47V76h-1.47Zm18.205 0-5.04-5.061 4.956-4.809h1.827l-5.397 5.187.042-.84L195.54 76h-1.953Zm-6.363 0V61.132h1.47V76h-1.47Zm10.223 0v-9.87h1.491V76h-1.491Zm.735-12.012c-.28 0-.518-.098-.714-.294-.196-.21-.294-.455-.294-.735 0-.294.098-.539.294-.735.196-.196.434-.294.714-.294.308 0 .553.098.735.294.196.196.294.441.294.735 0 .28-.098.525-.294.735-.182.196-.427.294-.735.294ZM207.27 76v-9.87h1.491V76h-1.491Zm.735-12.012c-.28 0-.518-.098-.714-.294-.196-.21-.294-.455-.294-.735 0-.294.098-.539.294-.735.196-.196.434-.294.714-.294.308 0 .553.098.735.294.196.196.294.441.294.735 0 .28-.098.525-.294.735-.182.196-.427.294-.735.294ZM212.16 76v-9.87h1.47V76h-1.47Zm6.783 0v-6.048c0-.812-.245-1.456-.735-1.932-.49-.49-1.106-.735-1.848-.735-.504 0-.966.112-1.386.336-.406.21-.735.511-.987.903-.238.392-.357.861-.357 1.407l-.672-.273c0-.756.168-1.414.504-1.974.336-.56.784-.994 1.344-1.302.574-.308 1.218-.462 1.932-.462.7 0 1.323.154 1.869.462.56.308 1.001.742 1.323 1.302.336.56.504 1.225.504 1.995V76h-1.491Zm6.804 0v-6.048c0-.812-.245-1.456-.735-1.932-.49-.49-1.113-.735-1.869-.735-.49 0-.945.112-1.365.336-.406.21-.735.511-.987.903-.238.392-.357.861-.357 1.407l-.882-.273c.042-.756.238-1.414.588-1.974.364-.56.833-.994 1.407-1.302.588-.308 1.232-.462 1.932-.462s1.33.154 1.89.462c.574.308 1.022.742 1.344 1.302.336.56.504 1.225.504 1.995V76h-1.47Zm9.758.21c-.756 0-1.435-.154-2.037-.462-.602-.308-1.099-.728-1.491-1.26-.378-.546-.609-1.176-.693-1.89v-3.087c.084-.728.322-1.358.714-1.89.392-.546.889-.966 1.491-1.26.616-.294 1.288-.441 2.016-.441.91 0 1.729.231 2.457.693.728.448 1.302 1.064 1.722 1.848.434.77.651 1.645.651 2.625 0 .966-.21 1.834-.63 2.604-.42.77-1.001 1.386-1.743 1.848-.728.448-1.547.672-2.457.672Zm-.252-1.407c.7 0 1.316-.154 1.848-.462.532-.322.945-.763 1.239-1.323.308-.574.462-1.225.462-1.953 0-.742-.154-1.393-.462-1.953-.294-.56-.707-1.001-1.239-1.323-.532-.322-1.141-.483-1.827-.483-.686 0-1.295.161-1.827.483-.518.322-.924.763-1.218 1.323-.294.56-.441 1.211-.441 1.953 0 .728.147 1.379.441 1.953.294.56.7 1.001 1.218 1.323.518.308 1.12.462 1.806.462Zm-4.851 5.355V66.13h1.47v2.52l-.294 2.394.294 2.415v6.699h-1.47ZM243.106 76v-9.87h1.47V76h-1.47Zm1.47-5.754-.609-.273c0-1.246.301-2.233.903-2.961.616-.728 1.456-1.092 2.52-1.092.49 0 .938.091 1.344.273.406.168.784.441 1.134.819l-.966 1.029c-.238-.266-.504-.455-.798-.567-.28-.112-.602-.168-.966-.168-.756 0-1.372.252-1.848.756-.476.49-.714 1.218-.714 2.184Zm11.4 5.964c-.952 0-1.82-.231-2.604-.693-.77-.462-1.386-1.085-1.848-1.869-.448-.784-.672-1.659-.672-2.625 0-.952.224-1.813.672-2.583.462-.77 1.078-1.379 1.848-1.827.784-.462 1.652-.693 2.604-.693.966 0 1.834.224 2.604.672.77.448 1.379 1.064 1.827 1.848.462.77.693 1.631.693 2.583 0 .98-.231 1.862-.693 2.646-.448.77-1.057 1.386-1.827 1.848-.77.462-1.638.693-2.604.693Zm0-1.428c.7 0 1.316-.161 1.848-.483.546-.322.973-.77 1.281-1.344.322-.574.483-1.218.483-1.932s-.161-1.344-.483-1.89c-.308-.56-.735-1.001-1.281-1.323-.532-.322-1.148-.483-1.848-.483-.686 0-1.302.161-1.848.483-.546.322-.973.763-1.281 1.323-.308.546-.462 1.176-.462 1.89 0 .728.154 1.379.462 1.953.308.56.735 1.001 1.281 1.323.546.322 1.162.483 1.848.483ZM266.872 76l-4.557-9.87h1.638l3.843 8.631h-.924l3.864-8.631h1.596L267.733 76h-.861Zm11.849.21c-.994 0-1.883-.224-2.667-.672-.784-.448-1.407-1.064-1.869-1.848-.448-.784-.672-1.666-.672-2.646 0-.966.224-1.834.672-2.604.448-.784 1.057-1.4 1.827-1.848.77-.448 1.631-.672 2.583-.672.896 0 1.687.203 2.373.609.7.406 1.246.973 1.638 1.701.406.714.609 1.54.609 2.478 0 .112-.007.245-.021.399-.014.14-.042.308-.084.504h-8.547v-1.26h7.749l-.525.462c.014-.728-.112-1.351-.378-1.869-.252-.532-.623-.938-1.113-1.218-.476-.294-1.057-.441-1.743-.441-.714 0-1.337.154-1.869.462-.532.308-.952.742-1.26 1.302-.294.546-.441 1.197-.441 1.953s.154 1.421.462 1.995c.322.574.763 1.022 1.323 1.344.574.322 1.232.483 1.974.483.602 0 1.155-.105 1.659-.315.504-.224.931-.553 1.281-.987l.945.966c-.462.546-1.036.973-1.722 1.281-.672.294-1.4.441-2.184.441Zm12.094-.21v-9.87h1.47V76h-1.47Zm1.47-5.754-.609-.273c0-1.246.301-2.233.903-2.961.616-.728 1.456-1.092 2.52-1.092.49 0 .938.091 1.344.273.406.168.784.441 1.134.819l-.966 1.029c-.238-.266-.504-.455-.798-.567-.28-.112-.602-.168-.966-.168-.756 0-1.372.252-1.848.756-.476.49-.714 1.218-.714 2.184Zm11.485 5.964c-.994 0-1.883-.224-2.667-.672-.784-.448-1.407-1.064-1.869-1.848-.448-.784-.672-1.666-.672-2.646 0-.966.224-1.834.672-2.604.448-.784 1.057-1.4 1.827-1.848.77-.448 1.631-.672 2.583-.672.896 0 1.687.203 2.373.609.7.406 1.246.973 1.638 1.701.406.714.609 1.54.609 2.478 0 .112-.007.245-.021.399-.014.14-.042.308-.084.504h-8.547v-1.26h7.749l-.525.462c.014-.728-.112-1.351-.378-1.869-.252-.532-.623-.938-1.113-1.218-.476-.294-1.057-.441-1.743-.441-.714 0-1.337.154-1.869.462-.532.308-.952.742-1.26 1.302-.294.546-.441 1.197-.441 1.953s.154 1.421.462 1.995c.322.574.763 1.022 1.323 1.344.574.322 1.232.483 1.974.483.602 0 1.155-.105 1.659-.315.504-.224.931-.553 1.281-.987l.945.966c-.462.546-1.036.973-1.722 1.281-.672.294-1.4.441-2.184.441Zm8.326-.21V61.972h1.47V76h-1.47Zm-2.499-8.547V66.13h6.447v1.323h-6.447Zm13.101 8.757c-.994 0-1.883-.224-2.667-.672-.784-.448-1.407-1.064-1.869-1.848-.448-.784-.672-1.666-.672-2.646 0-.966.224-1.834.672-2.604.448-.784 1.057-1.4 1.827-1.848.77-.448 1.631-.672 2.583-.672.896 0 1.687.203 2.373.609.7.406 1.246.973 1.638 1.701.406.714.609 1.54.609 2.478 0 .112-.007.245-.021.399-.014.14-.042.308-.084.504h-8.547v-1.26h7.749l-.525.462c.014-.728-.112-1.351-.378-1.869-.252-.532-.623-.938-1.113-1.218-.476-.294-1.057-.441-1.743-.441-.714 0-1.337.154-1.869.462-.532.308-.952.742-1.26 1.302-.294.546-.441 1.197-.441 1.953s.154 1.421.462 1.995c.322.574.763 1.022 1.323 1.344.574.322 1.232.483 1.974.483.602 0 1.155-.105 1.659-.315.504-.224.931-.553 1.281-.987l.945.966c-.462.546-1.036.973-1.722 1.281-.672.294-1.4.441-2.184.441Zm14.344-.21v-5.796c0-.868-.259-1.568-.777-2.1-.504-.546-1.176-.819-2.016-.819-.574 0-1.078.126-1.512.378-.434.252-.777.595-1.029 1.029-.252.434-.378.931-.378 1.491l-.672-.378c0-.742.175-1.407.525-1.995.35-.588.819-1.05 1.407-1.386.602-.336 1.288-.504 2.058-.504.756 0 1.428.182 2.016.546.588.364 1.043.854 1.365 1.47.336.616.504 1.288.504 2.016V76h-1.491Zm-7.182 0v-9.87h1.47V76h-1.47Zm13.253 0V61.972h1.47V76h-1.47Zm-2.499-8.547V66.13h6.447v1.323h-6.447ZM349.506 76v-9.87h1.491V76h-1.491Zm.735-12.012c-.28 0-.518-.098-.714-.294-.196-.21-.294-.455-.294-.735 0-.294.098-.539.294-.735.196-.196.434-.294.714-.294.308 0 .553.098.735.294.196.196.294.441.294.735 0 .28-.098.525-.294.735-.182.196-.427.294-.735.294Zm8.629 12.222c-.952 0-1.82-.231-2.604-.693-.77-.462-1.386-1.085-1.848-1.869-.448-.784-.672-1.659-.672-2.625 0-.952.224-1.813.672-2.583.462-.77 1.078-1.379 1.848-1.827.784-.462 1.652-.693 2.604-.693.966 0 1.834.224 2.604.672.77.448 1.379 1.064 1.827 1.848.462.77.693 1.631.693 2.583 0 .98-.231 1.862-.693 2.646-.448.77-1.057 1.386-1.827 1.848-.77.462-1.638.693-2.604.693Zm0-1.428c.7 0 1.316-.161 1.848-.483.546-.322.973-.77 1.281-1.344.322-.574.483-1.218.483-1.932s-.161-1.344-.483-1.89c-.308-.56-.735-1.001-1.281-1.323-.532-.322-1.148-.483-1.848-.483-.686 0-1.302.161-1.848.483-.546.322-.973.763-1.281 1.323-.308.546-.462 1.176-.462 1.89 0 .728.154 1.379.462 1.953.308.56.735 1.001 1.281 1.323.546.322 1.162.483 1.848.483ZM373.934 76v-5.796c0-.868-.259-1.568-.777-2.1-.504-.546-1.176-.819-2.016-.819-.574 0-1.078.126-1.512.378-.434.252-.777.595-1.029 1.029-.252.434-.378.931-.378 1.491l-.672-.378c0-.742.175-1.407.525-1.995.35-.588.819-1.05 1.407-1.386.602-.336 1.288-.504 2.058-.504.756 0 1.428.182 2.016.546.588.364 1.043.854 1.365 1.47.336.616.504 1.288.504 2.016V76h-1.491Zm-7.182 0v-9.87h1.47V76h-1.47Zm15.056-4.389-.021-3.927h.525c.532-.014.994-.14 1.386-.378.406-.252.721-.581.945-.987.224-.406.336-.861.336-1.365 0-.49-.112-.931-.336-1.323-.21-.392-.518-.7-.924-.924-.406-.224-.889-.336-1.449-.336-.728 0-1.351.175-1.869.525-.504.35-.91.812-1.218 1.386l-1.092-.924c.392-.742.952-1.33 1.68-1.764.742-.448 1.596-.672 2.562-.672.84 0 1.568.168 2.184.504.63.336 1.12.805 1.47 1.407.35.588.525 1.267.525 2.037 0 .728-.161 1.386-.483 1.974-.322.588-.777 1.071-1.365 1.449-.588.378-1.274.616-2.058.714l.609-.672-.147 3.276h-1.26Zm.609 4.599c-.336 0-.616-.119-.84-.357-.224-.238-.336-.518-.336-.84 0-.35.112-.637.336-.861.224-.238.504-.357.84-.357.35 0 .637.119.861.357.224.224.336.511.336.861 0 .322-.112.602-.336.84-.224.238-.511.357-.861.357Zm-145.331 61.826-5.733-8.484h1.806l4.767 7.119h-.756l4.809-7.119h1.743l-5.775 8.484h-.861Zm-.315 5.964v-7.077h1.554V144h-1.554Zm11.04.21c-.994 0-1.883-.224-2.667-.672-.784-.448-1.407-1.064-1.869-1.848-.448-.784-.672-1.666-.672-2.646 0-.966.224-1.834.672-2.604.448-.784 1.057-1.4 1.827-1.848.77-.448 1.631-.672 2.583-.672.896 0 1.687.203 2.373.609.7.406 1.246.973 1.638 1.701.406.714.609 1.54.609 2.478 0 .112-.007.245-.021.399-.014.14-.042.308-.084.504h-8.547v-1.26h7.749l-.525.462c.014-.728-.112-1.351-.378-1.869-.252-.532-.623-.938-1.113-1.218-.476-.294-1.057-.441-1.743-.441-.714 0-1.337.154-1.869.462-.532.308-.952.742-1.26 1.302-.294.546-.441 1.197-.441 1.953s.154 1.421.462 1.995c.322.574.763 1.022 1.323 1.344.574.322 1.232.483 1.974.483.602 0 1.155-.105 1.659-.315.504-.224.931-.553 1.281-.987l.945.966c-.462.546-1.036.973-1.722 1.281-.672.294-1.4.441-2.184.441Zm10.187 0c-.532 0-1.043-.07-1.533-.21-.49-.154-.938-.364-1.344-.63-.392-.266-.735-.581-1.029-.945l.945-.966c.392.476.833.833 1.323 1.071.504.224 1.064.336 1.68.336.658 0 1.169-.126 1.533-.378.378-.252.567-.602.567-1.05 0-.42-.133-.749-.399-.987s-.609-.427-1.029-.567c-.406-.14-.84-.273-1.302-.399-.462-.14-.903-.308-1.323-.504-.42-.21-.763-.497-1.029-.861-.252-.364-.378-.84-.378-1.428 0-.56.133-1.043.399-1.449.28-.42.672-.742 1.176-.966.518-.238 1.127-.357 1.827-.357.742 0 1.414.133 2.016.399.602.266 1.085.658 1.449 1.176l-.945.945c-.294-.378-.665-.665-1.113-.861-.434-.21-.924-.315-1.47-.315-.63 0-1.113.126-1.449.378-.322.238-.483.553-.483.945 0 .378.133.679.399.903.266.21.602.385 1.008.525.42.126.861.259 1.323.399.462.126.903.301 1.323.525.42.21.756.504 1.008.882.266.364.399.861.399 1.491 0 .882-.322 1.589-.966 2.121-.63.518-1.491.777-2.583.777Z"/>
  <path fill="#8B9297" d="m107.53 193.757-4.675-2.09v-.715l4.675-2.09v1.001l-3.861 1.639v-.374l3.861 1.639v.99Zm5.399 1.243v-7.634h1.023V195h-1.023Zm-1.562-6.71v-.924h2.475v.924h-2.475Zm4.419 6.71v-5.225h.99V195h-.99Zm3.531 0v-3.157c0-.389-.121-.693-.363-.913-.235-.227-.532-.341-.891-.341-.242 0-.458.051-.649.154-.191.103-.345.246-.462.429-.117.183-.176.403-.176.66l-.407-.198c0-.396.084-.741.253-1.034.176-.293.414-.521.715-.682.301-.169.638-.253 1.012-.253.367 0 .697.081.99.242.301.161.535.389.704.682.176.293.264.642.264 1.045V195h-.99Zm3.531 0v-3.157c0-.389-.121-.693-.363-.913-.235-.227-.528-.341-.88-.341-.242 0-.462.051-.66.154-.191.103-.345.246-.462.429-.117.183-.176.403-.176.66l-.561-.198c.022-.403.128-.748.319-1.034.198-.293.451-.521.759-.682.308-.169.645-.253 1.012-.253.381 0 .722.081 1.023.242.301.161.539.389.715.682.183.293.275.645.275 1.056V195h-1.001Z"/>
  <path stroke="#fff" stroke-opacity=".13" d="M76.5005 203.5h74.5v31h-74.5z"/>
  <path fill="#fff" d="m96.6535 224 3.6915-9.022h.884l3.679 9.022h-1.326l-3.029-7.631h.455L97.9535 224h-1.3Zm1.755-2.041v-1.066h4.7445v1.066h-4.7445Zm10.1795 4.758c-.633 0-1.196-.117-1.69-.351-.486-.234-.876-.563-1.17-.988l.754-.767c.251.321.55.563.897.728.346.173.758.26 1.235.26.632 0 1.131-.169 1.495-.507.372-.329.559-.776.559-1.339v-1.534l.208-1.391-.208-1.378v-1.625h1.17v5.928c0 .589-.139 1.105-.416 1.547-.269.442-.65.789-1.144 1.04-.486.251-1.049.377-1.69.377Zm0-2.821c-.564 0-1.071-.134-1.521-.403-.442-.269-.793-.637-1.053-1.105-.26-.477-.39-1.01-.39-1.599s.13-1.114.39-1.573c.26-.468.611-.836 1.053-1.105.45-.277.957-.416 1.521-.416.485 0 .914.095 1.287.286.372.191.667.459.884.806.225.338.346.737.364 1.196v1.638c-.026.451-.152.849-.377 1.196-.217.338-.512.602-.884.793-.373.191-.798.286-1.274.286Zm.234-1.105c.381 0 .715-.082 1.001-.247.294-.165.52-.394.676-.689.156-.303.234-.654.234-1.053 0-.399-.083-.745-.247-1.04-.156-.303-.377-.537-.663-.702-.286-.173-.624-.26-1.014-.26s-.733.087-1.027.26c-.295.165-.529.399-.702.702-.165.295-.247.637-.247 1.027 0 .39.082.737.247 1.04.173.303.407.542.702.715.303.165.65.247 1.04.247Zm7.619 1.339c-.563 0-1.075-.139-1.534-.416-.459-.286-.823-.672-1.092-1.157-.26-.485-.39-1.031-.39-1.638s.13-1.153.39-1.638c.269-.485.628-.871 1.079-1.157.459-.286.975-.429 1.547-.429.468 0 .884.1 1.248.299.373.191.672.459.897.806.225.338.351.732.377 1.183v1.859c-.026.442-.152.836-.377 1.183-.217.347-.511.62-.884.819-.364.191-.784.286-1.261.286Zm.195-1.105c.581 0 1.049-.195 1.404-.585.355-.399.533-.906.533-1.521 0-.425-.082-.793-.247-1.105-.156-.321-.381-.568-.676-.741-.295-.182-.637-.273-1.027-.273-.39 0-.737.091-1.04.273-.295.182-.529.433-.702.754-.165.312-.247.672-.247 1.079 0 .416.082.784.247 1.105.173.312.412.559.715.741.303.182.65.273 1.04.273Zm1.859.975v-1.664l.221-1.508-.221-1.495v-1.508h1.183V224h-1.183Zm3.159 0v-6.175h1.17V224h-1.17Zm.585-7.41c-.216 0-.394-.069-.533-.208-.138-.147-.208-.329-.208-.546 0-.208.07-.381.208-.52.139-.147.317-.221.533-.221.217 0 .395.074.533.221.139.139.208.312.208.52 0 .217-.069.399-.208.546-.138.139-.316.208-.533.208Zm6.938 7.41v-3.601c0-.468-.148-.854-.442-1.157-.295-.303-.676-.455-1.144-.455-.312 0-.59.069-.832.208-.243.139-.434.329-.572.572-.139.243-.208.52-.208.832l-.481-.273c0-.468.104-.884.312-1.248.208-.364.498-.65.871-.858.372-.217.793-.325 1.261-.325.468 0 .879.117 1.235.351.364.234.65.542.858.923.208.373.312.771.312 1.196V224h-1.17Zm-4.368 0v-6.175h1.17V224h-1.17Z"/>
  <path fill="#8B9297" d="m195.03 193.757-4.675-2.09v-.715l4.675-2.09v1.001l-3.861 1.639v-.374l3.861 1.639v.99Zm6.598 1.353c-.506 0-.96-.117-1.364-.352-.396-.235-.711-.55-.946-.946-.234-.396-.352-.836-.352-1.32 0-.675.235-1.346.704-2.013l2.244-3.113h1.199l-2.299 3.135-.374.198c.088-.154.195-.282.319-.385.125-.11.279-.194.462-.253.184-.059.4-.088.649-.088.448 0 .851.106 1.21.319.367.213.66.506.88.88.228.367.341.796.341 1.287 0 .484-.121.928-.363 1.331-.234.403-.557.726-.968.968-.403.235-.85.352-1.342.352Zm0-.968c.308 0 .583-.073.825-.22.25-.154.444-.356.583-.605.147-.257.22-.543.22-.858 0-.315-.073-.598-.22-.847-.139-.257-.333-.458-.583-.605-.242-.147-.517-.22-.825-.22-.308 0-.586.073-.836.22-.242.147-.436.348-.583.605-.139.249-.209.532-.209.847 0 .315.07.601.209.858.147.257.341.458.583.605.25.147.528.22.836.22Zm4.053.858v-5.225h.99V195h-.99Zm3.531 0v-3.157c0-.389-.121-.693-.363-.913-.234-.227-.531-.341-.891-.341-.242 0-.458.051-.649.154-.19.103-.344.246-.462.429-.117.183-.176.403-.176.66l-.407-.198c0-.396.085-.741.253-1.034.176-.293.415-.521.715-.682.301-.169.638-.253 1.012-.253.367 0 .697.081.99.242.301.161.536.389.704.682.176.293.264.642.264 1.045V195h-.99Zm3.531 0v-3.157c0-.389-.121-.693-.363-.913-.234-.227-.528-.341-.88-.341-.242 0-.462.051-.66.154-.19.103-.344.246-.462.429-.117.183-.176.403-.176.66l-.561-.198c.022-.403.129-.748.319-1.034.198-.293.451-.521.759-.682.308-.169.646-.253 1.012-.253.382 0 .723.081 1.023.242.301.161.539.389.715.682.184.293.275.645.275 1.056V195h-1.001Z"/>
  <path stroke="#fff" stroke-opacity=".13" d="M165 203.5h74.5v31H165z"/>
  <path fill="#fff" d="M187.816 224v-9.022h1.222V224h-1.222Zm5.824 0v-9.022h1.222V224h-1.222Zm-4.992-4.108v-1.118h5.291v1.118h-5.291Zm11.025 4.238c-.563 0-1.074-.139-1.534-.416-.459-.286-.823-.672-1.092-1.157-.26-.485-.39-1.031-.39-1.638s.13-1.153.39-1.638c.269-.485.629-.871 1.079-1.157.46-.286.975-.429 1.547-.429.468 0 .884.1 1.248.299.373.191.672.459.897.806.226.338.351.732.377 1.183v1.859c-.026.442-.151.836-.377 1.183-.216.347-.511.62-.884.819-.364.191-.784.286-1.261.286Zm.195-1.105c.581 0 1.049-.195 1.404-.585.356-.399.533-.906.533-1.521 0-.425-.082-.793-.247-1.105-.156-.321-.381-.568-.676-.741-.294-.182-.637-.273-1.027-.273-.39 0-.736.091-1.04.273-.294.182-.528.433-.702.754-.164.312-.247.672-.247 1.079 0 .416.083.784.247 1.105.174.312.412.559.715.741.304.182.65.273 1.04.273Zm1.859.975v-1.664l.221-1.508-.221-1.495v-1.508h1.183V224h-1.183Zm3.147 0v-6.175h1.17V224h-1.17Zm1.17-3.523-.442-.195c0-.789.182-1.417.546-1.885.364-.468.888-.702 1.573-.702.312 0 .593.056.845.169.251.104.485.282.702.533l-.767.793c-.13-.139-.273-.238-.429-.299-.156-.061-.338-.091-.546-.091-.434 0-.789.139-1.066.416-.278.277-.416.698-.416 1.261Zm6.717 3.653c-.572 0-1.083-.139-1.534-.416-.45-.286-.81-.672-1.079-1.157-.26-.485-.39-1.031-.39-1.638s.13-1.153.39-1.638c.269-.485.629-.871 1.079-1.157.451-.286.962-.429 1.534-.429.46 0 .876.1 1.248.299.373.191.672.459.897.806.234.338.364.732.39 1.183v1.859c-.026.442-.151.836-.377 1.183-.225.347-.524.62-.897.819-.372.191-.793.286-1.261.286Zm.195-1.105c.39 0 .728-.091 1.014-.273.295-.182.525-.429.689-.741.165-.321.247-.685.247-1.092 0-.425-.086-.793-.26-1.105-.164-.312-.394-.559-.689-.741-.286-.182-.624-.273-1.014-.273s-.732.091-1.027.273c-.294.182-.528.433-.702.754-.164.312-.247.672-.247 1.079 0 .416.083.784.247 1.105.174.312.408.559.702.741.304.182.65.273 1.04.273Zm3.055.975h-1.183v-1.664l.221-1.508-.221-1.495v-4.615h1.183V224Z"/>
  <path fill="#8B9297" d="m281.03 193.757-4.675-2.09v-.715l4.675-2.09v1.001l-3.861 1.639v-.374l3.861 1.639v.99Zm5.399 1.243v-7.634h1.023V195h-1.023Zm-1.562-6.71v-.924h2.475v.924h-2.475Zm7.323 6.82c-.572 0-1.096-.161-1.573-.484-.469-.323-.843-.777-1.122-1.364-.279-.594-.418-1.291-.418-2.09 0-.799.136-1.492.407-2.079.279-.587.653-1.038 1.122-1.353.469-.323.986-.484 1.551-.484.579 0 1.104.161 1.573.484.469.315.84.766 1.111 1.353.279.587.418 1.283.418 2.09 0 .799-.139 1.496-.418 2.09-.271.587-.642 1.041-1.111 1.364-.462.315-.975.473-1.54.473Zm-.022-.979c.403 0 .755-.11 1.056-.33.308-.227.55-.561.726-1.001.176-.44.264-.983.264-1.628 0-.645-.088-1.184-.264-1.617-.176-.44-.418-.77-.726-.99-.308-.227-.664-.341-1.067-.341-.396 0-.748.114-1.056.341-.308.22-.55.55-.726.99-.169.433-.253.972-.253 1.617s.084 1.188.253 1.628c.176.44.418.774.726 1.001.308.22.664.33 1.067.33Zm4.557.869v-5.225h.99V195h-.99Zm3.531 0v-3.157c0-.389-.121-.693-.363-.913-.235-.227-.532-.341-.891-.341-.242 0-.459.051-.649.154-.191.103-.345.246-.462.429-.118.183-.176.403-.176.66l-.407-.198c0-.396.084-.741.253-1.034.176-.293.414-.521.715-.682.3-.169.638-.253 1.012-.253.366 0 .696.081.99.242.3.161.535.389.704.682.176.293.264.642.264 1.045V195h-.99Zm3.531 0v-3.157c0-.389-.121-.693-.363-.913-.235-.227-.528-.341-.88-.341-.242 0-.462.051-.66.154-.191.103-.345.246-.462.429-.118.183-.176.403-.176.66l-.561-.198c.022-.403.128-.748.319-1.034.198-.293.451-.521.759-.682.308-.169.645-.253 1.012-.253.381 0 .722.081 1.023.242.3.161.539.389.715.682.183.293.275.645.275 1.056V195h-1.001Z"/>
  <path stroke="#fff" stroke-opacity=".13" d="M253.5 203.5H328v31h-74.5z"/>
  <path fill="#fff" d="M278.898 224.13c-.632 0-1.226-.117-1.781-.351-.546-.243-1.027-.576-1.443-1.001-.407-.425-.728-.919-.962-1.482-.234-.563-.351-1.17-.351-1.82 0-.65.117-1.252.351-1.807.234-.563.559-1.057.975-1.482.416-.425.902-.754 1.456-.988.564-.234 1.175-.351 1.833-.351.72 0 1.383.139 1.989.416.607.277 1.114.676 1.521 1.196l-.845.845c-.286-.416-.663-.732-1.131-.949-.468-.225-.979-.338-1.534-.338-.658 0-1.243.147-1.755.442-.502.295-.897.702-1.183 1.222-.277.52-.416 1.118-.416 1.794 0 .685.143 1.287.429 1.807.286.52.672.927 1.157 1.222.486.295 1.04.442 1.664.442.633 0 1.179-.121 1.638-.364.468-.243.828-.598 1.079-1.066.252-.477.377-1.057.377-1.742l.741.533h-3.9v-1.118h4.42v.182c0 1.049-.186 1.928-.559 2.639-.364.702-.875 1.231-1.534 1.586-.65.355-1.395.533-2.236.533Zm8.846 0c-.606 0-1.152-.143-1.638-.429-.485-.286-.871-.672-1.157-1.157-.286-.494-.429-1.044-.429-1.651 0-.598.143-1.135.429-1.612.286-.485.672-.871 1.157-1.157.486-.286 1.032-.429 1.638-.429.598 0 1.14.143 1.625.429.494.277.884.659 1.17 1.144.286.485.429 1.027.429 1.625 0 .607-.143 1.157-.429 1.651-.286.485-.676.871-1.17 1.157-.485.286-1.027.429-1.625.429Zm0-1.131c.39 0 .737-.091 1.04-.273.304-.182.542-.429.715-.741.174-.321.26-.685.26-1.092 0-.399-.091-.754-.273-1.066-.173-.312-.411-.555-.715-.728-.294-.182-.637-.273-1.027-.273-.39 0-.736.091-1.04.273-.303.173-.541.416-.715.728-.173.312-.26.667-.26 1.066 0 .407.087.771.26 1.092.174.312.412.559.715.741.304.182.65.273 1.04.273Zm7.623 1.131c-.606 0-1.152-.143-1.638-.429-.485-.286-.871-.672-1.157-1.157-.286-.494-.429-1.044-.429-1.651 0-.598.143-1.135.429-1.612.286-.485.672-.871 1.157-1.157.486-.286 1.032-.429 1.638-.429.598 0 1.14.143 1.625.429.494.277.884.659 1.17 1.144.286.485.429 1.027.429 1.625 0 .607-.143 1.157-.429 1.651-.286.485-.676.871-1.17 1.157-.485.286-1.027.429-1.625.429Zm0-1.131c.39 0 .737-.091 1.04-.273.304-.182.542-.429.715-.741.174-.321.26-.685.26-1.092 0-.399-.091-.754-.273-1.066-.173-.312-.411-.555-.715-.728-.294-.182-.637-.273-1.027-.273-.39 0-.736.091-1.04.273-.303.173-.541.416-.715.728-.173.312-.26.667-.26 1.066 0 .407.087.771.26 1.092.174.312.412.559.715.741.304.182.65.273 1.04.273Zm7.416 1.131c-.572 0-1.084-.139-1.534-.416-.451-.286-.811-.672-1.079-1.157-.26-.485-.39-1.031-.39-1.638s.13-1.153.39-1.638c.268-.485.628-.871 1.079-1.157.45-.286.962-.429 1.534-.429.459 0 .875.1 1.248.299.372.191.671.459.897.806.234.338.364.732.39 1.183v1.859c-.026.442-.152.836-.377 1.183-.226.347-.525.62-.897.819-.373.191-.793.286-1.261.286Zm.195-1.105c.39 0 .728-.091 1.014-.273.294-.182.524-.429.689-.741.164-.321.247-.685.247-1.092 0-.425-.087-.793-.26-1.105-.165-.312-.395-.559-.689-.741-.286-.182-.624-.273-1.014-.273s-.733.091-1.027.273c-.295.182-.529.433-.702.754-.165.312-.247.672-.247 1.079 0 .416.082.784.247 1.105.173.312.407.559.702.741.303.182.65.273 1.04.273Zm3.055.975h-1.183v-1.664l.221-1.508-.221-1.495v-4.615h1.183V224Z"/>
  <path fill="#8B9297" d="M375.478 195.11c-.52 0-.986-.092-1.397-.275-.403-.191-.744-.466-1.023-.825l.704-.704c.169.257.4.462.693.616.301.147.635.22 1.001.22.345 0 .646-.066.902-.198.264-.132.47-.315.616-.55.154-.242.231-.528.231-.858 0-.337-.073-.623-.22-.858-.146-.235-.344-.411-.594-.528-.242-.125-.509-.187-.803-.187-.3 0-.575.037-.825.11-.242.073-.473.198-.693.374l.011-.66c.125-.154.268-.279.429-.374.162-.095.345-.169.55-.22.206-.051.444-.077.715-.077.528 0 .976.11 1.342.33.367.22.646.517.836.891.198.374.297.792.297 1.254 0 .484-.121.917-.363 1.298-.234.381-.561.682-.979.902-.418.213-.894.319-1.43.319Zm-1.408-3.663-.561-.561.341-3.52h.946l-.385 3.619-.341.462Zm-.011-3.157-.209-.924h4.015v.924h-3.806Zm7.8 6.82c-.484 0-.917-.117-1.298-.352-.382-.242-.686-.568-.913-.979-.22-.411-.33-.873-.33-1.386 0-.513.11-.975.33-1.386.227-.411.531-.737.913-.979.381-.242.814-.363 1.298-.363.388 0 .74.084 1.056.253.315.161.568.389.759.682.198.286.308.62.33 1.001v1.573c-.022.374-.129.708-.319 1.001-.191.293-.444.524-.759.693-.316.161-.671.242-1.067.242Zm.165-.935c.33 0 .616-.077.858-.231.249-.154.443-.363.583-.627.139-.271.209-.579.209-.924 0-.359-.074-.671-.22-.935-.14-.264-.334-.473-.583-.627-.242-.154-.528-.231-.858-.231-.33 0-.62.077-.869.231-.25.154-.448.367-.594.638-.14.264-.209.568-.209.913 0 .352.069.664.209.935.146.264.344.473.594.627.256.154.55.231.88.231Zm2.585.825h-1.001v-1.408l.187-1.276-.187-1.265v-3.905h1.001V195Z"/>
  <path stroke="#fff" stroke-opacity=".13" d="M342 203.5h74.5v31H342z"/>
  <path fill="#fff" d="M365.816 224v-9.022h1.222V224h-1.222Zm.832 0v-1.118h5.174V224h-5.174Zm0-4.082v-1.066h4.745v1.066h-4.745Zm0-3.822v-1.118h5.109v1.118h-5.109Zm9.4 8.034c-.563 0-1.074-.139-1.534-.416-.459-.286-.823-.672-1.092-1.157-.26-.485-.39-1.031-.39-1.638s.13-1.153.39-1.638c.269-.485.629-.871 1.079-1.157.46-.286.975-.429 1.547-.429.468 0 .884.1 1.248.299.373.191.672.459.897.806.226.338.351.732.377 1.183v1.859c-.026.442-.151.836-.377 1.183-.216.347-.511.62-.884.819-.364.191-.784.286-1.261.286Zm.195-1.105c.581 0 1.049-.195 1.404-.585.356-.399.533-.906.533-1.521 0-.425-.082-.793-.247-1.105-.156-.321-.381-.568-.676-.741-.294-.182-.637-.273-1.027-.273-.39 0-.736.091-1.04.273-.294.182-.528.433-.702.754-.164.312-.247.672-.247 1.079 0 .416.083.784.247 1.105.174.312.412.559.715.741.304.182.65.273 1.04.273Zm1.859.975v-1.664l.221-1.508-.221-1.495v-1.508h1.183V224h-1.183Zm5.11.13c-.347 0-.676-.043-.988-.13-.304-.095-.585-.225-.845-.39-.26-.173-.486-.377-.676-.611l.754-.754c.225.277.485.485.78.624.294.13.624.195.988.195s.645-.061.845-.182c.199-.13.299-.308.299-.533 0-.225-.083-.399-.247-.52-.156-.13-.36-.234-.611-.312-.252-.087-.52-.169-.806-.247-.278-.087-.542-.195-.793-.325-.252-.13-.46-.308-.624-.533-.156-.225-.234-.524-.234-.897s.091-.693.273-.962c.182-.277.433-.49.754-.637.329-.147.723-.221 1.183-.221.485 0 .914.087 1.287.26.381.165.693.416.936.754l-.754.754c-.174-.225-.39-.399-.65-.52-.252-.121-.538-.182-.858-.182-.338 0-.598.061-.78.182-.174.113-.26.273-.26.481 0 .208.078.368.234.481.156.113.359.208.611.286.26.078.528.16.806.247.277.078.541.186.793.325.251.139.455.325.611.559.164.234.247.542.247.923 0 .581-.208 1.04-.624 1.378-.408.338-.958.507-1.651.507Zm5.872-.078-2.678-6.227h1.3l1.989 4.875h-.416l2.093-4.875h1.3l-2.886 6.227h-.702Zm-1.768 2.535 1.82-3.731.65 1.196-1.17 2.535h-1.3Z"/>
</svg>
